<svg width="144" height="32" viewBox="0 0 144 32" fill="none" xmlns="http://www.w3.org/2000/svg">
<g clip-path="url(#clip0_2019_699)">
<g filter="url(#filter0_i_2019_699)">
<path d="M22.4827 32C22.9009 32 23.302 31.8339 23.5977 31.5382L31.5382 23.5977C31.8339 23.302 32 22.9009 32 22.4827L32 9.51725C32 9.09905 31.8339 8.69798 31.5382 8.40227L23.5977 0.461841C23.302 0.166129 22.901 0 22.4828 0H9.51725C9.09905 0 8.69798 0.166129 8.40227 0.461841L0.461841 8.40227C0.166129 8.69798 -4.98532e-07 9.09905 0 9.51725L1.54561e-05 22.4827C1.59546e-05 22.9009 0.166145 23.302 0.461856 23.5977L8.40228 31.5382C8.69799 31.8339 9.09907 32 9.51727 32H22.4827ZM14.662 8.25087L23.0165 8.25088C23.4519 8.25088 23.8049 8.60387 23.8049 9.03929V17.3937C23.8049 20.8502 20.9617 23.6934 17.5052 23.6934H9.1508C8.71537 23.6934 8.36238 23.3404 8.36238 22.905L8.36237 14.5505C8.36237 11.0941 11.1498 8.30662 14.662 8.25087Z" fill="url(#paint0_linear_2019_699)"/>
</g>
<g filter="url(#filter1_ddi_2019_699)">
<path d="M23.0174 8.25075L14.6629 8.25073C11.1507 8.30648 8.36328 11.0939 8.36328 14.5504L8.3633 22.9048C8.3633 23.3403 8.71628 23.6932 9.15171 23.6932H17.5061C20.9626 23.6932 23.8058 20.85 23.8058 17.3936V9.03916C23.8058 8.60373 23.4528 8.25075 23.0174 8.25075Z" fill="white"/>
<path d="M23.0174 8.25075L14.6629 8.25073C11.1507 8.30648 8.36328 11.0939 8.36328 14.5504L8.3633 22.9048C8.3633 23.3403 8.71628 23.6932 9.15171 23.6932H17.5061C20.9626 23.6932 23.8058 20.85 23.8058 17.3936V9.03916C23.8058 8.60373 23.4528 8.25075 23.0174 8.25075Z" fill="url(#paint1_radial_2019_699)"/>
<path d="M8.5451 14.5504C8.5451 11.1964 11.2494 8.4875 14.6644 8.43255L23.0174 8.43257C23.3524 8.43257 23.624 8.70415 23.624 9.03916V17.3936C23.624 20.7496 20.8622 23.5114 17.5061 23.5114H9.15171C8.8167 23.5114 8.54511 23.2398 8.54511 22.9048L8.5451 14.5504Z" stroke="url(#paint2_linear_2019_699)" stroke-width="0.363636"/>
</g>
<path d="M52.6228 28.4684C45.6977 28.4684 40.8133 23.4167 40.8133 16.2575C40.8133 9.13164 45.6977 4.11345 52.6228 4.11345C59.5479 4.11345 64.3988 9.13164 64.3988 16.2575C64.3988 23.4167 59.5479 28.4684 52.6228 28.4684ZM52.6228 24.9222C57.1057 24.9222 60.217 21.4095 60.217 16.2909C60.217 11.1724 57.1057 7.65964 52.6228 7.65964C48.1064 7.65964 44.9951 11.1724 44.9951 16.2575C44.9951 21.376 48.1064 24.9222 52.6228 24.9222ZM77.5088 14.5847H72.7248V22.7142C72.7248 24.0858 73.0593 25.1229 74.8993 25.1229C75.7691 25.1229 76.4382 24.8887 77.1408 24.5207V27.8662C76.4048 28.2342 75.3677 28.4684 74.1633 28.4684C69.1786 28.4684 68.911 24.5542 68.911 22.7476V14.5847H65.7328V11.2727H68.911V6.82327H72.7248V11.2727H77.5088V14.5847ZM86.4317 10.8044C91.3161 10.8044 93.7917 13.8487 93.7917 18.4989V28H90.279V25.0895C89.0412 27.2305 87.0005 28.4684 84.2572 28.4684C80.711 28.4684 78.503 26.3942 78.503 23.4836C78.503 20.1047 81.447 18.064 86.1641 18.064C87.4688 18.064 88.807 18.2313 89.9779 18.4989C89.9779 15.9564 89.0746 14.1164 86.3983 14.1164C84.391 14.1164 83.1532 15.12 83.5546 16.9935H79.7074C78.8041 13.28 82.0826 10.8044 86.4317 10.8044ZM85.0266 25.424C87.4688 25.424 89.4761 23.8516 90.1117 21.4095C89.0077 21.0415 87.6695 20.8407 86.4652 20.8407C83.7219 20.8407 82.3837 21.8444 82.3837 23.3833C82.3837 24.7215 83.3874 25.424 85.0266 25.424ZM107.85 21.7105C110.159 22.7811 111.932 24.9222 112.634 28H108.218C107.683 24.9556 105.743 23.1156 103.233 22.8815V20.272C105.91 20.272 107.616 18.8 107.616 16.8262C107.616 15.12 106.345 14.1833 104.672 14.1833C102.096 14.1833 100.289 16.3913 100.289 19.8036V28H96.4757V4.58182H100.289V14.384C101.293 12.1425 103.367 10.8044 106.044 10.8044C109.456 10.8044 111.597 12.9789 111.597 16.1571C111.597 18.7331 110.159 20.7404 107.85 21.7105ZM125.813 22.7142H129.961C128.991 26.2269 126.013 28.4684 121.832 28.4684C116.613 28.4684 113.301 24.9556 113.301 19.6364C113.301 14.3171 116.646 10.8044 121.932 10.8044C127.82 10.8044 130.864 15.2204 129.259 20.7069H117.349C117.683 23.4836 119.222 25.1229 121.899 25.1229C123.772 25.1229 125.244 24.2531 125.813 22.7142ZM121.865 14.016C119.356 14.016 117.817 15.4211 117.416 17.9971H125.645C125.88 15.5884 124.508 14.016 121.865 14.016Z" fill="white"/>
<path d="M135.319 3.58188V4.52588H133.423V9.18188H132.263V4.52588H130.367V3.58188H135.319ZM140.431 3.58188H142.367V9.18188H141.207V4.54988L139.751 9.18188H138.567L137.103 4.55788V9.18188H135.951V3.58188H137.911L139.175 7.86988L140.431 3.58188Z" fill="white"/>
</g>
<defs>
<filter id="filter0_i_2019_699" x="0" y="0" width="32" height="34.9091" filterUnits="userSpaceOnUse" color-interpolation-filters="sRGB">
<feFlood flood-opacity="0" result="BackgroundImageFix"/>
<feBlend mode="normal" in="SourceGraphic" in2="BackgroundImageFix" result="shape"/>
<feColorMatrix in="SourceAlpha" type="matrix" values="0 0 0 0 0 0 0 0 0 0 0 0 0 0 0 0 0 0 127 0" result="hardAlpha"/>
<feOffset dy="2.90909"/>
<feGaussianBlur stdDeviation="2.90909"/>
<feComposite in2="hardAlpha" operator="arithmetic" k2="-1" k3="1"/>
<feColorMatrix type="matrix" values="0 0 0 0 0.0588235 0 0 0 0 0.054902 0 0 0 0 0.0784314 0 0 0 0.04 0"/>
<feBlend mode="normal" in2="shape" result="effect1_innerShadow_2019_699"/>
</filter>
<filter id="filter1_ddi_2019_699" x="1.49459" y="4.81639" width="29.1798" height="29.1799" filterUnits="userSpaceOnUse" color-interpolation-filters="sRGB">
<feFlood flood-opacity="0" result="BackgroundImageFix"/>
<feColorMatrix in="SourceAlpha" type="matrix" values="0 0 0 0 0 0 0 0 0 0 0 0 0 0 0 0 0 0 127 0" result="hardAlpha"/>
<feOffset/>
<feComposite in2="hardAlpha" operator="out"/>
<feColorMatrix type="matrix" values="0 0 0 0 0.113725 0 0 0 0 0 0 0 0 0 0.321569 0 0 0 0.13 0"/>
<feBlend mode="normal" in2="BackgroundImageFix" result="effect1_dropShadow_2019_699"/>
<feColorMatrix in="SourceAlpha" type="matrix" values="0 0 0 0 0 0 0 0 0 0 0 0 0 0 0 0 0 0 127 0" result="hardAlpha"/>
<feOffset dy="3.43434"/>
<feGaussianBlur stdDeviation="3.43434"/>
<feComposite in2="hardAlpha" operator="out"/>
<feColorMatrix type="matrix" values="0 0 0 0 0.113725 0 0 0 0 0 0 0 0 0 0.321569 0 0 0 0.13 0"/>
<feBlend mode="normal" in2="effect1_dropShadow_2019_699" result="effect2_dropShadow_2019_699"/>
<feBlend mode="normal" in="SourceGraphic" in2="effect2_dropShadow_2019_699" result="shape"/>
<feColorMatrix in="SourceAlpha" type="matrix" values="0 0 0 0 0 0 0 0 0 0 0 0 0 0 0 0 0 0 127 0" result="hardAlpha"/>
<feOffset dy="2.90909"/>
<feGaussianBlur stdDeviation="2.90909"/>
<feComposite in2="hardAlpha" operator="arithmetic" k2="-1" k3="1"/>
<feColorMatrix type="matrix" values="0 0 0 0 0.0588235 0 0 0 0 0.054902 0 0 0 0 0.0784314 0 0 0 0.04 0"/>
<feBlend mode="normal" in2="shape" result="effect3_innerShadow_2019_699"/>
</filter>
<linearGradient id="paint0_linear_2019_699" x1="32.8551" y1="32.8506" x2="1.45617" y2="2.18015" gradientUnits="userSpaceOnUse">
<stop stop-color="#7EFFF5"/>
<stop offset="0.361958" stop-color="#A981FF" stop-opacity="0.92"/>
<stop offset="0.738981" stop-color="#FF8BC1"/>
<stop offset="1" stop-color="#FFF385"/>
</linearGradient>
<radialGradient id="paint1_radial_2019_699" cx="0" cy="0" r="1" gradientUnits="userSpaceOnUse" gradientTransform="translate(3.19742 28.0111) rotate(-46.3881) scale(21.846 25.2812)">
<stop stop-color="#D0B3FF" stop-opacity="0.73"/>
<stop offset="1" stop-color="#D0B3FF" stop-opacity="0"/>
</radialGradient>
<linearGradient id="paint2_linear_2019_699" x1="18.1827" y1="18.5453" x2="14.91" y2="12.7271" gradientUnits="userSpaceOnUse">
<stop stop-color="white" stop-opacity="0"/>
<stop offset="1" stop-color="white"/>
</linearGradient>
<clipPath id="clip0_2019_699">
<rect width="144" height="32" fill="white"/>
</clipPath>
</defs>
</svg>
