<svg width="111" height="111" viewBox="0 0 111 111" fill="none" xmlns="http://www.w3.org/2000/svg">
<g clip-path="url(#clip0_1110_2011)">
<g clip-path="url(#clip1_1110_2011)">
<path d="M101.449 0.870605H9.55088C4.7569 0.870605 0.870605 4.7569 0.870605 9.55088V101.449C0.870605 106.243 4.7569 110.129 9.55088 110.129H101.449C106.243 110.129 110.129 106.243 110.129 101.449V9.55088C110.129 4.7569 106.243 0.870605 101.449 0.870605Z" fill="#111827"/>
<path fill-rule="evenodd" clip-rule="evenodd" d="M53.5156 28.6783C53.5156 28.6783 53.1827 30.4963 52.4913 33.569C51.8 36.6416 51.2367 37.8707 51.2367 37.8707C51.2367 37.8707 49.3162 32.7752 48.9578 26.6299C48.6249 20.5101 48.6249 18.0264 49.854 16.7717C51.1086 15.4915 52.9266 18.9226 53.3619 20.4077C53.8228 21.8928 54.3861 25.1703 54.3861 25.1703C54.3861 25.1703 55.1543 21.688 54.847 18.5897C54.5142 15.4915 50.0844 15.4915 50.0844 15.4915C50.0844 15.4915 44.6304 15.5171 44.7585 19.6139C44.8609 23.7108 44.4256 25.1703 45.6547 32.0838C46.5252 36.9489 47.5239 41.3787 48.036 43.5807C48.036 43.6063 48.0616 43.76 48.1384 44.0416C48.292 44.6818 48.3688 45.0402 48.3688 45.0402C48.3688 45.0402 45.1938 52.7475 37.9218 67.2659C30.6498 81.7842 24.4277 89.6195 22.1488 92.0008C19.8699 94.3821 14.5439 97.7877 15.7986 94.4845C17.0533 91.207 20.5612 86.4188 23.5059 84.0375C26.4505 81.6562 28.6014 79.9406 28.6014 79.9406C28.6014 79.9406 29.4976 78.5835 27.1162 79.4797C24.7349 80.3759 19.4346 83.7814 15.8754 88.1088C12.3419 92.4105 11.5737 94.0236 13.2637 95.816C14.9536 97.6084 17.9239 98.2998 20.9709 96.7122C24.0436 95.1247 29.472 89.5683 31.7508 85.5994C34.0297 81.6306 37.0768 76.5351 37.0768 76.5351C37.0768 76.5351 42.4028 74.2562 51.7232 72.3358C60.0962 70.5946 67.445 69.3143 68.8533 69.0838C71.7723 70.697 74.8706 71.9773 78.2761 73.1295C87.238 76.2022 88.3647 76.0742 91.6678 76.2022C94.9453 76.3046 96.6097 74.2818 96.6097 73.488C96.6097 72.6942 95.9695 71.9005 95.9695 71.9005C95.9695 71.9005 95.2782 75.5364 83.0387 71.1067C80.0429 70.0313 77.5592 69.1095 75.4339 68.1877C78.1481 67.9316 81.5536 67.7011 85.4201 67.7011C95.1502 67.7011 96.6097 70.4153 95.9695 70.4153C97.7875 65.8832 89.9522 64.398 83.6021 64.398C79.3259 64.398 73.6159 65.1662 70.3128 65.6783C66.5744 63.4762 63.6297 60.762 59.5329 55.9994C56.1273 52.0306 53.7972 46.9607 52.2609 42.5821C53.3107 37.8963 54.2581 32.007 53.3875 28.6783H53.5156ZM65.1661 66.7537C62.2214 67.189 57.6637 68.0596 52.2609 69.724C42.7356 72.6686 38.4083 74.3842 38.4083 74.3842C38.4083 74.3842 43.1709 65.8832 45.2194 61.6838C47.0886 57.8174 50.0332 50.8015 50.4941 49.7005C51.6464 51.9025 53.3363 54.6167 55.7688 57.715C58.7903 61.5558 61.863 64.4492 65.1661 66.7537Z" fill="#FEFEFE"/>
</g>
</g>
<defs>
<clipPath id="clip0_1110_2011">
<rect width="111" height="111" fill="white"/>
</clipPath>
<clipPath id="clip1_1110_2011">
<rect width="111" height="111" fill="white"/>
</clipPath>
</defs>
</svg>
