<svg width="480" height="478" viewBox="0 0 480 478" fill="none" xmlns="http://www.w3.org/2000/svg">
<path d="M2 236.5C1.17157 236.5 0.5 237.172 0.5 238C0.5 238.828 1.17157 239.5 2 239.5L2 236.5ZM335.291 239.061C335.877 238.475 335.877 237.525 335.291 236.939L325.745 227.393C325.159 226.808 324.21 226.808 323.624 227.393C323.038 227.979 323.038 228.929 323.624 229.515L332.109 238L323.624 246.485C323.038 247.071 323.038 248.021 323.624 248.607C324.21 249.192 325.159 249.192 325.745 248.607L335.291 239.061ZM2 239.5C85.0576 239.5 126.776 239.5 168.4 239.5C210.023 239.5 251.552 239.5 334.23 239.5L334.23 236.5C251.552 236.5 210.023 236.5 168.4 236.5C126.776 236.5 85.0576 236.5 2 236.5L2 239.5Z" fill="#E5E7EB"/>
<path d="M2 236.5C1.17157 236.5 0.5 237.172 0.5 238C0.5 238.828 1.17157 239.5 2 239.5L2 236.5ZM417.614 163.461C418.199 162.875 418.199 161.925 417.614 161.339L408.068 151.793C407.482 151.208 406.532 151.208 405.946 151.793C405.36 152.379 405.36 153.329 405.946 153.915L414.432 162.4L405.946 170.885C405.36 171.471 405.36 172.421 405.946 173.007C406.532 173.592 407.482 173.592 408.068 173.007L417.614 163.461ZM2 239.5C85.1807 239.5 147.729 220.536 209.996 201.635C272.26 182.736 334.24 163.9 416.553 163.9L416.553 160.9C333.75 160.9 271.39 179.864 209.125 198.765C146.863 217.664 84.6927 236.5 2 236.5L2 239.5Z" fill="#E5E7EB"/>
<path d="M2 240.688C1.17157 240.687 0.5 240.016 0.5 239.187C0.5 238.359 1.17157 237.687 2 237.688L2 240.688ZM417.614 313.727C418.199 314.313 418.199 315.262 417.614 315.848L408.068 325.394C407.482 325.98 406.532 325.98 405.946 325.394C405.36 324.808 405.36 323.859 405.946 323.273L414.432 314.788L405.946 306.302C405.36 305.716 405.36 304.767 405.946 304.181C406.532 303.595 407.482 303.595 408.068 304.181L417.614 313.727ZM2 237.688C85.1807 237.688 147.729 256.651 209.996 275.552C272.26 294.452 334.24 313.288 416.553 313.288L416.553 316.288C333.75 316.288 271.39 297.323 209.125 278.423C146.863 259.524 84.6927 240.688 2 240.688L2 237.688Z" fill="#E5E7EB"/>
<path d="M2 236.5C1.17157 236.5 0.5 237.172 0.5 238C0.5 238.828 1.17157 239.5 2 239.5L2 236.5ZM479.061 80.8607C479.646 80.2749 479.646 79.3251 479.061 78.7393L469.515 69.1934C468.929 68.6076 467.979 68.6076 467.393 69.1934C466.808 69.7792 466.808 70.7289 467.393 71.3147L475.879 79.8L467.393 88.2853C466.808 88.8711 466.808 89.8208 467.393 90.4066C467.979 90.9924 468.929 90.9924 469.515 90.4066L479.061 80.8607ZM2 239.5C85.4315 239.5 163.447 199.749 240.965 160.236C318.632 120.648 395.798 81.3 478 81.3L478 78.3C394.947 78.3 317.119 118.052 239.603 157.564C161.939 197.151 84.5816 236.5 2 236.5L2 239.5Z" fill="#E5E7EB"/>
<path d="M2 240.688C1.17157 240.687 0.5 240.016 0.5 239.187C0.5 238.359 1.17157 237.687 2 237.688L2 240.688ZM479.061 396.327C479.646 396.913 479.646 397.862 479.061 398.448L469.515 407.994C468.929 408.58 467.979 408.58 467.393 407.994C466.808 407.408 466.808 406.459 467.393 405.873L475.879 397.387L467.393 388.902C466.808 388.316 466.808 387.367 467.393 386.781C467.979 386.195 468.929 386.195 469.515 386.781L479.061 396.327ZM2 237.688C85.4315 237.688 163.447 277.438 240.965 316.951C318.632 356.539 395.798 395.887 478 395.887L478 398.887C394.947 398.887 317.119 359.136 239.603 319.624C161.939 280.037 84.5816 240.688 2 240.688L2 237.688Z" fill="#E5E7EB"/>
<path d="M2 236.484C1.17157 236.484 0.5 237.156 0.5 237.984C0.5 238.813 1.17157 239.484 2 239.484L2 236.484ZM325.291 12.245C325.877 11.6593 325.877 10.7095 325.291 10.1237L315.745 0.577779C315.159 -0.00800583 314.21 -0.0080058 313.624 0.577779C313.038 1.16358 313.038 2.11332 313.624 2.6991L322.109 11.1844L313.624 19.6697C313.038 20.2555 313.038 21.2052 313.624 21.791C314.21 22.3768 315.159 22.3768 315.745 21.791L325.291 12.245ZM2 239.484C83.4339 239.484 124.314 182.053 164.613 125.454C205.059 68.6485 244.919 12.6844 324.23 12.6844L324.23 9.68439C243.162 9.68439 202.465 67.1203 162.169 123.714C121.726 180.516 81.6814 236.484 2 236.484L2 239.484Z" fill="#E5E7EB"/>
<path d="M2 240.703C1.17157 240.703 0.5 240.032 0.5 239.203C0.5 238.375 1.17157 237.703 2 237.703L2 240.703ZM325.291 464.942C325.877 465.528 325.877 466.478 325.291 467.064L315.745 476.61C315.159 477.196 314.21 477.196 313.624 476.61C313.038 476.024 313.038 475.074 313.624 474.488L322.109 466.003L313.624 457.518C313.038 456.932 313.038 455.982 313.624 455.397C314.21 454.811 315.159 454.811 315.745 455.397L325.291 464.942ZM2 237.703C83.4339 237.703 124.314 295.134 164.613 351.733C205.059 408.539 244.919 464.503 324.23 464.503L324.23 467.503C243.162 467.503 202.465 410.067 162.169 353.473C121.726 296.672 81.6814 240.703 2 240.703L2 237.703Z" fill="#E5E7EB"/>
</svg>
