<svg width="78" height="77" viewBox="0 0 78 77" fill="none" xmlns="http://www.w3.org/2000/svg">
<path d="M48.1903 14.0938C21.9957 15.1795 22.0024 52.5432 48.1905 53.6254C48.5092 53.6253 48.815 53.4986 49.0403 53.2729C49.2657 53.0473 49.3924 52.7413 49.3923 52.4222C49.3923 52.1031 49.2657 51.7971 49.0402 51.5715C48.8148 51.3458 48.5091 51.2191 48.1903 51.2191C43.5926 51.2138 39.1846 49.3831 35.9336 46.1287C32.6825 42.8743 30.8538 38.4619 30.8487 33.8595C31.8013 10.8299 64.5833 10.8363 65.5327 33.8597C65.5369 34.176 65.6655 34.4779 65.8904 34.7C66.1154 34.9222 66.4187 35.0467 66.7347 35.0467C67.0507 35.0466 67.354 34.9221 67.5789 34.6999C67.8038 34.4777 67.9323 34.1758 67.9365 33.8595C67.9305 28.6191 65.8482 23.5951 62.1463 19.8896C58.4445 16.1841 53.4255 14.0997 48.1903 14.0938Z" fill="white"/>
<path d="M48.1871 60.5005C12.8766 59.0349 12.8942 8.67528 48.1872 7.21875C48.3451 7.21874 48.5014 7.18761 48.6472 7.12713C48.793 7.06666 48.9255 6.97802 49.0371 6.86629C49.1487 6.75457 49.2372 6.62193 49.2976 6.47595C49.358 6.32998 49.3891 6.17353 49.3891 6.01553C49.389 5.85753 49.3579 5.70109 49.2975 5.55512C49.2371 5.40916 49.1486 5.27653 49.037 5.16482C48.9253 5.05311 48.7928 4.9645 48.647 4.90405C48.5012 4.84359 48.3449 4.81249 48.187 4.8125C40.4942 4.81746 33.1181 7.87996 27.6801 13.3268C22.2422 18.7737 19.1875 26.1591 19.1875 33.8596C19.1875 41.5602 22.2422 48.9456 27.6801 54.3924C33.1181 59.8393 40.4942 62.9018 48.187 62.9067C48.502 62.9009 48.802 62.7716 49.0227 62.5466C49.2434 62.3216 49.367 62.0189 49.367 61.7036C49.367 61.3883 49.2434 61.0856 49.0227 60.8606C48.8021 60.6356 48.502 60.5063 48.1871 60.5005Z" fill="white"/>
<path d="M48.1882 69.7787C38.6738 69.768 29.5522 65.9799 22.8246 59.2454C16.097 52.511 12.3128 43.3803 12.3023 33.8565C12.2974 33.5406 12.1686 33.2394 11.9437 33.0177C11.7188 32.7961 11.4159 32.6719 11.1003 32.6719C10.7848 32.6719 10.4818 32.7961 10.257 33.0178C10.0321 33.2394 9.90332 33.5407 9.89844 33.8565C9.90983 44.0183 13.9476 53.7605 21.1258 60.946C28.304 68.1315 38.0365 72.1734 48.1882 72.1849C48.5029 72.1788 48.8026 72.0493 49.023 71.8244C49.2434 71.5994 49.3669 71.2969 49.3669 70.9818C49.3669 70.6667 49.2434 70.3642 49.023 70.1392C48.8026 69.9143 48.5029 69.7848 48.1882 69.7787Z" fill="white"/>
<path d="M48.1844 23.375C45.4076 23.3782 42.7455 24.4838 40.7821 26.4492C38.8186 28.4146 37.7141 31.0794 37.7109 33.8589C38.2604 47.7593 58.112 47.7542 58.659 33.8588C58.6557 31.0791 57.551 28.4142 55.5873 26.4488C53.6236 24.4834 50.9613 23.378 48.1844 23.375ZM48.1844 41.9377C46.0448 41.935 43.9936 41.083 42.4808 39.5685C40.968 38.0539 40.1171 36.0006 40.1148 33.8589C40.4935 23.1675 55.8775 23.1714 56.2551 33.859C56.2525 36.0008 55.4013 38.0541 53.8883 39.5686C52.3754 41.0831 50.3241 41.9351 48.1844 41.9377Z" fill="white"/>
</svg>
