<svg width="59" height="58" viewBox="0 0 59 58" fill="none" xmlns="http://www.w3.org/2000/svg">
<g clip-path="url(#clip0_1268_23414)">
<g clip-path="url(#clip1_1268_23414)">
<path d="M28.0316 55.1742C27.545 55.1742 27.1027 54.9971 26.7489 54.6872C26.395 54.333 26.1296 53.8902 26.1296 53.4032V53.1818C26.0854 41.6704 16.7085 32.2841 5.16428 32.2398C4.67775 32.2398 4.19121 32.0627 3.83736 31.7528C3.43929 31.3986 3.21813 30.9559 3.21813 30.4246C3.1739 29.362 3.97006 28.4322 5.03159 28.3879H5.16428C16.7085 28.3437 26.0854 18.9574 26.1296 7.40168V7.31313C26.1739 6.78183 26.395 6.33909 26.7489 5.98489C27.147 5.63069 27.6335 5.45359 28.12 5.49786C29.0931 5.54214 29.8893 6.33909 29.9335 7.31313V7.40168C29.9335 18.9574 39.3546 28.3879 50.8984 28.3879C51.3849 28.3879 51.8715 28.565 52.2253 28.875C52.6234 29.2292 52.8446 29.7162 52.8446 30.2032C52.8888 30.7345 52.7119 31.2215 52.358 31.5757C52.0042 31.9299 51.5619 32.1956 51.0753 32.1956H50.8542C39.3542 32.2398 29.9773 41.6261 29.933 53.1818C29.933 54.2002 29.1369 55.0856 28.1196 55.1299C28.1196 55.1742 28.0758 55.1742 28.0316 55.1742ZM13.8335 30.336C20.3354 32.8154 25.5546 38.0398 28.0316 44.5482C30.5085 38.0398 35.7277 32.8154 42.2296 30.336C35.7277 27.8566 30.5085 22.6322 28.0316 16.1238C25.5546 22.6322 20.3354 27.8566 13.8335 30.336ZM48.8205 18.7803C47.7589 18.7803 46.8739 17.8948 46.8739 16.8322C46.8739 13.8658 44.4858 11.475 41.5219 11.475C40.4604 11.475 39.5758 10.5895 39.5758 9.52687C39.5758 8.46428 40.4604 7.57878 41.5219 7.57878C44.4858 7.57878 46.8739 5.18794 46.8739 2.22153C46.8739 1.11466 47.7589 0.273438 48.8205 0.273438C49.882 0.273438 50.7662 1.15893 50.7662 2.22153C50.7662 5.18794 53.1551 7.57878 56.1185 7.57878C57.1801 7.57878 58.0642 8.46428 58.0642 9.52687C58.0642 10.5895 57.1801 11.475 56.1185 11.475C53.1551 11.475 50.7662 13.8658 50.7662 16.8322C50.8104 17.8948 49.9262 18.7803 48.8205 18.7803ZM46.5642 9.52687C47.4489 10.1467 48.2012 10.8994 48.8205 11.7849C49.4397 10.8994 50.1912 10.1467 51.0758 9.52687C50.1912 8.90702 49.4397 8.15435 48.8205 7.26886C48.2455 8.11008 47.4489 8.90702 46.5642 9.52687ZM8.12774 57.6979H8.03928C7.02198 57.6536 6.22582 56.8566 6.18159 55.8383V55.7498C6.18159 53.846 4.63352 52.2963 2.73159 52.2521C2.24506 52.2521 1.75852 52.075 1.36044 51.7208C0.962366 51.3666 0.741212 50.8795 0.696982 50.3482C0.652751 49.2414 1.49313 48.3559 2.55467 48.2673H2.68736C4.58929 48.2673 6.13736 46.6734 6.13736 44.7696V44.6811C6.18159 44.1498 6.40275 43.6627 6.80082 43.3085C7.1989 42.9543 7.68544 42.7773 8.21621 42.7773C9.23351 42.8215 10.0297 43.6185 10.0739 44.6368V44.7253C10.0739 46.6292 11.622 48.1788 13.5239 48.2231H13.5681C14.6297 48.2231 15.47 49.0643 15.5143 50.0826C15.5585 50.6139 15.3373 51.1009 14.9835 51.4994C14.6297 51.8979 14.1431 52.1192 13.6124 52.1635H13.4797C11.5777 52.2078 10.0297 53.7574 10.0297 55.6612V55.7498C10.0297 56.8566 9.14505 57.6979 8.12774 57.6979ZM7.06621 50.2597C7.46428 50.5696 7.81813 50.9238 8.12774 51.3223C8.43736 50.9238 8.7912 50.5696 9.18928 50.2597C8.7912 49.9498 8.43736 49.5956 8.12774 49.1971C7.81813 49.5956 7.46428 49.9498 7.06621 50.2597Z" fill="white"/>
</g>
</g>
<defs>
<clipPath id="clip0_1268_23414">
<rect width="57.9422" height="58" fill="white" transform="translate(0.257812)"/>
</clipPath>
<clipPath id="clip1_1268_23414">
<rect width="57.9422" height="58" fill="white" transform="translate(0.257812)"/>
</clipPath>
</defs>
</svg>
