<svg width="60" height="59" viewBox="0 0 60 59" fill="none" xmlns="http://www.w3.org/2000/svg">
<g clip-path="url(#clip0_1268_23409)">
<path d="M59.7117 29.7063C43.6781 29.7063 30.6533 42.7441 30.6533 58.7937C30.6533 58.9175 30.5708 59 30.4472 59C30.3235 59 30.2411 58.9175 30.2411 58.7937C30.2411 42.7441 17.2163 29.7063 1.18265 29.7063C1.059 29.7063 0.976562 29.6238 0.976562 29.5C0.976562 29.3762 1.059 29.2937 1.18265 29.2937C17.2163 29.2937 30.2411 16.2559 30.2411 0.206294C30.2411 0.0825175 30.3235 0 30.4472 0C30.5708 0 30.6533 0.0825175 30.6533 0.206294C30.6533 16.2559 43.6781 29.2937 59.7117 29.2937C59.8354 29.2937 59.9178 29.3762 59.9178 29.5C59.9178 29.6238 59.8354 29.7063 59.7117 29.7063Z" fill="url(#paint0_linear_1268_23409)"/>
<path d="M43.6358 8.04545C47.9636 8.04545 51.4671 4.53846 51.4671 0.206294C51.4671 0.0825175 51.5496 0 51.6732 0C51.7969 0 51.8793 0.0825175 51.8793 0.206294C51.8793 4.53846 55.3828 8.04545 59.7107 8.04545C59.8343 8.04545 59.9168 8.12797 59.9168 8.25175C59.9168 8.37552 59.8343 8.45804 59.7107 8.45804C55.3828 8.45804 51.8793 11.965 51.8793 16.2972C51.8793 16.421 51.7969 16.5035 51.6732 16.5035C51.5496 16.5035 51.4671 16.421 51.4671 16.2972C51.4671 11.965 47.9636 8.45804 43.6358 8.45804C43.5121 8.45804 43.4297 8.37552 43.4297 8.25175C43.4297 8.12797 43.5121 8.04545 43.6358 8.04545Z" fill="url(#paint1_linear_1268_23409)"/>
<path d="M14.788 50.9513C11.8203 50.9513 9.42969 53.3443 9.42969 56.3149C9.42969 56.4387 9.34725 56.5212 9.2236 56.5212C9.09994 56.5212 9.01751 56.4387 9.01751 56.3149C9.01751 53.3443 6.62688 50.9513 3.65921 50.9513C3.53556 50.9513 3.45312 50.8688 3.45312 50.745C3.45312 50.6212 3.53556 50.5387 3.65921 50.5387C6.62688 50.5387 9.01751 48.1457 9.01751 45.175C9.01751 45.0513 9.09994 44.9688 9.2236 44.9688C9.34725 44.9688 9.42969 45.0513 9.42969 45.175C9.42969 48.1457 11.8203 50.5387 14.788 50.5387C14.9116 50.5387 14.9941 50.6212 14.9941 50.745C14.9941 50.8688 14.9116 50.9513 14.788 50.9513Z" fill="url(#paint2_linear_1268_23409)"/>
</g>
<defs>
<linearGradient id="paint0_linear_1268_23409" x1="30.4455" y1="59.0012" x2="30.4455" y2="0.00123787" gradientUnits="userSpaceOnUse">
<stop stop-color="#FFAE08"/>
<stop offset="1" stop-color="#FCD88E"/>
</linearGradient>
<linearGradient id="paint1_linear_1268_23409" x1="51.6732" y1="16.5035" x2="51.6732" y2="0" gradientUnits="userSpaceOnUse">
<stop stop-color="#FFAE08"/>
<stop offset="1" stop-color="#FCD88E"/>
</linearGradient>
<linearGradient id="paint2_linear_1268_23409" x1="9.22319" y1="56.5212" x2="9.22319" y2="44.9688" gradientUnits="userSpaceOnUse">
<stop stop-color="#FFAE08"/>
<stop offset="1" stop-color="#FCD88E"/>
</linearGradient>
<clipPath id="clip0_1268_23409">
<rect width="58.9413" height="59" fill="white" transform="translate(0.976562)"/>
</clipPath>
</defs>
</svg>
