<svg width="33" height="32" viewBox="0 0 33 32" fill="none" xmlns="http://www.w3.org/2000/svg">
<g clip-path="url(#clip0_1268_23418)">
<g clip-path="url(#clip1_1268_23418)">
<path d="M32.2235 15.8881C23.5273 15.8881 16.463 8.81678 16.463 0.111889C16.463 0.0447559 16.4183 0 16.3513 0C16.2842 0 16.2395 0.0447559 16.2395 0.111889C16.2395 8.81678 9.17519 15.8881 0.478964 15.8881C0.411898 15.8881 0.367188 15.9329 0.367188 16C0.367188 16.0671 0.411898 16.1119 0.478964 16.1119C9.17519 16.1119 16.2395 23.1832 16.2395 31.8881C16.2395 31.9552 16.2842 32 16.3513 32C16.4183 32 16.463 31.9552 16.463 31.8881C16.463 23.1832 23.5273 16.1119 32.2235 16.1119C32.2906 16.1119 32.3353 16.0671 32.3353 16C32.3353 15.9329 32.2906 15.8881 32.2235 15.8881ZM23.505 27.6364C25.8523 27.6364 27.7525 29.5385 27.7525 31.8881C27.7525 31.9552 27.7972 32 27.8643 32C27.9313 32 27.976 31.9552 27.976 31.8881C27.976 29.5385 29.8762 27.6364 32.2235 27.6364C32.2906 27.6364 32.3353 27.5916 32.3353 27.5245C32.3353 27.4573 32.2906 27.4126 32.2235 27.4126C29.8762 27.4126 27.976 25.5105 27.976 23.1608C27.976 23.0937 27.9313 23.049 27.8643 23.049C27.7972 23.049 27.7525 23.0937 27.7525 23.1608C27.7525 25.5105 25.8523 27.4126 23.505 27.4126C23.4379 27.4126 23.3932 27.4573 23.3932 27.5245C23.3932 27.5916 23.4379 27.6364 23.505 27.6364ZM7.85623 4.36364C6.24664 4.36364 4.95003 3.06573 4.95003 1.45455C4.95003 1.38741 4.90532 1.34266 4.83826 1.34266C4.77119 1.34266 4.72648 1.38741 4.72648 1.45455C4.72648 3.06573 3.42987 4.36364 1.82028 4.36364C1.75322 4.36364 1.70851 4.40839 1.70851 4.47552C1.70851 4.54266 1.75322 4.58741 1.82028 4.58741C3.42987 4.58741 4.72648 5.88531 4.72648 7.4965C4.72648 7.56364 4.77119 7.60839 4.83826 7.60839C4.90532 7.60839 4.95003 7.56364 4.95003 7.4965C4.95003 5.88531 6.24664 4.58741 7.85623 4.58741C7.92329 4.58741 7.968 4.54266 7.968 4.47552C7.968 4.40839 7.92329 4.36364 7.85623 4.36364Z" fill="white"/>
</g>
</g>
<defs>
<clipPath id="clip0_1268_23418">
<rect width="31.9681" height="32" fill="white" transform="matrix(1 0 0 -1 0.367188 32)"/>
</clipPath>
<clipPath id="clip1_1268_23418">
<rect width="31.9681" height="32" fill="white" transform="matrix(1 0 0 -1 0.367188 32)"/>
</clipPath>
</defs>
</svg>
