<svg width="1600" height="692" viewBox="0 0 1600 692" fill="none" xmlns="http://www.w3.org/2000/svg">
<mask id="mask0_3582_34577" style="mask-type:alpha" maskUnits="userSpaceOnUse" x="0" y="-223" width="1600" height="1123">
<rect y="-223" width="1600" height="1123" fill="url(#paint0_radial_3582_34577)"/>
</mask>
<g mask="url(#mask0_3582_34577)">
<g opacity="0.7">
<rect x="0.633663" y="-0.633663" width="150.812" height="150.812" transform="matrix(1 0 0 -1 100.031 746.936)" stroke="#194CFF" stroke-width="1.26733"/>
<rect x="0.633663" y="-0.633663" width="150.812" height="150.812" transform="matrix(1 0 0 -1 250.844 746.936)" stroke="#194CFF" stroke-width="1.26733"/>
<rect x="0.633663" y="-0.633663" width="150.812" height="150.812" transform="matrix(1 0 0 -1 401.656 746.936)" stroke="#194CFF" stroke-width="1.26733"/>
<rect x="0.633663" y="-0.633663" width="150.812" height="150.812" transform="matrix(1 0 0 -1 552.469 746.936)" stroke="#194CFF" stroke-width="1.26733"/>
<rect x="0.633663" y="-0.633663" width="150.812" height="150.812" transform="matrix(1 0 0 -1 703.281 746.936)" stroke="#194CFF" stroke-width="1.26733"/>
<rect x="0.633663" y="-0.633663" width="150.812" height="150.812" transform="matrix(1 0 0 -1 854.094 746.936)" stroke="#194CFF" stroke-width="1.26733"/>
<rect x="0.633663" y="-0.633663" width="150.812" height="150.812" transform="matrix(1 0 0 -1 1004.91 746.936)" stroke="#194CFF" stroke-width="1.26733"/>
<rect x="0.633663" y="-0.633663" width="150.812" height="150.812" transform="matrix(1 0 0 -1 1155.71 746.936)" stroke="#194CFF" stroke-width="1.26733"/>
<rect x="0.633663" y="-0.633663" width="150.812" height="150.812" transform="matrix(1 0 0 -1 100.031 596.123)" stroke="#194CFF" stroke-width="1.26733"/>
<rect x="0.633663" y="-0.633663" width="150.812" height="150.812" transform="matrix(1 0 0 -1 250.844 596.123)" fill="#194CFF" fill-opacity="0.4" stroke="#194CFF" stroke-width="1.26733"/>
<rect x="0.633663" y="-0.633663" width="150.812" height="150.812" transform="matrix(1 0 0 -1 401.656 596.123)" stroke="#194CFF" stroke-width="1.26733"/>
<rect x="0.633663" y="-0.633663" width="150.812" height="150.812" transform="matrix(1 0 0 -1 552.469 596.123)" stroke="#194CFF" stroke-width="1.26733"/>
<rect x="0.633663" y="-0.633663" width="150.812" height="150.812" transform="matrix(1 0 0 -1 703.281 596.123)" stroke="#194CFF" stroke-width="1.26733"/>
<rect x="0.633663" y="-0.633663" width="150.812" height="150.812" transform="matrix(1 0 0 -1 854.094 596.123)" fill="#194CFF" fill-opacity="0.4" stroke="#194CFF" stroke-width="1.26733"/>
<rect x="0.633663" y="-0.633663" width="150.812" height="150.812" transform="matrix(1 0 0 -1 1004.91 596.123)" stroke="#194CFF" stroke-width="1.26733"/>
<rect x="0.633663" y="-0.633663" width="150.812" height="150.812" transform="matrix(1 0 0 -1 1155.71 596.123)" stroke="#194CFF" stroke-width="1.26733"/>
<rect x="0.633663" y="-0.633663" width="150.812" height="150.812" transform="matrix(1 0 0 -1 100.031 445.311)" stroke="#194CFF" stroke-width="1.26733"/>
<rect x="0.633663" y="-0.633663" width="150.812" height="150.812" transform="matrix(1 0 0 -1 250.844 445.311)" stroke="#194CFF" stroke-width="1.26733"/>
<rect x="0.633663" y="-0.633663" width="150.812" height="150.812" transform="matrix(1 0 0 -1 401.656 445.311)" stroke="#194CFF" stroke-width="1.26733"/>
<rect x="0.633663" y="-0.633663" width="150.812" height="150.812" transform="matrix(1 0 0 -1 552.469 445.311)" fill="#194CFF" fill-opacity="0.4" stroke="#194CFF" stroke-width="1.26733"/>
<rect x="0.633663" y="-0.633663" width="150.812" height="150.812" transform="matrix(1 0 0 -1 703.281 445.311)" stroke="#194CFF" stroke-width="1.26733"/>
<rect x="0.633663" y="-0.633663" width="150.812" height="150.812" transform="matrix(1 0 0 -1 854.094 445.311)" stroke="#194CFF" stroke-width="1.26733"/>
<rect x="0.633663" y="-0.633663" width="150.812" height="150.812" transform="matrix(1 0 0 -1 1004.91 445.311)" stroke="#194CFF" stroke-width="1.26733"/>
<rect x="0.633663" y="-0.633663" width="150.812" height="150.812" transform="matrix(1 0 0 -1 1155.71 445.311)" stroke="#194CFF" stroke-width="1.26733"/>
<rect x="0.633663" y="-0.633663" width="150.812" height="150.812" transform="matrix(1 0 0 -1 100.031 294.498)" stroke="#194CFF" stroke-width="1.26733"/>
<rect x="0.633663" y="-0.633663" width="150.812" height="150.812" transform="matrix(1 0 0 -1 250.844 294.498)" stroke="#194CFF" stroke-width="1.26733"/>
<rect x="0.633663" y="-0.633663" width="150.812" height="150.812" transform="matrix(1 0 0 -1 401.656 294.498)" fill="#194CFF" fill-opacity="0.4" stroke="#194CFF" stroke-width="1.26733"/>
<rect x="0.633663" y="-0.633663" width="150.812" height="150.812" transform="matrix(1 0 0 -1 552.469 294.498)" stroke="#194CFF" stroke-width="1.26733"/>
<rect x="0.633663" y="-0.633663" width="150.812" height="150.812" transform="matrix(1 0 0 -1 703.281 294.498)" fill="#194CFF" fill-opacity="0.4" stroke="#194CFF" stroke-width="1.26733"/>
<rect x="0.633663" y="-0.633663" width="150.812" height="150.812" transform="matrix(1 0 0 -1 854.094 294.498)" stroke="#194CFF" stroke-width="1.26733"/>
<rect x="0.633663" y="-0.633663" width="150.812" height="150.812" transform="matrix(1 0 0 -1 1004.91 294.498)" fill="#194CFF" fill-opacity="0.4" stroke="#194CFF" stroke-width="1.26733"/>
<rect x="0.633663" y="-0.633663" width="150.812" height="150.812" transform="matrix(1 0 0 -1 1155.71 294.498)" stroke="#194CFF" stroke-width="1.26733"/>
<rect x="0.633663" y="-0.633663" width="150.812" height="150.812" transform="matrix(1 0 0 -1 100.031 143.686)" stroke="#194CFF" stroke-width="1.26733"/>
<rect x="0.633663" y="-0.633663" width="150.812" height="150.812" transform="matrix(1 0 0 -1 250.844 143.686)" stroke="#194CFF" stroke-width="1.26733"/>
<rect x="0.633663" y="-0.633663" width="150.812" height="150.812" transform="matrix(1 0 0 -1 401.656 143.686)" fill="#194CFF" fill-opacity="0.4" stroke="#194CFF" stroke-width="1.26733"/>
<rect x="0.633663" y="-0.633663" width="150.812" height="150.812" transform="matrix(1 0 0 -1 552.469 143.686)" stroke="#194CFF" stroke-width="1.26733"/>
<rect x="0.633663" y="-0.633663" width="150.812" height="150.812" transform="matrix(1 0 0 -1 703.281 143.686)" stroke="#194CFF" stroke-width="1.26733"/>
<rect x="0.633663" y="-0.633663" width="150.812" height="150.812" transform="matrix(1 0 0 -1 854.094 143.686)" stroke="#194CFF" stroke-width="1.26733"/>
<rect x="0.633663" y="-0.633663" width="150.812" height="150.812" transform="matrix(1 0 0 -1 1004.91 143.686)" stroke="#194CFF" stroke-width="1.26733"/>
<rect x="0.633663" y="-0.633663" width="150.812" height="150.812" transform="matrix(1 0 0 -1 1155.71 143.686)" stroke="#194CFF" stroke-width="1.26733"/>
</g>
</g>
<defs>
<radialGradient id="paint0_radial_3582_34577" cx="0" cy="0" r="1" gradientUnits="userSpaceOnUse" gradientTransform="translate(800 338.5) rotate(90) scale(492.702 701.98)">
<stop stop-opacity="0.2"/>
<stop offset="1" stop-opacity="0"/>
</radialGradient>
</defs>
</svg>
