<svg width="1762" height="554" viewBox="0 0 1762 554" fill="none" xmlns="http://www.w3.org/2000/svg">
<path d="M1371.62 178.129L1291.28 162.716L986.899 169.252L985.533 169.057L689.59 133.549L600.959 97.0653L417.891 69.2637L426.037 65.7031L610.276 93.456L698.566 129.208L987.729 163.594L1290.89 157.205L1367.52 171.739L1565.03 137.353L1576.2 142.084L1371.62 178.129Z" fill="url(#paint0_radial_2670_17268)"/>
<path d="M195.705 465.116L189.656 463.799L427.991 289.234L692.13 131.009L810.712 53.3596L857.833 0L861.247 0.195099L814.419 53.701L696.13 131.692L432.869 290.259L195.705 465.116Z" fill="url(#paint1_radial_2670_17268)"/>
<path d="M693.594 553.543L685.984 552.079L817.883 355.225L984.952 166.027L1056.12 67.2584L1077.1 8.875L1080.71 9.0701L1060.17 67.5998L989.732 166.71L823.981 356.346L693.594 553.543Z" fill="url(#paint2_radial_2670_17268)"/>
<path d="M820.662 357.426L819.833 357.28L428.234 290.849L306.822 250.609L242.19 221.003L215.508 164.083L220.825 163.156L247.848 219.686L311.7 248.61L432.575 288.41L821.296 354.012L1198.65 315.285L1389.87 296.604L1519.13 269.583L1520.45 269.778L1761.22 309.529L1762 312.212L1521.67 272.363L1393.52 299.335L1201.14 318.211L820.662 357.426Z" fill="url(#paint3_radial_2670_17268)"/>
<path d="M330.624 496.092L323.844 494.922L522.619 305.334L766.953 139.988L878.365 57.1684L907.193 14.7344L910.754 14.9295L882.17 57.5586L771.148 140.671L527.887 306.31L330.624 496.092Z" fill="url(#paint4_radial_2670_17268)"/>
<path d="M538.37 506.961L531.297 505.693L679.049 331.762L878.995 153.393L969.382 62.3301L990.796 17.75L994.455 17.9939L973.333 62.6716L883.531 154.027L684.805 332.786L538.37 506.961Z" fill="url(#paint5_radial_2670_17268)"/>
<path d="M846.32 478.771L915.245 345.275L947.585 299.719L881.539 286.745L754.81 267.186L612.18 247.091L497.159 227.484L430.868 207.681L370.333 192.366H343.066L350.09 174.612L297.555 133.251L302.237 132.227L355.504 173.783L349.114 190.366H373.309L373.796 190.464L434.819 205.828L500.72 225.435L614.863 244.799L757.005 264.748L883.636 284.209L955.146 298.158L921.44 346.25L857.003 473.26L967.878 462.383L1159.87 417.705L1308.5 444.239H1431.91L1429.77 339.422L1502.94 326.594L1504.35 326.935L1734.54 376.149L1734.69 379.222L1505.08 329.911L1436.65 341.958L1439.77 448.336L1308.65 448.238L1161.43 421.851L969.975 466.578L846.32 478.771Z" fill="url(#paint6_radial_2670_17268)"/>
<path d="M1266.7 227.777L1244.26 191.099L957.534 201.244L957.046 201.195L842.756 188.514L724.125 170.955L647.152 159.151L549.838 124.765L384.281 98.8169L387.208 97.5L553.057 123.351L553.301 123.448L650.567 157.639L726.321 169.15L844.464 186.611L957.729 199.147L1248.06 188.904L1270.5 225.046L1334.3 220.071L1446.35 205.78L1555.08 171.247L1559.57 172.857L1449.96 207.78L1337.08 222.266L1266.7 227.777Z" fill="url(#paint7_radial_2670_17268)"/>
<path d="M946.71 300.843L1000.81 227.535H934.711L934.516 225.242H1270.65L1296.46 266.798L946.71 300.843ZM1006.66 227.583L956.027 297.039L1289.38 264.75L1266.6 227.535H1006.66V227.583Z" fill="url(#paint8_radial_2670_17268)"/>
<path d="M1157.29 420.1L1094.36 327.574L1063.29 287.725L1063.44 287.335L1091.53 226.22L1070.51 164.228L1167.19 110.624L1273.28 108.283L1371.23 68.9219L1374.99 69.8974L1276.26 109.746L1170.26 112.088L1075.63 164.911L1097 226.806L1069.53 287.823L1100.36 326.94L1164.02 419.417L1157.29 420.1Z" fill="url(#paint9_radial_2670_17268)"/>
<path d="M1713.13 253.58L1537.38 230.363L1422.65 165.542L1364.55 137.057L1277.58 110.768L1293.58 160.079L1288.55 159.786L1271.97 107.305L1368.06 136.326L1426.7 164.908L1539.96 228.607L1712.15 251.288L1713.13 253.58Z" fill="url(#paint10_radial_2670_17268)"/>
<path d="M1681.86 217.824L1556.35 207.679L1462.93 158.466L1434.11 141.492L1354.94 115.69L1412.45 89.5469L1416.45 90.5711L1361.13 115.885L1437.96 140.907L1467.08 157.978L1558.44 205.875L1680.25 215.63L1681.86 217.824Z" fill="url(#paint11_radial_2670_17268)"/>
<path d="M1728.29 508.381L1538.45 458.387L1500.59 327.524L1517.28 270.36L1535.71 228.853L1554.54 206.221L1554.59 171.201L1617.81 167.641L1620.88 169.494L1560.06 172.908L1560.2 207.441L1541.57 230.17L1523.52 271.677L1507.42 328.841L1545.52 456.387L1728.44 504.284L1728.29 508.381Z" fill="url(#paint12_radial_2670_17268)"/>
<path d="M1248.74 190.025H1243.57L1226.01 161.248L1220.16 132.617L1224.89 132.861L1230.94 161.394L1248.74 190.025Z" fill="url(#paint13_radial_2670_17268)"/>
<path d="M0.439012 273.819L0 271.624L244.53 219.484L344.917 190.609L347.259 192.073L246.188 221.24L0.439012 273.819Z" fill="url(#paint14_radial_2670_17268)"/>
<path d="M402.668 183.686L398.375 183.052L453.886 149.885L549.834 123.595L603.394 95.2086L597.687 64.4317L601.199 38.6786L549.785 22.4366L552.859 21.6562L605.15 38.0933L601.784 64.1878L607.881 95.3549L552.663 124.62L457.3 150.861L402.668 183.686Z" fill="url(#paint15_radial_2670_17268)"/>
<path d="M531.549 199.243L461.161 183.782L485.258 171.637L489.16 172.466L468.575 182.904L530.817 196.463L591.401 163.881L538.085 147.591L501.404 164.906L453.746 151.103L374.188 124.715L378.09 123.398L457.551 149.688L501.355 162.321L537.988 145.054L597.986 163.345L531.549 199.243Z" fill="url(#paint16_radial_2670_17268)"/>
<path d="M704.517 184.273L624.714 172.86L593.008 164.422L596.374 162.812L627.836 171.202L706.761 182.42L704.517 184.273Z" fill="url(#paint17_radial_2670_17268)"/>
<path d="M1169.28 112.131L1028.51 109.741L832.171 93.4992L761.051 86.9634L666.322 60.8689L656.273 33.2136L656.371 33.0673L680.273 8.875L683.736 9.02132L660.176 33.1161L670.176 60.1373L763.588 85.7928L833.391 92.0847L1028.7 108.278L1168.41 110.619L1270.89 108.327L1175.28 62.4297L1176.06 62.137L1253.87 32.3844L1257.23 33.2136L1180.31 62.7223L1278.65 109.692L1169.28 112.131Z" fill="url(#paint18_radial_2670_17268)"/>
<path d="M1058.65 68.0853L1057.62 66.8172L1174.5 62.0372L1125.72 38.5278L1153.23 15.75L1156.74 16.2377L1129.96 38.5766L1181.08 63.0615L1058.65 68.0853Z" fill="url(#paint19_radial_2670_17268)"/>
<path d="M1433.96 342.258L1387.23 339.429L1262.74 311.383L1221.23 272.705L1165.67 162.766L1120.36 138.379L1011.34 133.55L732.612 105.944L687.102 93.6039L605.445 95.9938L605.836 94.5306L688.906 92.1406L735.003 104.578L1011.82 131.941L1122.7 136.818L1170.31 162.327L1226.99 272.558L1266.99 309.432L1387.77 336.551L1432.45 339.136L1433.96 342.258Z" fill="url(#paint20_radial_2670_17268)"/>
<path d="M1316.65 407.614L1200.61 386.007L1167.48 345.231L1173.53 344.597L1205.39 383.373L1310.8 402.932L1334.11 347.914L1335.19 326.453L1341.77 327.429L1340.85 349.182L1316.65 407.614Z" fill="url(#paint21_radial_2670_17268)"/>
<path d="M1250.11 435.896L1242.8 434.335L1255.67 394.438L1262.7 395.803L1250.11 435.896Z" fill="url(#paint22_radial_2670_17268)"/>
<path d="M1055.53 444.094L1032.85 413.219L1105.87 403.854L1070.85 350.3L1001.14 357.665L990.117 337.862L1046.94 226.07L1052.31 226.753L996.751 338.057L1005.63 353.763L1074.94 346.495L1114.85 406.634L1042.26 416.048L1062.26 442.923L1055.53 444.094Z" fill="url(#paint23_radial_2670_17268)"/>
<path d="M81.9479 341.621L78.6797 339.768L307.503 248.852L418.426 202.955L463.011 182.859L466.718 183.835L422.036 204.125L310.917 250.266L81.9479 341.621Z" fill="url(#paint24_radial_2670_17268)"/>
<path d="M196.825 384.543L191.898 383.08L380.82 273.483L479.939 220.904L529.255 197.297L533.109 198.37L483.988 222.026L385.259 274.605L196.825 384.543Z" fill="url(#paint25_radial_2670_17268)"/>
<path d="M402.771 164.371L365.016 152.031L413.405 136.325L491.256 114.474L548.035 86.5261L598.082 63.9922L601.399 64.5775L551.498 87.1114L494.036 115.45L415.99 137.447L372.381 151.64L406.819 162.859L402.771 164.371Z" fill="url(#paint26_radial_2670_17268)"/>
<path d="M685.979 93.204L665.102 74.9134L669.101 74.3281L690.076 92.5699L685.979 93.204Z" fill="url(#paint27_radial_2670_17268)"/>
<path d="M916.656 247.092L795.733 230.557L663.883 211.877L666.273 209.828L797.684 228.363L918.217 244.8L916.656 247.092Z" fill="url(#paint28_radial_2670_17268)"/>
<path d="M1148.21 280.456L1142.21 279.822L1146.8 245.68L1152.5 246.216L1148.21 280.456Z" fill="url(#paint29_radial_2670_17268)"/>
<path d="M1517.62 271.088L1445.77 206.851L1450.84 206.656L1523.18 270.844L1517.62 271.088Z" fill="url(#paint30_radial_2670_17268)"/>
<path d="M1463.91 283.43H1458.01L1367.04 174.906H1372.06L1463.91 283.43Z" fill="url(#paint31_radial_2670_17268)"/>
<path d="M1114.17 90.2825H1113.87L1044.17 87.6975L952.61 81.8933L856.271 75.2599L787.2 69.9922L750.323 56.6279L746.811 32.2406L727.641 20.5346L731.055 20.0469L750.616 31.9967L754.274 56.0426L789.59 68.8216L857.247 73.9918L953.244 80.5276L1044.36 86.3318L1113.39 88.868L1220.36 82.9175L1314.36 54.1404L1317.67 55.1159L1223.04 84.2345L1222.51 84.2832L1114.17 90.2825Z" fill="url(#paint32_radial_2670_17268)"/>
<path d="M1222.55 110.523L1115.77 64.5771L1066.99 39.897L834.558 28.9715L748.804 32.6296L658.319 33.7026L603.491 38.9215L541.054 45.4086L540.469 44.3355L602.808 37.8485L658.417 32.6296L748.756 31.5078L834.656 27.8984H834.948L1069.19 38.8728L1119.09 64.0405L1225.91 109.742L1222.55 110.523Z" fill="url(#paint33_radial_2670_17268)"/>
<path d="M1110.16 40.827L1108.45 39.754L1126.99 38.0469L1128.7 39.1199L1110.16 40.827Z" fill="url(#paint34_radial_2670_17268)"/>
<path d="M482.278 452.288L475.547 451.312L542.521 375.565L601.397 318.742L607.007 319.669L548.618 376.443L482.278 452.288Z" fill="url(#paint35_radial_2670_17268)"/>
<path d="M1022.36 545.938L965.968 465.606L881.141 416.295L791.046 400.59L637.245 385.567L543.199 377.422L476.274 352.4L358.765 342.206L309.45 316.551L210.672 288.359L242.183 220.66L247.939 220.172L217.647 286.457L314.913 314.161L363.448 339.182L480.713 349.474L547.492 374.3L639.44 382.055L793.095 397.078L884.995 412.978L972.553 463.753L1029.82 544.28L1022.36 545.938Z" fill="url(#paint36_radial_2670_17268)"/>
<path d="M850.907 478.186L747.593 466.578L593.305 437.02L505.259 421.608L409.456 416.437L292.923 390.733L221.413 365.614L111.172 328.009L137.22 242.897L137.805 242.507L228.876 189.488L333.458 159.297L335.8 160.565L232.486 190.513L143.171 242.75L118.489 325.863L227.022 362.639L298.045 387.465L413.505 412.779L508.283 417.852L596.719 433.216L750.081 462.432L852.42 473.894L850.907 478.186Z" fill="url(#paint37_radial_2670_17268)"/>
<path d="M682.175 255.871L677.492 254.7L730.418 219.875L734.954 220.948L682.175 255.871Z" fill="url(#paint38_radial_2670_17268)"/>
<path d="M857.194 237.777L852.023 236.948L893.193 192.953L898.071 193.685L857.194 237.777Z" fill="url(#paint39_radial_2670_17268)"/>
<path d="M857.142 117.596L853.094 116.962L881.386 96.6719L885.337 97.2572L857.142 117.596Z" fill="url(#paint40_radial_2670_17268)"/>
<path d="M600.273 141.005L596.469 140.224L648.614 113.203L652.321 113.935L600.273 141.005Z" fill="url(#paint41_radial_2670_17268)"/>
<path d="M1266.84 364.541L1218.06 315.034L1223.72 314.352L1272.89 363.712L1266.84 364.541Z" fill="url(#paint42_radial_2670_17268)"/>
<defs>
<radialGradient id="paint0_radial_2670_17268" cx="0" cy="0" r="1" gradientUnits="userSpaceOnUse" gradientTransform="translate(881.001 311.499) rotate(90) scale(311.499 881.001)">
<stop offset="0.46" stop-color="#0D2064"/>
<stop offset="0.99" stop-color="#10287E"/>
</radialGradient>
<radialGradient id="paint1_radial_2670_17268" cx="0" cy="0" r="1" gradientUnits="userSpaceOnUse" gradientTransform="translate(881.001 311.499) rotate(90) scale(311.499 881.001)">
<stop offset="0.46" stop-color="#0D2064"/>
<stop offset="0.99" stop-color="#10287E"/>
</radialGradient>
<radialGradient id="paint2_radial_2670_17268" cx="0" cy="0" r="1" gradientUnits="userSpaceOnUse" gradientTransform="translate(881.001 311.499) rotate(90) scale(311.499 881.001)">
<stop offset="0.46" stop-color="#0D2064"/>
<stop offset="0.99" stop-color="#10287E"/>
</radialGradient>
<radialGradient id="paint3_radial_2670_17268" cx="0" cy="0" r="1" gradientUnits="userSpaceOnUse" gradientTransform="translate(881.001 311.499) rotate(90) scale(311.499 881.001)">
<stop offset="0.46" stop-color="#0D2064"/>
<stop offset="0.99" stop-color="#10287E"/>
</radialGradient>
<radialGradient id="paint4_radial_2670_17268" cx="0" cy="0" r="1" gradientUnits="userSpaceOnUse" gradientTransform="translate(881.001 311.499) rotate(90) scale(311.499 881.001)">
<stop offset="0.46" stop-color="#0D2064"/>
<stop offset="0.99" stop-color="#10287E"/>
</radialGradient>
<radialGradient id="paint5_radial_2670_17268" cx="0" cy="0" r="1" gradientUnits="userSpaceOnUse" gradientTransform="translate(881.001 311.499) rotate(90) scale(311.499 881.001)">
<stop offset="0.46" stop-color="#0D2064"/>
<stop offset="0.99" stop-color="#10287E"/>
</radialGradient>
<radialGradient id="paint6_radial_2670_17268" cx="0" cy="0" r="1" gradientUnits="userSpaceOnUse" gradientTransform="translate(881.001 311.499) rotate(90) scale(311.499 881.001)">
<stop offset="0.46" stop-color="#0D2064"/>
<stop offset="0.99" stop-color="#10287E"/>
</radialGradient>
<radialGradient id="paint7_radial_2670_17268" cx="0" cy="0" r="1" gradientUnits="userSpaceOnUse" gradientTransform="translate(881.001 311.499) rotate(90) scale(311.499 881.001)">
<stop offset="0.46" stop-color="#0D2064"/>
<stop offset="0.99" stop-color="#10287E"/>
</radialGradient>
<radialGradient id="paint8_radial_2670_17268" cx="0" cy="0" r="1" gradientUnits="userSpaceOnUse" gradientTransform="translate(881.001 311.499) rotate(90) scale(311.499 881.001)">
<stop offset="0.46" stop-color="#0D2064"/>
<stop offset="0.99" stop-color="#10287E"/>
</radialGradient>
<radialGradient id="paint9_radial_2670_17268" cx="0" cy="0" r="1" gradientUnits="userSpaceOnUse" gradientTransform="translate(881.001 311.499) rotate(90) scale(311.499 881.001)">
<stop offset="0.46" stop-color="#0D2064"/>
<stop offset="0.99" stop-color="#10287E"/>
</radialGradient>
<radialGradient id="paint10_radial_2670_17268" cx="0" cy="0" r="1" gradientUnits="userSpaceOnUse" gradientTransform="translate(881.001 311.499) rotate(90) scale(311.499 881.001)">
<stop offset="0.46" stop-color="#0D2064"/>
<stop offset="0.99" stop-color="#10287E"/>
</radialGradient>
<radialGradient id="paint11_radial_2670_17268" cx="0" cy="0" r="1" gradientUnits="userSpaceOnUse" gradientTransform="translate(881.001 311.499) rotate(90) scale(311.499 881.001)">
<stop offset="0.46" stop-color="#0D2064"/>
<stop offset="0.99" stop-color="#10287E"/>
</radialGradient>
<radialGradient id="paint12_radial_2670_17268" cx="0" cy="0" r="1" gradientUnits="userSpaceOnUse" gradientTransform="translate(881.001 311.499) rotate(90) scale(311.499 881.001)">
<stop offset="0.46" stop-color="#0D2064"/>
<stop offset="0.99" stop-color="#10287E"/>
</radialGradient>
<radialGradient id="paint13_radial_2670_17268" cx="0" cy="0" r="1" gradientUnits="userSpaceOnUse" gradientTransform="translate(881.001 311.499) rotate(90) scale(311.499 881.001)">
<stop offset="0.46" stop-color="#0D2064"/>
<stop offset="0.99" stop-color="#10287E"/>
</radialGradient>
<radialGradient id="paint14_radial_2670_17268" cx="0" cy="0" r="1" gradientUnits="userSpaceOnUse" gradientTransform="translate(881.001 311.499) rotate(90) scale(311.499 881.001)">
<stop offset="0.46" stop-color="#0D2064"/>
<stop offset="0.99" stop-color="#10287E"/>
</radialGradient>
<radialGradient id="paint15_radial_2670_17268" cx="0" cy="0" r="1" gradientUnits="userSpaceOnUse" gradientTransform="translate(881.001 311.499) rotate(90) scale(311.499 881.001)">
<stop offset="0.46" stop-color="#0D2064"/>
<stop offset="0.99" stop-color="#10287E"/>
</radialGradient>
<radialGradient id="paint16_radial_2670_17268" cx="0" cy="0" r="1" gradientUnits="userSpaceOnUse" gradientTransform="translate(881.001 311.499) rotate(90) scale(311.499 881.001)">
<stop offset="0.46" stop-color="#0D2064"/>
<stop offset="0.99" stop-color="#10287E"/>
</radialGradient>
<radialGradient id="paint17_radial_2670_17268" cx="0" cy="0" r="1" gradientUnits="userSpaceOnUse" gradientTransform="translate(881.001 311.499) rotate(90) scale(311.499 881.001)">
<stop offset="0.46" stop-color="#0D2064"/>
<stop offset="0.99" stop-color="#10287E"/>
</radialGradient>
<radialGradient id="paint18_radial_2670_17268" cx="0" cy="0" r="1" gradientUnits="userSpaceOnUse" gradientTransform="translate(881.001 311.499) rotate(90) scale(311.499 881.001)">
<stop offset="0.46" stop-color="#0D2064"/>
<stop offset="0.99" stop-color="#10287E"/>
</radialGradient>
<radialGradient id="paint19_radial_2670_17268" cx="0" cy="0" r="1" gradientUnits="userSpaceOnUse" gradientTransform="translate(881.001 311.499) rotate(90) scale(311.499 881.001)">
<stop offset="0.46" stop-color="#0D2064"/>
<stop offset="0.99" stop-color="#10287E"/>
</radialGradient>
<radialGradient id="paint20_radial_2670_17268" cx="0" cy="0" r="1" gradientUnits="userSpaceOnUse" gradientTransform="translate(881.001 311.499) rotate(90) scale(311.499 881.001)">
<stop offset="0.46" stop-color="#0D2064"/>
<stop offset="0.99" stop-color="#10287E"/>
</radialGradient>
<radialGradient id="paint21_radial_2670_17268" cx="0" cy="0" r="1" gradientUnits="userSpaceOnUse" gradientTransform="translate(881.001 311.499) rotate(90) scale(311.499 881.001)">
<stop offset="0.46" stop-color="#0D2064"/>
<stop offset="0.99" stop-color="#10287E"/>
</radialGradient>
<radialGradient id="paint22_radial_2670_17268" cx="0" cy="0" r="1" gradientUnits="userSpaceOnUse" gradientTransform="translate(881.001 311.499) rotate(90) scale(311.499 881.001)">
<stop offset="0.46" stop-color="#0D2064"/>
<stop offset="0.99" stop-color="#10287E"/>
</radialGradient>
<radialGradient id="paint23_radial_2670_17268" cx="0" cy="0" r="1" gradientUnits="userSpaceOnUse" gradientTransform="translate(881.001 311.499) rotate(90) scale(311.499 881.001)">
<stop offset="0.46" stop-color="#0D2064"/>
<stop offset="0.99" stop-color="#10287E"/>
</radialGradient>
<radialGradient id="paint24_radial_2670_17268" cx="0" cy="0" r="1" gradientUnits="userSpaceOnUse" gradientTransform="translate(881.001 311.499) rotate(90) scale(311.499 881.001)">
<stop offset="0.46" stop-color="#0D2064"/>
<stop offset="0.99" stop-color="#10287E"/>
</radialGradient>
<radialGradient id="paint25_radial_2670_17268" cx="0" cy="0" r="1" gradientUnits="userSpaceOnUse" gradientTransform="translate(881.001 311.499) rotate(90) scale(311.499 881.001)">
<stop offset="0.46" stop-color="#0D2064"/>
<stop offset="0.99" stop-color="#10287E"/>
</radialGradient>
<radialGradient id="paint26_radial_2670_17268" cx="0" cy="0" r="1" gradientUnits="userSpaceOnUse" gradientTransform="translate(881.001 311.499) rotate(90) scale(311.499 881.001)">
<stop offset="0.46" stop-color="#0D2064"/>
<stop offset="0.99" stop-color="#10287E"/>
</radialGradient>
<radialGradient id="paint27_radial_2670_17268" cx="0" cy="0" r="1" gradientUnits="userSpaceOnUse" gradientTransform="translate(881.001 311.499) rotate(90) scale(311.499 881.001)">
<stop offset="0.46" stop-color="#0D2064"/>
<stop offset="0.99" stop-color="#10287E"/>
</radialGradient>
<radialGradient id="paint28_radial_2670_17268" cx="0" cy="0" r="1" gradientUnits="userSpaceOnUse" gradientTransform="translate(881.001 311.499) rotate(90) scale(311.499 881.001)">
<stop offset="0.46" stop-color="#0D2064"/>
<stop offset="0.99" stop-color="#10287E"/>
</radialGradient>
<radialGradient id="paint29_radial_2670_17268" cx="0" cy="0" r="1" gradientUnits="userSpaceOnUse" gradientTransform="translate(881.001 311.499) rotate(90) scale(311.499 881.001)">
<stop offset="0.46" stop-color="#0D2064"/>
<stop offset="0.99" stop-color="#10287E"/>
</radialGradient>
<radialGradient id="paint30_radial_2670_17268" cx="0" cy="0" r="1" gradientUnits="userSpaceOnUse" gradientTransform="translate(881.001 311.499) rotate(90) scale(311.499 881.001)">
<stop offset="0.46" stop-color="#0D2064"/>
<stop offset="0.99" stop-color="#10287E"/>
</radialGradient>
<radialGradient id="paint31_radial_2670_17268" cx="0" cy="0" r="1" gradientUnits="userSpaceOnUse" gradientTransform="translate(881.001 311.499) rotate(90) scale(311.499 881.001)">
<stop offset="0.46" stop-color="#0D2064"/>
<stop offset="0.99" stop-color="#10287E"/>
</radialGradient>
<radialGradient id="paint32_radial_2670_17268" cx="0" cy="0" r="1" gradientUnits="userSpaceOnUse" gradientTransform="translate(881.001 311.499) rotate(90) scale(311.499 881.001)">
<stop offset="0.46" stop-color="#0D2064"/>
<stop offset="0.99" stop-color="#10287E"/>
</radialGradient>
<radialGradient id="paint33_radial_2670_17268" cx="0" cy="0" r="1" gradientUnits="userSpaceOnUse" gradientTransform="translate(881.001 311.499) rotate(90) scale(311.499 881.001)">
<stop offset="0.46" stop-color="#0D2064"/>
<stop offset="0.99" stop-color="#10287E"/>
</radialGradient>
<radialGradient id="paint34_radial_2670_17268" cx="0" cy="0" r="1" gradientUnits="userSpaceOnUse" gradientTransform="translate(881.001 311.499) rotate(90) scale(311.499 881.001)">
<stop offset="0.46" stop-color="#0D2064"/>
<stop offset="0.99" stop-color="#10287E"/>
</radialGradient>
<radialGradient id="paint35_radial_2670_17268" cx="0" cy="0" r="1" gradientUnits="userSpaceOnUse" gradientTransform="translate(881.001 311.499) rotate(90) scale(311.499 881.001)">
<stop offset="0.46" stop-color="#0D2064"/>
<stop offset="0.99" stop-color="#10287E"/>
</radialGradient>
<radialGradient id="paint36_radial_2670_17268" cx="0" cy="0" r="1" gradientUnits="userSpaceOnUse" gradientTransform="translate(881.001 311.499) rotate(90) scale(311.499 881.001)">
<stop offset="0.46" stop-color="#0D2064"/>
<stop offset="0.99" stop-color="#10287E"/>
</radialGradient>
<radialGradient id="paint37_radial_2670_17268" cx="0" cy="0" r="1" gradientUnits="userSpaceOnUse" gradientTransform="translate(881.001 311.499) rotate(90) scale(311.499 881.001)">
<stop offset="0.46" stop-color="#0D2064"/>
<stop offset="0.99" stop-color="#10287E"/>
</radialGradient>
<radialGradient id="paint38_radial_2670_17268" cx="0" cy="0" r="1" gradientUnits="userSpaceOnUse" gradientTransform="translate(881.001 311.499) rotate(90) scale(311.499 881.001)">
<stop offset="0.46" stop-color="#0D2064"/>
<stop offset="0.99" stop-color="#10287E"/>
</radialGradient>
<radialGradient id="paint39_radial_2670_17268" cx="0" cy="0" r="1" gradientUnits="userSpaceOnUse" gradientTransform="translate(881.001 311.499) rotate(90) scale(311.499 881.001)">
<stop offset="0.46" stop-color="#0D2064"/>
<stop offset="0.99" stop-color="#10287E"/>
</radialGradient>
<radialGradient id="paint40_radial_2670_17268" cx="0" cy="0" r="1" gradientUnits="userSpaceOnUse" gradientTransform="translate(881.001 311.499) rotate(90) scale(311.499 881.001)">
<stop offset="0.46" stop-color="#0D2064"/>
<stop offset="0.99" stop-color="#10287E"/>
</radialGradient>
<radialGradient id="paint41_radial_2670_17268" cx="0" cy="0" r="1" gradientUnits="userSpaceOnUse" gradientTransform="translate(881.001 311.499) rotate(90) scale(311.499 881.001)">
<stop offset="0.46" stop-color="#0D2064"/>
<stop offset="0.99" stop-color="#10287E"/>
</radialGradient>
<radialGradient id="paint42_radial_2670_17268" cx="0" cy="0" r="1" gradientUnits="userSpaceOnUse" gradientTransform="translate(881.001 311.499) rotate(90) scale(311.499 881.001)">
<stop offset="0.46" stop-color="#0D2064"/>
<stop offset="0.99" stop-color="#10287E"/>
</radialGradient>
</defs>
</svg>
