<svg width="1280" height="677" viewBox="0 0 1280 677" fill="none" xmlns="http://www.w3.org/2000/svg">
<g clip-path="url(#clip0_6032_47941)">
<rect width="1280" height="677" fill="#021028"/>
<g opacity="0.2" clip-path="url(#clip1_6032_47941)">
<rect width="1358" height="715" transform="translate(-39)" fill="#334BE1"/>
<path d="M1254.16 820.299V0.107422" stroke="white" stroke-dasharray="6 6"/>
<path d="M1207.44 820.299V0.107422" stroke="white" stroke-dasharray="6 6"/>
<path d="M1160.72 820.299V0.107422" stroke="white" stroke-dasharray="6 6"/>
<path d="M1114 820.299V0.107422" stroke="white" stroke-dasharray="6 6"/>
<path d="M1067.27 820.299V0.107422" stroke="white" stroke-dasharray="6 6"/>
<path d="M1020.55 820.299V0.107422" stroke="white" stroke-dasharray="6 6"/>
<path d="M973.828 820.299V0.107422" stroke="white" stroke-dasharray="6 6"/>
<path d="M927.109 820.299V0.107422" stroke="white" stroke-dasharray="6 6"/>
<path d="M880.391 820.299V0.107422" stroke="white" stroke-dasharray="6 6"/>
<path d="M833.664 820.299V0.107422" stroke="white" stroke-dasharray="6 6"/>
<path d="M786.945 820.299V0.107422" stroke="white" stroke-dasharray="6 6"/>
<path d="M740.219 820.299V0.107422" stroke="white" stroke-dasharray="6 6"/>
<path d="M693.492 820.299V0.107422" stroke="white" stroke-dasharray="6 6"/>
<path d="M646.75 820.311V0.119629" stroke="white" stroke-dasharray="6 6"/>
<path d="M600.031 820.311V0.119629" stroke="white" stroke-dasharray="6 6"/>
<path d="M553.305 820.311V0.119629" stroke="white" stroke-dasharray="6 6"/>
<path d="M506.586 820.311V0.119629" stroke="white" stroke-dasharray="6 6"/>
<path d="M459.859 820.311V0.119629" stroke="white" stroke-dasharray="6 6"/>
<path d="M413.141 820.311V0.119629" stroke="white" stroke-dasharray="6 6"/>
<path d="M366.422 820.311V0.119629" stroke="white" stroke-dasharray="6 6"/>
<path d="M319.688 820.311L319.689 0.120117" stroke="white" stroke-dasharray="6 6"/>
<path d="M272.969 820.311V0.120117" stroke="white" stroke-dasharray="6 6"/>
<path d="M226.258 820.311V0.119629" stroke="white" stroke-dasharray="6 6"/>
<path d="M179.523 820.311L179.524 0.120117" stroke="white" stroke-dasharray="6 6"/>
<path d="M132.797 820.311V0.119629" stroke="white" stroke-dasharray="6 6"/>
<path d="M86.0781 820.311V0.119629" stroke="white" stroke-dasharray="6 6"/>
<path d="M39.3594 820.311L39.3595 0.120117" stroke="white" stroke-dasharray="6 6"/>
<path d="M-38.6328 634.731L1427.51 634.732" stroke="white" stroke-dasharray="6 6"/>
<path d="M-38.6328 584.72H1427.51" stroke="white" stroke-dasharray="6 6"/>
<path d="M-38.6328 534.71H1427.51" stroke="white" stroke-dasharray="6 6"/>
<path d="M-38.6328 484.695L1427.51 484.696" stroke="white" stroke-dasharray="6 6"/>
<path d="M-38.6328 434.683H1427.51" stroke="white" stroke-dasharray="6 6"/>
<path d="M-38.6328 384.673H1427.51" stroke="white" stroke-dasharray="6 6"/>
<path d="M-38.6328 334.661L1427.51 334.662" stroke="white" stroke-dasharray="6 6"/>
<path d="M-38.6328 284.649H1427.51" stroke="white" stroke-dasharray="6 6"/>
<path d="M-38.6328 234.639H1427.51" stroke="white" stroke-dasharray="6 6"/>
<path d="M-38.6328 184.626L1427.51 184.627" stroke="white" stroke-dasharray="6 6"/>
<path d="M-38.6328 134.615H1427.51" stroke="white" stroke-dasharray="6 6"/>
<path d="M-38.6328 84.6025L1427.51 84.6027" stroke="white" stroke-dasharray="6 6"/>
<path d="M-38.6328 34.5928L1427.51 34.593" stroke="white" stroke-dasharray="6 6"/>
<rect width="1280" height="725" fill="url(#paint0_radial_6032_47941)"/>
</g>
</g>
<defs>
<radialGradient id="paint0_radial_6032_47941" cx="0" cy="0" r="1" gradientUnits="userSpaceOnUse" gradientTransform="translate(388 384.877) rotate(90) scale(276.574 488.296)">
<stop stop-opacity="0"/>
<stop offset="1" stop-opacity="0.9"/>
</radialGradient>
<clipPath id="clip0_6032_47941">
<rect width="1280" height="677" fill="white"/>
</clipPath>
<clipPath id="clip1_6032_47941">
<rect width="1358" height="715" fill="white" transform="translate(-39)"/>
</clipPath>
</defs>
</svg>
