<svg width="1920" height="376" viewBox="0 0 1920 376" fill="none" xmlns="http://www.w3.org/2000/svg">
<g opacity="0.33" clip-path="url(#clip0_18_47)">
<path d="M295.41 -54.2172V-0.449347L341.988 26.431L388.558 -0.449347V-54.2172" stroke="#4068FF" stroke-width="0.66" stroke-miterlimit="10"/>
<path d="M388.559 -54.2172V-0.449347L435.136 26.431" stroke="#4068FF" stroke-width="0.66" stroke-miterlimit="10"/>
<path d="M388.559 107.079V53.3115L435.136 26.431L481.714 53.3115V107.079L435.136 133.967L388.559 107.079Z" stroke="#4068FF" stroke-width="0.66" stroke-miterlimit="10"/>
<path d="M295.41 53.3114V-0.449313L341.988 -27.3369L388.558 -0.449313" stroke="#4068FF" stroke-width="0.66" stroke-miterlimit="10"/>
<path d="M435.145 26.4312L388.574 -0.449161V-54.217L435.145 -81.1045L481.723 -54.217" stroke="#4068FF" stroke-width="0.66" stroke-miterlimit="10"/>
<path d="M668.012 -54.2173V-0.449408L714.582 26.4309" stroke="#4068FF" stroke-width="0.66" stroke-miterlimit="10"/>
<path d="M714.597 26.4312L668.02 -0.449161V-54.217L714.597 -81.1045L761.168 -54.217" stroke="#4068FF" stroke-width="0.66" stroke-miterlimit="10"/>
<path d="M854.316 53.3114V-0.449374L807.746 -27.3369L761.168 -0.449374" stroke="#4068FF" stroke-width="0.66" stroke-miterlimit="10"/>
<path d="M854.321 160.847L900.898 133.967V80.199L854.321 53.3115L807.75 80.199" stroke="#4068FF" stroke-width="0.66" stroke-miterlimit="10"/>
<path d="M761.175 107.079L714.598 133.967V187.727L761.175 214.615L807.753 187.727" stroke="#4068FF" stroke-width="0.66" stroke-miterlimit="10"/>
<path d="M714.598 187.727V133.967L761.175 107.079L807.753 133.967" stroke="#4068FF" stroke-width="0.66" stroke-miterlimit="10"/>
<path d="M621.449 80.1987V133.967L668.027 160.847" stroke="#4068FF" stroke-width="0.66" stroke-miterlimit="10"/>
<path d="M807.75 187.727V133.967L854.321 107.079L900.898 133.967V187.727L854.321 214.615L807.75 187.727Z" stroke="#4068FF" stroke-width="0.66" stroke-miterlimit="10"/>
<path d="M621.449 241.495V187.728L668.027 160.847L714.598 187.728V241.495L668.027 268.383L621.449 241.495Z" stroke="#4068FF" stroke-width="0.66" stroke-miterlimit="10"/>
<path d="M807.753 133.967V187.728L761.175 214.615L714.598 187.728V133.967" stroke="#4068FF" stroke-width="0.66" stroke-miterlimit="10"/>
<path d="M714.594 133.967V187.728L668.023 214.615" stroke="#4068FF" stroke-width="0.66" stroke-miterlimit="10"/>
<path d="M761.18 268.383V214.615L807.757 187.728L854.335 214.615V268.383L807.757 295.263L761.18 268.383Z" stroke="#4068FF" stroke-width="0.66" stroke-miterlimit="10"/>
<path d="M714.609 187.728L761.18 214.615V268.383L714.609 295.263L668.031 268.383" stroke="#4068FF" stroke-width="0.66" stroke-miterlimit="10"/>
<path d="M668.031 214.615V160.847L714.609 133.967L761.18 160.847" stroke="#4068FF" stroke-width="0.66" stroke-miterlimit="10"/>
<path d="M761.18 268.383V214.615L714.609 187.728L668.031 214.615" stroke="#4068FF" stroke-width="0.66" stroke-miterlimit="10"/>
<path d="M854.336 160.847V214.615L807.758 241.495" stroke="#4068FF" stroke-width="0.66" stroke-miterlimit="10"/>
<path d="M807.758 187.727V133.967L854.336 107.079L900.906 133.967V187.727L854.336 214.615L807.758 187.727Z" stroke="#4068FF" stroke-width="0.66" stroke-miterlimit="10"/>
<path d="M668.032 160.847L621.461 133.967V80.199L668.032 53.3115L714.609 80.199" stroke="#4068FF" stroke-width="0.66" stroke-miterlimit="10"/>
<path d="M761.18 107.079L807.758 133.967V187.727L761.18 214.615L714.609 187.727" stroke="#4068FF" stroke-width="0.66" stroke-miterlimit="10"/>
<path d="M807.758 187.727V133.967L761.18 107.079L714.609 133.967" stroke="#4068FF" stroke-width="0.66" stroke-miterlimit="10"/>
<path d="M668.054 -0.449219L621.477 26.4311V80.199L668.054 107.079L714.632 80.199" stroke="#4068FF" stroke-width="0.66" stroke-miterlimit="10"/>
<path d="M1692.69 -0.449161V-54.217L1646.11 -81.1045L1599.54 -54.217V-0.449161L1646.11 26.4312L1692.69 -0.449161Z" stroke="#4068FF" stroke-width="0.66" stroke-miterlimit="10"/>
<path d="M1459.82 -81.1045L1413.25 -54.217V-0.449161L1459.82 26.4312L1506.4 -0.449161" stroke="#4068FF" stroke-width="0.66" stroke-miterlimit="10"/>
<path d="M1506.4 -0.449161V-54.217L1552.97 -81.1045L1599.55 -54.217V-0.449161L1552.97 26.4312L1506.4 -0.449161Z" stroke="#4068FF" stroke-width="0.66" stroke-miterlimit="10"/>
<path d="M1320.1 53.3114V-0.449374L1366.68 -27.3369L1413.25 -0.449374V53.3114L1366.68 80.1988L1320.1 53.3114Z" stroke="#4068FF" stroke-width="0.66" stroke-miterlimit="10"/>
<path d="M1506.4 -54.2173V-0.449408L1459.82 26.4309L1413.25 -0.449408V-54.2173" stroke="#4068FF" stroke-width="0.66" stroke-miterlimit="10"/>
<path d="M1413.25 -54.2173V-0.449408L1366.68 26.4309" stroke="#4068FF" stroke-width="0.66" stroke-miterlimit="10"/>
<path d="M1459.83 80.199V26.4311L1506.41 -0.449219L1552.98 26.4311V80.199L1506.41 107.079L1459.83 80.199Z" stroke="#4068FF" stroke-width="0.66" stroke-miterlimit="10"/>
<path d="M1413.27 -0.449219L1459.84 26.4311V80.199L1413.27 107.079L1366.69 80.199" stroke="#4068FF" stroke-width="0.66" stroke-miterlimit="10"/>
<path d="M1366.69 26.4309V-27.3369L1413.27 -54.2173L1459.84 -27.3369" stroke="#4068FF" stroke-width="0.66" stroke-miterlimit="10"/>
<path d="M1459.84 80.199V26.4311L1413.27 -0.449219L1366.69 26.4311" stroke="#4068FF" stroke-width="0.66" stroke-miterlimit="10"/>
<path d="M1506.41 -0.449161V-54.217L1552.98 -81.1045L1599.56 -54.217V-0.449161L1552.98 26.4312L1506.41 -0.449161Z" stroke="#4068FF" stroke-width="0.66" stroke-miterlimit="10"/>
<path d="M1459.84 -81.1045L1506.41 -54.217V-0.449161L1459.84 26.4312L1413.27 -0.449161" stroke="#4068FF" stroke-width="0.66" stroke-miterlimit="10"/>
<path d="M1459.81 80.1987V133.967L1506.39 160.847L1552.97 133.967V80.1987" stroke="#4068FF" stroke-width="0.66" stroke-miterlimit="10"/>
<path d="M1552.97 80.1987V133.967" stroke="#4068FF" stroke-width="0.66" stroke-miterlimit="10"/>
<path d="M1459.81 133.967L1506.39 107.079L1552.97 133.967" stroke="#4068FF" stroke-width="0.66" stroke-miterlimit="10"/>
<path d="M1646.12 80.199V26.4311L1599.55 -0.449219L1552.98 26.4311V80.199L1599.55 107.079L1646.12 80.199Z" stroke="#4068FF" stroke-width="0.66" stroke-miterlimit="10"/>
<path d="M1552.98 133.967V80.199L1599.55 53.3115L1646.12 80.199" stroke="#4068FF" stroke-width="0.66" stroke-miterlimit="10"/>
<path d="M1692.71 -0.449219L1739.28 26.4311V80.199L1692.71 107.079L1646.13 80.199" stroke="#4068FF" stroke-width="0.66" stroke-miterlimit="10"/>
<path d="M1646.13 26.4309V-27.3369L1692.71 -54.2173L1739.28 -27.3369" stroke="#4068FF" stroke-width="0.66" stroke-miterlimit="10"/>
<path d="M1739.28 80.199V26.4311L1692.71 -0.449219L1646.13 26.4311" stroke="#4068FF" stroke-width="0.66" stroke-miterlimit="10"/>
<path d="M1226.96 -54.2173V-0.449408L1273.53 26.4309L1320.11 -0.449408V-54.2173" stroke="#4068FF" stroke-width="0.66" stroke-miterlimit="10"/>
<path d="M1226.96 53.3114V-0.449374L1273.53 -27.3369L1320.11 -0.449374" stroke="#4068FF" stroke-width="0.66" stroke-miterlimit="10"/>
<path d="M900.949 26.4309V-27.3369L947.52 -54.2173L994.098 -27.3369V26.4309L947.52 53.3114L900.949 26.4309Z" stroke="#4068FF" stroke-width="0.66" stroke-miterlimit="10"/>
<path d="M900.929 26.431V80.1989L947.5 107.079L994.078 80.1989V26.431" stroke="#4068FF" stroke-width="0.66" stroke-miterlimit="10"/>
<path d="M994.078 26.4312V80.199L1040.65 107.079" stroke="#4068FF" stroke-width="0.66" stroke-miterlimit="10"/>
<path d="M994.078 187.727V133.967L1040.65 107.079L1087.23 133.967V187.727L1040.65 214.615L994.078 187.727Z" stroke="#4068FF" stroke-width="0.66" stroke-miterlimit="10"/>
<path d="M900.929 133.967V80.1988L947.5 53.3113L994.078 80.1988" stroke="#4068FF" stroke-width="0.66" stroke-miterlimit="10"/>
<path d="M1087.23 80.1987V133.967L1040.65 160.847" stroke="#4068FF" stroke-width="0.66" stroke-miterlimit="10"/>
<path d="M1087.23 26.4309V-27.3369L1040.66 -54.2173L994.086 -27.3369V26.4309L1040.66 53.3114L1087.23 26.4309Z" stroke="#4068FF" stroke-width="0.66" stroke-miterlimit="10"/>
<path d="M1040.66 107.079L994.086 80.199V26.4311L1040.66 -0.449219L1087.23 26.4311" stroke="#4068FF" stroke-width="0.66" stroke-miterlimit="10"/>
<path d="M1180.39 26.431V-27.3369L1226.97 -54.2172L1273.54 -27.3369V26.431L1226.97 53.3114L1180.39 26.431Z" stroke="#4068FF" stroke-width="0.66" stroke-miterlimit="10"/>
<path d="M1133.82 -54.2173L1180.39 -27.3369V26.4309L1133.82 53.3114L1087.25 26.4309" stroke="#4068FF" stroke-width="0.66" stroke-miterlimit="10"/>
<path d="M1180.39 26.4309V-27.3369L1133.82 -54.2173L1087.25 -27.3369" stroke="#4068FF" stroke-width="0.66" stroke-miterlimit="10"/>
<path d="M1180.38 26.431V80.1989L1226.95 107.079L1273.52 80.1989V26.431" stroke="#4068FF" stroke-width="0.66" stroke-miterlimit="10"/>
<path d="M947.363 107.079V53.3116L993.941 26.4312L1040.51 53.3116" stroke="#4068FF" stroke-width="0.66" stroke-miterlimit="10"/>
<path d="M1180.38 133.967V80.1988L1226.95 53.3113L1273.52 80.1988" stroke="#4068FF" stroke-width="0.66" stroke-miterlimit="10"/>
<path d="M1226.99 160.847V107.079L1180.41 80.1987L1133.84 107.079V160.847L1180.41 187.727L1226.99 160.847Z" stroke="#4068FF" stroke-width="0.66" stroke-miterlimit="10"/>
<path d="M1133.83 107.079L1087.26 133.967V187.727L1133.83 214.615L1180.41 187.727" stroke="#4068FF" stroke-width="0.66" stroke-miterlimit="10"/>
<path d="M1087.26 187.727V133.967L1133.83 107.079L1180.41 133.967" stroke="#4068FF" stroke-width="0.66" stroke-miterlimit="10"/>
<path d="M248.77 26.4309V-27.3369L295.347 -54.2173L341.918 -27.3369V26.4309L295.347 53.3114L248.77 26.4309Z" stroke="#4068FF" stroke-width="0.66" stroke-miterlimit="10"/>
<path d="M155.629 26.4309V-27.3369L202.2 -54.2173L248.777 -27.3369" stroke="#4068FF" stroke-width="0.66" stroke-miterlimit="10"/>
<path d="M-77.2539 160.847V107.079L-30.6761 80.1987L15.8945 107.079V160.847L-30.6761 187.727L-77.2539 160.847Z" stroke="#4068FF" stroke-width="0.66" stroke-miterlimit="10"/>
<path d="M15.8949 53.3115V107.079L-30.6758 133.967" stroke="#4068FF" stroke-width="0.66" stroke-miterlimit="10"/>
<path d="M-30.6683 80.1988L-77.2461 53.3114V-0.449374L-30.6683 -27.3369L15.9095 -0.449374" stroke="#4068FF" stroke-width="0.66" stroke-miterlimit="10"/>
<path d="M109.062 -0.449161V-54.217L155.64 -81.1045L202.211 -54.217V-0.449161L155.64 26.4312L109.062 -0.449161Z" stroke="#4068FF" stroke-width="0.66" stroke-miterlimit="10"/>
<path d="M62.4847 -81.1045L109.062 -54.217V-0.449161L62.4847 26.4312L15.9141 -0.449161" stroke="#4068FF" stroke-width="0.66" stroke-miterlimit="10"/>
<path d="M109.043 -0.449219V53.3115L155.621 80.199L202.191 53.3115V-0.449219" stroke="#4068FF" stroke-width="0.66" stroke-miterlimit="10"/>
<path d="M109.043 107.079V53.3116L155.621 26.4312L202.191 53.3116" stroke="#4068FF" stroke-width="0.66" stroke-miterlimit="10"/>
<path d="M155.664 133.967V80.199L109.086 53.3115L62.5156 80.199V133.967L109.086 160.847L155.664 133.967Z" stroke="#4068FF" stroke-width="0.66" stroke-miterlimit="10"/>
<path d="M62.5003 80.1987L15.9297 107.079V160.847L62.5003 187.727L109.078 160.847" stroke="#4068FF" stroke-width="0.66" stroke-miterlimit="10"/>
<path d="M15.9297 160.847V107.079L62.5003 80.1987L109.078 107.079" stroke="#4068FF" stroke-width="0.66" stroke-miterlimit="10"/>
<path d="M947.387 -0.449161V-54.217L993.964 -81.1045L1040.54 -54.217V-0.449161L993.964 26.4312L947.387 -0.449161Z" stroke="#94AAFF" stroke-width="0.66" stroke-miterlimit="10"/>
<path d="M900.812 -81.1045L947.383 -54.217V-0.449161L900.812 26.4312L854.234 -0.449161" stroke="#94AAFF" stroke-width="0.66" stroke-miterlimit="10"/>
<path d="M947.363 -0.449219V53.3115L993.941 80.199L1040.51 53.3115V-0.449219" stroke="#94AAFF" stroke-width="0.66" stroke-miterlimit="10"/>
<path d="M947.363 107.079V53.3111L993.941 26.4307L1040.51 53.3111" stroke="#94AAFF" stroke-width="0.66" stroke-miterlimit="10"/>
<path d="M807.727 -27.3364L761.156 -0.448885V53.3119L807.727 80.1993L854.305 53.3119" stroke="#94AAFF" stroke-width="0.66" stroke-miterlimit="10"/>
<path d="M761.156 53.3119V-0.448885L807.727 -27.3364L854.305 -0.448885" stroke="#94AAFF" stroke-width="0.66" stroke-miterlimit="10"/>
<path d="M668.008 107.079V53.3116L714.578 26.4312L761.156 53.3116V107.079L714.578 133.967L668.008 107.079Z" stroke="#94AAFF" stroke-width="0.66" stroke-miterlimit="10"/>
<path d="M574.855 53.3119V-0.448885L621.433 -27.3364L668.011 -0.448885" stroke="#94AAFF" stroke-width="0.66" stroke-miterlimit="10"/>
<path d="M854.305 -0.449219V53.3115L807.727 80.199L761.156 53.3115V-0.449219" stroke="#94AAFF" stroke-width="0.66" stroke-miterlimit="10"/>
<path d="M761.156 -0.449219V53.3115L714.578 80.199" stroke="#94AAFF" stroke-width="0.66" stroke-miterlimit="10"/>
<path d="M574.855 -54.2168V-0.448919L621.433 26.4314L668.011 -0.448919V-54.2168" stroke="#94AAFF" stroke-width="0.66" stroke-miterlimit="10"/>
<path d="M1552.98 -27.3364V26.4315L1506.41 53.3119" stroke="#94AAFF" stroke-width="0.66" stroke-miterlimit="10"/>
<path d="M900.816 -81.1045L947.387 -54.217V-0.449161L900.816 26.4312L854.238 -0.449161" stroke="#6685FA" stroke-width="3.6" stroke-miterlimit="10"/>
<path d="M1878.93 -107.985L1832.35 -81.1043V-27.3365L1878.93 -0.448986L1925.5 -27.3365" stroke="#6685FA" stroke-width="3.6" stroke-miterlimit="10"/>
<path d="M590.904 62.5609V44.0339L574.854 34.7705L558.805 44.0339V62.5609L574.854 71.8243L590.904 62.5609Z" fill="#98AEFF"/>
</g>
<defs>
<clipPath id="clip0_18_47">
<rect width="1920" height="376" fill="white"/>
</clipPath>
</defs>
</svg>
