<svg width="522" height="357" viewBox="0 0 522 357" fill="none" xmlns="http://www.w3.org/2000/svg">
<path d="M0 10.5811C0 4.73733 4.73731 0 10.5811 0H511.419C517.263 0 522 4.73731 522 10.5811V356.23H0V10.5811Z" fill="#4363DE" fill-opacity="0.1"/>
<rect x="15" y="14.1195" width="74.0676" height="10.5811" rx="5.29054" fill="#112884"/>
<rect x="15" y="27.9164" width="32.625" height="7.05405" rx="3.52703" fill="#112884"/>
<path d="M383.992 23.9795C383.992 18.8662 388.137 14.7211 393.251 14.7211H412.823V33.238H393.251C388.137 33.238 383.992 29.0928 383.992 23.9795V23.9795Z" fill="#112884"/>
<path d="M412.844 14.7211H444.404V33.238H412.844V14.7211Z" fill="#112884"/>
<path d="M444.383 14.557H475.943V33.3987H444.383V14.557Z" fill="#112884"/>
<path d="M475.961 14.557H500.455C505.658 14.557 509.876 18.7749 509.876 23.9779V23.9779C509.876 29.1809 505.658 33.3987 500.455 33.3987H475.961V14.557Z" fill="#112884"/>
<rect x="14.9766" y="52.9086" width="31.7432" height="21.1622" rx="3.52703" fill="#112884"/>
<rect x="53.7812" y="52.9086" width="59.0777" height="21.1622" rx="3.52703" fill="#112884"/>
<rect x="119.922" y="52.9086" width="59.0777" height="21.1622" rx="3.52703" fill="#112884"/>
<rect x="186.055" y="52.9086" width="59.0777" height="21.1622" rx="3.52703" fill="#112884"/>
<rect x="252.188" y="52.9086" width="59.0777" height="21.1622" rx="3.52703" fill="#112884"/>
<rect x="318.312" y="52.9086" width="59.0777" height="21.1622" rx="3.52703" fill="#112884"/>
<rect x="384.43" y="52.9086" width="59.0777" height="21.1622" rx="3.52703" fill="#112884"/>
<rect x="450.57" y="52.9086" width="59.0777" height="21.1622" rx="3.52703" fill="#112884"/>
<rect x="14.9766" y="81.1273" width="31.7432" height="59.9594" rx="3.52703" fill="#112884"/>
<rect x="14.9766" y="148.127" width="31.7432" height="59.9594" rx="3.52703" fill="#112884"/>
<rect x="14.9766" y="215.159" width="31.7432" height="59.9594" rx="3.52703" fill="#112884"/>
<rect x="14.9766" y="282.166" width="31.7432" height="59.9594" rx="3.52703" fill="#112884"/>
<rect x="53.7812" y="81.1273" width="59.9595" height="59.9594" rx="3.52703" fill="#112884"/>
<rect x="53.7812" y="148.127" width="59.9595" height="59.9594" rx="3.52703" fill="#112884"/>
<rect x="53.7812" y="215.159" width="59.9595" height="59.9594" rx="3.52703" fill="#112884"/>
<rect x="53.7812" y="282.166" width="59.9595" height="59.9594" rx="3.52703" fill="#112884"/>
<rect x="119.922" y="81.1273" width="59.9595" height="59.9594" rx="3.52703" fill="#112884"/>
<rect x="119.922" y="148.127" width="59.9595" height="59.9594" rx="3.52703" fill="#112884"/>
<rect x="119.922" y="215.159" width="59.9595" height="59.9594" rx="3.52703" fill="#112884"/>
<rect x="119.922" y="282.166" width="59.9595" height="59.9594" rx="3.52703" fill="#112884"/>
<rect x="186.055" y="81.1273" width="59.9595" height="59.9594" rx="3.52703" fill="#112884"/>
<rect x="186.055" y="148.127" width="59.9595" height="59.9594" rx="3.52703" fill="#112884"/>
<rect x="186.055" y="215.159" width="59.9595" height="59.9594" rx="3.52703" fill="#112884"/>
<rect x="186.055" y="282.166" width="59.9595" height="59.9594" rx="3.52703" fill="#112884"/>
<rect x="252.188" y="81.1273" width="59.9595" height="59.9594" rx="3.52703" fill="#112884"/>
<rect x="252.188" y="148.127" width="59.9595" height="59.9594" rx="3.52703" fill="#112884"/>
<rect x="252.188" y="215.159" width="59.9595" height="59.9594" rx="3.52703" fill="#112884"/>
<rect x="252.188" y="282.166" width="59.9595" height="59.9594" rx="3.52703" fill="#112884"/>
<rect x="318.312" y="81.1273" width="59.9595" height="59.9594" rx="3.52703" fill="#112884"/>
<rect x="318.312" y="148.127" width="59.9595" height="59.9594" rx="3.52703" fill="#112884"/>
<rect x="318.312" y="215.159" width="59.9595" height="59.9594" rx="3.52703" fill="#112884"/>
<rect x="318.312" y="282.166" width="59.9595" height="59.9594" rx="3.52703" fill="#112884"/>
<rect x="384.43" y="81.1273" width="59.9595" height="59.9594" rx="3.52703" fill="#112884"/>
<rect x="384.43" y="148.127" width="59.9595" height="59.9594" rx="3.52703" fill="#112884"/>
<rect x="384.43" y="215.159" width="59.9595" height="59.9594" rx="3.52703" fill="#112884"/>
<rect x="384.43" y="282.166" width="59.9595" height="59.9594" rx="3.52703" fill="#112884"/>
<rect x="450.57" y="81.1273" width="59.9595" height="59.9594" rx="3.52703" fill="#112884"/>
<rect x="450.57" y="148.127" width="59.9595" height="59.9594" rx="3.52703" fill="#112884"/>
<rect x="450.57" y="215.159" width="59.9595" height="59.9594" rx="3.52703" fill="#112884"/>
<rect x="450.57" y="282.166" width="59.9595" height="59.9594" rx="3.52703" fill="#112884"/>
</svg>
