<svg width="40" height="44" viewBox="0 0 40 44" fill="none" xmlns="http://www.w3.org/2000/svg">
<path opacity="0.2" d="M39.6731 14.5927V29.4126C39.6731 31.8393 38.3731 34.0926 36.2714 35.3276L23.4014 42.7593C21.2998 43.9726 18.6998 43.9726 16.5764 42.7593L3.70635 35.3276C1.60469 34.1143 0.304688 31.8609 0.304688 29.4126V14.5927C0.304688 12.166 1.60469 9.91258 3.70635 8.67758L16.5764 1.24594C18.6781 0.0326042 21.2781 0.0326042 23.4014 1.24594L36.2714 8.67758C38.3731 9.91258 39.6731 12.1443 39.6731 14.5927Z" fill="white"/>
<path d="M15.65 30.91C15.62 30.91 15.58 30.93 15.55 30.93C13.61 29.97 12.03 28.38 11.06 26.44C11.06 26.41 11.08 26.37 11.08 26.34C12.3 26.7 13.56 26.97 14.81 27.18C15.03 28.44 15.29 29.69 15.65 30.91Z" fill="white"/>
<path d="M28.94 26.45C27.95 28.44 26.3 30.05 24.29 31.02C24.67 29.75 24.99 28.47 25.2 27.18C26.46 26.97 27.7 26.7 28.92 26.34C28.91 26.38 28.94 26.42 28.94 26.45Z" fill="white"/>
<path d="M29.02 17.71C27.76 17.33 26.49 17.02 25.2 16.8C24.99 15.51 24.68 14.23 24.29 12.98C26.36 13.97 28.03 15.64 29.02 17.71Z" fill="white"/>
<path d="M15.65 13.09C15.29 14.31 15.03 15.55 14.82 16.81C13.53 17.01 12.25 17.33 10.98 17.71C11.95 15.7 13.56 14.05 15.55 13.06C15.58 13.06 15.62 13.09 15.65 13.09Z" fill="white"/>
<path d="M23.49 16.59C21.17 16.33 18.83 16.33 16.51 16.59C16.76 15.22 17.08 13.85 17.53 12.53C17.55 12.45 17.54 12.39 17.55 12.31C18.34 12.12 19.15 12 20 12C20.84 12 21.66 12.12 22.44 12.31C22.45 12.39 22.45 12.45 22.47 12.53C22.92 13.86 23.24 15.22 23.49 16.59Z" fill="white"/>
<path d="M14.59 25.49C13.21 25.24 11.85 24.92 10.53 24.47C10.45 24.45 10.39 24.46 10.31 24.45C10.12 23.66 10 22.85 10 22C10 21.16 10.12 20.34 10.31 19.56C10.39 19.55 10.45 19.55 10.53 19.53C11.86 19.09 13.21 18.76 14.59 18.51C14.34 20.83 14.34 23.17 14.59 25.49Z" fill="white"/>
<path d="M30 22C30 22.85 29.88 23.66 29.69 24.45C29.61 24.46 29.55 24.45 29.47 24.47C28.14 24.91 26.78 25.24 25.41 25.49C25.67 23.17 25.67 20.83 25.41 18.51C26.78 18.76 28.15 19.08 29.47 19.53C29.55 19.55 29.61 19.56 29.69 19.56C29.88 20.35 30 21.16 30 22Z" fill="white"/>
<path d="M23.49 27.41C23.24 28.79 22.92 30.15 22.47 31.47C22.45 31.55 22.45 31.61 22.44 31.69C21.66 31.88 20.84 32 20 32C19.15 32 18.34 31.88 17.55 31.69C17.54 31.61 17.55 31.55 17.53 31.47C17.09 30.14 16.76 28.79 16.51 27.41C17.67 27.54 18.83 27.63 20 27.63C21.17 27.63 22.34 27.54 23.49 27.41Z" fill="white"/>
<path d="M23.7633 25.7633C21.2622 26.0789 18.7378 26.0789 16.2367 25.7633C15.9211 23.2622 15.9211 20.7378 16.2367 18.2367C18.7378 17.9211 21.2622 17.9211 23.7633 18.2367C24.0789 20.7378 24.0789 23.2622 23.7633 25.7633Z" fill="white"/>
</svg>
