<svg width="82" height="81" viewBox="0 0 82 81" fill="none" xmlns="http://www.w3.org/2000/svg">
<rect x="0.875" width="80.25" height="80.25" rx="9" fill="#D1ECFF"/>
<path d="M46.0311 43.7555L56.6955 35.4015L58.3604 20.8577L46.0311 14.0703L41.0262 20.9486C43.6163 22.2491 45.4559 24.8454 45.6771 27.8743C45.9546 31.6844 43.6443 35.2316 40.0568 36.4992C35.2897 38.186 32.0859 42.7367 32.0859 47.8241V50.0096C32.0859 52.8564 34.3937 55.1642 37.2392 55.1642H44.7773L46.0311 43.7555Z" fill="#FE9738"/>
<path d="M31.1605 33.6725H23.6228C20.7763 33.6725 18.4688 31.3649 18.4688 28.5184C18.4688 27.6459 18.5296 26.7674 18.6496 25.9074C20 16.2295 28.7154 9.14869 38.4912 9.79036H46.0303L40.6669 15.2058" fill="#FE9738"/>
<path d="M44.7778 60.1484H37.24C34.3935 60.1484 32.0859 62.456 32.0859 65.3025V65.3452C32.0859 68.1916 34.3935 70.4992 37.24 70.4992H43.8611" fill="#FE9738"/>
<path d="M44.7689 55.1636C41.9224 55.1636 39.6149 52.8561 39.6149 50.0096V47.8234C39.6149 42.7361 42.8184 38.1855 47.5865 36.4997C51.173 35.2316 53.4841 31.6847 53.2064 27.8745C52.9022 23.7023 49.5242 20.3499 45.349 20.0766C40.9326 19.7848 36.998 22.9743 36.3899 27.3319C36.3356 27.7215 36.308 28.1207 36.308 28.5186C36.308 31.365 34.0005 33.6726 31.154 33.6726C28.3076 33.6726 26 31.365 26 28.5186C26 27.646 26.0609 26.7675 26.1808 25.9075C27.5312 16.2295 36.2466 9.14869 46.0225 9.79036C55.303 10.3981 62.8113 17.8504 63.4874 27.125C64.1017 35.5545 58.9762 43.4059 51.0228 46.2182C50.365 46.4507 49.923 47.0958 49.923 47.8234V50.0096C49.923 52.8561 47.6155 55.1636 44.7689 55.1636Z" fill="#FFD15B"/>
<path d="M44.7712 70.4992C41.9247 70.4992 39.6172 68.1916 39.6172 65.3452V65.3025C39.6172 62.456 41.9247 60.1484 44.7712 60.1484C47.6177 60.1484 49.9252 62.456 49.9252 65.3025V65.3452C49.9253 68.1916 47.6178 70.4992 44.7712 70.4992Z" fill="#FFD15B"/>
<path d="M30.737 25.9085C30.6159 26.7684 30.5567 27.6462 30.5567 28.519C30.5567 30.5476 31.7281 32.3033 33.4323 33.1426C32.7449 33.4824 31.9726 33.673 31.1539 33.673C28.3092 33.673 26 31.3664 26 28.5191C26 27.6464 26.0618 26.7685 26.1827 25.9086C27.5318 16.2288 36.2487 9.14922 46.0236 9.7903C46.3738 9.81343 46.7213 9.84689 47.0662 9.89068C38.7897 10.9101 31.9237 17.4079 30.737 25.9085Z" fill="#FFC344"/>
<path d="M52.1441 36.503C47.3763 38.1892 44.1713 42.7408 44.1713 47.8278V50.0135C44.1713 52.0421 45.3452 53.7979 47.0494 54.6371C46.3621 54.977 45.5898 55.1675 44.7711 55.1675C41.9238 55.1675 39.6172 52.8608 39.6172 50.0136V47.8278C39.6172 42.7408 42.8197 38.1893 47.59 36.503C51.1762 35.2338 53.4854 31.6889 53.2074 27.8788C52.9474 24.2952 50.4193 21.3166 47.0649 20.377C47.9685 20.1221 48.9262 20.0165 49.907 20.081C54.0827 20.3539 57.4602 23.7057 57.764 27.8788C58.042 31.6889 55.7302 35.2339 52.1441 36.503Z" fill="#FFC344"/>
<path d="M47.0494 69.9696C46.3621 70.3095 45.5898 70.5 44.7711 70.5C41.9238 70.5 39.6172 68.1934 39.6172 65.3461V65.3023C39.6172 62.4577 41.9238 60.1484 44.7711 60.1484C45.5898 60.1484 46.3621 60.339 47.0494 60.6788C45.3452 61.5207 44.1713 63.2763 44.1713 65.3025V65.3462C44.1713 67.3747 45.3452 69.1304 47.0494 69.9696Z" fill="#FFC344"/>
</svg>
