<svg width="102" height="5" viewBox="0 0 102 5" fill="none" xmlns="http://www.w3.org/2000/svg">
<path fill-rule="evenodd" clip-rule="evenodd" d="M19.7224 0.323462C27.2211 0.445792 21.463 0.698835 23.5932 0.885745C45.7235 1.07234 59.3668 1.36016 66.1339 1.52472C72.901 1.68927 67.9902 1.89667 79.6649 1.98547C91.3402 2.07396 101.141 2.21833 101.446 2.3062C101.751 2.39406 102 2.721 102 3.03242C102 3.71175 100.234 3.97193 95.5841 3.97752L92.1602 3.98187L55 3.03242L82 3.72227L88 5C85.4395 4.97516 75.9987 4.32899 68.5 4.134C56.4476 3.82073 70.6611 3.79341 47.5 3.19666C44.2079 3.1119 37.8351 4.22187 34.543 4.134C24.7977 3.60774 31.2548 3.02155 20.3396 2.78434C9.55349 2.55024 4.91788 2.90667 2.96124 3.19666C1.20745 3.45653 -0.619493 2.55769 0.203201 1.83986C2.14721 0.144005 13.8663 -0.425109 19.7224 0.323462Z" fill="#FDB035"/>
</svg>
