<svg width="22" height="28" viewBox="0 0 22 28" fill="none" xmlns="http://www.w3.org/2000/svg">
<path fill-rule="evenodd" clip-rule="evenodd" d="M5.96168 3.58712C7.29 2.62055 8.90439 2.05383 10.6486 2.05383C12.3927 2.05383 14.007 2.62055 15.3354 3.58712C15.7812 3.91159 16.3948 3.79752 16.7059 3.33235C17.017 2.86719 16.9076 2.22706 16.4616 1.9026C14.8137 0.703409 12.8084 0 10.6486 0C8.48872 0 6.48336 0.703409 4.83536 1.9026C4.38947 2.22706 4.28014 2.86719 4.59116 3.33235C4.90218 3.79752 5.51579 3.91159 5.96168 3.58712ZM10.6483 6.16149C9.86973 6.16149 9.14261 6.37817 8.51615 6.75618C8.04562 7.04017 7.44342 6.87242 7.17121 6.38148C6.89898 5.89056 7.05979 5.26236 7.53038 4.97837C8.44843 4.4244 9.51431 4.10766 10.6483 4.10766C11.7822 4.10766 12.8482 4.4244 13.7661 4.97837C14.2368 5.26236 14.3976 5.89056 14.1254 6.38148C13.8532 6.87242 13.251 7.04017 12.7803 6.75618C12.154 6.37817 11.4269 6.16149 10.6483 6.16149ZM9.66406 11.6412C7.45642 10.1836 4.48021 9.5107 2.24248 9.25424C1.08968 9.12211 0.148438 10.0985 0.148438 11.3031V23.2995C0.148438 24.5041 1.08968 25.4809 2.24248 25.6129C4.48021 25.8695 7.45642 26.5423 9.66406 28V11.6412ZM11.6328 28C13.8404 26.5423 16.8167 25.8695 19.0543 25.6129C20.2072 25.4809 21.1484 24.5041 21.1484 23.2995V11.3031C21.1484 10.0985 20.2072 9.12211 19.0543 9.25424C16.8167 9.5107 13.8404 10.1836 11.6328 11.6412V28Z" fill="#111827"/>
</svg>
