<svg width="1920" height="611" viewBox="0 0 1920 611" fill="none" xmlns="http://www.w3.org/2000/svg">
<g opacity="0.1" clip-path="url(#clip0_1_149)">
<path d="M1087.25 95.3604V41.5926L1040.68 14.7051L994.098 41.5926V95.3604L1040.68 122.241L1087.25 95.3604Z" stroke="#4068FF" stroke-width="0.66" stroke-miterlimit="10"/>
<path d="M947.535 68.474L994.105 41.5936V-12.1743L947.535 -39.0547L900.957 -12.1743" stroke="#4068FF" stroke-width="0.66" stroke-miterlimit="10"/>
<path d="M900.957 41.5936V-12.1743L854.379 -39.0547L807.809 -12.1743" stroke="#4068FF" stroke-width="0.66" stroke-miterlimit="10"/>
<path d="M807.809 95.3614V41.5936L854.379 14.7061L900.957 41.5936" stroke="#4068FF" stroke-width="0.66" stroke-miterlimit="10"/>
<path d="M900.957 95.3614V41.5936L947.535 14.7061L994.105 41.5936V95.3614L947.535 122.242L900.957 95.3614Z" stroke="#4068FF" stroke-width="0.66" stroke-miterlimit="10"/>
<path d="M202.254 14.7049V-39.0559L248.832 -65.9434L295.409 -39.0559V14.7049L248.832 41.5924L202.254 14.7049Z" stroke="#4068FF" stroke-width="0.66" stroke-miterlimit="10"/>
<path d="M900.957 41.5928V95.3606L854.379 122.241L807.809 95.3606V41.5928" stroke="#4068FF" stroke-width="0.66" stroke-miterlimit="10"/>
<path d="M528.293 95.3604V41.5926L481.715 14.7051L435.145 41.5926V95.3604L481.715 122.241L528.293 95.3604Z" stroke="#4068FF" stroke-width="0.66" stroke-miterlimit="10"/>
<path d="M295.425 14.7051L248.848 41.5926V95.3604L295.425 122.241L341.996 95.3604" stroke="#4068FF" stroke-width="0.66" stroke-miterlimit="10"/>
<path d="M248.848 95.3604V41.5926L295.425 14.7051L341.996 41.5926" stroke="#4068FF" stroke-width="0.66" stroke-miterlimit="10"/>
<path d="M155.699 -12.1748V41.5931L202.277 68.4735" stroke="#4068FF" stroke-width="0.66" stroke-miterlimit="10"/>
<path d="M341.996 95.3604V41.5926L388.574 14.7051L435.152 41.5926V95.3604L388.574 122.241L341.996 95.3604Z" stroke="#4068FF" stroke-width="0.66" stroke-miterlimit="10"/>
<path d="M155.699 149.122V95.3611L202.277 68.4736L248.848 95.3611V149.122L202.277 176.009L155.699 149.122Z" stroke="#4068FF" stroke-width="0.66" stroke-miterlimit="10"/>
<path d="M341.996 41.5928V95.3606L295.425 122.241L248.848 95.3606V41.5928" stroke="#4068FF" stroke-width="0.66" stroke-miterlimit="10"/>
<path d="M248.848 41.5938V95.3616L202.277 122.242" stroke="#4068FF" stroke-width="0.66" stroke-miterlimit="10"/>
<path d="M295.434 176.01V122.242L342.011 95.3613L388.582 122.242V176.01L342.011 202.89L295.434 176.01Z" stroke="#4068FF" stroke-width="0.66" stroke-miterlimit="10"/>
<path d="M248.863 95.3613L295.434 122.242V176.01L248.863 202.89L202.285 176.01" stroke="#4068FF" stroke-width="0.66" stroke-miterlimit="10"/>
<path d="M202.285 122.242V68.4741L248.863 41.5938L295.434 68.4741" stroke="#4068FF" stroke-width="0.66" stroke-miterlimit="10"/>
<path d="M388.582 68.4736V122.242L342.012 149.122" stroke="#4068FF" stroke-width="0.66" stroke-miterlimit="10"/>
<path d="M481.738 -39.0547L435.16 -12.1743V41.5936L481.738 68.474L528.309 41.5936" stroke="#4068FF" stroke-width="0.66" stroke-miterlimit="10"/>
<path d="M342.012 95.3604V41.5926L388.582 14.7051L435.16 41.5926V95.3604L388.582 122.241L342.012 95.3604Z" stroke="#4068FF" stroke-width="0.66" stroke-miterlimit="10"/>
<path d="M202.285 68.474L155.707 41.5936V-12.1743L202.285 -39.0547L248.863 -12.1743" stroke="#4068FF" stroke-width="0.66" stroke-miterlimit="10"/>
<path d="M295.434 14.7051L342.012 41.5926V95.3604L295.434 122.241L248.863 95.3604" stroke="#4068FF" stroke-width="0.66" stroke-miterlimit="10"/>
<path d="M342.012 95.3604V41.5926L295.434 14.7051L248.863 41.5926" stroke="#4068FF" stroke-width="0.66" stroke-miterlimit="10"/>
<path d="M295.41 176.01V229.778L341.988 256.658L388.559 229.778V176.01" stroke="#4068FF" stroke-width="0.66" stroke-miterlimit="10"/>
<path d="M388.559 176.01V229.778L435.136 256.658" stroke="#4068FF" stroke-width="0.66" stroke-miterlimit="10"/>
<path d="M388.559 337.306V283.538L435.136 256.657L481.714 283.538V337.306L435.136 364.193L388.559 337.306Z" stroke="#4068FF" stroke-width="0.66" stroke-miterlimit="10"/>
<path d="M295.41 283.538V229.777L341.988 202.89L388.558 229.777" stroke="#4068FF" stroke-width="0.66" stroke-miterlimit="10"/>
<path d="M481.723 176.01V122.242L435.145 95.3613L388.574 122.242V176.01L435.145 202.89L481.723 176.01Z" stroke="#4068FF" stroke-width="0.66" stroke-miterlimit="10"/>
<path d="M435.145 256.658L388.574 229.777V176.01L435.145 149.122L481.723 176.01" stroke="#4068FF" stroke-width="0.66" stroke-miterlimit="10"/>
<path d="M528.309 -12.1748V41.5931L481.738 68.4735L435.16 41.5931V-12.1748" stroke="#4068FF" stroke-width="0.66" stroke-miterlimit="10"/>
<path d="M528.297 -12.175V-65.9429L481.726 -92.8232L435.148 -65.9429V-12.175L481.726 14.7054L528.297 -12.175Z" stroke="#4068FF" stroke-width="0.66" stroke-miterlimit="10"/>
<path d="M528.297 -65.9434V-12.1755L574.875 14.7049L621.445 -12.1755V-65.9434" stroke="#4068FF" stroke-width="0.66" stroke-miterlimit="10"/>
<path d="M155.726 -12.1748V-65.9427L109.156 -92.8231L62.578 -65.9427V-12.1748L109.156 14.7056L155.726 -12.1748Z" stroke="#4068FF" stroke-width="0.66" stroke-miterlimit="10"/>
<path d="M202.304 -92.8231L155.727 -65.9427V-12.1748L202.304 14.7056L248.875 -12.1748" stroke="#4068FF" stroke-width="0.66" stroke-miterlimit="10"/>
<path d="M15.9922 14.7049V-39.0559L-30.5856 -65.9434L-77.1562 -39.0559V14.7049L-30.5856 41.5924L15.9922 14.7049Z" stroke="#4068FF" stroke-width="0.66" stroke-miterlimit="10"/>
<path d="M62.57 -65.9434L15.9922 -39.0559V14.7049L62.57 41.5924L109.141 14.7049" stroke="#4068FF" stroke-width="0.66" stroke-miterlimit="10"/>
<path d="M15.9922 14.7049V-39.0559L62.57 -65.9434L109.141 -39.0559" stroke="#4068FF" stroke-width="0.66" stroke-miterlimit="10"/>
<path d="M807.738 95.3604V41.5926L761.161 14.7051L714.59 41.5926V95.3604L761.161 122.241L807.738 95.3604Z" stroke="#4068FF" stroke-width="0.66" stroke-miterlimit="10"/>
<path d="M668.02 68.474L714.598 41.5936V-12.1743L668.02 -39.0547L621.449 -12.1743" stroke="#4068FF" stroke-width="0.66" stroke-miterlimit="10"/>
<path d="M574.871 14.7051L528.293 41.5926V95.3604L574.871 122.241L621.449 95.3604" stroke="#4068FF" stroke-width="0.66" stroke-miterlimit="10"/>
<path d="M621.449 41.5938V95.3616L574.871 122.242L528.293 95.3616V41.5938" stroke="#4068FF" stroke-width="0.66" stroke-miterlimit="10"/>
<path d="M481.727 122.242V68.4741L528.304 41.5938L574.875 68.4741" stroke="#4068FF" stroke-width="0.66" stroke-miterlimit="10"/>
<path d="M668.031 68.4736V122.242L621.453 149.122" stroke="#4068FF" stroke-width="0.66" stroke-miterlimit="10"/>
<path d="M761.179 -39.0547L714.602 -12.1743V41.5936L761.179 68.474L807.75 41.5936" stroke="#4068FF" stroke-width="0.66" stroke-miterlimit="10"/>
<path d="M574.875 14.7051L621.453 41.5926V95.3604L574.875 122.241L528.305 95.3604" stroke="#4068FF" stroke-width="0.66" stroke-miterlimit="10"/>
<path d="M621.453 95.3604V41.5926L574.875 14.7051L528.305 41.5926" stroke="#4068FF" stroke-width="0.66" stroke-miterlimit="10"/>
<path d="M854.309 229.777V176.01L807.731 149.122L761.16 176.01" stroke="#4068FF" stroke-width="0.66" stroke-miterlimit="10"/>
<path d="M668.012 176.01V229.778L714.582 256.658" stroke="#4068FF" stroke-width="0.66" stroke-miterlimit="10"/>
<path d="M761.168 122.241V176.009L807.746 202.889L854.316 176.009V122.241" stroke="#4068FF" stroke-width="0.66" stroke-miterlimit="10"/>
<path d="M714.597 256.658L668.02 229.777V176.01L714.597 149.122L761.168 176.01" stroke="#4068FF" stroke-width="0.66" stroke-miterlimit="10"/>
<path d="M761.168 229.777V176.01L807.746 149.122L854.316 176.01" stroke="#4068FF" stroke-width="0.66" stroke-miterlimit="10"/>
<path d="M854.316 283.538V229.777L807.746 202.89L761.168 229.777" stroke="#4068FF" stroke-width="0.66" stroke-miterlimit="10"/>
<path d="M807.75 -12.1748V41.5931L761.179 68.4735L714.602 41.5931V-12.1748" stroke="#4068FF" stroke-width="0.66" stroke-miterlimit="10"/>
<path d="M714.602 -12.1748V41.5931L668.031 68.4735" stroke="#4068FF" stroke-width="0.66" stroke-miterlimit="10"/>
<path d="M854.321 391.074L900.898 364.193V310.426L854.321 283.538L807.75 310.426" stroke="#4068FF" stroke-width="0.66" stroke-miterlimit="10"/>
<path d="M761.175 337.306L714.598 364.193V417.954L761.175 444.841L807.753 417.954" stroke="#4068FF" stroke-width="0.66" stroke-miterlimit="10"/>
<path d="M714.598 417.954V364.193L761.175 337.306L807.753 364.193" stroke="#4068FF" stroke-width="0.66" stroke-miterlimit="10"/>
<path d="M621.449 310.426V364.194L668.027 391.074" stroke="#4068FF" stroke-width="0.66" stroke-miterlimit="10"/>
<path d="M807.75 417.954V364.193L854.321 337.306L900.898 364.193V417.954L854.321 444.841L807.75 417.954Z" stroke="#4068FF" stroke-width="0.66" stroke-miterlimit="10"/>
<path d="M621.449 471.722V417.955L668.027 391.074L714.598 417.955V471.722L668.027 498.61L621.449 471.722Z" stroke="#4068FF" stroke-width="0.66" stroke-miterlimit="10"/>
<path d="M807.753 364.193V417.954L761.175 444.842L714.598 417.954V364.193" stroke="#4068FF" stroke-width="0.66" stroke-miterlimit="10"/>
<path d="M714.594 364.193V417.954L668.023 444.842" stroke="#4068FF" stroke-width="0.66" stroke-miterlimit="10"/>
<path d="M761.18 498.61V444.842L807.757 417.954L854.335 444.842V498.61L807.757 525.49L761.18 498.61Z" stroke="#4068FF" stroke-width="0.66" stroke-miterlimit="10"/>
<path d="M714.609 417.954L761.18 444.842V498.61L714.609 525.49L668.031 498.61" stroke="#4068FF" stroke-width="0.66" stroke-miterlimit="10"/>
<path d="M668.031 444.842V391.074L714.609 364.193L761.18 391.074" stroke="#4068FF" stroke-width="0.66" stroke-miterlimit="10"/>
<path d="M761.18 498.61V444.842L714.609 417.954L668.031 444.842" stroke="#4068FF" stroke-width="0.66" stroke-miterlimit="10"/>
<path d="M854.336 391.074V444.842L807.758 471.722" stroke="#4068FF" stroke-width="0.66" stroke-miterlimit="10"/>
<path d="M807.758 417.954V364.193L854.336 337.306L900.906 364.193V417.954L854.336 444.841L807.758 417.954Z" stroke="#4068FF" stroke-width="0.66" stroke-miterlimit="10"/>
<path d="M668.032 391.074L621.461 364.193V310.426L668.032 283.538L714.609 310.426" stroke="#4068FF" stroke-width="0.66" stroke-miterlimit="10"/>
<path d="M761.18 337.306L807.758 364.193V417.954L761.18 444.841L714.609 417.954" stroke="#4068FF" stroke-width="0.66" stroke-miterlimit="10"/>
<path d="M807.758 417.954V364.193L761.18 337.306L714.609 364.193" stroke="#4068FF" stroke-width="0.66" stroke-miterlimit="10"/>
<path d="M668.054 229.777L621.477 256.658V310.426L668.054 337.306L714.632 310.426" stroke="#4068FF" stroke-width="0.66" stroke-miterlimit="10"/>
<path d="M1692.69 229.777V176.01L1646.11 149.122L1599.54 176.01V229.777L1646.11 256.658L1692.69 229.777Z" stroke="#4068FF" stroke-width="0.66" stroke-miterlimit="10"/>
<path d="M1459.82 149.122L1413.25 176.01V229.777L1459.82 256.658L1506.4 229.777" stroke="#4068FF" stroke-width="0.66" stroke-miterlimit="10"/>
<path d="M1413.25 229.777V176.01L1459.82 149.122L1506.4 176.01" stroke="#4068FF" stroke-width="0.66" stroke-miterlimit="10"/>
<path d="M1320.1 122.241V176.009L1366.68 202.889" stroke="#4068FF" stroke-width="0.66" stroke-miterlimit="10"/>
<path d="M1506.4 229.777V176.01L1552.97 149.122L1599.55 176.01V229.777L1552.97 256.658L1506.4 229.777Z" stroke="#4068FF" stroke-width="0.66" stroke-miterlimit="10"/>
<path d="M1320.1 283.538V229.777L1366.68 202.89L1413.25 229.777V283.538L1366.68 310.425L1320.1 283.538Z" stroke="#4068FF" stroke-width="0.66" stroke-miterlimit="10"/>
<path d="M1506.4 176.01V229.778L1459.82 256.658L1413.25 229.778V176.01" stroke="#4068FF" stroke-width="0.66" stroke-miterlimit="10"/>
<path d="M1413.25 176.01V229.778L1366.68 256.658" stroke="#4068FF" stroke-width="0.66" stroke-miterlimit="10"/>
<path d="M1459.83 310.426V256.658L1506.41 229.777L1552.98 256.658V310.426L1506.41 337.306L1459.83 310.426Z" stroke="#4068FF" stroke-width="0.66" stroke-miterlimit="10"/>
<path d="M1413.27 229.777L1459.84 256.658V310.426L1413.27 337.306L1366.69 310.426" stroke="#4068FF" stroke-width="0.66" stroke-miterlimit="10"/>
<path d="M1366.69 256.658V202.89L1413.27 176.01L1459.84 202.89" stroke="#4068FF" stroke-width="0.66" stroke-miterlimit="10"/>
<path d="M1459.84 310.426V256.658L1413.27 229.777L1366.69 256.658" stroke="#4068FF" stroke-width="0.66" stroke-miterlimit="10"/>
<path d="M1646.14 95.3613L1599.56 122.242V176.01L1646.14 202.89L1692.71 176.01" stroke="#4068FF" stroke-width="0.66" stroke-miterlimit="10"/>
<path d="M1506.41 229.777V176.01L1552.98 149.122L1599.56 176.01V229.777L1552.98 256.658L1506.41 229.777Z" stroke="#4068FF" stroke-width="0.66" stroke-miterlimit="10"/>
<path d="M1366.68 202.89L1320.11 176.01V122.242L1366.68 95.3613L1413.26 122.242" stroke="#4068FF" stroke-width="0.66" stroke-miterlimit="10"/>
<path d="M1459.84 149.122L1506.41 176.01V229.777L1459.84 256.658L1413.27 229.777" stroke="#4068FF" stroke-width="0.66" stroke-miterlimit="10"/>
<path d="M1506.41 229.777V176.01L1459.84 149.122L1413.27 176.01" stroke="#4068FF" stroke-width="0.66" stroke-miterlimit="10"/>
<path d="M1459.81 310.426V364.194L1506.39 391.074L1552.97 364.194V310.426" stroke="#4068FF" stroke-width="0.66" stroke-miterlimit="10"/>
<path d="M1552.97 310.426V364.194" stroke="#4068FF" stroke-width="0.66" stroke-miterlimit="10"/>
<path d="M1459.81 364.193L1506.39 337.306L1552.97 364.193" stroke="#4068FF" stroke-width="0.66" stroke-miterlimit="10"/>
<path d="M1646.12 310.426V256.658L1599.55 229.777L1552.98 256.658V310.426L1599.55 337.306L1646.12 310.426Z" stroke="#4068FF" stroke-width="0.66" stroke-miterlimit="10"/>
<path d="M1552.98 364.193V310.426L1599.55 283.538L1646.12 310.426" stroke="#4068FF" stroke-width="0.66" stroke-miterlimit="10"/>
<path d="M1692.71 122.241V176.009L1646.14 202.889L1599.56 176.009V122.241" stroke="#4068FF" stroke-width="0.66" stroke-miterlimit="10"/>
<path d="M1692.71 229.777L1739.28 256.658V310.426L1692.71 337.306L1646.13 310.426" stroke="#4068FF" stroke-width="0.66" stroke-miterlimit="10"/>
<path d="M1646.13 256.658V202.89L1692.71 176.01L1739.28 202.89" stroke="#4068FF" stroke-width="0.66" stroke-miterlimit="10"/>
<path d="M1739.28 310.426V256.658L1692.71 229.777L1646.13 256.658" stroke="#4068FF" stroke-width="0.66" stroke-miterlimit="10"/>
<path d="M1133.8 14.7049V-39.0559L1180.38 -65.9434L1226.95 -39.0559V14.7049L1180.38 41.5924L1133.8 14.7049Z" stroke="#4068FF" stroke-width="0.66" stroke-miterlimit="10"/>
<path d="M1320.11 68.474L1366.69 41.5936V-12.1743L1320.11 -39.0547L1273.54 -12.1743" stroke="#4068FF" stroke-width="0.66" stroke-miterlimit="10"/>
<path d="M1226.97 14.7051L1180.39 41.5926V95.3604L1226.97 122.241L1273.54 95.3604" stroke="#4068FF" stroke-width="0.66" stroke-miterlimit="10"/>
<path d="M1180.39 95.3604V41.5926L1226.97 14.7051L1273.54 41.5926" stroke="#4068FF" stroke-width="0.66" stroke-miterlimit="10"/>
<path d="M1087.25 -12.1748V41.5931L1133.82 68.4735" stroke="#4068FF" stroke-width="0.66" stroke-miterlimit="10"/>
<path d="M1273.54 95.3604V41.5926L1320.11 14.7051L1366.69 41.5926V95.3604L1320.11 122.241L1273.54 95.3604Z" stroke="#4068FF" stroke-width="0.66" stroke-miterlimit="10"/>
<path d="M1087.25 149.122V95.3611L1133.82 68.4736L1180.39 95.3611V149.122L1133.82 176.009L1087.25 149.122Z" stroke="#4068FF" stroke-width="0.66" stroke-miterlimit="10"/>
<path d="M1273.54 41.5928V95.3606L1226.97 122.241L1180.39 95.3606V41.5928" stroke="#4068FF" stroke-width="0.66" stroke-miterlimit="10"/>
<path d="M1180.39 41.5938V95.3616L1133.82 122.242" stroke="#4068FF" stroke-width="0.66" stroke-miterlimit="10"/>
<path d="M1226.98 176.01V122.242L1273.55 95.3613L1320.13 122.242V176.01L1273.55 202.89L1226.98 176.01Z" stroke="#4068FF" stroke-width="0.66" stroke-miterlimit="10"/>
<path d="M1180.4 95.3613L1226.98 122.242V176.01L1180.4 202.89L1133.82 176.01" stroke="#4068FF" stroke-width="0.66" stroke-miterlimit="10"/>
<path d="M1133.82 122.242V68.4741L1180.4 41.5938L1226.98 68.4741" stroke="#4068FF" stroke-width="0.66" stroke-miterlimit="10"/>
<path d="M1226.98 176.01V122.242L1180.4 95.3613L1133.82 122.242" stroke="#4068FF" stroke-width="0.66" stroke-miterlimit="10"/>
<path d="M1320.13 68.4736V122.242L1273.55 149.122" stroke="#4068FF" stroke-width="0.66" stroke-miterlimit="10"/>
<path d="M1273.55 95.3604V41.5926L1320.13 14.7051L1366.7 41.5926V95.3604L1320.13 122.241L1273.55 95.3604Z" stroke="#4068FF" stroke-width="0.66" stroke-miterlimit="10"/>
<path d="M1133.82 68.474L1087.25 41.5936V-12.1743L1133.82 -39.0547L1180.4 -12.1743" stroke="#4068FF" stroke-width="0.66" stroke-miterlimit="10"/>
<path d="M1226.98 14.7051L1273.55 41.5926V95.3604L1226.98 122.241L1180.4 95.3604" stroke="#4068FF" stroke-width="0.66" stroke-miterlimit="10"/>
<path d="M1273.55 95.3604V41.5926L1226.98 14.7051L1180.4 41.5926" stroke="#4068FF" stroke-width="0.66" stroke-miterlimit="10"/>
<path d="M1226.96 176.01V229.778L1273.53 256.658L1320.11 229.778V176.01" stroke="#4068FF" stroke-width="0.66" stroke-miterlimit="10"/>
<path d="M1226.96 283.538V229.777L1273.53 202.89L1320.11 229.777" stroke="#4068FF" stroke-width="0.66" stroke-miterlimit="10"/>
<path d="M1087.28 -12.174V-65.9419L1040.7 -92.8223L994.121 -65.9419V-12.174L1040.7 14.7064L1087.28 -12.174Z" stroke="#4068FF" stroke-width="0.66" stroke-miterlimit="10"/>
<path d="M1133.85 -92.8223L1087.28 -65.9419V-12.174L1133.85 14.7064L1180.43 -12.174" stroke="#4068FF" stroke-width="0.66" stroke-miterlimit="10"/>
<path d="M994.113 -65.9434L947.535 -39.0559V14.7049L994.113 41.5924L1040.69 14.7049" stroke="#4068FF" stroke-width="0.66" stroke-miterlimit="10"/>
<path d="M947.535 14.7049V-39.0559L994.113 -65.9434L1040.69 -39.0559" stroke="#4068FF" stroke-width="0.66" stroke-miterlimit="10"/>
<path d="M1133.8 176.01V122.242L1087.23 95.3613L1040.66 122.242V176.01L1087.23 202.89L1133.8 176.01Z" stroke="#4068FF" stroke-width="0.66" stroke-miterlimit="10"/>
<path d="M900.938 95.3613L854.367 122.242V176.01L900.938 202.89L947.516 176.01" stroke="#4068FF" stroke-width="0.66" stroke-miterlimit="10"/>
<path d="M947.516 176.01V122.242L994.086 95.3613L1040.66 122.242V176.01L994.086 202.89L947.516 176.01Z" stroke="#4068FF" stroke-width="0.66" stroke-miterlimit="10"/>
<path d="M947.516 122.242V176.01L900.938 202.89L854.367 176.01V122.242" stroke="#4068FF" stroke-width="0.66" stroke-miterlimit="10"/>
<path d="M900.949 256.658V202.89L947.52 176.01L994.098 202.89V256.658L947.52 283.538L900.949 256.658Z" stroke="#4068FF" stroke-width="0.66" stroke-miterlimit="10"/>
<path d="M994.097 149.122V202.89L947.52 229.777" stroke="#4068FF" stroke-width="0.66" stroke-miterlimit="10"/>
<path d="M947.52 176.01V122.242L994.097 95.3613L1040.67 122.242V176.01L994.097 202.89L947.52 176.01Z" stroke="#4068FF" stroke-width="0.66" stroke-miterlimit="10"/>
<path d="M900.949 95.3613L947.52 122.242V176.01L900.949 202.89L854.371 176.01" stroke="#4068FF" stroke-width="0.66" stroke-miterlimit="10"/>
<path d="M947.52 176.01V122.242L900.949 95.3613L854.371 122.242" stroke="#4068FF" stroke-width="0.66" stroke-miterlimit="10"/>
<path d="M900.93 256.657V310.425L947.5 337.306L994.078 310.425V256.657" stroke="#4068FF" stroke-width="0.66" stroke-miterlimit="10"/>
<path d="M994.078 256.658V310.426L1040.65 337.307" stroke="#4068FF" stroke-width="0.66" stroke-miterlimit="10"/>
<path d="M994.078 417.954V364.193L1040.65 337.306L1087.23 364.193V417.954L1040.65 444.841L994.078 417.954Z" stroke="#4068FF" stroke-width="0.66" stroke-miterlimit="10"/>
<path d="M900.929 364.193V310.425L947.5 283.538L994.078 310.425" stroke="#4068FF" stroke-width="0.66" stroke-miterlimit="10"/>
<path d="M1087.23 310.426V364.194L1040.65 391.074" stroke="#4068FF" stroke-width="0.66" stroke-miterlimit="10"/>
<path d="M1087.23 256.658V202.89L1040.66 176.01L994.086 202.89V256.658L1040.66 283.538L1087.23 256.658Z" stroke="#4068FF" stroke-width="0.66" stroke-miterlimit="10"/>
<path d="M1040.66 337.306L994.086 310.426V256.658L1040.66 229.777L1087.23 256.658" stroke="#4068FF" stroke-width="0.66" stroke-miterlimit="10"/>
<path d="M1180.38 95.3613L1133.81 122.242V176.01L1180.38 202.89L1226.96 176.01" stroke="#4068FF" stroke-width="0.66" stroke-miterlimit="10"/>
<path d="M1226.96 122.242V176.01L1180.38 202.89L1133.81 176.01V122.242" stroke="#4068FF" stroke-width="0.66" stroke-miterlimit="10"/>
<path d="M1180.39 256.658V202.89L1226.97 176.01L1273.54 202.89V256.658L1226.97 283.538L1180.39 256.658Z" stroke="#4068FF" stroke-width="0.66" stroke-miterlimit="10"/>
<path d="M1133.82 176.01L1180.39 202.89V256.658L1133.82 283.538L1087.25 256.658" stroke="#4068FF" stroke-width="0.66" stroke-miterlimit="10"/>
<path d="M1087.25 202.89V149.123L1133.82 122.242L1180.39 149.123" stroke="#4068FF" stroke-width="0.66" stroke-miterlimit="10"/>
<path d="M1180.39 256.658V202.89L1133.82 176.01L1087.25 202.89" stroke="#4068FF" stroke-width="0.66" stroke-miterlimit="10"/>
<path d="M1180.39 95.3613L1226.96 122.242V176.01L1180.39 202.89L1133.82 176.01" stroke="#4068FF" stroke-width="0.66" stroke-miterlimit="10"/>
<path d="M1180.38 256.657V310.425L1226.95 337.306L1273.52 310.425V256.657" stroke="#4068FF" stroke-width="0.66" stroke-miterlimit="10"/>
<path d="M1040.54 122.242V176.01L993.965 202.89" stroke="#4068FF" stroke-width="0.66" stroke-miterlimit="10"/>
<path d="M947.363 337.307V283.539L993.941 256.658L1040.51 283.539" stroke="#4068FF" stroke-width="0.66" stroke-miterlimit="10"/>
<path d="M1180.38 364.193V310.425L1226.95 283.538L1273.52 310.425" stroke="#4068FF" stroke-width="0.66" stroke-miterlimit="10"/>
<path d="M1226.99 391.074V337.306L1180.41 310.426L1133.84 337.306V391.074L1180.41 417.954L1226.99 391.074Z" stroke="#4068FF" stroke-width="0.66" stroke-miterlimit="10"/>
<path d="M1133.83 337.306L1087.26 364.193V417.954L1133.83 444.841L1180.41 417.954" stroke="#4068FF" stroke-width="0.66" stroke-miterlimit="10"/>
<path d="M1087.26 417.954V364.193L1133.83 337.306L1180.41 364.193" stroke="#4068FF" stroke-width="0.66" stroke-miterlimit="10"/>
<path d="M248.77 256.658V202.89L295.347 176.01L341.918 202.89V256.658L295.347 283.538L248.77 256.658Z" stroke="#4068FF" stroke-width="0.66" stroke-miterlimit="10"/>
<path d="M155.629 256.658V202.89L202.2 176.01L248.777 202.89" stroke="#4068FF" stroke-width="0.66" stroke-miterlimit="10"/>
<path d="M-77.2539 391.074V337.306L-30.6761 310.426L15.8945 337.306V391.074L-30.6761 417.954L-77.2539 391.074Z" stroke="#4068FF" stroke-width="0.66" stroke-miterlimit="10"/>
<path d="M15.8949 283.538V337.306L-30.6758 364.193" stroke="#4068FF" stroke-width="0.66" stroke-miterlimit="10"/>
<path d="M-30.6683 310.425L-77.2461 283.538V229.777L-30.6683 202.89L15.9095 229.777" stroke="#4068FF" stroke-width="0.66" stroke-miterlimit="10"/>
<path d="M109.062 229.777V176.01L155.64 149.122L202.211 176.01V229.777L155.64 256.658L109.062 229.777Z" stroke="#4068FF" stroke-width="0.66" stroke-miterlimit="10"/>
<path d="M62.4847 149.122L109.062 176.01V229.777L62.4847 256.658L15.9141 229.777" stroke="#4068FF" stroke-width="0.66" stroke-miterlimit="10"/>
<path d="M109.043 229.777V283.538L155.621 310.426L202.191 283.538V229.777" stroke="#4068FF" stroke-width="0.66" stroke-miterlimit="10"/>
<path d="M109.043 337.307V283.539L155.621 256.658L202.191 283.539" stroke="#4068FF" stroke-width="0.66" stroke-miterlimit="10"/>
<path d="M155.664 364.193V310.426L109.086 283.538L62.5156 310.426V364.193L109.086 391.074L155.664 364.193Z" stroke="#4068FF" stroke-width="0.66" stroke-miterlimit="10"/>
<path d="M62.5003 310.426L15.9297 337.306V391.074L62.5003 417.954L109.078 391.074" stroke="#4068FF" stroke-width="0.66" stroke-miterlimit="10"/>
<path d="M15.9297 391.074V337.306L62.5003 310.426L109.078 337.306" stroke="#4068FF" stroke-width="0.66" stroke-miterlimit="10"/>
<path d="M16.0156 14.7051V68.473L-30.5622 95.3604L-77.1328 68.473V14.7051" stroke="#4068FF" stroke-width="0.66" stroke-miterlimit="10"/>
<path d="M1459.84 -12.175V-65.9429L1413.27 -92.8232L1366.69 -65.9429V-12.175L1413.27 14.7054L1459.84 -12.175Z" stroke="#4068FF" stroke-width="0.66" stroke-miterlimit="10"/>
<path d="M1366.68 -65.9434L1320.1 -39.0559V14.7049L1366.68 41.5924L1413.25 14.7049" stroke="#4068FF" stroke-width="0.66" stroke-miterlimit="10"/>
<path d="M1320.1 14.7049V-39.0559L1366.68 -65.9434L1413.25 -39.0559" stroke="#4068FF" stroke-width="0.66" stroke-miterlimit="10"/>
<path d="M1739.32 95.3604V41.5926L1785.9 14.7051L1832.47 41.5926V95.3604L1785.9 122.241L1739.32 95.3604Z" stroke="#4068FF" stroke-width="0.66" stroke-miterlimit="10"/>
<path d="M1785.89 -39.0547L1832.46 -12.1743V41.5936L1785.89 68.474L1739.31 41.5936" stroke="#4068FF" stroke-width="0.66" stroke-miterlimit="10"/>
<path d="M1739.31 -12.1746V41.5933L1785.89 68.4736L1832.46 41.5933V-12.1746" stroke="#4068FF" stroke-width="0.66" stroke-miterlimit="10"/>
<path d="M1739.31 -12.174V-65.9419L1785.88 -92.8223L1832.46 -65.9419V-12.174L1785.88 14.7064L1739.31 -12.174Z" stroke="#4068FF" stroke-width="0.66" stroke-miterlimit="10"/>
<path d="M1739.32 -65.9434V-12.1755L1692.74 14.7049L1646.17 -12.1755V-65.9434" stroke="#4068FF" stroke-width="0.66" stroke-miterlimit="10"/>
<path d="M574.762 68.4725V14.7046L621.339 -12.1758L667.91 14.7046V68.4725L621.339 95.3599L574.762 68.4725Z" stroke="#94AAFF" stroke-width="0.66" stroke-miterlimit="10"/>
<path d="M481.613 14.7049V-39.0559L528.191 -65.9434L574.762 -39.0559" stroke="#94AAFF" stroke-width="0.66" stroke-miterlimit="10"/>
<path d="M667.911 -39.0557V14.7051L621.34 41.5926" stroke="#94AAFF" stroke-width="0.66" stroke-miterlimit="10"/>
<path d="M993.934 -65.9434L947.363 -39.0559V14.7049L993.934 41.5924L1040.51 14.7049" stroke="#94AAFF" stroke-width="0.66" stroke-miterlimit="10"/>
<path d="M947.363 14.7049V-39.0559L993.934 -65.9434L1040.51 -39.0559" stroke="#94AAFF" stroke-width="0.66" stroke-miterlimit="10"/>
<path d="M854.207 68.4725V14.7046L900.785 -12.1758L947.363 14.7046V68.4725L900.785 95.3599L854.207 68.4725Z" stroke="#94AAFF" stroke-width="0.66" stroke-miterlimit="10"/>
<path d="M761.059 14.7049V-39.0559L807.636 -65.9434L854.207 -39.0559" stroke="#94AAFF" stroke-width="0.66" stroke-miterlimit="10"/>
<path d="M1040.51 -39.0557V14.7051L993.934 41.5926L947.363 14.7051V-39.0557" stroke="#94AAFF" stroke-width="0.66" stroke-miterlimit="10"/>
<path d="M947.363 -39.0555V14.7053L900.785 41.5928" stroke="#94AAFF" stroke-width="0.66" stroke-miterlimit="10"/>
<path d="M1040.52 14.7049V-39.0559L993.949 -65.9434L947.371 -39.0559" stroke="#94AAFF" stroke-width="0.66" stroke-miterlimit="10"/>
<path d="M1040.53 122.241L1087.1 95.3605V41.5927L1040.53 14.7052L993.949 41.5927" stroke="#94AAFF" stroke-width="0.66" stroke-miterlimit="10"/>
<path d="M947.379 68.4727L900.801 95.3601V149.121L947.379 176.008L993.949 149.121" stroke="#94AAFF" stroke-width="0.66" stroke-miterlimit="10"/>
<path d="M900.801 149.121V95.3601L947.379 68.4727L993.949 95.3601" stroke="#94AAFF" stroke-width="0.66" stroke-miterlimit="10"/>
<path d="M807.652 41.5928V95.3606L854.23 122.241" stroke="#94AAFF" stroke-width="0.66" stroke-miterlimit="10"/>
<path d="M993.949 149.121V95.3601L1040.53 68.4727L1087.1 95.3601V149.121L1040.53 176.008L993.949 149.121Z" stroke="#94AAFF" stroke-width="0.66" stroke-miterlimit="10"/>
<path d="M807.652 202.889V149.122L854.23 122.241L900.801 149.122V202.889L854.23 229.777L807.652 202.889Z" stroke="#94AAFF" stroke-width="0.66" stroke-miterlimit="10"/>
<path d="M993.949 95.3613V149.122L947.379 176.01L900.801 149.122V95.3613" stroke="#94AAFF" stroke-width="0.66" stroke-miterlimit="10"/>
<path d="M900.801 95.3613V149.122L854.23 176.01" stroke="#94AAFF" stroke-width="0.66" stroke-miterlimit="10"/>
<path d="M947.387 229.776V176.009L993.964 149.121L1040.54 176.009V229.776L993.964 256.657L947.387 229.776Z" stroke="#94AAFF" stroke-width="0.66" stroke-miterlimit="10"/>
<path d="M900.812 149.121L947.383 176.009V229.776L900.812 256.657L854.234 229.776" stroke="#94AAFF" stroke-width="0.66" stroke-miterlimit="10"/>
<path d="M854.234 176.009V122.241L900.812 95.3604L947.383 122.241" stroke="#94AAFF" stroke-width="0.66" stroke-miterlimit="10"/>
<path d="M947.383 229.776V176.009L900.812 149.121L854.234 176.009" stroke="#94AAFF" stroke-width="0.66" stroke-miterlimit="10"/>
<path d="M1040.53 122.241V176.009L993.961 202.889" stroke="#94AAFF" stroke-width="0.66" stroke-miterlimit="10"/>
<path d="M993.961 149.121V95.3601L1040.53 68.4727L1087.11 95.3601V149.121L1040.53 176.008L993.961 149.121Z" stroke="#94AAFF" stroke-width="0.66" stroke-miterlimit="10"/>
<path d="M854.238 122.241L807.66 95.3604V41.5926L854.238 14.7051L900.816 41.5926" stroke="#94AAFF" stroke-width="0.66" stroke-miterlimit="10"/>
<path d="M947.383 68.4727L993.961 95.3601V149.121L947.383 176.008L900.812 149.121" stroke="#94AAFF" stroke-width="0.66" stroke-miterlimit="10"/>
<path d="M993.961 149.121V95.3601L947.383 68.4727L900.812 95.3601" stroke="#94AAFF" stroke-width="0.66" stroke-miterlimit="10"/>
<path d="M947.363 229.777V283.538L993.941 310.426L1040.51 283.538V229.777" stroke="#94AAFF" stroke-width="0.66" stroke-miterlimit="10"/>
<path d="M947.363 337.305V283.537L993.941 256.656L1040.51 283.537" stroke="#94AAFF" stroke-width="0.66" stroke-miterlimit="10"/>
<path d="M807.68 41.5926V-12.1753L761.109 -39.0557L714.531 -12.1753V41.5926L761.109 68.473L807.68 41.5926Z" stroke="#94AAFF" stroke-width="0.66" stroke-miterlimit="10"/>
<path d="M854.257 -39.0555L807.68 -12.1751V41.5928L854.257 68.4732L900.828 41.5928" stroke="#94AAFF" stroke-width="0.66" stroke-miterlimit="10"/>
<path d="M714.523 -12.1758L667.945 14.7046V68.4725L714.523 95.3599L761.094 68.4725" stroke="#94AAFF" stroke-width="0.66" stroke-miterlimit="10"/>
<path d="M667.945 68.4725V14.7046L714.523 -12.1758L761.094 14.7046" stroke="#94AAFF" stroke-width="0.66" stroke-miterlimit="10"/>
<path d="M1506.3 14.7049V-39.0559L1552.88 -65.9434L1599.45 -39.0559V14.7049L1552.88 41.5924L1506.3 14.7049Z" stroke="#94AAFF" stroke-width="0.66" stroke-miterlimit="10"/>
<path d="M1646.04 41.5926V-12.1753L1692.62 -39.0557L1739.19 -12.1753V41.5926L1692.62 68.473L1646.04 41.5926Z" stroke="#94AAFF" stroke-width="0.66" stroke-miterlimit="10"/>
<path d="M1599.46 -39.0557L1646.04 -12.1753V41.5926L1599.46 68.473L1552.89 41.5926" stroke="#94AAFF" stroke-width="0.66" stroke-miterlimit="10"/>
<path d="M1646.04 41.5926V-12.1753L1599.46 -39.0557L1552.89 -12.1753" stroke="#94AAFF" stroke-width="0.66" stroke-miterlimit="10"/>
<path d="M1739.19 -65.9434V-12.1755L1692.62 14.7049" stroke="#94AAFF" stroke-width="0.66" stroke-miterlimit="10"/>
<path d="M1646.02 41.5927V95.3606L1692.59 122.241L1739.16 95.3606V41.5927" stroke="#94AAFF" stroke-width="0.66" stroke-miterlimit="10"/>
<path d="M1739.16 41.5928V95.3606L1785.74 122.241" stroke="#94AAFF" stroke-width="0.66" stroke-miterlimit="10"/>
<path d="M1739.16 202.889V149.122L1785.74 122.241L1832.32 149.122V202.889L1785.74 229.777L1739.16 202.889Z" stroke="#94AAFF" stroke-width="0.66" stroke-miterlimit="10"/>
<path d="M1646.02 149.121V95.3601L1692.59 68.4727L1739.16 95.3601" stroke="#94AAFF" stroke-width="0.66" stroke-miterlimit="10"/>
<path d="M1832.32 95.3613V149.122L1785.74 176.01" stroke="#94AAFF" stroke-width="0.66" stroke-miterlimit="10"/>
<path d="M1832.33 41.5928V-12.1751L1785.75 -39.0555L1739.18 -12.1751V41.5928L1785.75 68.4732L1832.33 41.5928Z" stroke="#94AAFF" stroke-width="0.66" stroke-miterlimit="10"/>
<path d="M1785.75 122.241L1739.18 95.3605V41.5927L1785.75 14.7052L1832.33 41.5927" stroke="#94AAFF" stroke-width="0.66" stroke-miterlimit="10"/>
<path d="M1878.91 -39.0557L1925.48 -12.1753V41.5926L1878.91 68.473L1832.34 41.5926" stroke="#94AAFF" stroke-width="0.66" stroke-miterlimit="10"/>
<path d="M1925.48 41.5926V-12.1753L1878.91 -39.0557L1832.34 -12.1753" stroke="#94AAFF" stroke-width="0.66" stroke-miterlimit="10"/>
<path d="M1878.93 122.241L1832.35 149.122V202.889L1878.93 229.777L1925.5 202.889" stroke="#94AAFF" stroke-width="0.66" stroke-miterlimit="10"/>
<path d="M1832.35 202.889V149.122L1878.93 122.241L1925.5 149.122" stroke="#94AAFF" stroke-width="0.66" stroke-miterlimit="10"/>
<path d="M1413.16 14.7049V-39.0559L1459.73 -65.9434L1506.31 -39.0559" stroke="#94AAFF" stroke-width="0.66" stroke-miterlimit="10"/>
<path d="M1087.14 -12.176V-65.9438L1133.72 -92.8242L1180.3 -65.9438V-12.176L1133.72 14.7044L1087.14 -12.176Z" stroke="#94AAFF" stroke-width="0.66" stroke-miterlimit="10"/>
<path d="M1087.13 -12.1758V41.5921L1133.7 68.4725L1180.28 41.5921V-12.1758" stroke="#94AAFF" stroke-width="0.66" stroke-miterlimit="10"/>
<path d="M1180.28 -12.1758V41.5921L1226.85 68.4725" stroke="#94AAFF" stroke-width="0.66" stroke-miterlimit="10"/>
<path d="M1180.28 149.121V95.3601L1226.85 68.4727L1273.43 95.3601V149.121L1226.85 176.008L1180.28 149.121Z" stroke="#94AAFF" stroke-width="0.66" stroke-miterlimit="10"/>
<path d="M1087.13 95.3604V41.5926L1133.7 14.7051L1180.28 41.5926" stroke="#94AAFF" stroke-width="0.66" stroke-miterlimit="10"/>
<path d="M1273.43 41.5927V95.3606L1226.85 122.241" stroke="#94AAFF" stroke-width="0.66" stroke-miterlimit="10"/>
<path d="M1273.44 -12.175V-65.9429L1226.87 -92.8232L1180.29 -65.9429V-12.175L1226.87 14.7054L1273.44 -12.175Z" stroke="#94AAFF" stroke-width="0.66" stroke-miterlimit="10"/>
<path d="M1226.87 68.473L1180.29 41.5926V-12.1753L1226.87 -39.0557L1273.44 -12.1753" stroke="#94AAFF" stroke-width="0.66" stroke-miterlimit="10"/>
<path d="M1366.6 -12.175V-65.9429L1413.17 -92.8232L1459.75 -65.9429V-12.175L1413.17 14.7054L1366.6 -12.175Z" stroke="#94AAFF" stroke-width="0.66" stroke-miterlimit="10"/>
<path d="M1320.02 -92.8232L1366.6 -65.9429V-12.175L1320.02 14.7054L1273.45 -12.175" stroke="#94AAFF" stroke-width="0.66" stroke-miterlimit="10"/>
<path d="M1366.58 -12.1758V41.5921L1413.15 68.4725L1459.73 41.5921V-12.1758" stroke="#94AAFF" stroke-width="0.66" stroke-miterlimit="10"/>
<path d="M1366.58 95.3604V41.5926L1413.15 14.7051L1459.73 41.5926" stroke="#94AAFF" stroke-width="0.66" stroke-miterlimit="10"/>
<path d="M1413.2 122.241V68.4732L1366.62 41.5928L1320.04 68.4732V122.241L1366.62 149.121L1413.2 122.241Z" stroke="#94AAFF" stroke-width="0.66" stroke-miterlimit="10"/>
<path d="M1320.03 68.4727L1273.46 95.3601V149.121L1320.03 176.008L1366.61 149.121" stroke="#94AAFF" stroke-width="0.66" stroke-miterlimit="10"/>
<path d="M1273.46 149.121V95.3601L1320.03 68.4727L1366.61 95.3601" stroke="#94AAFF" stroke-width="0.66" stroke-miterlimit="10"/>
<path d="M434.973 -12.175V-65.9429L481.55 -92.8232L528.121 -65.9429V-12.175L481.55 14.7054L434.973 -12.175Z" stroke="#94AAFF" stroke-width="0.66" stroke-miterlimit="10"/>
<path d="M108.949 -39.0557V14.7051L155.52 41.5926" stroke="#94AAFF" stroke-width="0.66" stroke-miterlimit="10"/>
<path d="M108.949 122.241V68.4732L155.52 41.5928L202.098 68.4732V122.241L155.52 149.121L108.949 122.241Z" stroke="#94AAFF" stroke-width="0.66" stroke-miterlimit="10"/>
<path d="M202.097 14.7051V68.473L155.52 95.3604" stroke="#94AAFF" stroke-width="0.66" stroke-miterlimit="10"/>
<path d="M155.535 41.5924L108.957 14.7049V-39.0559L155.535 -65.9434L202.105 -39.0559" stroke="#94AAFF" stroke-width="0.66" stroke-miterlimit="10"/>
<path d="M295.246 -39.0555V14.7052L341.817 41.5927L388.395 14.7052V-39.0555" stroke="#94AAFF" stroke-width="0.66" stroke-miterlimit="10"/>
<path d="M295.246 68.4735V14.7056L341.817 -12.1748L388.395 14.7056" stroke="#94AAFF" stroke-width="0.66" stroke-miterlimit="10"/>
<path d="M341.867 95.3604V41.5926L295.289 14.7051L248.719 41.5926V95.3604L295.289 122.241L341.867 95.3604Z" stroke="#94AAFF" stroke-width="0.66" stroke-miterlimit="10"/>
<path d="M248.703 41.5928L202.133 68.4732V122.241L248.703 149.121L295.281 122.241" stroke="#94AAFF" stroke-width="0.66" stroke-miterlimit="10"/>
<path d="M202.133 122.241V68.4732L248.703 41.5928L295.281 68.4732" stroke="#94AAFF" stroke-width="0.66" stroke-miterlimit="10"/>
<path d="M62.4141 -12.175V-65.9429L15.8363 -92.8232L-30.7344 -65.9429V-12.175L15.8363 14.7054L62.4141 -12.175Z" stroke="#94AAFF" stroke-width="0.66" stroke-miterlimit="10"/>
<path d="M388.57 68.474L435.148 41.5936V-12.1743L388.57 -39.0547L341.992 -12.1743" stroke="#94AAFF" stroke-width="0.66" stroke-miterlimit="10"/>
<path d="M435.156 -12.1738V41.5941L388.578 68.4744" stroke="#94AAFF" stroke-width="0.66" stroke-miterlimit="10"/>
<path d="M574.875 176.01V122.242L621.453 95.3613L668.031 122.242V176.01L621.453 202.89L574.875 176.01Z" stroke="#94AAFF" stroke-width="0.66" stroke-miterlimit="10"/>
<path d="M807.727 202.891L761.156 229.778V283.539L807.727 310.426L854.305 283.539" stroke="#94AAFF" stroke-width="0.66" stroke-miterlimit="10"/>
<path d="M761.156 283.539V229.778L807.727 202.891L854.305 229.778" stroke="#94AAFF" stroke-width="0.66" stroke-miterlimit="10"/>
<path d="M668.008 337.307V283.539L714.578 256.658L761.156 283.539V337.307L714.578 364.194L668.008 337.307Z" stroke="#94AAFF" stroke-width="0.66" stroke-miterlimit="10"/>
<path d="M574.855 283.539V229.778L621.433 202.891L668.011 229.778" stroke="#94AAFF" stroke-width="0.66" stroke-miterlimit="10"/>
<path d="M854.305 229.777V283.538L807.727 310.426L761.156 283.538V229.777" stroke="#94AAFF" stroke-width="0.66" stroke-miterlimit="10"/>
<path d="M761.156 229.777V283.538L714.578 310.426" stroke="#94AAFF" stroke-width="0.66" stroke-miterlimit="10"/>
<path d="M621.445 95.3624V41.5945L668.016 14.707L714.594 41.5945V95.3624L668.016 122.243L621.445 95.3624Z" stroke="#94AAFF" stroke-width="0.66" stroke-miterlimit="10"/>
<path d="M621.453 95.3624V41.5945L668.031 14.707L714.602 41.5945V95.3624L668.031 122.243L621.453 95.3624Z" stroke="#94AAFF" stroke-width="0.66" stroke-miterlimit="10"/>
<path d="M528.304 95.3613L574.875 122.242V176.01L528.304 202.89L481.727 176.01" stroke="#94AAFF" stroke-width="0.66" stroke-miterlimit="10"/>
<path d="M574.875 176.01V122.242L528.304 95.3613L481.727 122.242" stroke="#94AAFF" stroke-width="0.66" stroke-miterlimit="10"/>
<path d="M574.855 176.01V229.778L621.433 256.658L668.011 229.778V176.01" stroke="#94AAFF" stroke-width="0.66" stroke-miterlimit="10"/>
<path d="M1552.97 202.89L1599.55 176.01V122.242L1552.97 95.3613L1506.4 122.242" stroke="#94AAFF" stroke-width="0.66" stroke-miterlimit="10"/>
<path d="M1552.98 202.891V256.659L1506.41 283.539" stroke="#94AAFF" stroke-width="0.66" stroke-miterlimit="10"/>
<path d="M574.762 68.4744V14.7066L621.339 -12.1738L667.91 14.7066V68.4744L621.339 95.3619L574.762 68.4744Z" stroke="#6685FA" stroke-width="3.6" stroke-miterlimit="10"/>
<path d="M667.911 -39.0547V14.7061L621.34 41.5936" stroke="#6685FA" stroke-width="3.6" stroke-miterlimit="10"/>
<path d="M947.363 14.7069V-39.0539L993.934 -65.9414L1040.51 -39.0539" stroke="#6685FA" stroke-width="3.6" stroke-miterlimit="10"/>
<path d="M854.211 68.4744V14.7066L900.789 -12.1738L947.366 14.7066V68.4744L900.789 95.3619L854.211 68.4744Z" stroke="#6685FA" stroke-width="3.6" stroke-miterlimit="10"/>
<path d="M1040.53 122.242L1087.1 95.3614V41.5936L1040.53 14.7061L993.949 41.5936" stroke="#6685FA" stroke-width="3.6" stroke-miterlimit="10"/>
<path d="M993.949 95.3614V149.122L947.378 176.01L900.801 149.122V95.3614" stroke="#6685FA" stroke-width="3.6" stroke-miterlimit="10"/>
<path d="M900.801 95.3613V149.122L854.23 176.01" stroke="#6685FA" stroke-width="3.6" stroke-miterlimit="10"/>
<path d="M900.816 149.122L947.387 176.01V229.777L900.816 256.658L854.238 229.777" stroke="#6685FA" stroke-width="3.6" stroke-miterlimit="10"/>
<path d="M947.387 229.777V176.01L900.816 149.122L854.238 176.01" stroke="#6685FA" stroke-width="3.6" stroke-miterlimit="10"/>
<path d="M854.257 -39.0547L807.68 -12.1743V41.5936L854.257 68.474L900.828 41.5936" stroke="#6685FA" stroke-width="3.6" stroke-miterlimit="10"/>
<path d="M1739.16 41.5938V95.3616L1785.74 122.242" stroke="#6685FA" stroke-width="3.6" stroke-miterlimit="10"/>
<path d="M1599.56 122.242V176.01L1552.98 202.89" stroke="#6685FA" stroke-width="3.6" stroke-miterlimit="10"/>
<path d="M1878.93 122.242L1832.35 149.123V202.89L1878.93 229.778L1925.5 202.89" stroke="#6685FA" stroke-width="3.6" stroke-miterlimit="10"/>
<path d="M1832.35 202.89V149.123L1878.93 122.242L1925.5 149.123" stroke="#6685FA" stroke-width="3.6" stroke-miterlimit="10"/>
<path d="M1273.43 41.5938V95.3616L1226.85 122.242" stroke="#6685FA" stroke-width="3.6" stroke-miterlimit="10"/>
<path d="M1226.87 68.474L1180.29 41.5936V-12.1743L1226.87 -39.0547L1273.44 -12.1743" stroke="#6685FA" stroke-width="3.6" stroke-miterlimit="10"/>
<path d="M1320.02 -92.8223L1366.6 -65.9419V-12.174L1320.02 14.7064L1273.45 -12.174" stroke="#6685FA" stroke-width="3.6" stroke-miterlimit="10"/>
<path d="M1413.2 122.242V68.4741L1366.62 41.5938L1320.04 68.4741V122.242L1366.62 149.122L1413.2 122.242Z" stroke="#6685FA" stroke-width="3.6" stroke-miterlimit="10"/>
<path d="M1320.04 68.4746L1273.46 95.3621V149.123L1320.04 176.01L1366.62 149.123" stroke="#6685FA" stroke-width="3.6" stroke-miterlimit="10"/>
<path d="M434.973 -12.174V-65.9419L481.55 -92.8223L528.121 -65.9419V-12.174L481.55 14.7064L434.973 -12.174Z" stroke="#6685FA" stroke-width="3.6" stroke-miterlimit="10"/>
<path d="M341.867 95.3614V41.5936L295.289 14.7061L248.719 41.5936V95.3614L295.289 122.242L341.867 95.3614Z" stroke="#6685FA" stroke-width="3.6" stroke-miterlimit="10"/>
<path d="M1150.19 77.7806V59.2537L1134.14 49.9902L1118.09 59.2537V77.7806L1134.14 87.0441L1150.19 77.7806Z" fill="#98AEFF"/>
<path d="M590.904 292.787V274.26L574.854 264.997L558.805 274.26V292.787L574.854 302.051L590.904 292.787Z" fill="#98AEFF"/>
<path d="M1475.78 211.932V193.405L1459.73 184.135L1443.68 193.405V211.932L1459.73 221.196L1475.78 211.932Z" fill="#98AEFF"/>
<path d="M1848.35 51.1411V32.6142L1832.3 23.3508L1816.25 32.6142V51.1411L1832.3 60.4046L1848.35 51.1411Z" fill="#98AEFF"/>
<path d="M218.639 77.7806V59.2537L202.589 49.9902L186.539 59.2537V77.7806L202.589 87.0441L218.639 77.7806Z" fill="#98AEFF"/>
<path d="M1920.58 150.721V141.294L1912.42 136.588L1904.26 141.294V150.721L1912.42 155.435L1920.58 150.721Z" fill="white"/>
<path d="M854.683 73.8687V64.4417L846.52 59.7354L838.363 64.4417V73.8687L846.52 78.5751L854.683 73.8687Z" fill="white"/>
</g>
<defs>
<clipPath id="clip0_1_149">
<rect width="1920" height="610" fill="white" transform="translate(0 0.226562)"/>
</clipPath>
</defs>
</svg>
