<svg width="424" height="423" viewBox="0 0 424 423" fill="none" xmlns="http://www.w3.org/2000/svg">
<g clip-path="url(#clip0_5701_43999)">
<path opacity="0.08" d="M59.0247 324.573C48.2943 324.579 38.3777 318.853 33.0178 309.557L-22.0769 214.002C-27.4274 204.723 -27.424 193.294 -22.0682 184.018L33.1724 88.338C38.5283 79.0614 48.424 73.3442 59.1358 73.338L169.436 73.2739C180.167 73.2677 190.083 78.9931 195.443 88.289L250.538 183.844C255.888 193.124 255.885 204.552 250.529 213.829L195.289 309.508C189.933 318.785 180.037 324.502 169.325 324.508L59.0247 324.573Z" fill="url(#paint0_linear_5701_43999)"/>
<path opacity="0.08" d="M192.33 -22.9026C203.044 -22.9048 212.922 -17.2749 218.277 -8.11461L267.673 76.3835C273.07 85.6154 273.053 97.0286 267.628 106.304L218.353 190.554C212.928 199.83 202.924 205.551 192.127 205.553L93.2983 205.573C82.5844 205.575 72.7064 199.945 67.3513 190.785L17.9546 106.287C12.5577 97.0551 12.575 85.6419 18.0001 76.3661L67.2747 -7.88341C72.6998 -17.1592 82.7039 -22.8807 93.5014 -22.8828L192.33 -22.9026Z" fill="url(#paint1_linear_5701_43999)"/>
<path opacity="0.08" d="M409.872 116.374C420.604 116.363 430.502 122.004 435.858 131.185L490.01 224.005C495.395 233.234 495.372 244.636 489.952 253.904L435.701 346.662C430.281 355.93 420.289 361.65 409.5 361.661L300.993 361.777C290.26 361.788 280.363 356.147 275.007 346.966L220.854 254.145C215.47 244.917 215.492 233.515 220.913 224.247L275.164 131.489C280.584 122.221 290.576 116.501 301.364 116.49L409.872 116.374Z" fill="url(#paint2_linear_5701_43999)"/>
<path opacity="0.08" d="M328.817 38.3274C339.55 38.316 349.447 43.9568 354.803 53.1379L408.956 145.959C414.34 155.187 414.317 166.589 408.897 175.857L354.646 268.615C349.226 277.883 339.234 283.603 328.446 283.614L219.938 283.73C209.206 283.741 199.308 278.1 193.952 268.919L139.799 176.099C134.415 166.87 134.438 155.468 139.858 146.2L194.109 53.4422C199.529 44.1745 209.521 38.4543 220.309 38.4428L328.817 38.3274Z" fill="white" fill-opacity="0.3"/>
</g>
<defs>
<linearGradient id="paint0_linear_5701_43999" x1="-23.028" y1="185.68" x2="230.499" y2="206.495" gradientUnits="userSpaceOnUse">
<stop stop-color="white" stop-opacity="0"/>
<stop offset="1" stop-color="#DCE4FF"/>
</linearGradient>
<linearGradient id="paint1_linear_5701_43999" x1="269.312" y1="103.425" x2="35.6892" y2="84.0751" gradientUnits="userSpaceOnUse">
<stop stop-color="white" stop-opacity="0"/>
<stop offset="1" stop-color="#DCE4FF"/>
</linearGradient>
<linearGradient id="paint2_linear_5701_43999" x1="491.101" y1="251.939" x2="240.571" y2="230.989" gradientUnits="userSpaceOnUse">
<stop stop-color="#DCE4FF"/>
<stop offset="1" stop-color="white" stop-opacity="0"/>
</linearGradient>
<clipPath id="clip0_5701_43999">
<rect width="424" height="423" fill="white"/>
</clipPath>
</defs>
</svg>
