<svg width="14" height="8" viewBox="0 0 14 8" fill="none" xmlns="http://www.w3.org/2000/svg">
	<path d="M6.66929 5.52189L11.6193 0.57189C11.7115 0.47638 11.8219 0.400197 11.9439 0.347788C12.0659 0.295379 12.1971 0.267793 12.3299 0.266639C12.4627 0.265486 12.5943 0.290787 12.7172 0.341068C12.8401 0.391349 12.9518 0.465602 13.0457 0.559495C13.1396 0.653387 13.2138 0.765039 13.2641 0.887936C13.3144 1.01083 13.3397 1.14251 13.3385 1.27529C13.3374 1.40807 13.3098 1.53929 13.2574 1.66129C13.205 1.7833 13.1288 1.89364 13.0333 1.98589L7.37629 7.64289C7.18876 7.83036 6.93445 7.93568 6.66929 7.93568C6.40412 7.93568 6.14982 7.83036 5.96229 7.64289L0.305288 1.98589C0.209778 1.89364 0.133596 1.7833 0.0811868 1.66129C0.0287778 1.53929 0.00119157 1.40807 3.77568e-05 1.27529C-0.00111606 1.14251 0.0241856 1.01083 0.0744665 0.887936C0.124747 0.765039 0.199001 0.653387 0.292893 0.559495C0.386786 0.465602 0.498438 0.391349 0.621334 0.341068C0.744231 0.290787 0.87591 0.265486 1.00869 0.266639C1.14147 0.267793 1.27269 0.295379 1.39469 0.347788C1.5167 0.400197 1.62704 0.47638 1.71929 0.57189L6.66929 5.52189Z" fill="black" />
</svg>
