<svg width="1920" height="376" viewBox="0 0 1920 376" fill="none" xmlns="http://www.w3.org/2000/svg">
<g opacity="0.3" clip-path="url(#clip0_1905_11554)">
<path d="M295.414 -54.2188V-0.450872L341.992 26.4295L388.562 -0.450872V-54.2188" stroke="#4068FF" stroke-width="0.66" stroke-miterlimit="10"/>
<path d="M388.562 -54.2188V-0.450872L435.14 26.4295" stroke="#4068FF" stroke-width="0.66" stroke-miterlimit="10"/>
<path d="M388.562 107.078V53.3101L435.14 26.4297L481.718 53.3101V107.078L435.14 133.965L388.562 107.078Z" stroke="#4068FF" stroke-width="0.66" stroke-miterlimit="10"/>
<path d="M295.414 53.3124V-0.448397L341.992 -27.3359L388.562 -0.448397" stroke="#4068FF" stroke-width="0.66" stroke-miterlimit="10"/>
<path d="M435.149 26.4341L388.578 -0.446231V-54.2141L435.149 -81.1016L481.727 -54.2141" stroke="#4068FF" stroke-width="0.66" stroke-miterlimit="10"/>
<path d="M668.016 -54.2188V-0.450872L714.586 26.4295" stroke="#4068FF" stroke-width="0.66" stroke-miterlimit="10"/>
<path d="M714.601 26.4341L668.023 -0.446231V-54.2141L714.601 -81.1016L761.172 -54.2141" stroke="#4068FF" stroke-width="0.66" stroke-miterlimit="10"/>
<path d="M854.32 53.3124V-0.448397L807.75 -27.3359L761.172 -0.448397" stroke="#4068FF" stroke-width="0.66" stroke-miterlimit="10"/>
<path d="M854.321 160.848L900.898 133.968V80.2L854.321 53.3125L807.75 80.2" stroke="#4068FF" stroke-width="0.66" stroke-miterlimit="10"/>
<path d="M761.179 107.078L714.602 133.966V187.726L761.179 214.614L807.757 187.726" stroke="#4068FF" stroke-width="0.66" stroke-miterlimit="10"/>
<path d="M714.602 187.726V133.966L761.179 107.078L807.757 133.966" stroke="#4068FF" stroke-width="0.66" stroke-miterlimit="10"/>
<path d="M621.453 80.1953V133.963L668.031 160.844" stroke="#4068FF" stroke-width="0.66" stroke-miterlimit="10"/>
<path d="M807.75 187.726V133.966L854.321 107.078L900.898 133.966V187.726L854.321 214.614L807.75 187.726Z" stroke="#4068FF" stroke-width="0.66" stroke-miterlimit="10"/>
<path d="M621.453 241.492V187.724L668.031 160.844L714.602 187.724V241.492L668.031 268.38L621.453 241.492Z" stroke="#4068FF" stroke-width="0.66" stroke-miterlimit="10"/>
<path d="M807.757 133.969V187.73L761.179 214.617L714.602 187.73V133.969" stroke="#4068FF" stroke-width="0.66" stroke-miterlimit="10"/>
<path d="M714.602 133.969V187.73L668.031 214.617" stroke="#4068FF" stroke-width="0.66" stroke-miterlimit="10"/>
<path d="M761.188 268.382V214.614L807.765 187.727L854.343 214.614V268.382L807.765 295.262L761.188 268.382Z" stroke="#4068FF" stroke-width="0.66" stroke-miterlimit="10"/>
<path d="M714.609 187.727L761.18 214.614V268.382L714.609 295.262L668.031 268.382" stroke="#4068FF" stroke-width="0.66" stroke-miterlimit="10"/>
<path d="M668.031 214.617V160.849L714.609 133.969L761.18 160.849" stroke="#4068FF" stroke-width="0.66" stroke-miterlimit="10"/>
<path d="M761.18 268.382V214.614L714.609 187.727L668.031 214.614" stroke="#4068FF" stroke-width="0.66" stroke-miterlimit="10"/>
<path d="M854.343 160.844V214.612L807.766 241.492" stroke="#4068FF" stroke-width="0.66" stroke-miterlimit="10"/>
<path d="M807.766 187.726V133.966L854.343 107.078L900.914 133.966V187.726L854.343 214.614L807.766 187.726Z" stroke="#4068FF" stroke-width="0.66" stroke-miterlimit="10"/>
<path d="M668.039 160.848L621.469 133.968V80.2L668.039 53.3125L714.617 80.2" stroke="#4068FF" stroke-width="0.66" stroke-miterlimit="10"/>
<path d="M761.18 107.078L807.758 133.966V187.726L761.18 214.614L714.609 187.726" stroke="#4068FF" stroke-width="0.66" stroke-miterlimit="10"/>
<path d="M807.758 187.726V133.966L761.18 107.078L714.609 133.966" stroke="#4068FF" stroke-width="0.66" stroke-miterlimit="10"/>
<path d="M668.062 -0.453125L621.484 26.4272V80.1951L668.062 107.076L714.64 80.1951" stroke="#4068FF" stroke-width="0.66" stroke-miterlimit="10"/>
<path d="M1692.7 -0.446231V-54.2141L1646.12 -81.1016L1599.55 -54.2141V-0.446231L1646.12 26.4341L1692.7 -0.446231Z" stroke="#4068FF" stroke-width="0.66" stroke-miterlimit="10"/>
<path d="M1459.83 -81.1016L1413.25 -54.2141V-0.446231L1459.83 26.4341L1506.41 -0.446231" stroke="#4068FF" stroke-width="0.66" stroke-miterlimit="10"/>
<path d="M1506.41 -0.446231V-54.2141L1552.98 -81.1016L1599.55 -54.2141V-0.446231L1552.98 26.4341L1506.41 -0.446231Z" stroke="#4068FF" stroke-width="0.66" stroke-miterlimit="10"/>
<path d="M1320.11 53.3124V-0.448397L1366.69 -27.3359L1413.26 -0.448397V53.3124L1366.69 80.1998L1320.11 53.3124Z" stroke="#4068FF" stroke-width="0.66" stroke-miterlimit="10"/>
<path d="M1506.41 -54.2188V-0.450872L1459.83 26.4295L1413.25 -0.450872V-54.2188" stroke="#4068FF" stroke-width="0.66" stroke-miterlimit="10"/>
<path d="M1413.26 -54.2188V-0.450872L1366.69 26.4295" stroke="#4068FF" stroke-width="0.66" stroke-miterlimit="10"/>
<path d="M1459.84 80.1951V26.4272L1506.41 -0.453125L1552.98 26.4272V80.1951L1506.41 107.076L1459.84 80.1951Z" stroke="#4068FF" stroke-width="0.66" stroke-miterlimit="10"/>
<path d="M1413.27 -0.453125L1459.84 26.4272V80.1951L1413.27 107.076L1366.69 80.1951" stroke="#4068FF" stroke-width="0.66" stroke-miterlimit="10"/>
<path d="M1366.69 26.4295V-27.3384L1413.27 -54.2188L1459.84 -27.3384" stroke="#4068FF" stroke-width="0.66" stroke-miterlimit="10"/>
<path d="M1459.84 80.1951V26.4272L1413.27 -0.453125L1366.69 26.4272" stroke="#4068FF" stroke-width="0.66" stroke-miterlimit="10"/>
<path d="M1506.41 -0.446231V-54.2141L1552.98 -81.1016L1599.56 -54.2141V-0.446231L1552.98 26.4341L1506.41 -0.446231Z" stroke="#4068FF" stroke-width="0.66" stroke-miterlimit="10"/>
<path d="M1459.84 -81.1016L1506.41 -54.2141V-0.446231L1459.84 26.4341L1413.27 -0.446231" stroke="#4068FF" stroke-width="0.66" stroke-miterlimit="10"/>
<path d="M1459.81 80.1953V133.963L1506.39 160.844L1552.97 133.963V80.1953" stroke="#4068FF" stroke-width="0.66" stroke-miterlimit="10"/>
<path d="M1552.97 80.1953V133.963" stroke="#4068FF" stroke-width="0.66" stroke-miterlimit="10"/>
<path d="M1459.81 133.966L1506.39 107.078L1552.97 133.966" stroke="#4068FF" stroke-width="0.66" stroke-miterlimit="10"/>
<path d="M1646.13 80.1951V26.4272L1599.56 -0.453125L1552.98 26.4272V80.1951L1599.56 107.076L1646.13 80.1951Z" stroke="#4068FF" stroke-width="0.66" stroke-miterlimit="10"/>
<path d="M1552.98 133.968V80.2L1599.56 53.3125L1646.13 80.2" stroke="#4068FF" stroke-width="0.66" stroke-miterlimit="10"/>
<path d="M1692.71 -0.453125L1739.29 26.4272V80.1951L1692.71 107.076L1646.13 80.1951" stroke="#4068FF" stroke-width="0.66" stroke-miterlimit="10"/>
<path d="M1646.13 26.4295V-27.3384L1692.71 -54.2188L1739.29 -27.3384" stroke="#4068FF" stroke-width="0.66" stroke-miterlimit="10"/>
<path d="M1739.29 80.1951V26.4272L1692.71 -0.453125L1646.13 26.4272" stroke="#4068FF" stroke-width="0.66" stroke-miterlimit="10"/>
<path d="M1226.96 -54.2188V-0.450872L1273.53 26.4295L1320.11 -0.450872V-54.2188" stroke="#4068FF" stroke-width="0.66" stroke-miterlimit="10"/>
<path d="M1226.96 53.3124V-0.448397L1273.53 -27.3359L1320.11 -0.448397" stroke="#4068FF" stroke-width="0.66" stroke-miterlimit="10"/>
<path d="M900.953 26.4295V-27.3384L947.524 -54.2188L994.102 -27.3384V26.4295L947.524 53.3099L900.953 26.4295Z" stroke="#4068FF" stroke-width="0.66" stroke-miterlimit="10"/>
<path d="M900.93 26.4297V80.1976L947.5 107.078L994.078 80.1976V26.4297" stroke="#4068FF" stroke-width="0.66" stroke-miterlimit="10"/>
<path d="M994.078 26.4297V80.1976L1040.65 107.078" stroke="#4068FF" stroke-width="0.66" stroke-miterlimit="10"/>
<path d="M994.078 187.726V133.966L1040.65 107.078L1087.23 133.966V187.726L1040.65 214.614L994.078 187.726Z" stroke="#4068FF" stroke-width="0.66" stroke-miterlimit="10"/>
<path d="M900.93 133.968V80.2L947.5 53.3125L994.078 80.2" stroke="#4068FF" stroke-width="0.66" stroke-miterlimit="10"/>
<path d="M1087.23 80.1953V133.963L1040.66 160.844" stroke="#4068FF" stroke-width="0.66" stroke-miterlimit="10"/>
<path d="M1087.24 26.4295V-27.3384L1040.67 -54.2188L994.094 -27.3384V26.4295L1040.67 53.3099L1087.24 26.4295Z" stroke="#4068FF" stroke-width="0.66" stroke-miterlimit="10"/>
<path d="M1040.67 107.076L994.094 80.1951V26.4272L1040.67 -0.453125L1087.24 26.4272" stroke="#4068FF" stroke-width="0.66" stroke-miterlimit="10"/>
<path d="M1180.4 26.4295V-27.3384L1226.97 -54.2188L1273.55 -27.3384V26.4295L1226.97 53.3099L1180.4 26.4295Z" stroke="#4068FF" stroke-width="0.66" stroke-miterlimit="10"/>
<path d="M1133.82 -54.2188L1180.4 -27.3384V26.4295L1133.82 53.3099L1087.25 26.4295" stroke="#4068FF" stroke-width="0.66" stroke-miterlimit="10"/>
<path d="M1180.4 26.4295V-27.3384L1133.82 -54.2188L1087.25 -27.3384" stroke="#4068FF" stroke-width="0.66" stroke-miterlimit="10"/>
<path d="M1180.38 26.4297V80.1976L1226.95 107.078L1273.53 80.1976V26.4297" stroke="#4068FF" stroke-width="0.66" stroke-miterlimit="10"/>
<path d="M947.367 107.078V53.3101L993.945 26.4297L1040.52 53.3101" stroke="#4068FF" stroke-width="0.66" stroke-miterlimit="10"/>
<path d="M1180.38 133.968V80.2L1226.95 53.3125L1273.53 80.2" stroke="#4068FF" stroke-width="0.66" stroke-miterlimit="10"/>
<path d="M1226.99 160.844V107.076L1180.41 80.1953L1133.84 107.076V160.844L1180.41 187.724L1226.99 160.844Z" stroke="#4068FF" stroke-width="0.66" stroke-miterlimit="10"/>
<path d="M1133.84 107.078L1087.27 133.966V187.726L1133.84 214.614L1180.41 187.726" stroke="#4068FF" stroke-width="0.66" stroke-miterlimit="10"/>
<path d="M1087.27 187.726V133.966L1133.84 107.078L1180.41 133.966" stroke="#4068FF" stroke-width="0.66" stroke-miterlimit="10"/>
<path d="M248.773 26.4295V-27.3384L295.351 -54.2188L341.922 -27.3384V26.4295L295.351 53.3099L248.773 26.4295Z" stroke="#4068FF" stroke-width="0.66" stroke-miterlimit="10"/>
<path d="M155.633 26.4295V-27.3384L202.203 -54.2188L248.781 -27.3384" stroke="#4068FF" stroke-width="0.66" stroke-miterlimit="10"/>
<path d="M-77.25 160.844V107.076L-30.6722 80.1953L15.8984 107.076V160.844L-30.6722 187.724L-77.25 160.844Z" stroke="#4068FF" stroke-width="0.66" stroke-miterlimit="10"/>
<path d="M15.8988 53.3125V107.08L-30.6719 133.968" stroke="#4068FF" stroke-width="0.66" stroke-miterlimit="10"/>
<path d="M-30.6644 80.1998L-77.2422 53.3124V-0.448397L-30.6644 -27.3359L15.9134 -0.448397" stroke="#4068FF" stroke-width="0.66" stroke-miterlimit="10"/>
<path d="M109.062 -0.446231V-54.2141L155.64 -81.1016L202.211 -54.2141V-0.446231L155.64 26.4341L109.062 -0.446231Z" stroke="#4068FF" stroke-width="0.66" stroke-miterlimit="10"/>
<path d="M62.4925 -81.1016L109.07 -54.2141V-0.446231L62.4925 26.4341L15.9219 -0.446231" stroke="#4068FF" stroke-width="0.66" stroke-miterlimit="10"/>
<path d="M109.047 -0.453125V53.3076L155.625 80.1951L202.195 53.3076V-0.453125" stroke="#4068FF" stroke-width="0.66" stroke-miterlimit="10"/>
<path d="M109.047 107.078V53.3101L155.625 26.4297L202.195 53.3101" stroke="#4068FF" stroke-width="0.66" stroke-miterlimit="10"/>
<path d="M155.664 133.968V80.2L109.086 53.3125L62.5156 80.2V133.968L109.086 160.848L155.664 133.968Z" stroke="#4068FF" stroke-width="0.66" stroke-miterlimit="10"/>
<path d="M62.5082 80.1953L15.9375 107.076V160.844L62.5082 187.724L109.086 160.844" stroke="#4068FF" stroke-width="0.66" stroke-miterlimit="10"/>
<path d="M15.9375 160.844V107.076L62.5082 80.1953L109.086 107.076" stroke="#4068FF" stroke-width="0.66" stroke-miterlimit="10"/>
<path d="M947.391 -0.454044V-54.2219L993.968 -81.1094L1040.54 -54.2219V-0.454044L993.968 26.4263L947.391 -0.454044Z" stroke="#94AAFF" stroke-width="0.66" stroke-miterlimit="10"/>
<path d="M900.812 -81.1094L947.383 -54.2219V-0.454044L900.812 26.4263L854.234 -0.454044" stroke="#94AAFF" stroke-width="0.66" stroke-miterlimit="10"/>
<path d="M947.359 -0.453125V53.3076L993.937 80.1951L1040.51 53.3076V-0.453125" stroke="#94AAFF" stroke-width="0.66" stroke-miterlimit="10"/>
<path d="M947.359 107.078V53.3101L993.937 26.4297L1040.51 53.3101" stroke="#94AAFF" stroke-width="0.66" stroke-miterlimit="10"/>
<path d="M807.727 -27.3359L761.156 -0.448397V53.3124L807.727 80.1998L854.305 53.3124" stroke="#94AAFF" stroke-width="0.66" stroke-miterlimit="10"/>
<path d="M761.156 53.3124V-0.448397L807.727 -27.3359L854.305 -0.448397" stroke="#94AAFF" stroke-width="0.66" stroke-miterlimit="10"/>
<path d="M668.008 107.078V53.3101L714.578 26.4297L761.156 53.3101V107.078L714.578 133.965L668.008 107.078Z" stroke="#94AAFF" stroke-width="0.66" stroke-miterlimit="10"/>
<path d="M574.859 53.3124V-0.448397L621.437 -27.3359L668.015 -0.448397" stroke="#94AAFF" stroke-width="0.66" stroke-miterlimit="10"/>
<path d="M854.305 -0.453125V53.3076L807.727 80.1951L761.156 53.3076V-0.453125" stroke="#94AAFF" stroke-width="0.66" stroke-miterlimit="10"/>
<path d="M761.156 -0.453125V53.3076L714.578 80.1951" stroke="#94AAFF" stroke-width="0.66" stroke-miterlimit="10"/>
<path d="M574.859 -54.2188V-0.450872L621.437 26.4295L668.015 -0.450872V-54.2188" stroke="#94AAFF" stroke-width="0.66" stroke-miterlimit="10"/>
<path d="M1552.98 -27.3359V26.4319L1506.41 53.3124" stroke="#94AAFF" stroke-width="0.66" stroke-miterlimit="10"/>
<path d="M900.812 -81.1094L947.383 -54.2219V-0.454044L900.812 26.4263L854.234 -0.454044" stroke="#6685FA" stroke-width="3.6" stroke-miterlimit="10"/>
<path d="M1878.93 -107.984L1832.35 -81.104V-27.3362L1878.93 -0.44862L1925.5 -27.3362" stroke="#6685FA" stroke-width="3.6" stroke-miterlimit="10"/>
<path d="M590.904 62.5638V44.0368L574.854 34.7734L558.805 44.0368V62.5638L574.854 71.8273L590.904 62.5638Z" fill="#98AEFF"/>
</g>
<defs>
<clipPath id="clip0_1905_11554">
<rect width="1920" height="376" fill="white"/>
</clipPath>
</defs>
</svg>
