<svg width="128" height="128" viewBox="0 0 128 128" fill="none" xmlns="http://www.w3.org/2000/svg">
<g clip-path="url(#clip0_1110_2020)">
<path d="M76.9727 31.8983H51.7529V4.43564C51.7529 1.9859 53.7388 0 56.1885 0H72.5371C74.9868 0 76.9727 1.9859 76.9727 4.43564V31.8983ZM38.0252 41.887L20.192 59.6806L5.20018 44.7224C3.2618 42.7884 3.2618 39.648 5.20018 37.7137L16.0247 26.9133C17.9571 24.9853 21.0855 24.9853 23.0175 26.9133L38.0252 41.887ZM89.9748 41.887L107.808 59.6806L122.8 44.7224C124.738 42.7884 124.738 39.648 122.8 37.7137L111.975 26.9133C110.043 24.9853 106.915 24.9853 104.982 26.9133L89.9748 41.887Z" fill="white"/>
<path d="M63.9135 128C92.9349 128 116.461 104.526 116.461 75.5691C116.461 46.6123 92.9349 23.1382 63.9135 23.1382C34.8922 23.1382 11.3657 46.6123 11.3657 75.5691C11.3657 104.526 34.8922 128 63.9135 128Z" fill="#111827"/>
<path d="M63.3261 48.4373C59.0432 48.4373 54.5271 49.6298 51.1481 52.352L54.1203 60.1353C56.3923 58.2416 58.9909 56.9192 62.0246 56.9188C65.3773 56.9721 67.0774 58.4453 67.0774 61.2975C67.0774 63.9994 65.4083 66.4894 62.5154 69.8893C58.9 74.2178 57.2483 78.874 57.7382 83.3562L57.9986 86.7327H66.8642L66.7242 83.0983C66.5322 79.8435 67.5856 77.1812 70.363 73.9064C74.0398 69.55 76.8523 65.7984 76.8523 60.5203C76.852 54.5058 72.6698 48.4373 63.3261 48.4373ZM62.2641 90.4751C58.8167 90.4751 56.3146 93.0611 56.3146 96.6235C56.3146 100.088 58.842 102.701 62.1931 102.701C65.6409 102.701 68.1429 100.145 68.1429 96.6235C68.1432 93.0611 65.6707 90.4751 62.2641 90.4751Z" fill="white"/>
</g>
<defs>
<clipPath id="clip0_1110_2020">
<rect width="128" height="128" fill="white"/>
</clipPath>
</defs>
</svg>
