<svg width="1440" height="479" viewBox="0 0 1440 479" fill="none" xmlns="http://www.w3.org/2000/svg">
<g clip-path="url(#clip0_1_2)">
<rect width="1440" height="479" fill="url(#paint0_linear_1_2)"/>
<mask id="mask0_1_2" style="mask-type:alpha" maskUnits="userSpaceOnUse" x="0" y="0" width="1440" height="479">
<rect width="1440" height="479" fill="#D9D9D9"/>
</mask>
<g mask="url(#mask0_1_2)">
<mask id="mask1_1_2" style="mask-type:alpha" maskUnits="userSpaceOnUse" x="0" y="-20" width="1440" height="712">
<rect y="-20" width="1440" height="711.642" fill="url(#paint1_radial_1_2)"/>
</mask>
<g mask="url(#mask1_1_2)">
<rect x="0.475248" y="-0.475248" width="113.109" height="113.109" transform="matrix(1 0 0 -1 534.178 496.057)" stroke="#00AEFF" stroke-width="0.950495"/>
<rect x="0.475248" y="-0.475248" width="113.109" height="113.109" transform="matrix(1 0 0 -1 647.287 496.057)" stroke="#00AEFF" stroke-width="0.950495"/>
<rect x="0.475248" y="-0.475248" width="113.109" height="113.109" transform="matrix(1 0 0 -1 760.396 496.057)" stroke="#00AEFF" stroke-width="0.950495"/>
<rect x="0.475248" y="-0.475248" width="113.109" height="113.109" transform="matrix(1 0 0 -1 873.505 496.057)" fill="#00AEFF" fill-opacity="0.2" stroke="#00AEFF" stroke-width="0.950495"/>
<rect x="0.475248" y="-0.475248" width="113.109" height="113.109" transform="matrix(1 0 0 -1 986.614 496.057)" stroke="#00AEFF" stroke-width="0.950495"/>
<rect x="0.475248" y="-0.475248" width="113.109" height="113.109" transform="matrix(1 0 0 -1 1099.72 496.057)" stroke="#00AEFF" stroke-width="0.950495"/>
<rect x="0.475248" y="-0.475248" width="113.109" height="113.109" transform="matrix(1 0 0 -1 1212.83 496.057)" stroke="#00AEFF" stroke-width="0.950495"/>
<rect x="0.475248" y="-0.475248" width="113.109" height="113.109" transform="matrix(1 0 0 -1 1325.94 496.057)" stroke="#00AEFF" stroke-width="0.950495"/>
<rect x="0.475248" y="-0.475248" width="113.109" height="113.109" transform="matrix(1 0 0 -1 534.178 383.265)" stroke="#00AEFF" stroke-width="0.950495"/>
<rect x="0.475248" y="-0.475248" width="113.109" height="113.109" transform="matrix(1 0 0 -1 647.287 383.265)" stroke="#00AEFF" stroke-width="0.950495"/>
<rect x="0.475248" y="-0.475248" width="113.109" height="113.109" transform="matrix(1 0 0 -1 760.396 383.265)" fill="#00AEFF" fill-opacity="0.2" stroke="#00AEFF" stroke-width="0.950495"/>
<rect x="0.475248" y="-0.475248" width="113.109" height="113.109" transform="matrix(1 0 0 -1 873.505 383.265)" stroke="#00AEFF" stroke-width="0.950495"/>
<rect x="0.475248" y="-0.475248" width="113.109" height="113.109" transform="matrix(1 0 0 -1 986.614 383.265)" fill="#00AEFF" fill-opacity="0.2" stroke="#00AEFF" stroke-width="0.950495"/>
<rect x="0.475248" y="-0.475248" width="113.109" height="113.109" transform="matrix(1 0 0 -1 1099.72 383.265)" stroke="#00AEFF" stroke-width="0.950495"/>
<rect x="0.475248" y="-0.475248" width="113.109" height="113.109" transform="matrix(1 0 0 -1 1212.83 383.265)" fill="#00AEFF" fill-opacity="0.2" stroke="#00AEFF" stroke-width="0.950495"/>
<rect x="0.475248" y="-0.475248" width="113.109" height="113.109" transform="matrix(1 0 0 -1 1325.94 383.265)" stroke="#00AEFF" stroke-width="0.950495"/>
<rect x="0.475248" y="-0.475248" width="113.109" height="113.109" transform="matrix(1 0 0 -1 534.178 270.473)" stroke="#00AEFF" stroke-width="0.950495"/>
<rect x="0.475248" y="-0.475248" width="113.109" height="113.109" transform="matrix(1 0 0 -1 647.287 270.473)" stroke="#00AEFF" stroke-width="0.950495"/>
<rect x="0.475248" y="-0.475248" width="113.109" height="113.109" transform="matrix(1 0 0 -1 760.396 270.473)" fill="#00AEFF" fill-opacity="0.2" stroke="#00AEFF" stroke-width="0.950495"/>
<rect x="0.475248" y="-0.475248" width="113.109" height="113.109" transform="matrix(1 0 0 -1 873.505 270.473)" stroke="#00AEFF" stroke-width="0.950495"/>
<rect x="0.475248" y="-0.475248" width="113.109" height="113.109" transform="matrix(1 0 0 -1 986.614 270.473)" stroke="#00AEFF" stroke-width="0.950495"/>
<rect x="0.475248" y="-0.475248" width="113.109" height="113.109" transform="matrix(1 0 0 -1 1099.72 270.473)" stroke="#00AEFF" stroke-width="0.950495"/>
<rect x="0.475248" y="-0.475248" width="113.109" height="113.109" transform="matrix(1 0 0 -1 1212.83 270.473)" stroke="#00AEFF" stroke-width="0.950495"/>
<rect x="0.475248" y="-0.475248" width="113.109" height="113.109" transform="matrix(1 0 0 -1 1325.94 270.473)" stroke="#00AEFF" stroke-width="0.950495"/>
<rect x="0.475248" y="-0.475248" width="113.109" height="113.109" transform="matrix(1 0 0 -1 534.178 157.681)" stroke="#00AEFF" stroke-width="0.950495"/>
<rect x="0.475248" y="-0.475248" width="113.109" height="113.109" transform="matrix(1 0 0 -1 647.287 157.681)" stroke="#00AEFF" stroke-width="0.950495"/>
<rect x="0.475248" y="-0.475248" width="113.109" height="113.109" transform="matrix(1 0 0 -1 760.396 157.681)" stroke="#00AEFF" stroke-width="0.950495"/>
<rect x="0.475248" y="-0.475248" width="113.109" height="113.109" transform="matrix(1 0 0 -1 873.505 157.681)" stroke="#00AEFF" stroke-width="0.950495"/>
<rect x="0.475248" y="-0.475248" width="113.109" height="113.109" transform="matrix(1 0 0 -1 986.614 157.681)" stroke="#00AEFF" stroke-width="0.950495"/>
<rect x="0.475248" y="-0.475248" width="113.109" height="113.109" transform="matrix(1 0 0 -1 1099.72 157.681)" stroke="#00AEFF" stroke-width="0.950495"/>
<rect x="0.475248" y="-0.475248" width="113.109" height="113.109" transform="matrix(1 0 0 -1 1212.83 157.681)" stroke="#00AEFF" stroke-width="0.950495"/>
<rect x="0.475248" y="-0.475248" width="113.109" height="113.109" transform="matrix(1 0 0 -1 1325.94 157.681)" stroke="#00AEFF" stroke-width="0.950495"/>
</g>
</g>
</g>
<defs>
<linearGradient id="paint0_linear_1_2" x1="1075.12" y1="50.8764" x2="355.15" y2="739.824" gradientUnits="userSpaceOnUse">
<stop stop-color="#F5F8FF"/>
<stop offset="0.694453" stop-color="#FAFBFF"/>
<stop offset="1" stop-color="#E9EEFF"/>
</linearGradient>
<radialGradient id="paint1_radial_1_2" cx="0" cy="0" r="1" gradientUnits="userSpaceOnUse" gradientTransform="translate(880 364.478) rotate(90) scale(299.701 425.647)">
<stop stop-opacity="0.2"/>
<stop offset="1" stop-opacity="0"/>
</radialGradient>
<clipPath id="clip0_1_2">
<rect width="1440" height="479" fill="white"/>
</clipPath>
</defs>
</svg>
