<svg width="695" height="282" viewBox="0 0 695 282" fill="none" xmlns="http://www.w3.org/2000/svg">
<path opacity="0.2" d="M697.5 0.6875L0.999379 330.174" stroke="#FC9C03"/>
<path opacity="0.2" d="M738.477 20.0703L41.9759 349.556" stroke="#FC9C03"/>
<path opacity="0.2" d="M779.445 39.4531L82.9447 368.939" stroke="#FC9C03"/>
<path opacity="0.2" d="M820.414 58.8359L123.913 388.322" stroke="#FC9C03"/>
<path opacity="0.2" d="M861.383 78.2109L164.882 407.697" stroke="#FC9C03"/>
<path opacity="0.2" d="M902.352 97.5938L205.851 427.08" stroke="#FC9C03"/>
<path opacity="0.2" d="M943.328 116.977L246.828 446.463" stroke="#FC9C03"/>
<path opacity="0.2" d="M984.297 136.359L287.796 465.845" stroke="#FC9C03"/>
<path opacity="0.2" d="M1025.27 155.742L328.765 485.228" stroke="#FC9C03"/>
<path opacity="0.2" d="M615.562 39.4531L1312.06 368.939" stroke="#FC9C03"/>
<path opacity="0.2" d="M574.586 58.8359L1271.09 388.322" stroke="#FC9C03"/>
<path opacity="0.2" d="M533.617 78.2109L1230.12 407.697" stroke="#FC9C03"/>
<path opacity="0.2" d="M492.648 97.5938L1189.15 427.08" stroke="#FC9C03"/>
<path opacity="0.2" d="M451.68 116.977L1148.18 446.463" stroke="#FC9C03"/>
<path opacity="0.2" d="M410.711 136.359L1107.21 465.845" stroke="#FC9C03"/>
<path opacity="0.2" d="M369.734 155.742L1066.23 485.228" stroke="#FC9C03"/>
<path opacity="0.2" d="M328.773 175.125L1025.27 504.611" stroke="#FC9C03"/>
<path opacity="0.2" d="M287.805 194.5L984.305 523.986" stroke="#FC9C03"/>
<path opacity="0.2" d="M246.836 213.883L943.337 543.369" stroke="#FC9C03"/>
<path opacity="0.2" d="M205.859 233.266L902.36 562.752" stroke="#FC9C03"/>
<path opacity="0.2" d="M164.891 252.648L861.391 582.135" stroke="#FC9C03"/>
<path opacity="0.2" d="M123.922 272.031L820.422 601.517" stroke="#FC9C03"/>
</svg>
