<svg width="20" height="21" viewBox="0 0 20 21" fill="none" xmlns="http://www.w3.org/2000/svg">
<g clip-path="url(#clip0_2698_19477)">
<path d="M15.4146 5.31299C12.4243 2.32275 7.57666 2.32275 4.58643 5.31299C1.59619 8.30322 1.59619 13.1509 4.58643 16.1411C7.57666 19.1313 12.4243 19.1313 15.4146 16.1411C18.4048 13.1509 18.4048 8.30322 15.4146 5.31299ZM13.7524 9.33447C13.5825 9.50439 13.4106 9.67627 13.2407 9.84619C12.4946 10.5923 11.7505 11.3364 11.0044 12.0825C10.5356 12.5493 10.0688 13.0181 9.60205 13.4849C9.30322 13.7837 8.79541 13.7837 8.49658 13.4849C8.40479 13.3931 8.31299 13.3013 8.22314 13.2095C7.57666 12.561 6.93018 11.9145 6.28369 11.2661C5.9751 10.9575 5.99658 10.4731 6.28369 10.1606C6.56885 9.8501 7.1001 9.87158 7.38916 10.1606C7.48096 10.2524 7.57275 10.3442 7.6626 10.436C8.12549 10.8989 8.58838 11.3638 9.04932 11.8267C9.78174 11.0942 10.5122 10.3638 11.2446 9.63135L12.647 8.229C12.9556 7.92041 13.4399 7.94189 13.7524 8.229C14.063 8.51611 14.0415 9.04541 13.7524 9.33447Z" fill="#49CE7F"/>
</g>
<defs>
<clipPath id="clip0_2698_19477">
<rect width="20" height="20" fill="white" transform="translate(0 0.726562)"/>
</clipPath>
</defs>
</svg>
