<svg width="207" height="6" viewBox="0 0 207 6" fill="none" xmlns="http://www.w3.org/2000/svg">
<path fill-rule="evenodd" clip-rule="evenodd" d="M130.278 0.323462C122.779 0.445792 98.537 0.698835 108.407 0.885745C86.2765 1.07234 62.6332 1.36016 55.8661 1.52472C49.099 1.68927 34.0098 1.89667 22.3351 1.98547C10.6598 2.07396 0.858613 2.21833 0.55401 2.3062C0.249407 2.39406 0 2.721 0 3.03242C0 3.71175 1.76575 3.97193 6.41593 3.97752L9.83977 3.98187L9.74129 4.99093L9.64355 6L14.2991 5.95529C16.8596 5.93045 25.0898 5.75099 32.5885 5.55601C44.641 5.24273 52.3245 5.04434 75.4857 4.44759C78.7778 4.36283 84.1649 4.22187 87.457 4.134C107.202 3.60774 98.7452 3.02155 109.66 2.78434C120.447 2.55024 202.082 2.90667 204.039 3.19666C205.793 3.45653 207.619 2.55769 206.797 1.83986C204.853 0.144005 176.134 -0.425109 130.278 0.323462Z" fill="#FDB035"/>
</svg>
