<svg width="22" height="20" viewBox="0 0 22 20" fill="none" xmlns="http://www.w3.org/2000/svg">
<path fill-rule="evenodd" clip-rule="evenodd" d="M13.3781 5.40883C13.3781 8.27317 11.0349 10.5688 8.10986 10.5688C5.18702 10.5688 2.8416 8.27317 2.8416 5.40883C2.8416 2.54667 5.18702 0.25 8.11094 0.25C11.0359 0.25 13.3792 2.54558 13.3792 5.40883H13.3781ZM0.148438 16.4101C0.148438 13.7592 3.81661 13.0951 8.11094 13.0951C12.428 13.0951 16.0724 13.7819 16.0724 16.435C16.0724 19.087 12.4042 19.75 8.10986 19.75C3.79277 19.75 0.148438 19.0643 0.148438 16.4101ZM15.5025 5.50417C15.5057 6.91579 15.0758 8.29442 14.2708 9.454C14.1895 9.56992 14.2621 9.727 14.404 9.75192C14.6012 9.78442 14.8038 9.80392 15.0107 9.80825C17.0669 9.86025 18.9118 8.56458 19.422 6.61242C20.1771 3.7145 17.9595 1.11233 15.1353 1.11233C14.8377 1.11261 14.5408 1.14237 14.2491 1.20117C14.2101 1.20983 14.1679 1.22825 14.1462 1.26075C14.1191 1.30408 14.1386 1.35825 14.1668 1.39508C15.0374 2.58802 15.5053 4.02733 15.5025 5.50417ZM18.9085 11.8449C20.2909 12.1103 21.1998 12.6488 21.5757 13.4342C21.733 13.7502 21.8149 14.0984 21.8149 14.4514C21.8149 14.8044 21.733 15.1526 21.5757 15.4687C21.0004 16.6853 19.1436 17.0774 18.421 17.1782C18.3868 17.183 18.3519 17.1798 18.3191 17.1689C18.2863 17.158 18.2565 17.1397 18.232 17.1153C18.2074 17.091 18.1888 17.0613 18.1777 17.0286C18.1665 16.9959 18.163 16.9611 18.1675 16.9268C18.5359 13.5544 15.6033 11.9565 14.8449 11.5893C14.8124 11.5708 14.8059 11.5459 14.8081 11.5297C14.8103 11.5188 14.8244 11.5026 14.8493 11.4993C16.4905 11.469 18.2564 11.69 18.9085 11.846V11.8449Z" fill="#111827"/>
</svg>
