<svg width="40" height="44" viewBox="0 0 40 44" fill="none" xmlns="http://www.w3.org/2000/svg">
<path opacity="0.2" d="M39.6731 14.5927V29.4126C39.6731 31.8393 38.3731 34.0926 36.2714 35.3276L23.4014 42.7593C21.2998 43.9726 18.6998 43.9726 16.5764 42.7593L3.70635 35.3276C1.60469 34.1143 0.304688 31.8609 0.304688 29.4126V14.5927C0.304688 12.166 1.60469 9.91258 3.70635 8.67758L16.5764 1.24594C18.6781 0.0326042 21.2781 0.0326042 23.4014 1.24594L36.2714 8.67758C38.3731 9.91258 39.6731 12.1443 39.6731 14.5927Z" fill="white"/>
<path d="M20.0014 22.0029C22.7895 22.0029 25.0497 19.7427 25.0497 16.9545C25.0497 14.1664 22.7895 11.9062 20.0014 11.9062C17.2133 11.9062 14.9531 14.1664 14.9531 16.9545C14.9531 19.7427 17.2133 22.0029 20.0014 22.0029Z" fill="white"/>
<path d="M25.8059 32.0946C27.5609 32.0946 28.5792 30.1446 27.6042 28.6929C26.1309 26.5046 23.2709 25.0312 19.9992 25.0312C16.7276 25.0312 13.8675 26.5046 12.3942 28.6929C11.4192 30.1446 12.4375 32.0946 14.1925 32.0946H25.8059Z" fill="white"/>
</svg>
