<svg width="1920" height="742" viewBox="0 0 1920 742" fill="none" xmlns="http://www.w3.org/2000/svg">
<g opacity="0.25" clip-path="url(#clip0_1_13203)">
<path d="M109.129 752.818V806.586L155.707 833.466L202.277 806.586V752.818L155.707 725.937L109.129 752.818Z" stroke="#4068FF" stroke-width="0.66" stroke-miterlimit="10"/>
<path d="M62.5582 833.466L109.129 806.586V752.818L62.5582 725.937L15.9805 752.818" stroke="#4068FF" stroke-width="0.66" stroke-miterlimit="10"/>
<path d="M1087.25 510.866V564.634L1040.68 591.521L994.098 564.634V510.866L1040.68 483.985L1087.25 510.866Z" stroke="#4068FF" stroke-width="0.66" stroke-miterlimit="10"/>
<path d="M947.535 537.753L994.106 564.634V618.402L947.535 645.282L900.957 618.402" stroke="#4068FF" stroke-width="0.66" stroke-miterlimit="10"/>
<path d="M900.957 564.634V618.402L854.379 645.282L807.809 618.402" stroke="#4068FF" stroke-width="0.66" stroke-miterlimit="10"/>
<path d="M807.809 510.866V564.634L854.379 591.521L900.957 564.634" stroke="#4068FF" stroke-width="0.66" stroke-miterlimit="10"/>
<path d="M900.957 510.866V564.634L947.535 591.521L994.106 564.634V510.866L947.535 483.985L900.957 510.866Z" stroke="#4068FF" stroke-width="0.66" stroke-miterlimit="10"/>
<path d="M341.981 725.937L295.41 699.05V645.282L341.981 618.402L388.558 645.282" stroke="#4068FF" stroke-width="0.66" stroke-miterlimit="10"/>
<path d="M388.558 699.05V752.818L341.981 779.698L295.41 752.818" stroke="#4068FF" stroke-width="0.66" stroke-miterlimit="10"/>
<path d="M295.41 645.282V699.05L341.981 725.937L388.558 699.05" stroke="#4068FF" stroke-width="0.66" stroke-miterlimit="10"/>
<path d="M109.105 752.818V699.05L155.683 672.169L202.254 699.05V752.818" stroke="#4068FF" stroke-width="0.66" stroke-miterlimit="10"/>
<path d="M202.254 752.818V699.05L248.832 672.169" stroke="#4068FF" stroke-width="0.66" stroke-miterlimit="10"/>
<path d="M202.254 591.521V645.282L248.832 672.17L295.409 645.282V591.521L248.832 564.634L202.254 591.521Z" stroke="#4068FF" stroke-width="0.66" stroke-miterlimit="10"/>
<path d="M109.105 645.282V699.05L155.683 725.937L202.254 699.05" stroke="#4068FF" stroke-width="0.66" stroke-miterlimit="10"/>
<path d="M668.074 752.818V806.586L621.496 833.466L574.926 806.586V752.818L621.496 725.937L668.074 752.818Z" stroke="#4068FF" stroke-width="0.66" stroke-miterlimit="10"/>
<path d="M714.645 833.466L668.074 806.586V752.818L714.645 725.937L761.223 752.818" stroke="#4068FF" stroke-width="0.66" stroke-miterlimit="10"/>
<path d="M668.097 752.818V699.05L621.519 672.169L574.941 699.05V752.818" stroke="#4068FF" stroke-width="0.66" stroke-miterlimit="10"/>
<path d="M668.097 645.282V699.05L621.519 725.937L574.941 699.05" stroke="#4068FF" stroke-width="0.66" stroke-miterlimit="10"/>
<path d="M388.558 699.05V645.282L341.981 618.402L295.41 645.282V699.05" stroke="#4068FF" stroke-width="0.66" stroke-miterlimit="10"/>
<path d="M295.41 699.05V645.282L248.832 618.402" stroke="#4068FF" stroke-width="0.66" stroke-miterlimit="10"/>
<path d="M295.418 752.818V806.586L248.84 833.466L202.27 806.586V752.818L248.84 725.937L295.418 752.818Z" stroke="#4068FF" stroke-width="0.66" stroke-miterlimit="10"/>
<path d="M295.418 806.586V752.818L341.996 725.937L388.566 752.818V806.586" stroke="#4068FF" stroke-width="0.66" stroke-miterlimit="10"/>
<path d="M248.84 672.169L202.27 699.05V752.818L248.84 779.698L295.418 752.818" stroke="#4068FF" stroke-width="0.66" stroke-miterlimit="10"/>
<path d="M295.418 699.05V752.818L341.996 779.698L388.566 752.818" stroke="#4068FF" stroke-width="0.66" stroke-miterlimit="10"/>
<path d="M388.566 645.282V699.05L341.996 725.937L295.418 699.05" stroke="#4068FF" stroke-width="0.66" stroke-miterlimit="10"/>
<path d="M900.957 564.634V510.866L854.379 483.985L807.809 510.866V564.634" stroke="#4068FF" stroke-width="0.66" stroke-miterlimit="10"/>
<path d="M528.293 510.866V564.634L481.715 591.521L435.145 564.634V510.866L481.715 483.985L528.293 510.866Z" stroke="#4068FF" stroke-width="0.66" stroke-miterlimit="10"/>
<path d="M295.425 591.521L248.847 564.634V510.866L295.425 483.986L341.996 510.866" stroke="#4068FF" stroke-width="0.66" stroke-miterlimit="10"/>
<path d="M248.847 510.866V564.634L295.425 591.521L341.996 564.634" stroke="#4068FF" stroke-width="0.66" stroke-miterlimit="10"/>
<path d="M155.699 618.402V564.634L202.277 537.753" stroke="#4068FF" stroke-width="0.66" stroke-miterlimit="10"/>
<path d="M341.996 510.866V564.634L388.574 591.521L435.152 564.634V510.866L388.574 483.985L341.996 510.866Z" stroke="#4068FF" stroke-width="0.66" stroke-miterlimit="10"/>
<path d="M155.699 457.105V510.866L202.277 537.753L248.848 510.866V457.105L202.277 430.217L155.699 457.105Z" stroke="#4068FF" stroke-width="0.66" stroke-miterlimit="10"/>
<path d="M341.996 564.634V510.866L295.425 483.985L248.847 510.866V564.634" stroke="#4068FF" stroke-width="0.66" stroke-miterlimit="10"/>
<path d="M248.848 564.634V510.866L202.277 483.985" stroke="#4068FF" stroke-width="0.66" stroke-miterlimit="10"/>
<path d="M295.434 430.218V483.986L342.011 510.866L388.582 483.986V430.218L342.011 403.337L295.434 430.218Z" stroke="#4068FF" stroke-width="0.66" stroke-miterlimit="10"/>
<path d="M248.863 510.866L295.434 483.986V430.218L248.863 403.337L202.285 430.218" stroke="#4068FF" stroke-width="0.66" stroke-miterlimit="10"/>
<path d="M202.285 483.985V537.753L248.863 564.634L295.434 537.753" stroke="#4068FF" stroke-width="0.66" stroke-miterlimit="10"/>
<path d="M388.582 537.753V483.985L342.012 457.105" stroke="#4068FF" stroke-width="0.66" stroke-miterlimit="10"/>
<path d="M481.738 645.282L435.16 618.402V564.634L481.738 537.753L528.309 564.634" stroke="#4068FF" stroke-width="0.66" stroke-miterlimit="10"/>
<path d="M342.012 510.866V564.634L388.582 591.521L435.16 564.634V510.866L388.582 483.985L342.012 510.866Z" stroke="#4068FF" stroke-width="0.66" stroke-miterlimit="10"/>
<path d="M202.285 537.753L155.707 564.634V618.402L202.285 645.282L248.863 618.402" stroke="#4068FF" stroke-width="0.66" stroke-miterlimit="10"/>
<path d="M295.434 591.521L342.012 564.634V510.866L295.434 483.985L248.863 510.866" stroke="#4068FF" stroke-width="0.66" stroke-miterlimit="10"/>
<path d="M342.012 510.866V564.634L295.434 591.521L248.863 564.634" stroke="#4068FF" stroke-width="0.66" stroke-miterlimit="10"/>
<path d="M295.41 430.217V376.45L341.988 349.569L388.558 376.45V430.217" stroke="#4068FF" stroke-width="0.66" stroke-miterlimit="10"/>
<path d="M388.559 430.217V376.45L435.136 349.569" stroke="#4068FF" stroke-width="0.66" stroke-miterlimit="10"/>
<path d="M388.559 268.921V322.689L435.136 349.569L481.714 322.689V268.921L435.136 242.033L388.559 268.921Z" stroke="#4068FF" stroke-width="0.66" stroke-miterlimit="10"/>
<path d="M295.41 322.689V376.45L341.988 403.337L388.558 376.45" stroke="#4068FF" stroke-width="0.66" stroke-miterlimit="10"/>
<path d="M481.723 430.218V483.986L435.145 510.866L388.574 483.986V430.218L435.145 403.337L481.723 430.218Z" stroke="#4068FF" stroke-width="0.66" stroke-miterlimit="10"/>
<path d="M435.145 349.569L388.574 376.449V430.217L435.145 457.105L481.723 430.217" stroke="#4068FF" stroke-width="0.66" stroke-miterlimit="10"/>
<path d="M528.309 618.402V564.634L481.738 537.753L435.16 564.634V618.402" stroke="#4068FF" stroke-width="0.66" stroke-miterlimit="10"/>
<path d="M574.871 699.05V752.818L528.3 779.698L481.723 752.818V699.05L528.3 672.169L574.871 699.05Z" stroke="#4068FF" stroke-width="0.66" stroke-miterlimit="10"/>
<path d="M435.153 725.937L481.73 752.818V806.586L435.153 833.466L388.582 806.586" stroke="#4068FF" stroke-width="0.66" stroke-miterlimit="10"/>
<path d="M388.582 699.05V752.818L435.153 779.698L481.73 752.818V699.05L435.153 672.169L388.582 699.05Z" stroke="#4068FF" stroke-width="0.66" stroke-miterlimit="10"/>
<path d="M528.312 833.466L481.734 806.586V752.818L528.312 725.937L574.883 752.818" stroke="#4068FF" stroke-width="0.66" stroke-miterlimit="10"/>
<path d="M388.586 699.05V752.818L435.164 779.698L481.734 752.818V699.05L435.164 672.169L388.586 699.05Z" stroke="#4068FF" stroke-width="0.66" stroke-miterlimit="10"/>
<path d="M528.297 618.402V672.17L481.726 699.05L435.148 672.17V618.402L481.726 591.521L528.297 618.402Z" stroke="#4068FF" stroke-width="0.66" stroke-miterlimit="10"/>
<path d="M528.297 672.17V618.402L574.875 591.521L621.445 618.402V672.17" stroke="#4068FF" stroke-width="0.66" stroke-miterlimit="10"/>
<path d="M574.883 806.586V752.818L528.312 725.937L481.734 752.818V806.586" stroke="#4068FF" stroke-width="0.66" stroke-miterlimit="10"/>
<path d="M155.726 618.402V672.169L109.156 699.05L62.578 672.169V618.402L109.156 591.521L155.726 618.402Z" stroke="#4068FF" stroke-width="0.66" stroke-miterlimit="10"/>
<path d="M202.304 699.05L155.727 672.169V618.402L202.304 591.521L248.875 618.402" stroke="#4068FF" stroke-width="0.66" stroke-miterlimit="10"/>
<path d="M15.9922 591.521V645.282L-30.5856 672.17L-77.1562 645.282V591.521L-30.5856 564.634L15.9922 591.521Z" stroke="#4068FF" stroke-width="0.66" stroke-miterlimit="10"/>
<path d="M62.57 672.17L15.9922 645.282V591.521L62.57 564.634L109.141 591.521" stroke="#4068FF" stroke-width="0.66" stroke-miterlimit="10"/>
<path d="M15.9922 591.521V645.282L62.57 672.17L109.141 645.282" stroke="#4068FF" stroke-width="0.66" stroke-miterlimit="10"/>
<path d="M807.738 510.866V564.634L761.161 591.521L714.59 564.634V510.866L761.161 483.985L807.738 510.866Z" stroke="#4068FF" stroke-width="0.66" stroke-miterlimit="10"/>
<path d="M668.02 537.753L714.598 564.634V618.402L668.02 645.282L621.449 618.402" stroke="#4068FF" stroke-width="0.66" stroke-miterlimit="10"/>
<path d="M574.871 591.521L528.293 564.634V510.866L574.871 483.985L621.449 510.866" stroke="#4068FF" stroke-width="0.66" stroke-miterlimit="10"/>
<path d="M621.449 564.634V510.866L574.871 483.985L528.293 510.866V564.634" stroke="#4068FF" stroke-width="0.66" stroke-miterlimit="10"/>
<path d="M481.727 483.985V537.753L528.304 564.634L574.875 537.753" stroke="#4068FF" stroke-width="0.66" stroke-miterlimit="10"/>
<path d="M668.031 537.753V483.985L621.453 457.105" stroke="#4068FF" stroke-width="0.66" stroke-miterlimit="10"/>
<path d="M761.179 645.282L714.602 618.402V564.634L761.179 537.753L807.75 564.634" stroke="#4068FF" stroke-width="0.66" stroke-miterlimit="10"/>
<path d="M574.875 591.521L621.453 564.634V510.866L574.875 483.985L528.305 510.866" stroke="#4068FF" stroke-width="0.66" stroke-miterlimit="10"/>
<path d="M621.453 510.866V564.634L574.875 591.521L528.305 564.634" stroke="#4068FF" stroke-width="0.66" stroke-miterlimit="10"/>
<path d="M854.309 376.449V430.217L807.731 457.105L761.16 430.217" stroke="#4068FF" stroke-width="0.66" stroke-miterlimit="10"/>
<path d="M668.012 430.218V376.45L714.582 349.569" stroke="#4068FF" stroke-width="0.66" stroke-miterlimit="10"/>
<path d="M761.168 483.986V430.218L807.746 403.337L854.316 430.218V483.986" stroke="#4068FF" stroke-width="0.66" stroke-miterlimit="10"/>
<path d="M714.597 349.569L668.02 376.449V430.217L714.597 457.105L761.168 430.217" stroke="#4068FF" stroke-width="0.66" stroke-miterlimit="10"/>
<path d="M761.168 376.449V430.217L807.746 457.105L854.316 430.217" stroke="#4068FF" stroke-width="0.66" stroke-miterlimit="10"/>
<path d="M854.316 322.689V376.45L807.746 403.337L761.168 376.45" stroke="#4068FF" stroke-width="0.66" stroke-miterlimit="10"/>
<path d="M807.75 618.402V564.634L761.179 537.753L714.602 564.634V618.402" stroke="#4068FF" stroke-width="0.66" stroke-miterlimit="10"/>
<path d="M714.602 618.402V564.634L668.031 537.753" stroke="#4068FF" stroke-width="0.66" stroke-miterlimit="10"/>
<path d="M854.321 215.153L900.898 242.034V295.802L854.321 322.689L807.75 295.802" stroke="#4068FF" stroke-width="0.66" stroke-miterlimit="10"/>
<path d="M761.175 268.921L714.598 242.033V188.273L761.175 161.385L807.753 188.273" stroke="#4068FF" stroke-width="0.66" stroke-miterlimit="10"/>
<path d="M714.598 188.273V242.033L761.175 268.921L807.753 242.033" stroke="#4068FF" stroke-width="0.66" stroke-miterlimit="10"/>
<path d="M621.449 295.802V242.034L668.027 215.153" stroke="#4068FF" stroke-width="0.66" stroke-miterlimit="10"/>
<path d="M807.75 188.273V242.033L854.321 268.921L900.898 242.033V188.273L854.321 161.385L807.75 188.273Z" stroke="#4068FF" stroke-width="0.66" stroke-miterlimit="10"/>
<path d="M621.449 134.505V188.273L668.027 215.153L714.598 188.273V134.505L668.027 107.617L621.449 134.505Z" stroke="#4068FF" stroke-width="0.66" stroke-miterlimit="10"/>
<path d="M807.753 242.033V188.273L761.175 161.385L714.598 188.273V242.033" stroke="#4068FF" stroke-width="0.66" stroke-miterlimit="10"/>
<path d="M714.594 242.033V188.273L668.023 161.385" stroke="#4068FF" stroke-width="0.66" stroke-miterlimit="10"/>
<path d="M761.18 107.617V161.385L807.757 188.273L854.335 161.385V107.617L807.757 80.737L761.18 107.617Z" stroke="#4068FF" stroke-width="0.66" stroke-miterlimit="10"/>
<path d="M714.609 188.273L761.18 161.385V107.617L714.609 80.737L668.031 107.617" stroke="#4068FF" stroke-width="0.66" stroke-miterlimit="10"/>
<path d="M668.031 161.385V215.153L714.609 242.033L761.18 215.153" stroke="#4068FF" stroke-width="0.66" stroke-miterlimit="10"/>
<path d="M761.18 107.617V161.385L714.609 188.273L668.031 161.385" stroke="#4068FF" stroke-width="0.66" stroke-miterlimit="10"/>
<path d="M854.336 215.153V161.385L807.758 134.505" stroke="#4068FF" stroke-width="0.66" stroke-miterlimit="10"/>
<path d="M807.758 188.273V242.034L854.336 268.921L900.906 242.034V188.273L854.336 161.385L807.758 188.273Z" stroke="#4068FF" stroke-width="0.66" stroke-miterlimit="10"/>
<path d="M668.032 215.153L621.461 242.034V295.802L668.032 322.689L714.609 295.802" stroke="#4068FF" stroke-width="0.66" stroke-miterlimit="10"/>
<path d="M761.18 268.921L807.758 242.034V188.273L761.18 161.385L714.609 188.273" stroke="#4068FF" stroke-width="0.66" stroke-miterlimit="10"/>
<path d="M807.758 188.273V242.034L761.18 268.921L714.609 242.034" stroke="#4068FF" stroke-width="0.66" stroke-miterlimit="10"/>
<path d="M761.16 107.617V53.8567L807.738 26.9692L854.316 53.8567V107.617" stroke="#4068FF" stroke-width="0.66" stroke-miterlimit="10"/>
<path d="M761.16 53.8566L807.738 80.7371L854.316 53.8566" stroke="#4068FF" stroke-width="0.66" stroke-miterlimit="10"/>
<path d="M668.054 376.45L621.477 349.569V295.801L668.054 268.921L714.632 295.801" stroke="#4068FF" stroke-width="0.66" stroke-miterlimit="10"/>
<path d="M1692.69 376.449V430.217L1646.11 457.105L1599.54 430.217V376.449L1646.11 349.569L1692.69 376.449Z" stroke="#4068FF" stroke-width="0.66" stroke-miterlimit="10"/>
<path d="M1459.82 457.105L1413.25 430.217V376.449L1459.82 349.569L1506.4 376.449" stroke="#4068FF" stroke-width="0.66" stroke-miterlimit="10"/>
<path d="M1413.25 376.449V430.217L1459.82 457.105L1506.4 430.217" stroke="#4068FF" stroke-width="0.66" stroke-miterlimit="10"/>
<path d="M1320.1 483.986V430.218L1366.68 403.337" stroke="#4068FF" stroke-width="0.66" stroke-miterlimit="10"/>
<path d="M1506.4 376.449V430.217L1552.97 457.105L1599.55 430.217V376.449L1552.97 349.569L1506.4 376.449Z" stroke="#4068FF" stroke-width="0.66" stroke-miterlimit="10"/>
<path d="M1320.1 322.689V376.45L1366.68 403.337L1413.25 376.45V322.689L1366.68 295.801L1320.1 322.689Z" stroke="#4068FF" stroke-width="0.66" stroke-miterlimit="10"/>
<path d="M1506.4 430.218V376.45L1459.82 349.569L1413.25 376.45V430.218" stroke="#4068FF" stroke-width="0.66" stroke-miterlimit="10"/>
<path d="M1413.25 430.218V376.45L1366.68 349.569" stroke="#4068FF" stroke-width="0.66" stroke-miterlimit="10"/>
<path d="M1459.83 295.801V349.569L1506.41 376.45L1552.98 349.569V295.801L1506.41 268.921L1459.83 295.801Z" stroke="#4068FF" stroke-width="0.66" stroke-miterlimit="10"/>
<path d="M1413.27 376.45L1459.84 349.569V295.801L1413.27 268.921L1366.69 295.801" stroke="#4068FF" stroke-width="0.66" stroke-miterlimit="10"/>
<path d="M1366.69 349.569V403.337L1413.27 430.218L1459.84 403.337" stroke="#4068FF" stroke-width="0.66" stroke-miterlimit="10"/>
<path d="M1459.84 295.801V349.569L1413.27 376.45L1366.69 349.569" stroke="#4068FF" stroke-width="0.66" stroke-miterlimit="10"/>
<path d="M1646.14 510.866L1599.56 483.986V430.218L1646.14 403.337L1692.71 430.218" stroke="#4068FF" stroke-width="0.66" stroke-miterlimit="10"/>
<path d="M1506.41 376.449V430.217L1552.98 457.105L1599.56 430.217V376.449L1552.98 349.569L1506.41 376.449Z" stroke="#4068FF" stroke-width="0.66" stroke-miterlimit="10"/>
<path d="M1366.68 403.337L1320.11 430.218V483.986L1366.68 510.866L1413.26 483.986" stroke="#4068FF" stroke-width="0.66" stroke-miterlimit="10"/>
<path d="M1459.84 457.105L1506.41 430.217V376.449L1459.84 349.569L1413.27 376.449" stroke="#4068FF" stroke-width="0.66" stroke-miterlimit="10"/>
<path d="M1506.41 376.449V430.217L1459.84 457.105L1413.27 430.217" stroke="#4068FF" stroke-width="0.66" stroke-miterlimit="10"/>
<path d="M1459.81 295.802V242.034L1506.39 215.153L1552.97 242.034V295.802" stroke="#4068FF" stroke-width="0.66" stroke-miterlimit="10"/>
<path d="M1552.97 295.802V242.034" stroke="#4068FF" stroke-width="0.66" stroke-miterlimit="10"/>
<path d="M1459.81 242.034L1506.39 268.921L1552.97 242.034" stroke="#4068FF" stroke-width="0.66" stroke-miterlimit="10"/>
<path d="M1646.12 295.801V349.569L1599.55 376.45L1552.98 349.569V295.801L1599.55 268.921L1646.12 295.801Z" stroke="#4068FF" stroke-width="0.66" stroke-miterlimit="10"/>
<path d="M1552.98 242.034V295.802L1599.55 322.689L1646.12 295.802" stroke="#4068FF" stroke-width="0.66" stroke-miterlimit="10"/>
<path d="M1692.71 483.985V430.217L1646.14 403.337L1599.56 430.217V483.985" stroke="#4068FF" stroke-width="0.66" stroke-miterlimit="10"/>
<path d="M1692.71 376.45L1739.28 349.569V295.801L1692.71 268.921L1646.13 295.801" stroke="#4068FF" stroke-width="0.66" stroke-miterlimit="10"/>
<path d="M1646.13 349.569V403.337L1692.71 430.218L1739.28 403.337" stroke="#4068FF" stroke-width="0.66" stroke-miterlimit="10"/>
<path d="M1739.28 295.801V349.569L1692.71 376.45L1646.13 349.569" stroke="#4068FF" stroke-width="0.66" stroke-miterlimit="10"/>
<path d="M1040.68 752.818V806.586L1087.25 833.466L1133.82 806.586V752.818L1087.25 725.937L1040.68 752.818Z" stroke="#4068FF" stroke-width="0.66" stroke-miterlimit="10"/>
<path d="M994.097 833.466L1040.68 806.586V752.818L994.097 725.937L947.52 752.818" stroke="#4068FF" stroke-width="0.66" stroke-miterlimit="10"/>
<path d="M1273.53 725.937L1226.95 699.05V645.282L1273.53 618.402L1320.1 645.282" stroke="#4068FF" stroke-width="0.66" stroke-miterlimit="10"/>
<path d="M1320.1 699.05V752.818L1273.53 779.698L1226.95 752.818" stroke="#4068FF" stroke-width="0.66" stroke-miterlimit="10"/>
<path d="M1226.95 645.282V699.05L1273.53 725.937L1320.1 699.05" stroke="#4068FF" stroke-width="0.66" stroke-miterlimit="10"/>
<path d="M1040.66 752.818V699.05L1087.23 672.169L1133.8 699.05V752.818" stroke="#4068FF" stroke-width="0.66" stroke-miterlimit="10"/>
<path d="M1133.8 752.818V699.05L1180.38 672.169" stroke="#4068FF" stroke-width="0.66" stroke-miterlimit="10"/>
<path d="M1133.8 591.521V645.282L1180.38 672.17L1226.95 645.282V591.521L1180.38 564.634L1133.8 591.521Z" stroke="#4068FF" stroke-width="0.66" stroke-miterlimit="10"/>
<path d="M1040.66 645.282V699.05L1087.23 725.937L1133.8 699.05" stroke="#4068FF" stroke-width="0.66" stroke-miterlimit="10"/>
<path d="M1320.1 699.05V645.282L1273.53 618.402L1226.95 645.282V699.05" stroke="#4068FF" stroke-width="0.66" stroke-miterlimit="10"/>
<path d="M1226.95 699.05V645.282L1180.38 618.402" stroke="#4068FF" stroke-width="0.66" stroke-miterlimit="10"/>
<path d="M1226.96 752.818V806.586L1180.39 833.466L1133.81 806.586V752.818L1180.39 725.937L1226.96 752.818Z" stroke="#4068FF" stroke-width="0.66" stroke-miterlimit="10"/>
<path d="M1226.96 806.586V752.818L1273.53 725.937L1320.11 752.818V806.586" stroke="#4068FF" stroke-width="0.66" stroke-miterlimit="10"/>
<path d="M1180.39 672.169L1133.81 699.05V752.818L1180.39 779.698L1226.96 752.818" stroke="#4068FF" stroke-width="0.66" stroke-miterlimit="10"/>
<path d="M1226.96 699.05V752.818L1273.53 779.698L1320.11 752.818" stroke="#4068FF" stroke-width="0.66" stroke-miterlimit="10"/>
<path d="M1320.11 645.282V699.05L1273.53 725.937L1226.96 699.05" stroke="#4068FF" stroke-width="0.66" stroke-miterlimit="10"/>
<path d="M1320.11 537.753L1366.69 564.634V618.402L1320.11 645.282L1273.54 618.402" stroke="#4068FF" stroke-width="0.66" stroke-miterlimit="10"/>
<path d="M1226.97 591.521L1180.39 564.634V510.866L1226.97 483.986L1273.54 510.866" stroke="#4068FF" stroke-width="0.66" stroke-miterlimit="10"/>
<path d="M1180.39 510.866V564.634L1226.97 591.521L1273.54 564.634" stroke="#4068FF" stroke-width="0.66" stroke-miterlimit="10"/>
<path d="M1087.25 618.402V564.634L1133.82 537.753" stroke="#4068FF" stroke-width="0.66" stroke-miterlimit="10"/>
<path d="M1273.54 510.866V564.634L1320.11 591.521L1366.69 564.634V510.866L1320.11 483.985L1273.54 510.866Z" stroke="#4068FF" stroke-width="0.66" stroke-miterlimit="10"/>
<path d="M1087.25 457.105V510.866L1133.82 537.753L1180.39 510.866V457.105L1133.82 430.217L1087.25 457.105Z" stroke="#4068FF" stroke-width="0.66" stroke-miterlimit="10"/>
<path d="M1273.54 564.634V510.866L1226.97 483.985L1180.39 510.866V564.634" stroke="#4068FF" stroke-width="0.66" stroke-miterlimit="10"/>
<path d="M1180.39 564.634V510.866L1133.82 483.985" stroke="#4068FF" stroke-width="0.66" stroke-miterlimit="10"/>
<path d="M1226.98 430.218V483.986L1273.55 510.866L1320.13 483.986V430.218L1273.55 403.337L1226.98 430.218Z" stroke="#4068FF" stroke-width="0.66" stroke-miterlimit="10"/>
<path d="M1180.4 510.866L1226.98 483.986V430.218L1180.4 403.337L1133.82 430.218" stroke="#4068FF" stroke-width="0.66" stroke-miterlimit="10"/>
<path d="M1133.82 483.985V537.753L1180.4 564.634L1226.98 537.753" stroke="#4068FF" stroke-width="0.66" stroke-miterlimit="10"/>
<path d="M1226.98 430.218V483.986L1180.4 510.866L1133.82 483.986" stroke="#4068FF" stroke-width="0.66" stroke-miterlimit="10"/>
<path d="M1320.13 537.753V483.985L1273.55 457.105" stroke="#4068FF" stroke-width="0.66" stroke-miterlimit="10"/>
<path d="M1273.55 510.866V564.634L1320.13 591.521L1366.7 564.634V510.866L1320.13 483.985L1273.55 510.866Z" stroke="#4068FF" stroke-width="0.66" stroke-miterlimit="10"/>
<path d="M1133.82 537.753L1087.25 564.634V618.402L1133.82 645.282L1180.4 618.402" stroke="#4068FF" stroke-width="0.66" stroke-miterlimit="10"/>
<path d="M1226.98 591.521L1273.55 564.634V510.866L1226.98 483.985L1180.4 510.866" stroke="#4068FF" stroke-width="0.66" stroke-miterlimit="10"/>
<path d="M1273.55 510.866V564.634L1226.98 591.521L1180.4 564.634" stroke="#4068FF" stroke-width="0.66" stroke-miterlimit="10"/>
<path d="M1226.96 430.218V376.45L1273.53 349.569L1320.11 376.45V430.218" stroke="#4068FF" stroke-width="0.66" stroke-miterlimit="10"/>
<path d="M1226.96 322.689V376.45L1273.53 403.337L1320.11 376.45" stroke="#4068FF" stroke-width="0.66" stroke-miterlimit="10"/>
<path d="M1087.28 618.401V672.169L1040.7 699.05L994.121 672.169V618.401L1040.7 591.521L1087.28 618.401Z" stroke="#4068FF" stroke-width="0.66" stroke-miterlimit="10"/>
<path d="M1133.85 699.05L1087.28 672.169V618.401L1133.85 591.521L1180.43 618.401" stroke="#4068FF" stroke-width="0.66" stroke-miterlimit="10"/>
<path d="M994.113 672.17L947.535 645.282V591.521L994.113 564.634L1040.69 591.521" stroke="#4068FF" stroke-width="0.66" stroke-miterlimit="10"/>
<path d="M947.535 591.521V645.282L994.113 672.17L1040.69 645.282" stroke="#4068FF" stroke-width="0.66" stroke-miterlimit="10"/>
<path d="M1133.8 430.218V483.986L1087.23 510.866L1040.66 483.986V430.218L1087.23 403.337L1133.8 430.218Z" stroke="#4068FF" stroke-width="0.66" stroke-miterlimit="10"/>
<path d="M900.938 510.866L854.367 483.986V430.218L900.938 403.337L947.516 430.218" stroke="#4068FF" stroke-width="0.66" stroke-miterlimit="10"/>
<path d="M947.516 430.218V483.986L994.086 510.866L1040.66 483.986V430.218L994.086 403.337L947.516 430.218Z" stroke="#4068FF" stroke-width="0.66" stroke-miterlimit="10"/>
<path d="M947.516 483.985V430.217L900.938 403.337L854.367 430.217V483.985" stroke="#4068FF" stroke-width="0.66" stroke-miterlimit="10"/>
<path d="M900.949 349.569V403.337L947.52 430.218L994.098 403.337V349.569L947.52 322.689L900.949 349.569Z" stroke="#4068FF" stroke-width="0.66" stroke-miterlimit="10"/>
<path d="M994.097 457.105V403.337L947.52 376.449" stroke="#4068FF" stroke-width="0.66" stroke-miterlimit="10"/>
<path d="M947.52 430.218V483.986L994.097 510.866L1040.67 483.986V430.218L994.097 403.337L947.52 430.218Z" stroke="#4068FF" stroke-width="0.66" stroke-miterlimit="10"/>
<path d="M900.949 510.866L947.52 483.986V430.218L900.949 403.337L854.371 430.218" stroke="#4068FF" stroke-width="0.66" stroke-miterlimit="10"/>
<path d="M947.52 430.218V483.986L900.949 510.866L854.371 483.986" stroke="#4068FF" stroke-width="0.66" stroke-miterlimit="10"/>
<path d="M900.929 349.569V295.801L947.5 268.921L994.078 295.801V349.569" stroke="#4068FF" stroke-width="0.66" stroke-miterlimit="10"/>
<path d="M994.078 349.569V295.801L1040.65 268.921" stroke="#4068FF" stroke-width="0.66" stroke-miterlimit="10"/>
<path d="M994.078 188.273V242.034L1040.65 268.921L1087.23 242.034V188.273L1040.65 161.385L994.078 188.273Z" stroke="#4068FF" stroke-width="0.66" stroke-miterlimit="10"/>
<path d="M900.929 242.034V295.801L947.5 322.689L994.078 295.801" stroke="#4068FF" stroke-width="0.66" stroke-miterlimit="10"/>
<path d="M1087.23 295.802V242.034L1040.65 215.153" stroke="#4068FF" stroke-width="0.66" stroke-miterlimit="10"/>
<path d="M1087.23 349.569V403.337L1040.66 430.218L994.086 403.337V349.569L1040.66 322.689L1087.23 349.569Z" stroke="#4068FF" stroke-width="0.66" stroke-miterlimit="10"/>
<path d="M1040.66 268.921L994.086 295.801V349.569L1040.66 376.45L1087.23 349.569" stroke="#4068FF" stroke-width="0.66" stroke-miterlimit="10"/>
<path d="M1180.38 510.866L1133.81 483.986V430.218L1180.38 403.337L1226.96 430.218" stroke="#4068FF" stroke-width="0.66" stroke-miterlimit="10"/>
<path d="M1226.96 483.985V430.217L1180.38 403.337L1133.81 430.217V483.985" stroke="#4068FF" stroke-width="0.66" stroke-miterlimit="10"/>
<path d="M1180.39 349.569V403.337L1226.97 430.217L1273.54 403.337V349.569L1226.97 322.689L1180.39 349.569Z" stroke="#4068FF" stroke-width="0.66" stroke-miterlimit="10"/>
<path d="M1133.82 430.218L1180.39 403.337V349.569L1133.82 322.689L1087.25 349.569" stroke="#4068FF" stroke-width="0.66" stroke-miterlimit="10"/>
<path d="M1087.25 403.337V457.105L1133.82 483.985L1180.39 457.105" stroke="#4068FF" stroke-width="0.66" stroke-miterlimit="10"/>
<path d="M1180.39 349.569V403.337L1133.82 430.218L1087.25 403.337" stroke="#4068FF" stroke-width="0.66" stroke-miterlimit="10"/>
<path d="M1180.39 510.866L1226.96 483.986V430.218L1180.39 403.337L1133.82 430.218" stroke="#4068FF" stroke-width="0.66" stroke-miterlimit="10"/>
<path d="M1180.38 349.569V295.801L1226.95 268.921L1273.52 295.801V349.569" stroke="#4068FF" stroke-width="0.66" stroke-miterlimit="10"/>
<path d="M1040.54 483.985V430.217L993.965 403.337" stroke="#4068FF" stroke-width="0.66" stroke-miterlimit="10"/>
<path d="M947.363 268.921V322.689L993.941 349.569L1040.51 322.689" stroke="#4068FF" stroke-width="0.66" stroke-miterlimit="10"/>
<path d="M1180.38 242.034V295.801L1226.95 322.689L1273.52 295.801" stroke="#4068FF" stroke-width="0.66" stroke-miterlimit="10"/>
<path d="M1226.99 215.153V268.921L1180.41 295.802L1133.84 268.921V215.153L1180.41 188.273L1226.99 215.153Z" stroke="#4068FF" stroke-width="0.66" stroke-miterlimit="10"/>
<path d="M1133.83 268.921L1087.26 242.033V188.273L1133.83 161.385L1180.41 188.273" stroke="#4068FF" stroke-width="0.66" stroke-miterlimit="10"/>
<path d="M1087.26 188.273V242.033L1133.83 268.921L1180.41 242.033" stroke="#4068FF" stroke-width="0.66" stroke-miterlimit="10"/>
<path d="M1413.3 752.818V806.586L1459.87 833.466L1506.45 806.586V752.818L1459.87 725.937L1413.3 752.818Z" stroke="#4068FF" stroke-width="0.66" stroke-miterlimit="10"/>
<path d="M1413.28 752.818V699.05L1459.86 672.169L1506.43 699.05V752.818" stroke="#4068FF" stroke-width="0.66" stroke-miterlimit="10"/>
<path d="M248.77 349.569V403.337L295.347 430.218L341.918 403.337V349.569L295.347 322.689L248.77 349.569Z" stroke="#4068FF" stroke-width="0.66" stroke-miterlimit="10"/>
<path d="M155.629 349.569V403.337L202.2 430.218L248.777 403.337" stroke="#4068FF" stroke-width="0.66" stroke-miterlimit="10"/>
<path d="M-77.2539 215.153V268.921L-30.6761 295.802L15.8945 268.921V215.153L-30.6761 188.273L-77.2539 215.153Z" stroke="#4068FF" stroke-width="0.66" stroke-miterlimit="10"/>
<path d="M15.8949 322.689V268.921L-30.6758 242.034" stroke="#4068FF" stroke-width="0.66" stroke-miterlimit="10"/>
<path d="M-30.6683 295.801L-77.2461 322.689V376.45L-30.6683 403.337L15.9095 376.45" stroke="#4068FF" stroke-width="0.66" stroke-miterlimit="10"/>
<path d="M109.062 376.449V430.217L155.64 457.105L202.211 430.217V376.449L155.64 349.569L109.062 376.449Z" stroke="#4068FF" stroke-width="0.66" stroke-miterlimit="10"/>
<path d="M62.4847 457.105L109.062 430.217V376.449L62.4847 349.569L15.9141 376.449" stroke="#4068FF" stroke-width="0.66" stroke-miterlimit="10"/>
<path d="M109.043 376.45V322.689L155.621 295.801L202.191 322.689V376.45" stroke="#4068FF" stroke-width="0.66" stroke-miterlimit="10"/>
<path d="M109.043 268.921V322.689L155.621 349.569L202.191 322.689" stroke="#4068FF" stroke-width="0.66" stroke-miterlimit="10"/>
<path d="M155.664 242.034V295.802L109.086 322.689L62.5156 295.802V242.034L109.086 215.153L155.664 242.034Z" stroke="#4068FF" stroke-width="0.66" stroke-miterlimit="10"/>
<path d="M62.5003 295.802L15.9297 268.921V215.153L62.5003 188.273L109.078 215.153" stroke="#4068FF" stroke-width="0.66" stroke-miterlimit="10"/>
<path d="M15.9297 215.153V268.921L62.5003 295.802L109.078 268.921" stroke="#4068FF" stroke-width="0.66" stroke-miterlimit="10"/>
<path d="M16.0156 591.521V537.753L-30.5622 510.866L-77.1328 537.753V591.521" stroke="#4068FF" stroke-width="0.66" stroke-miterlimit="10"/>
<path d="M1413.28 752.818V806.586L1366.7 833.466L1320.13 806.586V752.818L1366.7 725.937L1413.28 752.818Z" stroke="#4068FF" stroke-width="0.66" stroke-miterlimit="10"/>
<path d="M1459.84 779.698V725.937L1413.27 699.05" stroke="#4068FF" stroke-width="0.66" stroke-miterlimit="10"/>
<path d="M1459.84 618.402V672.17L1413.27 699.05L1366.69 672.17V618.402L1413.27 591.521L1459.84 618.402Z" stroke="#4068FF" stroke-width="0.66" stroke-miterlimit="10"/>
<path d="M1366.69 725.937V672.169L1413.27 645.282" stroke="#4068FF" stroke-width="0.66" stroke-miterlimit="10"/>
<path d="M1366.68 672.17L1320.1 645.282V591.521L1366.68 564.634L1413.25 591.521" stroke="#4068FF" stroke-width="0.66" stroke-miterlimit="10"/>
<path d="M1413.25 645.282V699.05L1366.68 725.937L1320.1 699.05" stroke="#4068FF" stroke-width="0.66" stroke-miterlimit="10"/>
<path d="M1320.1 591.521V645.282L1366.68 672.17L1413.25 645.282" stroke="#4068FF" stroke-width="0.66" stroke-miterlimit="10"/>
<path d="M1413.25 699.05L1459.83 725.937V779.698L1413.25 806.586L1366.68 779.698" stroke="#4068FF" stroke-width="0.66" stroke-miterlimit="10"/>
<path d="M1599.54 752.818V806.586L1646.12 833.466L1692.69 806.586V752.818L1646.12 725.937L1599.54 752.818Z" stroke="#4068FF" stroke-width="0.66" stroke-miterlimit="10"/>
<path d="M1552.97 833.466L1599.54 806.586V752.818L1552.97 725.937L1506.39 752.818" stroke="#4068FF" stroke-width="0.66" stroke-miterlimit="10"/>
<path d="M1599.52 752.818V699.05L1646.09 672.169L1692.67 699.05V752.818" stroke="#4068FF" stroke-width="0.66" stroke-miterlimit="10"/>
<path d="M1599.52 645.282V699.05L1646.09 725.937L1692.67 699.05" stroke="#4068FF" stroke-width="0.66" stroke-miterlimit="10"/>
<path d="M1739.32 510.866V564.634L1785.9 591.521L1832.47 564.634V510.866L1785.9 483.985L1739.32 510.866Z" stroke="#4068FF" stroke-width="0.66" stroke-miterlimit="10"/>
<path d="M1785.89 645.282L1832.46 618.402V564.634L1785.89 537.753L1739.31 564.634" stroke="#4068FF" stroke-width="0.66" stroke-miterlimit="10"/>
<path d="M1739.31 618.401V564.634L1785.89 537.753L1832.46 564.634V618.401" stroke="#4068FF" stroke-width="0.66" stroke-miterlimit="10"/>
<path d="M1692.75 699.05V752.818L1739.32 779.698L1785.89 752.818V699.05L1739.32 672.169L1692.75 699.05Z" stroke="#4068FF" stroke-width="0.66" stroke-miterlimit="10"/>
<path d="M1739.3 833.466L1785.88 806.586V752.818L1739.3 725.937L1692.73 752.818" stroke="#4068FF" stroke-width="0.66" stroke-miterlimit="10"/>
<path d="M1739.31 618.401V672.169L1785.88 699.05L1832.46 672.169V618.401L1785.88 591.521L1739.31 618.401Z" stroke="#4068FF" stroke-width="0.66" stroke-miterlimit="10"/>
<path d="M1739.32 672.17V618.402L1692.74 591.521L1646.17 618.402V672.17" stroke="#4068FF" stroke-width="0.66" stroke-miterlimit="10"/>
<path d="M1692.73 806.585V752.818L1739.3 725.937L1785.88 752.818V806.585" stroke="#4068FF" stroke-width="0.66" stroke-miterlimit="10"/>
<path d="M481.735 806.586V752.818L435.164 725.937" stroke="#4068FF" stroke-width="0.66" stroke-miterlimit="10"/>
<path d="M341.902 725.937V779.698L388.473 806.586L435.051 779.698V725.937L388.473 699.05L341.902 725.937Z" stroke="#94AAFF" stroke-width="0.66" stroke-miterlimit="10"/>
<path d="M481.637 699.05V752.818L528.214 779.698L574.785 752.818V699.05L528.214 672.169L481.637 699.05Z" stroke="#94AAFF" stroke-width="0.66" stroke-miterlimit="10"/>
<path d="M435.059 779.698L481.637 752.818V699.05L435.059 672.169L388.488 699.05" stroke="#94AAFF" stroke-width="0.66" stroke-miterlimit="10"/>
<path d="M481.637 699.05V752.818L435.059 779.698L388.488 752.818" stroke="#94AAFF" stroke-width="0.66" stroke-miterlimit="10"/>
<path d="M574.782 806.586V752.818L528.211 725.937" stroke="#94AAFF" stroke-width="0.66" stroke-miterlimit="10"/>
<path d="M481.613 699.05V645.282L528.191 618.402L574.762 645.282V699.05" stroke="#94AAFF" stroke-width="0.66" stroke-miterlimit="10"/>
<path d="M574.762 699.05V645.282L621.339 618.402" stroke="#94AAFF" stroke-width="0.66" stroke-miterlimit="10"/>
<path d="M574.762 537.753V591.521L621.339 618.402L667.91 591.521V537.753L621.339 510.866L574.762 537.753Z" stroke="#94AAFF" stroke-width="0.66" stroke-miterlimit="10"/>
<path d="M481.613 591.521V645.282L528.191 672.169L574.762 645.282" stroke="#94AAFF" stroke-width="0.66" stroke-miterlimit="10"/>
<path d="M667.911 645.282V591.521L621.34 564.634" stroke="#94AAFF" stroke-width="0.66" stroke-miterlimit="10"/>
<path d="M667.926 699.05V752.818L621.348 779.698L574.777 752.818V699.05L621.348 672.169L667.926 699.05Z" stroke="#94AAFF" stroke-width="0.66" stroke-miterlimit="10"/>
<path d="M621.348 618.402L574.777 645.282V699.05L621.348 725.937L667.926 699.05" stroke="#94AAFF" stroke-width="0.66" stroke-miterlimit="10"/>
<path d="M761.082 699.05V752.818L807.66 779.698L854.23 752.818V699.05L807.66 672.169L761.082 699.05Z" stroke="#94AAFF" stroke-width="0.66" stroke-miterlimit="10"/>
<path d="M714.511 779.698L761.082 752.818V699.05L714.511 672.169L667.934 699.05" stroke="#94AAFF" stroke-width="0.66" stroke-miterlimit="10"/>
<path d="M761.082 699.05V752.818L714.511 779.698L667.934 752.818" stroke="#94AAFF" stroke-width="0.66" stroke-miterlimit="10"/>
<path d="M854.231 806.586V752.818L807.66 725.937" stroke="#94AAFF" stroke-width="0.66" stroke-miterlimit="10"/>
<path d="M993.934 672.169L947.363 645.282V591.521L993.934 564.633L1040.51 591.521" stroke="#94AAFF" stroke-width="0.66" stroke-miterlimit="10"/>
<path d="M1040.51 645.282V699.05L993.934 725.937L947.363 699.05" stroke="#94AAFF" stroke-width="0.66" stroke-miterlimit="10"/>
<path d="M947.363 591.521V645.282L993.934 672.169L1040.51 645.282" stroke="#94AAFF" stroke-width="0.66" stroke-miterlimit="10"/>
<path d="M761.059 699.05V645.282L807.636 618.402L854.207 645.282V699.05" stroke="#94AAFF" stroke-width="0.66" stroke-miterlimit="10"/>
<path d="M854.207 699.05V645.282L900.785 618.402" stroke="#94AAFF" stroke-width="0.66" stroke-miterlimit="10"/>
<path d="M854.207 537.753V591.521L900.785 618.402L947.363 591.521V537.753L900.785 510.866L854.207 537.753Z" stroke="#94AAFF" stroke-width="0.66" stroke-miterlimit="10"/>
<path d="M761.059 591.521V645.282L807.636 672.169L854.207 645.282" stroke="#94AAFF" stroke-width="0.66" stroke-miterlimit="10"/>
<path d="M1040.51 645.282V591.521L993.934 564.634L947.363 591.521V645.282" stroke="#94AAFF" stroke-width="0.66" stroke-miterlimit="10"/>
<path d="M947.363 645.282V591.521L900.785 564.634" stroke="#94AAFF" stroke-width="0.66" stroke-miterlimit="10"/>
<path d="M947.371 699.05V752.818L900.793 779.698L854.223 752.818V699.05L900.793 672.169L947.371 699.05Z" stroke="#94AAFF" stroke-width="0.66" stroke-miterlimit="10"/>
<path d="M947.371 752.818V699.05L993.949 672.169L1040.52 699.05V752.818" stroke="#94AAFF" stroke-width="0.66" stroke-miterlimit="10"/>
<path d="M900.793 618.401L854.223 645.282V699.05L900.793 725.937L947.371 699.05" stroke="#94AAFF" stroke-width="0.66" stroke-miterlimit="10"/>
<path d="M947.371 645.282V699.05L993.949 725.937L1040.52 699.05" stroke="#94AAFF" stroke-width="0.66" stroke-miterlimit="10"/>
<path d="M1040.52 591.521V645.282L993.949 672.169L947.371 645.282" stroke="#94AAFF" stroke-width="0.66" stroke-miterlimit="10"/>
<path d="M1040.53 483.985L1087.1 510.866V564.634L1040.53 591.521L993.949 564.634" stroke="#94AAFF" stroke-width="0.66" stroke-miterlimit="10"/>
<path d="M947.379 537.753L900.801 510.866V457.105L947.379 430.217L993.949 457.105" stroke="#94AAFF" stroke-width="0.66" stroke-miterlimit="10"/>
<path d="M900.801 457.105V510.866L947.379 537.753L993.949 510.866" stroke="#94AAFF" stroke-width="0.66" stroke-miterlimit="10"/>
<path d="M807.652 564.634V510.866L854.23 483.985" stroke="#94AAFF" stroke-width="0.66" stroke-miterlimit="10"/>
<path d="M993.949 457.105V510.866L1040.53 537.753L1087.1 510.866V457.105L1040.53 430.217L993.949 457.105Z" stroke="#94AAFF" stroke-width="0.66" stroke-miterlimit="10"/>
<path d="M807.652 403.337V457.105L854.23 483.985L900.801 457.105V403.337L854.23 376.449L807.652 403.337Z" stroke="#94AAFF" stroke-width="0.66" stroke-miterlimit="10"/>
<path d="M993.949 510.865V457.105L947.379 430.217L900.801 457.105V510.865" stroke="#94AAFF" stroke-width="0.66" stroke-miterlimit="10"/>
<path d="M900.801 510.865V457.105L854.23 430.217" stroke="#94AAFF" stroke-width="0.66" stroke-miterlimit="10"/>
<path d="M947.387 376.449V430.217L993.964 457.105L1040.54 430.217V376.449L993.964 349.569L947.387 376.449Z" stroke="#94AAFF" stroke-width="0.66" stroke-miterlimit="10"/>
<path d="M900.812 457.105L947.383 430.217V376.449L900.812 349.569L854.234 376.449" stroke="#94AAFF" stroke-width="0.66" stroke-miterlimit="10"/>
<path d="M854.234 430.218V483.986L900.812 510.866L947.383 483.986" stroke="#94AAFF" stroke-width="0.66" stroke-miterlimit="10"/>
<path d="M947.383 376.449V430.217L900.812 457.105L854.234 430.217" stroke="#94AAFF" stroke-width="0.66" stroke-miterlimit="10"/>
<path d="M1040.53 483.985V430.217L993.961 403.337" stroke="#94AAFF" stroke-width="0.66" stroke-miterlimit="10"/>
<path d="M993.961 457.105V510.866L1040.53 537.753L1087.11 510.866V457.105L1040.53 430.217L993.961 457.105Z" stroke="#94AAFF" stroke-width="0.66" stroke-miterlimit="10"/>
<path d="M854.238 483.985L807.66 510.866V564.634L854.238 591.521L900.816 564.634" stroke="#94AAFF" stroke-width="0.66" stroke-miterlimit="10"/>
<path d="M947.383 537.753L993.961 510.866V457.105L947.383 430.217L900.812 457.105" stroke="#94AAFF" stroke-width="0.66" stroke-miterlimit="10"/>
<path d="M993.961 457.105V510.866L947.383 537.753L900.812 510.866" stroke="#94AAFF" stroke-width="0.66" stroke-miterlimit="10"/>
<path d="M947.363 376.449V322.689L993.941 295.801L1040.51 322.689V376.449" stroke="#94AAFF" stroke-width="0.66" stroke-miterlimit="10"/>
<path d="M947.363 268.921V322.689L993.941 349.569L1040.51 322.689" stroke="#94AAFF" stroke-width="0.66" stroke-miterlimit="10"/>
<path d="M807.68 564.634V618.402L761.109 645.282L714.531 618.402V564.634L761.109 537.753L807.68 564.634Z" stroke="#94AAFF" stroke-width="0.66" stroke-miterlimit="10"/>
<path d="M854.257 645.282L807.68 618.401V564.634L854.257 537.753L900.828 564.634" stroke="#94AAFF" stroke-width="0.66" stroke-miterlimit="10"/>
<path d="M714.523 618.402L667.945 591.521V537.753L714.523 510.866L761.094 537.753" stroke="#94AAFF" stroke-width="0.66" stroke-miterlimit="10"/>
<path d="M667.945 537.753V591.521L714.523 618.402L761.094 591.521" stroke="#94AAFF" stroke-width="0.66" stroke-miterlimit="10"/>
<path d="M1878.9 645.282V699.05L1832.32 725.937L1785.75 699.05V645.282L1832.32 618.402L1878.9 645.282Z" stroke="#94AAFF" stroke-width="0.66" stroke-miterlimit="10"/>
<path d="M1739.18 672.169L1785.76 699.05V752.818L1739.18 779.698L1692.6 752.818" stroke="#94AAFF" stroke-width="0.66" stroke-miterlimit="10"/>
<path d="M1646.03 725.937L1599.45 699.05V645.282L1646.03 618.402L1692.6 645.282" stroke="#94AAFF" stroke-width="0.66" stroke-miterlimit="10"/>
<path d="M1599.45 645.282V699.05L1646.03 725.937L1692.6 699.05" stroke="#94AAFF" stroke-width="0.66" stroke-miterlimit="10"/>
<path d="M1506.3 752.818V699.05L1552.88 672.169" stroke="#94AAFF" stroke-width="0.66" stroke-miterlimit="10"/>
<path d="M1692.6 645.282V699.05L1739.18 725.937L1785.76 699.05V645.282L1739.18 618.401L1692.6 645.282Z" stroke="#94AAFF" stroke-width="0.66" stroke-miterlimit="10"/>
<path d="M1506.3 591.521V645.282L1552.88 672.169L1599.45 645.282V591.521L1552.88 564.634L1506.3 591.521Z" stroke="#94AAFF" stroke-width="0.66" stroke-miterlimit="10"/>
<path d="M1692.6 699.05V645.282L1646.03 618.401L1599.45 645.282V699.05" stroke="#94AAFF" stroke-width="0.66" stroke-miterlimit="10"/>
<path d="M1599.45 699.05V645.282L1552.88 618.402" stroke="#94AAFF" stroke-width="0.66" stroke-miterlimit="10"/>
<path d="M1646.04 564.634V618.402L1692.62 645.282L1739.19 618.402V564.634L1692.62 537.753L1646.04 564.634Z" stroke="#94AAFF" stroke-width="0.66" stroke-miterlimit="10"/>
<path d="M1599.46 645.282L1646.04 618.402V564.634L1599.46 537.753L1552.89 564.634" stroke="#94AAFF" stroke-width="0.66" stroke-miterlimit="10"/>
<path d="M1552.89 618.402V672.17L1599.46 699.05L1646.04 672.17" stroke="#94AAFF" stroke-width="0.66" stroke-miterlimit="10"/>
<path d="M1646.04 564.634V618.402L1599.46 645.282L1552.89 618.402" stroke="#94AAFF" stroke-width="0.66" stroke-miterlimit="10"/>
<path d="M1739.19 672.169V618.401L1692.62 591.521" stroke="#94AAFF" stroke-width="0.66" stroke-miterlimit="10"/>
<path d="M1832.33 779.698L1785.76 752.818V699.05L1832.33 672.169L1878.91 699.05" stroke="#94AAFF" stroke-width="0.66" stroke-miterlimit="10"/>
<path d="M1692.62 645.282V699.05L1739.19 725.937L1785.77 699.05V645.282L1739.19 618.402L1692.62 645.282Z" stroke="#94AAFF" stroke-width="0.66" stroke-miterlimit="10"/>
<path d="M1552.89 672.169L1506.31 699.05V752.818L1552.89 779.698L1599.46 752.818" stroke="#94AAFF" stroke-width="0.66" stroke-miterlimit="10"/>
<path d="M1646.04 725.937L1692.61 699.05V645.282L1646.04 618.402L1599.46 645.282" stroke="#94AAFF" stroke-width="0.66" stroke-miterlimit="10"/>
<path d="M1692.61 645.282V699.05L1646.04 725.937L1599.46 699.05" stroke="#94AAFF" stroke-width="0.66" stroke-miterlimit="10"/>
<path d="M1646.02 564.634V510.866L1692.59 483.985L1739.16 510.866V564.634" stroke="#94AAFF" stroke-width="0.66" stroke-miterlimit="10"/>
<path d="M1739.16 564.634V510.866L1785.74 483.985" stroke="#94AAFF" stroke-width="0.66" stroke-miterlimit="10"/>
<path d="M1739.16 403.337V457.105L1785.74 483.985L1832.32 457.105V403.337L1785.74 376.449L1739.16 403.337Z" stroke="#94AAFF" stroke-width="0.66" stroke-miterlimit="10"/>
<path d="M1646.02 457.105V510.866L1692.59 537.753L1739.16 510.866" stroke="#94AAFF" stroke-width="0.66" stroke-miterlimit="10"/>
<path d="M1832.32 510.865V457.105L1785.74 430.217" stroke="#94AAFF" stroke-width="0.66" stroke-miterlimit="10"/>
<path d="M1832.33 564.634V618.401L1785.75 645.282L1739.18 618.401V564.634L1785.75 537.753L1832.33 564.634Z" stroke="#94AAFF" stroke-width="0.66" stroke-miterlimit="10"/>
<path d="M1785.75 483.985L1739.18 510.866V564.634L1785.75 591.521L1832.33 564.634" stroke="#94AAFF" stroke-width="0.66" stroke-miterlimit="10"/>
<path d="M1878.91 752.818V699.05L1832.33 672.169L1785.76 699.05V752.818" stroke="#94AAFF" stroke-width="0.66" stroke-miterlimit="10"/>
<path d="M1785.77 752.818V699.05L1739.19 672.169" stroke="#94AAFF" stroke-width="0.66" stroke-miterlimit="10"/>
<path d="M1878.91 645.282L1925.48 618.402V564.634L1878.91 537.753L1832.34 564.634" stroke="#94AAFF" stroke-width="0.66" stroke-miterlimit="10"/>
<path d="M1832.34 618.402V672.17L1878.91 699.05L1925.48 672.17" stroke="#94AAFF" stroke-width="0.66" stroke-miterlimit="10"/>
<path d="M1925.48 564.634V618.402L1878.91 645.282L1832.34 618.402" stroke="#94AAFF" stroke-width="0.66" stroke-miterlimit="10"/>
<path d="M1878.93 483.985L1832.35 457.105V403.337L1878.93 376.449L1925.5 403.337" stroke="#94AAFF" stroke-width="0.66" stroke-miterlimit="10"/>
<path d="M1832.35 403.337V457.105L1878.93 483.985L1925.5 457.105" stroke="#94AAFF" stroke-width="0.66" stroke-miterlimit="10"/>
<path d="M1273.45 725.937V779.698L1320.02 806.586L1366.59 779.698V725.937L1320.02 699.05L1273.45 725.937Z" stroke="#94AAFF" stroke-width="0.66" stroke-miterlimit="10"/>
<path d="M1413.18 699.05V752.818L1459.75 779.698L1506.33 752.818V699.05L1459.75 672.169L1413.18 699.05Z" stroke="#94AAFF" stroke-width="0.66" stroke-miterlimit="10"/>
<path d="M1366.61 779.698L1413.18 752.818V699.05L1366.61 672.169L1320.03 699.05" stroke="#94AAFF" stroke-width="0.66" stroke-miterlimit="10"/>
<path d="M1413.18 699.05V752.818L1366.61 779.698L1320.03 752.818" stroke="#94AAFF" stroke-width="0.66" stroke-miterlimit="10"/>
<path d="M1506.33 806.586V752.818L1459.75 725.937" stroke="#94AAFF" stroke-width="0.66" stroke-miterlimit="10"/>
<path d="M1413.16 699.05V645.282L1459.73 618.402L1506.31 645.282V699.05" stroke="#94AAFF" stroke-width="0.66" stroke-miterlimit="10"/>
<path d="M1413.16 591.521V645.282L1459.73 672.169L1506.31 645.282" stroke="#94AAFF" stroke-width="0.66" stroke-miterlimit="10"/>
<path d="M1320 699.05V752.818L1273.43 779.698L1226.86 752.818V699.05L1273.43 672.169L1320 699.05Z" stroke="#94AAFF" stroke-width="0.66" stroke-miterlimit="10"/>
<path d="M1087.14 779.705L1040.57 752.818V699.05L1087.14 672.17L1133.72 699.05" stroke="#94AAFF" stroke-width="0.66" stroke-miterlimit="10"/>
<path d="M1133.72 699.05V752.818L1180.29 779.698L1226.87 752.818V699.05L1180.29 672.169L1133.72 699.05Z" stroke="#94AAFF" stroke-width="0.66" stroke-miterlimit="10"/>
<path d="M1133.72 752.818V699.05L1087.14 672.169L1040.56 699.05V752.818" stroke="#94AAFF" stroke-width="0.66" stroke-miterlimit="10"/>
<path d="M1087.14 618.402V672.17L1133.72 699.05L1180.3 672.17V618.402L1133.72 591.521L1087.14 618.402Z" stroke="#94AAFF" stroke-width="0.66" stroke-miterlimit="10"/>
<path d="M1180.3 725.937V672.169L1133.72 645.282" stroke="#94AAFF" stroke-width="0.66" stroke-miterlimit="10"/>
<path d="M1133.72 699.05V752.818L1180.3 779.705L1226.87 752.818V699.05L1180.3 672.17L1133.72 699.05Z" stroke="#94AAFF" stroke-width="0.66" stroke-miterlimit="10"/>
<path d="M1087.15 779.705L1133.73 752.818V699.05L1087.15 672.17L1040.58 699.05" stroke="#94AAFF" stroke-width="0.66" stroke-miterlimit="10"/>
<path d="M1133.73 699.05V752.818L1087.15 779.705L1040.58 752.818" stroke="#94AAFF" stroke-width="0.66" stroke-miterlimit="10"/>
<path d="M1087.13 618.402V564.634L1133.7 537.753L1180.28 564.634V618.402" stroke="#94AAFF" stroke-width="0.66" stroke-miterlimit="10"/>
<path d="M1180.28 618.402V564.634L1226.85 537.753" stroke="#94AAFF" stroke-width="0.66" stroke-miterlimit="10"/>
<path d="M1180.28 457.105V510.866L1226.85 537.753L1273.43 510.866V457.105L1226.85 430.217L1180.28 457.105Z" stroke="#94AAFF" stroke-width="0.66" stroke-miterlimit="10"/>
<path d="M1087.13 510.866V564.634L1133.7 591.521L1180.28 564.634" stroke="#94AAFF" stroke-width="0.66" stroke-miterlimit="10"/>
<path d="M1273.43 564.634V510.866L1226.85 483.985" stroke="#94AAFF" stroke-width="0.66" stroke-miterlimit="10"/>
<path d="M1273.44 618.401V672.169L1226.87 699.05L1180.29 672.169V618.401L1226.87 591.521L1273.44 618.401Z" stroke="#94AAFF" stroke-width="0.66" stroke-miterlimit="10"/>
<path d="M1226.87 537.753L1180.29 564.634V618.402L1226.87 645.282L1273.44 618.402" stroke="#94AAFF" stroke-width="0.66" stroke-miterlimit="10"/>
<path d="M1366.58 779.705L1320.01 752.818V699.05L1366.58 672.17L1413.16 699.05" stroke="#94AAFF" stroke-width="0.66" stroke-miterlimit="10"/>
<path d="M1413.16 752.818V699.05L1366.58 672.169L1320.01 699.05V752.818" stroke="#94AAFF" stroke-width="0.66" stroke-miterlimit="10"/>
<path d="M1366.6 618.401V672.169L1413.17 699.05L1459.75 672.169V618.401L1413.17 591.521L1366.6 618.401Z" stroke="#94AAFF" stroke-width="0.66" stroke-miterlimit="10"/>
<path d="M1320.02 699.05L1366.6 672.169V618.401L1320.02 591.521L1273.45 618.401" stroke="#94AAFF" stroke-width="0.66" stroke-miterlimit="10"/>
<path d="M1273.45 672.169V725.937L1320.02 752.818L1366.6 725.937" stroke="#94AAFF" stroke-width="0.66" stroke-miterlimit="10"/>
<path d="M1366.6 618.401V672.169L1320.02 699.05L1273.45 672.169" stroke="#94AAFF" stroke-width="0.66" stroke-miterlimit="10"/>
<path d="M1366.6 779.705L1413.17 752.818V699.05L1366.6 672.17L1320.02 699.05" stroke="#94AAFF" stroke-width="0.66" stroke-miterlimit="10"/>
<path d="M1366.58 618.402V564.634L1413.15 537.753L1459.73 564.634V618.402" stroke="#94AAFF" stroke-width="0.66" stroke-miterlimit="10"/>
<path d="M1366.58 510.866V564.634L1413.15 591.521L1459.73 564.634" stroke="#94AAFF" stroke-width="0.66" stroke-miterlimit="10"/>
<path d="M1413.2 483.985V537.753L1366.62 564.634L1320.04 537.753V483.985L1366.62 457.105L1413.2 483.985Z" stroke="#94AAFF" stroke-width="0.66" stroke-miterlimit="10"/>
<path d="M1320.03 537.753L1273.46 510.866V457.105L1320.03 430.217L1366.61 457.105" stroke="#94AAFF" stroke-width="0.66" stroke-miterlimit="10"/>
<path d="M1273.46 457.105V510.866L1320.03 537.753L1366.61 510.866" stroke="#94AAFF" stroke-width="0.66" stroke-miterlimit="10"/>
<path d="M434.973 618.402V672.169L481.55 699.05L528.121 672.169V618.402L481.55 591.521L434.973 618.402Z" stroke="#94AAFF" stroke-width="0.66" stroke-miterlimit="10"/>
<path d="M341.832 725.937V672.169L388.403 645.282L434.98 672.169V725.937" stroke="#94AAFF" stroke-width="0.66" stroke-miterlimit="10"/>
<path d="M341.832 618.401V672.169L388.403 699.05L434.98 672.169" stroke="#94AAFF" stroke-width="0.66" stroke-miterlimit="10"/>
<path d="M108.949 645.282V591.521L155.52 564.634" stroke="#94AAFF" stroke-width="0.66" stroke-miterlimit="10"/>
<path d="M108.949 483.985V537.753L155.52 564.634L202.098 537.753V483.985L155.52 457.105L108.949 483.985Z" stroke="#94AAFF" stroke-width="0.66" stroke-miterlimit="10"/>
<path d="M202.097 591.521V537.753L155.52 510.866" stroke="#94AAFF" stroke-width="0.66" stroke-miterlimit="10"/>
<path d="M155.535 564.633L108.957 591.521V645.282L155.535 672.169L202.105 645.282" stroke="#94AAFF" stroke-width="0.66" stroke-miterlimit="10"/>
<path d="M295.266 645.282V699.05L341.836 725.937L388.414 699.05V645.282L341.836 618.402L295.266 645.282Z" stroke="#94AAFF" stroke-width="0.66" stroke-miterlimit="10"/>
<path d="M248.688 725.937L295.266 699.05V645.282L248.688 618.402L202.117 645.282" stroke="#94AAFF" stroke-width="0.66" stroke-miterlimit="10"/>
<path d="M295.246 645.282V591.521L341.817 564.634L388.394 591.521V645.282" stroke="#94AAFF" stroke-width="0.66" stroke-miterlimit="10"/>
<path d="M295.246 537.753V591.521L341.817 618.402L388.394 591.521" stroke="#94AAFF" stroke-width="0.66" stroke-miterlimit="10"/>
<path d="M341.867 510.866V564.634L295.289 591.521L248.719 564.634V510.866L295.289 483.985L341.867 510.866Z" stroke="#94AAFF" stroke-width="0.66" stroke-miterlimit="10"/>
<path d="M248.703 564.634L202.133 537.753V483.985L248.703 457.105L295.281 483.985" stroke="#94AAFF" stroke-width="0.66" stroke-miterlimit="10"/>
<path d="M202.133 483.985V537.753L248.703 564.634L295.281 537.753" stroke="#94AAFF" stroke-width="0.66" stroke-miterlimit="10"/>
<path d="M62.4141 618.401V672.169L15.8363 699.05L-30.7344 672.169V618.401L15.8363 591.521L62.4141 618.401Z" stroke="#94AAFF" stroke-width="0.66" stroke-miterlimit="10"/>
<path d="M15.859 752.818L-30.7188 725.937V672.169L15.859 645.282L62.4297 672.169" stroke="#94AAFF" stroke-width="0.66" stroke-miterlimit="10"/>
<path d="M62.4297 725.937V672.169L15.859 645.282L-30.7188 672.169V725.937" stroke="#94AAFF" stroke-width="0.66" stroke-miterlimit="10"/>
<path d="M62.4219 725.937V779.698L15.8512 806.586L-30.7266 779.698V725.937L15.8512 699.05L62.4219 725.937Z" stroke="#94AAFF" stroke-width="0.66" stroke-miterlimit="10"/>
<path d="M388.57 537.753L435.148 564.633V618.401L388.57 645.281L341.992 618.401" stroke="#94AAFF" stroke-width="0.66" stroke-miterlimit="10"/>
<path d="M435.156 618.401V564.633L388.578 537.753" stroke="#94AAFF" stroke-width="0.66" stroke-miterlimit="10"/>
<path d="M574.875 430.217V483.985L621.453 510.865L668.031 483.985V430.217L621.453 403.337L574.875 430.217Z" stroke="#94AAFF" stroke-width="0.66" stroke-miterlimit="10"/>
<path d="M807.727 403.337L761.156 376.449V322.688L807.727 295.801L854.305 322.688" stroke="#94AAFF" stroke-width="0.66" stroke-miterlimit="10"/>
<path d="M761.156 322.688V376.449L807.727 403.337L854.305 376.449" stroke="#94AAFF" stroke-width="0.66" stroke-miterlimit="10"/>
<path d="M668.008 268.921V322.689L714.578 349.569L761.156 322.689V268.921L714.578 242.033L668.008 268.921Z" stroke="#94AAFF" stroke-width="0.66" stroke-miterlimit="10"/>
<path d="M574.855 322.688V376.449L621.433 403.337L668.011 376.449" stroke="#94AAFF" stroke-width="0.66" stroke-miterlimit="10"/>
<path d="M854.305 376.449V322.688L807.727 295.801L761.156 322.688V376.449" stroke="#94AAFF" stroke-width="0.66" stroke-miterlimit="10"/>
<path d="M761.156 376.449V322.688L714.578 295.801" stroke="#94AAFF" stroke-width="0.66" stroke-miterlimit="10"/>
<path d="M621.445 510.865V564.633L668.016 591.521L714.594 564.633V510.865L668.016 483.985L621.445 510.865Z" stroke="#94AAFF" stroke-width="0.66" stroke-miterlimit="10"/>
<path d="M621.453 510.865V564.633L668.031 591.521L714.602 564.633V510.865L668.031 483.985L621.453 510.865Z" stroke="#94AAFF" stroke-width="0.66" stroke-miterlimit="10"/>
<path d="M528.304 510.865L574.875 483.985V430.217L528.304 403.337L481.727 430.217" stroke="#94AAFF" stroke-width="0.66" stroke-miterlimit="10"/>
<path d="M574.875 430.217V483.985L528.304 510.865L481.727 483.985" stroke="#94AAFF" stroke-width="0.66" stroke-miterlimit="10"/>
<path d="M574.855 430.217V376.449L621.433 349.569L668.011 376.449V430.217" stroke="#94AAFF" stroke-width="0.66" stroke-miterlimit="10"/>
<path d="M1552.97 403.337L1599.55 430.217V483.985L1552.97 510.865L1506.4 483.985" stroke="#94AAFF" stroke-width="0.66" stroke-miterlimit="10"/>
<path d="M1552.98 403.337V349.569L1506.41 322.688" stroke="#94AAFF" stroke-width="0.66" stroke-miterlimit="10"/>
<path d="M435.059 779.698L481.637 752.817V699.049L435.059 672.169L388.488 699.049" stroke="#6685FA" stroke-width="3.6" stroke-miterlimit="10"/>
<path d="M202.105 645.281V699.049L155.535 725.937L108.957 699.049V645.281L155.535 618.401L202.105 645.281Z" stroke="#6685FA" stroke-width="3.6" stroke-miterlimit="10"/>
<path d="M295.27 645.281V699.049L248.692 725.937L202.121 699.049" stroke="#6685FA" stroke-width="3.6" stroke-miterlimit="10"/>
<path d="M62.4219 779.698V725.937L109 699.049L155.57 725.937V779.698" stroke="#6685FA" stroke-width="3.6" stroke-miterlimit="10"/>
<path d="M574.762 699.05V645.282L621.339 618.401" stroke="#6685FA" stroke-width="3.6" stroke-miterlimit="10"/>
<path d="M574.762 537.753V591.521L621.339 618.401L667.91 591.521V537.753L621.339 510.865L574.762 537.753Z" stroke="#6685FA" stroke-width="3.6" stroke-miterlimit="10"/>
<path d="M667.911 645.281V591.521L621.34 564.633" stroke="#6685FA" stroke-width="3.6" stroke-miterlimit="10"/>
<path d="M714.511 779.698L761.082 752.817V699.049L714.511 672.169L667.934 699.049" stroke="#6685FA" stroke-width="3.6" stroke-miterlimit="10"/>
<path d="M947.363 591.52V645.281L993.934 672.169L1040.51 645.281" stroke="#6685FA" stroke-width="3.6" stroke-miterlimit="10"/>
<path d="M854.211 699.05V645.282L900.789 618.401" stroke="#6685FA" stroke-width="3.6" stroke-miterlimit="10"/>
<path d="M854.211 537.753V591.521L900.789 618.401L947.366 591.521V537.753L900.789 510.865L854.211 537.753Z" stroke="#6685FA" stroke-width="3.6" stroke-miterlimit="10"/>
<path d="M900.793 618.401L854.223 645.282V699.049L900.793 725.937L947.371 699.049" stroke="#6685FA" stroke-width="3.6" stroke-miterlimit="10"/>
<path d="M1040.53 483.985L1087.1 510.865V564.633L1040.53 591.521L993.949 564.633" stroke="#6685FA" stroke-width="3.6" stroke-miterlimit="10"/>
<path d="M993.949 510.865V457.105L947.378 430.217L900.801 457.105V510.865" stroke="#6685FA" stroke-width="3.6" stroke-miterlimit="10"/>
<path d="M900.801 510.865V457.105L854.23 430.217" stroke="#6685FA" stroke-width="3.6" stroke-miterlimit="10"/>
<path d="M900.816 457.105L947.387 430.217V376.449L900.816 349.569L854.238 376.449" stroke="#6685FA" stroke-width="3.6" stroke-miterlimit="10"/>
<path d="M947.387 376.449V430.217L900.816 457.105L854.238 430.217" stroke="#6685FA" stroke-width="3.6" stroke-miterlimit="10"/>
<path d="M854.257 645.281L807.68 618.401V564.633L854.257 537.753L900.828 564.633" stroke="#6685FA" stroke-width="3.6" stroke-miterlimit="10"/>
<path d="M1878.9 645.281V699.049L1832.32 725.937L1785.75 699.049V645.281L1832.32 618.401L1878.9 645.281Z" stroke="#6685FA" stroke-width="3.6" stroke-miterlimit="10"/>
<path d="M1692.6 645.281V699.049L1739.18 725.937L1785.76 699.049V645.281L1739.18 618.401L1692.6 645.281Z" stroke="#6685FA" stroke-width="3.6" stroke-miterlimit="10"/>
<path d="M1646.04 725.937L1692.62 699.049V645.281L1646.04 618.401L1599.47 645.281" stroke="#6685FA" stroke-width="3.6" stroke-miterlimit="10"/>
<path d="M1692.62 645.281V699.049L1646.04 725.937L1599.47 699.049" stroke="#6685FA" stroke-width="3.6" stroke-miterlimit="10"/>
<path d="M1739.16 564.633V510.865L1785.74 483.985" stroke="#6685FA" stroke-width="3.6" stroke-miterlimit="10"/>
<path d="M1599.56 483.985V430.217L1552.98 403.337" stroke="#6685FA" stroke-width="3.6" stroke-miterlimit="10"/>
<path d="M1878.91 752.817V699.049L1832.34 672.169L1785.77 699.049V752.817" stroke="#6685FA" stroke-width="3.6" stroke-miterlimit="10"/>
<path d="M1785.77 752.817V699.049L1739.19 672.169" stroke="#6685FA" stroke-width="3.6" stroke-miterlimit="10"/>
<path d="M1878.93 483.985L1832.35 457.105V403.337L1878.93 376.449L1925.5 403.337" stroke="#6685FA" stroke-width="3.6" stroke-miterlimit="10"/>
<path d="M1832.35 403.337V457.105L1878.93 483.985L1925.5 457.105" stroke="#6685FA" stroke-width="3.6" stroke-miterlimit="10"/>
<path d="M1273.45 725.937V779.698L1320.02 806.585L1366.59 779.698V725.937L1320.02 699.049L1273.45 725.937Z" stroke="#6685FA" stroke-width="3.6" stroke-miterlimit="10"/>
<path d="M1366.61 779.698L1413.18 752.817V699.049L1366.61 672.169L1320.03 699.049" stroke="#6685FA" stroke-width="3.6" stroke-miterlimit="10"/>
<path d="M1506.34 806.585V752.817L1459.76 725.937" stroke="#6685FA" stroke-width="3.6" stroke-miterlimit="10"/>
<path d="M1320.01 699.049V752.817L1273.44 779.698L1226.86 752.817V699.049L1273.44 672.169L1320.01 699.049Z" stroke="#6685FA" stroke-width="3.6" stroke-miterlimit="10"/>
<path d="M1087.14 779.705L1040.57 752.817V699.049L1087.14 672.169L1133.72 699.049" stroke="#6685FA" stroke-width="3.6" stroke-miterlimit="10"/>
<path d="M1133.72 752.817V699.049L1087.14 672.169L1040.56 699.049V752.817" stroke="#6685FA" stroke-width="3.6" stroke-miterlimit="10"/>
<path d="M1133.73 699.049V752.817L1180.3 779.705L1226.87 752.817V699.049L1180.3 672.169L1133.73 699.049Z" stroke="#6685FA" stroke-width="3.6" stroke-miterlimit="10"/>
<path d="M1273.43 564.633V510.865L1226.85 483.985" stroke="#6685FA" stroke-width="3.6" stroke-miterlimit="10"/>
<path d="M1226.87 537.753L1180.29 564.633V618.401L1226.87 645.281L1273.44 618.401" stroke="#6685FA" stroke-width="3.6" stroke-miterlimit="10"/>
<path d="M1320.02 699.049L1366.6 672.169V618.401L1320.02 591.521L1273.45 618.401" stroke="#6685FA" stroke-width="3.6" stroke-miterlimit="10"/>
<path d="M1413.2 483.985V537.753L1366.62 564.633L1320.04 537.753V483.985L1366.62 457.104L1413.2 483.985Z" stroke="#6685FA" stroke-width="3.6" stroke-miterlimit="10"/>
<path d="M1320.04 537.753L1273.46 510.865V457.104L1320.04 430.217L1366.62 457.104" stroke="#6685FA" stroke-width="3.6" stroke-miterlimit="10"/>
<path d="M434.973 618.401V672.169L481.55 699.05L528.121 672.169V618.401L481.55 591.521L434.973 618.401Z" stroke="#6685FA" stroke-width="3.6" stroke-miterlimit="10"/>
<path d="M341.832 725.937V672.169L388.403 645.281L434.98 672.169V725.937" stroke="#6685FA" stroke-width="3.6" stroke-miterlimit="10"/>
<path d="M341.867 510.865V564.633L295.289 591.521L248.719 564.633V510.865L295.289 483.985L341.867 510.865Z" stroke="#6685FA" stroke-width="3.6" stroke-miterlimit="10"/>
<path d="M62.4297 725.937V672.169L15.859 645.282L-30.7188 672.169V725.937" stroke="#6685FA" stroke-width="3.6" stroke-miterlimit="10"/>
<path d="M1150.19 528.447V546.973L1134.14 556.237L1118.09 546.973V528.447L1134.14 519.183L1150.19 528.447Z" fill="#98AEFF"/>
<path d="M590.904 313.439V331.966L574.854 341.23L558.805 331.966V313.439L574.854 304.176L590.904 313.439Z" fill="#98AEFF"/>
<path d="M1475.78 394.294V412.821L1459.73 422.091L1443.68 412.821V394.294L1459.73 385.031L1475.78 394.294Z" fill="#98AEFF"/>
<path d="M1848.35 555.086V573.612L1832.3 582.876L1816.25 573.612V555.086L1832.3 545.822L1848.35 555.086Z" fill="#98AEFF"/>
<path d="M218.638 528.447V546.973L202.589 556.237L186.539 546.973V528.447L202.589 519.183L218.638 528.447Z" fill="#98AEFF"/>
<path d="M1335.68 743.554V762.081L1319.63 771.344L1303.58 762.081V743.554L1319.63 734.29L1335.68 743.554Z" fill="#98AEFF"/>
<path d="M1654.2 613.688V623.115L1646.04 627.828L1637.87 623.115V613.688L1646.04 608.981L1654.2 613.688Z" fill="white"/>
<path d="M1928.27 455.505V464.932L1920.11 469.639L1911.95 464.932V455.505L1920.11 450.792L1928.27 455.505Z" fill="white"/>
<path d="M862.371 532.357V541.784L854.207 546.491L846.051 541.784V532.357L854.207 527.651L862.371 532.357Z" fill="white"/>
<path d="M117.112 694.343V703.763L108.949 708.477L100.785 703.763V694.343L108.949 689.63L117.112 694.343Z" fill="white"/>
<path d="M1048.68 640.575V649.995L1040.51 654.708L1032.35 649.995V640.575L1040.51 635.862L1048.68 640.575Z" fill="white"/>
</g>
<defs>
<clipPath id="clip0_1_13203">
<rect width="1920" height="1203.61" fill="white" transform="matrix(1 0 0 -1 0 1203.8)"/>
</clipPath>
</defs>
</svg>
