<svg width="80" height="82" viewBox="0 0 80 82" fill="none" xmlns="http://www.w3.org/2000/svg">
<path d="M42.6413 56.3718C42.6413 56.5789 42.8092 56.7468 43.0163 56.7468C43.2234 56.7468 43.3913 56.5789 43.3913 56.3718H42.6413ZM43.0163 40.6102L42.8279 40.2859L42.6413 40.3944L42.6413 40.6102L43.0163 40.6102ZM56.7956 33.0354C56.9747 32.9313 57.0354 32.7018 56.9314 32.5227C56.8273 32.3437 56.5978 32.2829 56.4187 32.3869L56.7956 33.0354ZM42.8662 40.9346C43.0455 41.0382 43.2749 40.9769 43.3785 40.7975C43.4821 40.6182 43.4207 40.3889 43.2414 40.2852L42.8662 40.9346ZM29.5704 32.3862C29.3911 32.2826 29.1617 32.344 29.0581 32.5233C28.9545 32.7027 29.0159 32.932 29.1952 33.0356L29.5704 32.3862ZM43.3913 56.3718L43.3913 40.6102L42.6413 40.6102L42.6413 56.3718H43.3913ZM56.4187 32.3869L42.8279 40.2859L43.2047 40.9344L56.7956 33.0354L56.4187 32.3869ZM43.2414 40.2852L29.5704 32.3862L29.1952 33.0356L42.8662 40.9346L43.2414 40.2852Z" fill="#E5E7EB"/>
<mask id="path-2-outside-1_1_12900" maskUnits="userSpaceOnUse" x="28.3594" y="23.875" width="30" height="34" fill="black">
<rect fill="white" x="28.3594" y="23.875" width="30" height="34"/>
<path d="M42.9993 24.875L56.6392 32.75V48.5L42.9993 56.375L29.3594 48.5V32.75L42.9993 24.875Z"/>
</mask>
<path d="M42.9993 24.875L43.3743 24.2255C43.1422 24.0915 42.8563 24.0915 42.6243 24.2255L42.9993 24.875ZM56.6392 32.75H57.3892C57.3892 32.4821 57.2462 32.2345 57.0142 32.1005L56.6392 32.75ZM56.6392 48.5L57.0142 49.1495C57.2462 49.0155 57.3892 48.768 57.3892 48.5H56.6392ZM42.9993 56.375L42.6243 57.0245C42.8563 57.1585 43.1422 57.1585 43.3743 57.0245L42.9993 56.375ZM29.3594 48.5H28.6094C28.6094 48.768 28.7523 49.0155 28.9844 49.1495L29.3594 48.5ZM29.3594 32.75L28.9844 32.1005C28.7523 32.2345 28.6094 32.4821 28.6094 32.75H29.3594ZM42.6243 25.5245L56.2642 33.3995L57.0142 32.1005L43.3743 24.2255L42.6243 25.5245ZM55.8892 32.75V48.5H57.3892V32.75H55.8892ZM56.2642 47.8505L42.6243 55.7255L43.3743 57.0245L57.0142 49.1495L56.2642 47.8505ZM43.3743 55.7255L29.7344 47.8505L28.9844 49.1495L42.6243 57.0245L43.3743 55.7255ZM30.1094 48.5V32.75H28.6094V48.5H30.1094ZM29.7344 33.3995L43.3743 25.5245L42.6243 24.2255L28.9844 32.1005L29.7344 33.3995Z" fill="#E5E7EB" mask="url(#path-2-outside-1_1_12900)"/>
<path d="M42.6413 24.1218C42.6413 24.3289 42.8092 24.4968 43.0163 24.4968C43.2234 24.4968 43.3913 24.3289 43.3913 24.1218H42.6413ZM43.0163 8.36015L42.8279 8.03593L42.6413 8.14437L42.6413 8.36015L43.0163 8.36015ZM56.7956 0.785368C56.9747 0.681298 57.0354 0.451776 56.9314 0.272715C56.8273 0.0936546 56.5978 0.0328628 56.4187 0.136933L56.7956 0.785368ZM42.8662 8.68463C43.0455 8.78825 43.2749 8.72687 43.3785 8.54755C43.4821 8.36822 43.4207 8.13885 43.2414 8.03524L42.8662 8.68463ZM29.5704 0.13624C29.3911 0.0326273 29.1617 0.0940042 29.0581 0.27333C28.9545 0.452655 29.0159 0.682022 29.1952 0.785635L29.5704 0.13624ZM43.3913 24.1218L43.3913 8.36015L42.6413 8.36015L42.6413 24.1218H43.3913ZM56.4187 0.136933L42.8279 8.03593L43.2047 8.68437L56.7956 0.785368L56.4187 0.136933ZM43.2414 8.03524L29.5704 0.13624L29.1952 0.785635L42.8662 8.68463L43.2414 8.03524Z" fill="#E5E7EB"/>
<mask id="path-5-outside-2_1_12900" maskUnits="userSpaceOnUse" x="28.3594" y="-8.375" width="30" height="34" fill="black">
<rect fill="white" x="28.3594" y="-8.375" width="30" height="34"/>
<path d="M42.9993 -7.375L56.6392 0.5V16.25L42.9993 24.125L29.3594 16.25V0.5L42.9993 -7.375Z"/>
</mask>
<path d="M42.9993 -7.375L43.3743 -8.02452C43.1422 -8.15849 42.8563 -8.15849 42.6243 -8.02452L42.9993 -7.375ZM56.6392 0.5H57.3892C57.3892 0.232051 57.2462 -0.0155444 57.0142 -0.149519L56.6392 0.5ZM56.6392 16.25L57.0142 16.8995C57.2462 16.7655 57.3892 16.518 57.3892 16.25H56.6392ZM42.9993 24.125L42.6243 24.7745C42.8563 24.9085 43.1422 24.9085 43.3743 24.7745L42.9993 24.125ZM29.3594 16.25H28.6094C28.6094 16.518 28.7523 16.7655 28.9844 16.8995L29.3594 16.25ZM29.3594 0.5L28.9844 -0.149519C28.7523 -0.0155444 28.6094 0.232051 28.6094 0.5H29.3594ZM42.6243 -6.72548L56.2642 1.14952L57.0142 -0.149519L43.3743 -8.02452L42.6243 -6.72548ZM55.8892 0.5V16.25H57.3892V0.5H55.8892ZM56.2642 15.6005L42.6243 23.4755L43.3743 24.7745L57.0142 16.8995L56.2642 15.6005ZM43.3743 23.4755L29.7344 15.6005L28.9844 16.8995L42.6243 24.7745L43.3743 23.4755ZM30.1094 16.25V0.5H28.6094V16.25H30.1094ZM29.7344 1.14952L43.3743 -6.72548L42.6243 -8.02452L28.9844 -0.149519L29.7344 1.14952Z" fill="#E5E7EB" mask="url(#path-5-outside-2_1_12900)"/>
<path d="M14.8913 40.6218C14.8913 40.8289 15.0592 40.9968 15.2663 40.9968C15.4734 40.9968 15.6413 40.8289 15.6413 40.6218H14.8913ZM15.2663 24.8602L15.0779 24.5359L14.8913 24.6444L14.8913 24.8602L15.2663 24.8602ZM29.0456 17.2854C29.2247 17.1813 29.2854 16.9518 29.1814 16.7727C29.0773 16.5937 28.8478 16.5329 28.6687 16.6369L29.0456 17.2854ZM15.1162 25.1846C15.2955 25.2882 15.5249 25.2269 15.6285 25.0475C15.7321 24.8682 15.6707 24.6389 15.4914 24.5352L15.1162 25.1846ZM1.82042 16.6362C1.6411 16.5326 1.41173 16.594 1.30812 16.7733C1.2045 16.9527 1.26588 17.182 1.4452 17.2856L1.82042 16.6362ZM15.6413 40.6218L15.6413 24.8602L14.8913 24.8602L14.8913 40.6218H15.6413ZM28.6687 16.6369L15.0779 24.5359L15.4547 25.1844L29.0456 17.2854L28.6687 16.6369ZM15.4914 24.5352L1.82042 16.6362L1.4452 17.2856L15.1162 25.1846L15.4914 24.5352Z" fill="#E5E7EB"/>
<mask id="path-8-outside-3_1_12900" maskUnits="userSpaceOnUse" x="0.609375" y="8.125" width="30" height="34" fill="black">
<rect fill="white" x="0.609375" y="8.125" width="30" height="34"/>
<path d="M15.2493 9.125L28.8892 17V32.75L15.2493 40.625L1.60938 32.75V17L15.2493 9.125Z"/>
</mask>
<path d="M15.2493 9.125L15.6243 8.47548C15.3922 8.34151 15.1063 8.34151 14.8743 8.47548L15.2493 9.125ZM28.8892 17H29.6392C29.6392 16.7321 29.4962 16.4845 29.2642 16.3505L28.8892 17ZM28.8892 32.75L29.2642 33.3995C29.4962 33.2655 29.6392 33.018 29.6392 32.75H28.8892ZM15.2493 40.625L14.8743 41.2745C15.1063 41.4085 15.3922 41.4085 15.6243 41.2745L15.2493 40.625ZM1.60938 32.75H0.859375C0.859375 33.018 1.00232 33.2655 1.23438 33.3995L1.60938 32.75ZM1.60938 17L1.23438 16.3505C1.00232 16.4845 0.859375 16.7321 0.859375 17H1.60938ZM14.8743 9.77452L28.5142 17.6495L29.2642 16.3505L15.6243 8.47548L14.8743 9.77452ZM28.1392 17V32.75H29.6392V17H28.1392ZM28.5142 32.1005L14.8743 39.9755L15.6243 41.2745L29.2642 33.3995L28.5142 32.1005ZM15.6243 39.9755L1.98438 32.1005L1.23438 33.3995L14.8743 41.2745L15.6243 39.9755ZM2.35938 32.75V17H0.859375V32.75H2.35938ZM1.98438 17.6495L15.6243 9.77452L14.8743 8.47548L1.23438 16.3505L1.98438 17.6495Z" fill="#E5E7EB" mask="url(#path-8-outside-3_1_12900)"/>
<path d="M70.3913 24.1218C70.3913 24.3289 70.5592 24.4968 70.7663 24.4968C70.9734 24.4968 71.1413 24.3289 71.1413 24.1218H70.3913ZM70.7663 8.36015L70.5779 8.03593L70.3913 8.14437L70.3913 8.36015L70.7663 8.36015ZM84.5456 0.785368C84.7247 0.681298 84.7854 0.451776 84.6814 0.272715C84.5773 0.0936546 84.3478 0.0328628 84.1687 0.136933L84.5456 0.785368ZM70.6162 8.68463C70.7955 8.78825 71.0249 8.72687 71.1285 8.54755C71.2321 8.36822 71.1707 8.13885 70.9914 8.03524L70.6162 8.68463ZM57.3204 0.13624C57.1411 0.0326273 56.9117 0.0940042 56.8081 0.27333C56.7045 0.452655 56.7659 0.682022 56.9452 0.785635L57.3204 0.13624ZM71.1413 24.1218L71.1413 8.36015L70.3913 8.36015L70.3913 24.1218H71.1413ZM84.1687 0.136933L70.5779 8.03593L70.9547 8.68437L84.5456 0.785368L84.1687 0.136933ZM70.9914 8.03524L57.3204 0.13624L56.9452 0.785635L70.6162 8.68463L70.9914 8.03524Z" fill="#E5E7EB"/>
<mask id="path-11-outside-4_1_12900" maskUnits="userSpaceOnUse" x="56.1094" y="-8.375" width="30" height="34" fill="black">
<rect fill="white" x="56.1094" y="-8.375" width="30" height="34"/>
<path d="M70.7493 -7.375L84.3892 0.5V16.25L70.7493 24.125L57.1094 16.25V0.5L70.7493 -7.375Z"/>
</mask>
<path d="M70.7493 -7.375L71.1243 -8.02452C70.8922 -8.15849 70.6063 -8.15849 70.3743 -8.02452L70.7493 -7.375ZM84.3892 0.5H85.1392C85.1392 0.232051 84.9962 -0.0155444 84.7642 -0.149519L84.3892 0.5ZM84.3892 16.25L84.7642 16.8995C84.9962 16.7655 85.1392 16.518 85.1392 16.25H84.3892ZM70.7493 24.125L70.3743 24.7745C70.6063 24.9085 70.8922 24.9085 71.1243 24.7745L70.7493 24.125ZM57.1094 16.25H56.3594C56.3594 16.518 56.5023 16.7655 56.7344 16.8995L57.1094 16.25ZM57.1094 0.5L56.7344 -0.149519C56.5023 -0.0155444 56.3594 0.232051 56.3594 0.5H57.1094ZM70.3743 -6.72548L84.0142 1.14952L84.7642 -0.149519L71.1243 -8.02452L70.3743 -6.72548ZM83.6392 0.5V16.25H85.1392V0.5H83.6392ZM84.0142 15.6005L70.3743 23.4755L71.1243 24.7745L84.7642 16.8995L84.0142 15.6005ZM71.1243 23.4755L57.4844 15.6005L56.7344 16.8995L70.3743 24.7745L71.1243 23.4755ZM57.8594 16.25V0.5H56.3594V16.25H57.8594ZM57.4844 1.14952L71.1243 -6.72548L70.3743 -8.02452L56.7344 -0.149519L57.4844 1.14952Z" fill="#E5E7EB" mask="url(#path-11-outside-4_1_12900)"/>
<path d="M14.8913 72.8718C14.8913 73.0789 15.0592 73.2468 15.2663 73.2468C15.4734 73.2468 15.6413 73.0789 15.6413 72.8718H14.8913ZM15.2663 57.1102L15.0779 56.7859L14.8913 56.8944L14.8913 57.1102L15.2663 57.1102ZM29.0456 49.5354C29.2247 49.4313 29.2854 49.2018 29.1814 49.0227C29.0773 48.8437 28.8478 48.7829 28.6687 48.8869L29.0456 49.5354ZM15.1162 57.4346C15.2955 57.5382 15.5249 57.4769 15.6285 57.2975C15.7321 57.1182 15.6707 56.8889 15.4914 56.7852L15.1162 57.4346ZM1.82042 48.8862C1.6411 48.7826 1.41173 48.844 1.30812 49.0233C1.2045 49.2027 1.26588 49.432 1.4452 49.5356L1.82042 48.8862ZM15.6413 72.8718L15.6413 57.1102L14.8913 57.1102L14.8913 72.8718H15.6413ZM28.6687 48.8869L15.0779 56.7859L15.4547 57.4344L29.0456 49.5354L28.6687 48.8869ZM15.4914 56.7852L1.82042 48.8862L1.4452 49.5356L15.1162 57.4346L15.4914 56.7852Z" fill="#E5E7EB"/>
<mask id="path-14-outside-5_1_12900" maskUnits="userSpaceOnUse" x="0.609375" y="40.375" width="30" height="34" fill="black">
<rect fill="white" x="0.609375" y="40.375" width="30" height="34"/>
<path d="M15.2493 41.375L28.8892 49.25V65L15.2493 72.875L1.60938 65V49.25L15.2493 41.375Z"/>
</mask>
<path d="M15.2493 41.375L15.6243 40.7255C15.3922 40.5915 15.1063 40.5915 14.8743 40.7255L15.2493 41.375ZM28.8892 49.25H29.6392C29.6392 48.9821 29.4962 48.7345 29.2642 48.6005L28.8892 49.25ZM28.8892 65L29.2642 65.6495C29.4962 65.5155 29.6392 65.268 29.6392 65H28.8892ZM15.2493 72.875L14.8743 73.5245C15.1063 73.6585 15.3922 73.6585 15.6243 73.5245L15.2493 72.875ZM1.60938 65H0.859375C0.859375 65.268 1.00232 65.5155 1.23438 65.6495L1.60938 65ZM1.60938 49.25L1.23438 48.6005C1.00232 48.7345 0.859375 48.9821 0.859375 49.25H1.60938ZM14.8743 42.0245L28.5142 49.8995L29.2642 48.6005L15.6243 40.7255L14.8743 42.0245ZM28.1392 49.25V65H29.6392V49.25H28.1392ZM28.5142 64.3505L14.8743 72.2255L15.6243 73.5245L29.2642 65.6495L28.5142 64.3505ZM15.6243 72.2255L1.98438 64.3505L1.23438 65.6495L14.8743 73.5245L15.6243 72.2255ZM2.35938 65V49.25H0.859375V65H2.35938ZM1.98438 49.8995L15.6243 42.0245L14.8743 40.7255L1.23438 48.6005L1.98438 49.8995Z" fill="#E5E7EB" mask="url(#path-14-outside-5_1_12900)"/>
<path d="M56.5169 80.3787C56.5169 80.5859 56.6848 80.7537 56.8919 80.7537C57.099 80.7537 57.2669 80.5858 57.2669 80.3787L56.5169 80.3787ZM56.8919 64.9924L56.7031 64.6684L56.5169 64.7769L56.5169 64.9924L56.8919 64.9924ZM70.3139 57.6055C70.4928 57.5012 70.5534 57.2716 70.4491 57.0927C70.3448 56.9137 70.1152 56.8532 69.9363 56.9575L70.3139 57.6055ZM56.7404 65.3167C56.9196 65.4205 57.1491 65.3594 57.2529 65.1801C57.3567 65.0009 57.2956 64.7715 57.1164 64.6677L56.7404 65.3167ZM43.8052 56.9568C43.6259 56.8529 43.3965 56.9141 43.2927 57.0933C43.1889 57.2725 43.25 57.5019 43.4292 57.6057L43.8052 56.9568ZM57.2669 80.3787L57.2669 64.9924L56.5169 64.9924L56.5169 80.3787L57.2669 80.3787ZM69.9363 56.9575L56.7031 64.6684L57.0807 65.3164L70.3139 57.6055L69.9363 56.9575ZM57.1164 64.6677L43.8052 56.9568L43.4292 57.6057L56.7404 65.3167L57.1164 64.6677Z" fill="#E5E7EB"/>
<mask id="path-17-outside-6_1_12900" maskUnits="userSpaceOnUse" x="42.5938" y="48.625" width="29" height="33" fill="black">
<rect fill="white" x="42.5938" y="48.625" width="29" height="33"/>
<path d="M56.8747 49.625L70.1557 57.3125V72.6875L56.8747 80.375L43.5938 72.6875V57.3125L56.8747 49.625Z"/>
</mask>
<path d="M56.8747 49.625L57.2504 48.9759C57.018 48.8414 56.7314 48.8414 56.499 48.9759L56.8747 49.625ZM70.1557 57.3125H70.9057C70.9057 57.0448 70.763 56.7975 70.5314 56.6634L70.1557 57.3125ZM70.1557 72.6875L70.5314 73.3366C70.763 73.2025 70.9057 72.9552 70.9057 72.6875H70.1557ZM56.8747 80.375L56.499 81.0241C56.7314 81.1586 57.018 81.1586 57.2504 81.0241L56.8747 80.375ZM43.5938 72.6875H42.8438C42.8438 72.9552 42.9864 73.2025 43.218 73.3366L43.5938 72.6875ZM43.5938 57.3125L43.218 56.6634C42.9864 56.7975 42.8438 57.0448 42.8438 57.3125H43.5938ZM56.499 50.2741L69.7799 57.9616L70.5314 56.6634L57.2504 48.9759L56.499 50.2741ZM69.4057 57.3125V72.6875H70.9057V57.3125H69.4057ZM69.7799 72.0384L56.499 79.7259L57.2504 81.0241L70.5314 73.3366L69.7799 72.0384ZM57.2504 79.7259L43.9695 72.0384L43.218 73.3366L56.499 81.0241L57.2504 79.7259ZM44.3438 72.6875V57.3125H42.8438V72.6875H44.3438ZM43.9695 57.9616L57.2504 50.2741L56.499 48.9759L43.218 56.6634L43.9695 57.9616Z" fill="#E5E7EB" mask="url(#path-17-outside-6_1_12900)"/>
<path d="M70.3913 56.3718C70.3913 56.5789 70.5592 56.7468 70.7663 56.7468C70.9734 56.7468 71.1413 56.5789 71.1413 56.3718H70.3913ZM70.7663 40.6102L70.5779 40.2859L70.3913 40.3944L70.3913 40.6102L70.7663 40.6102ZM84.5456 33.0354C84.7247 32.9313 84.7854 32.7018 84.6814 32.5227C84.5773 32.3437 84.3478 32.2829 84.1687 32.3869L84.5456 33.0354ZM70.6162 40.9346C70.7955 41.0382 71.0249 40.9769 71.1285 40.7975C71.2321 40.6182 71.1707 40.3889 70.9914 40.2852L70.6162 40.9346ZM57.3204 32.3862C57.1411 32.2826 56.9117 32.344 56.8081 32.5233C56.7045 32.7027 56.7659 32.932 56.9452 33.0356L57.3204 32.3862ZM71.1413 56.3718L71.1413 40.6102L70.3913 40.6102L70.3913 56.3718H71.1413ZM84.1687 32.3869L70.5779 40.2859L70.9547 40.9344L84.5456 33.0354L84.1687 32.3869ZM70.9914 40.2852L57.3204 32.3862L56.9452 33.0356L70.6162 40.9346L70.9914 40.2852Z" fill="#E5E7EB"/>
<mask id="path-20-outside-7_1_12900" maskUnits="userSpaceOnUse" x="56.1094" y="23.875" width="30" height="34" fill="black">
<rect fill="white" x="56.1094" y="23.875" width="30" height="34"/>
<path d="M70.7493 24.875L84.3892 32.75V48.5L70.7493 56.375L57.1094 48.5V32.75L70.7493 24.875Z"/>
</mask>
<path d="M70.7493 24.875L71.1243 24.2255C70.8922 24.0915 70.6063 24.0915 70.3743 24.2255L70.7493 24.875ZM84.3892 32.75H85.1392C85.1392 32.4821 84.9962 32.2345 84.7642 32.1005L84.3892 32.75ZM84.3892 48.5L84.7642 49.1495C84.9962 49.0155 85.1392 48.768 85.1392 48.5H84.3892ZM70.7493 56.375L70.3743 57.0245C70.6063 57.1585 70.8922 57.1585 71.1243 57.0245L70.7493 56.375ZM57.1094 48.5H56.3594C56.3594 48.768 56.5023 49.0155 56.7344 49.1495L57.1094 48.5ZM57.1094 32.75L56.7344 32.1005C56.5023 32.2345 56.3594 32.4821 56.3594 32.75H57.1094ZM70.3743 25.5245L84.0142 33.3995L84.7642 32.1005L71.1243 24.2255L70.3743 25.5245ZM83.6392 32.75V48.5H85.1392V32.75H83.6392ZM84.0142 47.8505L70.3743 55.7255L71.1243 57.0245L84.7642 49.1495L84.0142 47.8505ZM71.1243 55.7255L57.4844 47.8505L56.7344 49.1495L70.3743 57.0245L71.1243 55.7255ZM57.8594 48.5V32.75H56.3594V48.5H57.8594ZM57.4844 33.3995L71.1243 25.5245L70.3743 24.2255L56.7344 32.1005L57.4844 33.3995Z" fill="#E5E7EB" mask="url(#path-20-outside-7_1_12900)"/>
</svg>
