<svg width="432" height="524" viewBox="0 0 432 524" fill="none" xmlns="http://www.w3.org/2000/svg">
<g filter="url(#filter0_f_4255_33286)">
<path d="M189.28 252.458C179.398 278.169 150.574 316.736 137.398 332.805C115.163 376.422 137.398 390.196 137.398 414.3C137.398 438.404 137.398 445.291 148.515 460.213C159.633 475.135 189.28 484.317 205.339 484.317C218.185 484.317 210.691 506.508 205.339 517.604L478.336 511.865C500.983 508.421 544.547 498.091 537.63 484.317C528.983 467.1 537.63 459.065 537.63 437.257C537.63 415.448 551.218 417.744 559.865 390.196C568.512 362.648 559.865 359.205 559.865 289.188C559.865 267.38 553.689 252.458 537.63 228.354C521.571 204.25 511.689 172.111 472.16 126.198C432.631 80.2853 444.984 94.0591 411.631 48.1464C378.278 2.23372 365.925 45.8508 335.043 69.955C304.161 94.0591 300.455 107.833 291.808 120.459C283.161 133.085 274.514 143.415 237.456 161.78C200.397 180.145 201.633 220.319 189.28 252.458Z" fill="#FFCF8C"/>
</g>
<defs>
<filter id="filter0_f_4255_33286" x="0.34581" y="-99.1698" width="690.535" height="743.941" filterUnits="userSpaceOnUse" color-interpolation-filters="sRGB">
<feFlood flood-opacity="0" result="BackgroundImageFix"/>
<feBlend mode="normal" in="SourceGraphic" in2="BackgroundImageFix" result="shape"/>
<feGaussianBlur stdDeviation="63.5849" result="effect1_foregroundBlur_4255_33286"/>
</filter>
</defs>
</svg>
