<svg width="245" height="25" viewBox="0 0 245 25" fill="none" xmlns="http://www.w3.org/2000/svg">
<path d="M0.0572358 0.463043H6.22894L12.7474 16.3662H13.0248L19.5432 0.463043H25.7149V24.1328H20.8607V8.72666H20.6643L14.5388 24.0172H11.2333L5.10787 8.66887H4.91139V24.1328H0.0572358V0.463043ZM33.9178 24.1328H28.5552L36.7263 0.463043H43.1754L51.335 24.1328H45.9723L40.0433 5.87195H39.8584L33.9178 24.1328ZM33.5827 14.829H46.2497V18.7355H33.5827V14.829ZM66.484 7.27041C66.3915 6.33811 65.9947 5.61384 65.2936 5.0976C64.5924 4.58137 63.6408 4.32325 62.4389 4.32325C61.6221 4.32325 60.9325 4.43882 60.3701 4.66997C59.8076 4.89342 59.3761 5.20547 59.0756 5.60613C58.7828 6.00679 58.6365 6.46139 58.6365 6.96992C58.621 7.39369 58.7096 7.76353 58.9023 8.07944C59.1026 8.39534 59.3761 8.66887 59.7229 8.90002C60.0696 9.12347 60.4702 9.31994 60.9248 9.48945C61.3794 9.65126 61.8648 9.78995 62.3811 9.90552L64.5077 10.4141C65.5401 10.6452 66.4878 10.9534 67.3508 11.3387C68.2138 11.7239 68.9612 12.1978 69.593 12.7602C70.2248 13.3227 70.714 13.9853 71.0608 14.7481C71.4152 15.5109 71.5963 16.3854 71.604 17.3717C71.5963 18.8202 71.2264 20.0761 70.4945 21.1394C69.7702 22.195 68.7223 23.0156 67.3508 23.6012C65.987 24.179 64.342 24.468 62.4158 24.468C60.5049 24.468 58.8406 24.1752 57.4229 23.5896C56.0129 23.004 54.9111 22.1372 54.1175 20.9892C53.3316 19.8334 52.9193 18.4041 52.8808 16.7013H57.7234C57.7773 17.495 58.0046 18.1576 58.4053 18.6892C58.8137 19.2132 59.3569 19.61 60.0349 19.8797C60.7207 20.1416 61.495 20.2726 62.358 20.2726C63.2055 20.2726 63.9413 20.1493 64.5655 19.9028C65.1973 19.6562 65.6865 19.3133 66.0333 18.8741C66.38 18.435 66.5533 17.9303 66.5533 17.3601C66.5533 16.8285 66.3954 16.3816 66.0795 16.0194C65.7713 15.6573 65.3167 15.3491 64.7157 15.0948C64.1224 14.8406 63.3943 14.6094 62.5313 14.4014L59.954 13.7542C57.9584 13.2688 56.3827 12.5098 55.227 11.4773C54.0712 10.4449 53.4972 9.05412 53.5049 7.30508C53.4972 5.87195 53.8786 4.61989 54.6491 3.5489C55.4273 2.4779 56.4945 1.64191 57.8505 1.04092C59.2066 0.439927 60.7476 0.139432 62.4735 0.139432C64.2303 0.139432 65.7636 0.439927 67.0734 1.04092C68.391 1.64191 69.4158 2.4779 70.1477 3.5489C70.8797 4.61989 71.2572 5.8604 71.2804 7.27041H66.484ZM74.0686 4.58907V0.463043H93.5083V4.58907H86.2618V24.1328H81.3152V4.58907H74.0686ZM96.7098 24.1328V0.463043H112.659V4.58907H101.714V10.2291H111.839V14.3552H101.714V20.0068H112.705V24.1328H96.7098ZM116.638 24.1328V0.463043H125.976C127.764 0.463043 129.289 0.7828 130.553 1.42232C131.824 2.05413 132.791 2.95176 133.454 4.11521C134.124 5.27096 134.459 6.6309 134.459 8.19501C134.459 9.76683 134.12 11.1191 133.442 12.2517C132.764 13.3766 131.782 14.2396 130.495 14.8406C129.216 15.4416 127.667 15.7421 125.849 15.7421H119.597V11.7201H125.04C125.996 11.7201 126.789 11.5891 127.421 11.3271C128.053 11.0651 128.523 10.6722 128.831 10.1482C129.147 9.62429 129.305 8.97322 129.305 8.19501C129.305 7.4091 129.147 6.74647 128.831 6.20712C128.523 5.66777 128.049 5.25941 127.409 4.98203C126.778 4.69694 125.98 4.5544 125.017 4.5544H121.642V24.1328H116.638ZM129.42 13.3612L135.303 24.1328H129.779L124.023 13.3612H129.42ZM158.88 8.74977H153.818C153.726 8.09485 153.537 7.51312 153.252 7.00459C152.967 6.48835 152.601 6.04917 152.154 5.68703C151.707 5.3249 151.191 5.04752 150.605 4.85489C150.027 4.66227 149.399 4.56596 148.721 4.56596C147.496 4.56596 146.429 4.8703 145.52 5.479C144.611 6.07999 143.906 6.95836 143.405 8.11411C142.904 9.26216 142.654 10.6568 142.654 12.2979C142.654 13.9853 142.904 15.403 143.405 16.5511C143.913 17.6991 144.622 18.5659 145.532 19.1515C146.441 19.7371 147.492 20.0299 148.687 20.0299C149.357 20.0299 149.977 19.9413 150.547 19.7641C151.125 19.5869 151.638 19.3287 152.085 18.9897C152.532 18.643 152.901 18.2231 153.194 17.73C153.495 17.2368 153.703 16.6744 153.818 16.0426L158.88 16.0657C158.749 17.1521 158.422 18.2 157.898 19.2093C157.382 20.211 156.685 21.1086 155.806 21.9022C154.935 22.6881 153.895 23.3122 152.686 23.7745C151.484 24.2291 150.124 24.4564 148.606 24.4564C146.495 24.4564 144.607 23.9787 142.943 23.0233C141.286 22.0679 139.976 20.6848 139.013 18.8741C138.058 17.0635 137.58 14.8714 137.58 12.2979C137.58 9.71675 138.065 7.52083 139.036 5.71015C140.007 3.89947 141.325 2.52028 142.989 1.57256C144.653 0.617143 146.525 0.139432 148.606 0.139432C149.977 0.139432 151.249 0.332057 152.42 0.717308C153.599 1.10256 154.643 1.66502 155.552 2.4047C156.461 3.13668 157.201 4.03431 157.771 5.0976C158.349 6.16089 158.719 7.37828 158.88 8.74977ZM162.469 24.1328V0.463043H167.473V20.0068H177.621V24.1328H162.469ZM185.619 24.1328H180.256L188.427 0.463043H194.876L203.036 24.1328H197.673L191.744 5.87195H191.559L185.619 24.1328ZM185.284 14.829H197.951V18.7355H185.284V14.829ZM218.185 7.27041C218.092 6.33811 217.696 5.61384 216.994 5.0976C216.293 4.58137 215.342 4.32325 214.14 4.32325C213.323 4.32325 212.633 4.43882 212.071 4.66997C211.509 4.89342 211.077 5.20547 210.777 5.60613C210.484 6.00679 210.337 6.46139 210.337 6.96992C210.322 7.39369 210.411 7.76353 210.603 8.07944C210.804 8.39534 211.077 8.66887 211.424 8.90002C211.771 9.12347 212.171 9.31994 212.626 9.48945C213.08 9.65126 213.566 9.78995 214.082 9.90552L216.209 10.4141C217.241 10.6452 218.189 10.9534 219.052 11.3387C219.915 11.7239 220.662 12.1978 221.294 12.7602C221.926 13.3227 222.415 13.9853 222.762 14.7481C223.116 15.5109 223.297 16.3854 223.305 17.3717C223.297 18.8202 222.927 20.0761 222.195 21.1394C221.471 22.195 220.423 23.0156 219.052 23.6012C217.688 24.179 216.043 24.468 214.117 24.468C212.206 24.468 210.542 24.1752 209.124 23.5896C207.714 23.004 206.612 22.1372 205.818 20.9892C205.032 19.8334 204.62 18.4041 204.582 16.7013H209.424C209.478 17.495 209.706 18.1576 210.106 18.6892C210.515 19.2132 211.058 19.61 211.736 19.8797C212.422 20.1416 213.196 20.2726 214.059 20.2726C214.906 20.2726 215.642 20.1493 216.266 19.9028C216.898 19.6562 217.387 19.3133 217.734 18.8741C218.081 18.435 218.254 17.9303 218.254 17.3601C218.254 16.8285 218.096 16.3816 217.78 16.0194C217.472 15.6573 217.018 15.3491 216.417 15.0948C215.823 14.8406 215.095 14.6094 214.232 14.4014L211.655 13.7542C209.659 13.2688 208.084 12.5098 206.928 11.4773C205.772 10.4449 205.198 9.05412 205.206 7.30508C205.198 5.87195 205.58 4.61989 206.35 3.5489C207.128 2.4779 208.195 1.64191 209.551 1.04092C210.908 0.439927 212.449 0.139432 214.174 0.139432C215.931 0.139432 217.464 0.439927 218.774 1.04092C220.092 1.64191 221.117 2.4779 221.849 3.5489C222.581 4.61989 222.958 5.8604 222.981 7.27041H218.185ZM239.511 7.27041C239.419 6.33811 239.022 5.61384 238.321 5.0976C237.62 4.58137 236.668 4.32325 235.466 4.32325C234.65 4.32325 233.96 4.43882 233.397 4.66997C232.835 4.89342 232.404 5.20547 232.103 5.60613C231.81 6.00679 231.664 6.46139 231.664 6.96992C231.648 7.39369 231.737 7.76353 231.93 8.07944C232.13 8.39534 232.404 8.66887 232.75 8.90002C233.097 9.12347 233.498 9.31994 233.952 9.48945C234.407 9.65126 234.892 9.78995 235.408 9.90552L237.535 10.4141C238.568 10.6452 239.515 10.9534 240.378 11.3387C241.241 11.7239 241.989 12.1978 242.62 12.7602C243.252 13.3227 243.741 13.9853 244.088 14.7481C244.443 15.5109 244.624 16.3854 244.631 17.3717C244.624 18.8202 244.254 20.0761 243.522 21.1394C242.798 22.195 241.75 23.0156 240.378 23.6012C239.014 24.179 237.369 24.468 235.443 24.468C233.532 24.468 231.868 24.1752 230.45 23.5896C229.04 23.004 227.938 22.1372 227.145 20.9892C226.359 19.8334 225.947 18.4041 225.908 16.7013H230.751C230.805 17.495 231.032 18.1576 231.433 18.6892C231.841 19.2132 232.384 19.61 233.062 19.8797C233.748 20.1416 234.522 20.2726 235.385 20.2726C236.233 20.2726 236.969 20.1493 237.593 19.9028C238.225 19.6562 238.714 19.3133 239.061 18.8741C239.407 18.435 239.581 17.9303 239.581 17.3601C239.581 16.8285 239.423 16.3816 239.107 16.0194C238.799 15.6573 238.344 15.3491 237.743 15.0948C237.15 14.8406 236.422 14.6094 235.559 14.4014L232.981 13.7542C230.986 13.2688 229.41 12.5098 228.254 11.4773C227.099 10.4449 226.525 9.05412 226.532 7.30508C226.525 5.87195 226.906 4.61989 227.677 3.5489C228.455 2.4779 229.522 1.64191 230.878 1.04092C232.234 0.439927 233.775 0.139432 235.501 0.139432C237.258 0.139432 238.791 0.439927 240.101 1.04092C241.418 1.64191 242.443 2.4779 243.175 3.5489C243.907 4.61989 244.285 5.8604 244.308 7.27041H239.511Z" fill="url(#paint0_linear_4255_33193)" fill-opacity="0.2"/>
<defs>
<linearGradient id="paint0_linear_4255_33193" x1="122" y1="1.78119" x2="122" y2="23.9175" gradientUnits="userSpaceOnUse">
<stop stop-color="white" stop-opacity="0"/>
<stop offset="1" stop-color="white"/>
</linearGradient>
</defs>
</svg>
