<svg width="245" height="25" viewBox="0 0 245 25" fill="none" xmlns="http://www.w3.org/2000/svg">
<path d="M0.0572358 0.33023H6.22894L12.7474 16.2334H13.0248L19.5432 0.33023H25.7149V24H20.8607V8.59385H20.6643L14.5388 23.8844H11.2333L5.10787 8.53606H4.91139V24H0.0572358V0.33023ZM33.9178 24H28.5552L36.7263 0.33023H43.1754L51.335 24H45.9723L40.0433 5.73914H39.8584L33.9178 24ZM33.5827 14.6962H46.2497V18.6026H33.5827V14.6962ZM66.484 7.1376C66.3915 6.20529 65.9947 5.48102 65.2936 4.96479C64.5924 4.44855 63.6408 4.19044 62.4389 4.19044C61.6221 4.19044 60.9325 4.30601 60.3701 4.53716C59.8076 4.76061 59.3761 5.07266 59.0756 5.47332C58.7828 5.87398 58.6365 6.32858 58.6365 6.83711C58.621 7.26088 58.7096 7.63072 58.9023 7.94663C59.1026 8.26253 59.3761 8.53606 59.7229 8.76721C60.0696 8.99065 60.4702 9.18713 60.9248 9.35664C61.3794 9.51845 61.8648 9.65714 62.3811 9.77271L64.5077 10.2812C65.5401 10.5124 66.4878 10.8206 67.3508 11.2058C68.2138 11.5911 68.9612 12.0649 69.593 12.6274C70.2248 13.1899 70.714 13.8525 71.0608 14.6153C71.4152 15.3781 71.5963 16.2526 71.604 17.2389C71.5963 18.6874 71.2264 19.9433 70.4945 21.0066C69.7702 22.0622 68.7223 22.8828 67.3508 23.4684C65.987 24.0462 64.342 24.3352 62.4158 24.3352C60.5049 24.3352 58.8406 24.0424 57.4229 23.4568C56.0129 22.8712 54.9111 22.0044 54.1175 20.8564C53.3316 19.7006 52.9193 18.2713 52.8808 16.5685H57.7234C57.7773 17.3621 58.0046 18.0248 58.4053 18.5564C58.8137 19.0804 59.3569 19.4772 60.0349 19.7468C60.7207 20.0088 61.495 20.1398 62.358 20.1398C63.2055 20.1398 63.9413 20.0165 64.5655 19.77C65.1973 19.5234 65.6865 19.1805 66.0333 18.7413C66.38 18.3022 66.5533 17.7975 66.5533 17.2273C66.5533 16.6957 66.3954 16.2488 66.0795 15.8866C65.7713 15.5245 65.3167 15.2163 64.7157 14.962C64.1224 14.7078 63.3943 14.4766 62.5313 14.2686L59.954 13.6214C57.9584 13.1359 56.3827 12.377 55.227 11.3445C54.0712 10.3121 53.4972 8.92131 53.5049 7.17227C53.4972 5.73914 53.8786 4.48708 54.6491 3.41608C55.4273 2.34509 56.4945 1.5091 57.8505 0.908105C59.2066 0.307115 60.7476 0.0066197 62.4735 0.0066197C64.2303 0.0066197 65.7636 0.307115 67.0734 0.908105C68.391 1.5091 69.4158 2.34509 70.1477 3.41608C70.8797 4.48708 71.2572 5.72758 71.2804 7.1376H66.484ZM74.0686 4.45626V0.33023H93.5083V4.45626H86.2618V24H81.3152V4.45626H74.0686ZM96.7098 24V0.33023H112.659V4.45626H101.714V10.0963H111.839V14.2224H101.714V19.874H112.705V24H96.7098ZM116.638 24V0.33023H125.976C127.764 0.33023 129.289 0.649988 130.553 1.2895C131.824 1.92131 132.791 2.81895 133.454 3.9824C134.124 5.13815 134.459 6.49808 134.459 8.0622C134.459 9.63402 134.12 10.9862 133.442 12.1189C132.764 13.2438 131.782 14.1068 130.495 14.7078C129.216 15.3088 127.667 15.6093 125.849 15.6093H119.597V11.5872H125.04C125.996 11.5872 126.789 11.4563 127.421 11.1943C128.053 10.9323 128.523 10.5394 128.831 10.0154C129.147 9.49148 129.305 8.84041 129.305 8.0622C129.305 7.27629 129.147 6.61366 128.831 6.07431C128.523 5.53496 128.049 5.12659 127.409 4.84921C126.778 4.56413 125.98 4.42159 125.017 4.42159H121.642V24H116.638ZM129.42 13.2284L135.303 24H129.779L124.023 13.2284H129.42ZM158.88 8.61696H153.818C153.726 7.96204 153.537 7.38031 153.252 6.87178C152.967 6.35554 152.601 5.91636 152.154 5.55422C151.707 5.19209 151.191 4.91471 150.605 4.72208C150.027 4.52946 149.399 4.43315 148.721 4.43315C147.496 4.43315 146.429 4.73749 145.52 5.34619C144.611 5.94718 143.906 6.82555 143.405 7.9813C142.904 9.12934 142.654 10.5239 142.654 12.1651C142.654 13.8525 142.904 15.2702 143.405 16.4183C143.913 17.5663 144.622 18.4331 145.532 19.0187C146.441 19.6043 147.492 19.8971 148.687 19.8971C149.357 19.8971 149.977 19.8085 150.547 19.6313C151.125 19.454 151.638 19.1959 152.085 18.8569C152.532 18.5102 152.901 18.0903 153.194 17.5971C153.495 17.104 153.703 16.5416 153.818 15.9097L158.88 15.9329C158.749 17.0193 158.422 18.0671 157.898 19.0765C157.382 20.0782 156.685 20.9758 155.806 21.7694C154.935 22.5553 153.895 23.1794 152.686 23.6417C151.484 24.0963 150.124 24.3236 148.606 24.3236C146.495 24.3236 144.607 23.8459 142.943 22.8905C141.286 21.9351 139.976 20.552 139.013 18.7413C138.058 16.9307 137.58 14.7386 137.58 12.1651C137.58 9.58394 138.065 7.38801 139.036 5.57734C140.007 3.76666 141.325 2.38747 142.989 1.43975C144.653 0.48433 146.525 0.0066197 148.606 0.0066197C149.977 0.0066197 151.249 0.199245 152.42 0.584495C153.599 0.969745 154.643 1.53221 155.552 2.27189C156.461 3.00387 157.201 3.9015 157.771 4.96479C158.349 6.02808 158.719 7.24547 158.88 8.61696ZM162.469 24V0.33023H167.473V19.874H177.621V24H162.469ZM185.619 24H180.256L188.427 0.33023H194.876L203.036 24H197.673L191.744 5.73914H191.559L185.619 24ZM185.284 14.6962H197.951V18.6026H185.284V14.6962ZM218.185 7.1376C218.092 6.20529 217.696 5.48102 216.994 4.96479C216.293 4.44855 215.342 4.19044 214.14 4.19044C213.323 4.19044 212.633 4.30601 212.071 4.53716C211.509 4.76061 211.077 5.07266 210.777 5.47332C210.484 5.87398 210.337 6.32858 210.337 6.83711C210.322 7.26088 210.411 7.63072 210.603 7.94663C210.804 8.26253 211.077 8.53606 211.424 8.76721C211.771 8.99065 212.171 9.18713 212.626 9.35664C213.08 9.51845 213.566 9.65714 214.082 9.77271L216.209 10.2812C217.241 10.5124 218.189 10.8206 219.052 11.2058C219.915 11.5911 220.662 12.0649 221.294 12.6274C221.926 13.1899 222.415 13.8525 222.762 14.6153C223.116 15.3781 223.297 16.2526 223.305 17.2389C223.297 18.6874 222.927 19.9433 222.195 21.0066C221.471 22.0622 220.423 22.8828 219.052 23.4684C217.688 24.0462 216.043 24.3352 214.117 24.3352C212.206 24.3352 210.542 24.0424 209.124 23.4568C207.714 22.8712 206.612 22.0044 205.818 20.8564C205.032 19.7006 204.62 18.2713 204.582 16.5685H209.424C209.478 17.3621 209.706 18.0248 210.106 18.5564C210.515 19.0804 211.058 19.4772 211.736 19.7468C212.422 20.0088 213.196 20.1398 214.059 20.1398C214.906 20.1398 215.642 20.0165 216.266 19.77C216.898 19.5234 217.387 19.1805 217.734 18.7413C218.081 18.3022 218.254 17.7975 218.254 17.2273C218.254 16.6957 218.096 16.2488 217.78 15.8866C217.472 15.5245 217.018 15.2163 216.417 14.962C215.823 14.7078 215.095 14.4766 214.232 14.2686L211.655 13.6214C209.659 13.1359 208.084 12.377 206.928 11.3445C205.772 10.3121 205.198 8.92131 205.206 7.17227C205.198 5.73914 205.58 4.48708 206.35 3.41608C207.128 2.34509 208.195 1.5091 209.551 0.908105C210.908 0.307115 212.449 0.0066197 214.174 0.0066197C215.931 0.0066197 217.464 0.307115 218.774 0.908105C220.092 1.5091 221.117 2.34509 221.849 3.41608C222.581 4.48708 222.958 5.72758 222.981 7.1376H218.185ZM239.511 7.1376C239.419 6.20529 239.022 5.48102 238.321 4.96479C237.62 4.44855 236.668 4.19044 235.466 4.19044C234.65 4.19044 233.96 4.30601 233.397 4.53716C232.835 4.76061 232.404 5.07266 232.103 5.47332C231.81 5.87398 231.664 6.32858 231.664 6.83711C231.648 7.26088 231.737 7.63072 231.93 7.94663C232.13 8.26253 232.404 8.53606 232.75 8.76721C233.097 8.99065 233.498 9.18713 233.952 9.35664C234.407 9.51845 234.892 9.65714 235.408 9.77271L237.535 10.2812C238.568 10.5124 239.515 10.8206 240.378 11.2058C241.241 11.5911 241.989 12.0649 242.62 12.6274C243.252 13.1899 243.741 13.8525 244.088 14.6153C244.443 15.3781 244.624 16.2526 244.631 17.2389C244.624 18.6874 244.254 19.9433 243.522 21.0066C242.798 22.0622 241.75 22.8828 240.378 23.4684C239.014 24.0462 237.369 24.3352 235.443 24.3352C233.532 24.3352 231.868 24.0424 230.45 23.4568C229.04 22.8712 227.938 22.0044 227.145 20.8564C226.359 19.7006 225.947 18.2713 225.908 16.5685H230.751C230.805 17.3621 231.032 18.0248 231.433 18.5564C231.841 19.0804 232.384 19.4772 233.062 19.7468C233.748 20.0088 234.522 20.1398 235.385 20.1398C236.233 20.1398 236.969 20.0165 237.593 19.77C238.225 19.5234 238.714 19.1805 239.061 18.7413C239.407 18.3022 239.581 17.7975 239.581 17.2273C239.581 16.6957 239.423 16.2488 239.107 15.8866C238.799 15.5245 238.344 15.2163 237.743 14.962C237.15 14.7078 236.422 14.4766 235.559 14.2686L232.981 13.6214C230.986 13.1359 229.41 12.377 228.254 11.3445C227.099 10.3121 226.525 8.92131 226.532 7.17227C226.525 5.73914 226.906 4.48708 227.677 3.41608C228.455 2.34509 229.522 1.5091 230.878 0.908105C232.234 0.307115 233.775 0.0066197 235.501 0.0066197C237.258 0.0066197 238.791 0.307115 240.101 0.908105C241.418 1.5091 242.443 2.34509 243.175 3.41608C243.907 4.48708 244.285 5.72758 244.308 7.1376H239.511Z" fill="url(#paint0_linear_4255_33192)" fill-opacity="0.2"/>
<defs>
<linearGradient id="paint0_linear_4255_33192" x1="122" y1="1.64838" x2="122" y2="23.7847" gradientUnits="userSpaceOnUse">
<stop stop-color="white"/>
<stop offset="1" stop-color="white" stop-opacity="0"/>
</linearGradient>
</defs>
</svg>
