<svg width="1600" height="901" viewBox="0 0 1600 901" fill="none" xmlns="http://www.w3.org/2000/svg">
<mask id="mask0_4255_33121" style="mask-type:alpha" maskUnits="userSpaceOnUse" x="0" y="0" width="1600" height="901">
<rect y="0.5" width="1600" height="900" fill="#D9D9D9"/>
</mask>
<g mask="url(#mask0_4255_33121)">
<mask id="mask1_4255_33121" style="mask-type:alpha" maskUnits="userSpaceOnUse" x="0" y="-222" width="1600" height="1123">
<rect y="-222" width="1600" height="1123" fill="url(#paint0_radial_4255_33121)"/>
</mask>
<g mask="url(#mask1_4255_33121)">
<rect x="0.633663" y="-0.633663" width="150.812" height="150.812" transform="matrix(1 0 0 -1 100.031 747.436)" stroke="#00AEFF" stroke-width="1.26733"/>
<rect x="0.633663" y="-0.633663" width="150.812" height="150.812" transform="matrix(1 0 0 -1 250.844 747.436)" stroke="#00AEFF" stroke-width="1.26733"/>
<rect x="0.633663" y="-0.633663" width="150.812" height="150.812" transform="matrix(1 0 0 -1 401.656 747.436)" stroke="#00AEFF" stroke-width="1.26733"/>
<rect x="0.633663" y="-0.633663" width="150.812" height="150.812" transform="matrix(1 0 0 -1 552.469 747.436)" stroke="#00AEFF" stroke-width="1.26733"/>
<rect x="0.633663" y="-0.633663" width="150.812" height="150.812" transform="matrix(1 0 0 -1 703.281 747.436)" stroke="#00AEFF" stroke-width="1.26733"/>
<rect x="0.633663" y="-0.633663" width="150.812" height="150.812" transform="matrix(1 0 0 -1 854.094 747.436)" stroke="#00AEFF" stroke-width="1.26733"/>
<rect x="0.633663" y="-0.633663" width="150.812" height="150.812" transform="matrix(1 0 0 -1 1004.91 747.436)" stroke="#00AEFF" stroke-width="1.26733"/>
<rect x="0.633663" y="-0.633663" width="150.812" height="150.812" transform="matrix(1 0 0 -1 1155.71 747.436)" stroke="#00AEFF" stroke-width="1.26733"/>
<rect x="0.633663" y="-0.633663" width="150.812" height="150.812" transform="matrix(1 0 0 -1 100.031 596.623)" stroke="#00AEFF" stroke-width="1.26733"/>
<rect x="0.633663" y="-0.633663" width="150.812" height="150.812" transform="matrix(1 0 0 -1 250.844 596.623)" fill="#00AEFF" fill-opacity="0.2" stroke="#00AEFF" stroke-width="1.26733"/>
<rect x="0.633663" y="-0.633663" width="150.812" height="150.812" transform="matrix(1 0 0 -1 401.656 596.623)" stroke="#00AEFF" stroke-width="1.26733"/>
<rect x="0.633663" y="-0.633663" width="150.812" height="150.812" transform="matrix(1 0 0 -1 552.469 596.623)" stroke="#00AEFF" stroke-width="1.26733"/>
<rect x="0.633663" y="-0.633663" width="150.812" height="150.812" transform="matrix(1 0 0 -1 703.281 596.623)" stroke="#00AEFF" stroke-width="1.26733"/>
<rect x="0.633663" y="-0.633663" width="150.812" height="150.812" transform="matrix(1 0 0 -1 854.094 596.623)" fill="#00AEFF" fill-opacity="0.2" stroke="#00AEFF" stroke-width="1.26733"/>
<rect x="0.633663" y="-0.633663" width="150.812" height="150.812" transform="matrix(1 0 0 -1 1004.91 596.623)" stroke="#00AEFF" stroke-width="1.26733"/>
<rect x="0.633663" y="-0.633663" width="150.812" height="150.812" transform="matrix(1 0 0 -1 1155.71 596.623)" stroke="#00AEFF" stroke-width="1.26733"/>
<rect x="0.633663" y="-0.633663" width="150.812" height="150.812" transform="matrix(1 0 0 -1 100.031 445.811)" stroke="#00AEFF" stroke-width="1.26733"/>
<rect x="0.633663" y="-0.633663" width="150.812" height="150.812" transform="matrix(1 0 0 -1 250.844 445.811)" stroke="#00AEFF" stroke-width="1.26733"/>
<rect x="0.633663" y="-0.633663" width="150.812" height="150.812" transform="matrix(1 0 0 -1 401.656 445.811)" stroke="#00AEFF" stroke-width="1.26733"/>
<rect x="0.633663" y="-0.633663" width="150.812" height="150.812" transform="matrix(1 0 0 -1 552.469 445.811)" fill="#00AEFF" fill-opacity="0.2" stroke="#00AEFF" stroke-width="1.26733"/>
<rect x="0.633663" y="-0.633663" width="150.812" height="150.812" transform="matrix(1 0 0 -1 703.281 445.811)" stroke="#00AEFF" stroke-width="1.26733"/>
<rect x="0.633663" y="-0.633663" width="150.812" height="150.812" transform="matrix(1 0 0 -1 854.094 445.811)" stroke="#00AEFF" stroke-width="1.26733"/>
<rect x="0.633663" y="-0.633663" width="150.812" height="150.812" transform="matrix(1 0 0 -1 1004.91 445.811)" stroke="#00AEFF" stroke-width="1.26733"/>
<rect x="0.633663" y="-0.633663" width="150.812" height="150.812" transform="matrix(1 0 0 -1 1155.71 445.811)" stroke="#00AEFF" stroke-width="1.26733"/>
<rect x="0.633663" y="-0.633663" width="150.812" height="150.812" transform="matrix(1 0 0 -1 100.031 294.998)" stroke="#00AEFF" stroke-width="1.26733"/>
<rect x="0.633663" y="-0.633663" width="150.812" height="150.812" transform="matrix(1 0 0 -1 250.844 294.998)" stroke="#00AEFF" stroke-width="1.26733"/>
<rect x="0.633663" y="-0.633663" width="150.812" height="150.812" transform="matrix(1 0 0 -1 401.656 294.998)" fill="#00AEFF" fill-opacity="0.2" stroke="#00AEFF" stroke-width="1.26733"/>
<rect x="0.633663" y="-0.633663" width="150.812" height="150.812" transform="matrix(1 0 0 -1 552.469 294.998)" stroke="#00AEFF" stroke-width="1.26733"/>
<rect x="0.633663" y="-0.633663" width="150.812" height="150.812" transform="matrix(1 0 0 -1 703.281 294.998)" fill="#00AEFF" fill-opacity="0.2" stroke="#00AEFF" stroke-width="1.26733"/>
<rect x="0.633663" y="-0.633663" width="150.812" height="150.812" transform="matrix(1 0 0 -1 854.094 294.998)" stroke="#00AEFF" stroke-width="1.26733"/>
<rect x="0.633663" y="-0.633663" width="150.812" height="150.812" transform="matrix(1 0 0 -1 1004.91 294.998)" fill="#00AEFF" fill-opacity="0.2" stroke="#00AEFF" stroke-width="1.26733"/>
<rect x="0.633663" y="-0.633663" width="150.812" height="150.812" transform="matrix(1 0 0 -1 1155.71 294.998)" stroke="#00AEFF" stroke-width="1.26733"/>
<rect x="0.633663" y="-0.633663" width="150.812" height="150.812" transform="matrix(1 0 0 -1 100.031 144.186)" stroke="#00AEFF" stroke-width="1.26733"/>
<rect x="0.633663" y="-0.633663" width="150.812" height="150.812" transform="matrix(1 0 0 -1 250.844 144.186)" stroke="#00AEFF" stroke-width="1.26733"/>
<rect x="0.633663" y="-0.633663" width="150.812" height="150.812" transform="matrix(1 0 0 -1 401.656 144.186)" fill="#00AEFF" fill-opacity="0.2" stroke="#00AEFF" stroke-width="1.26733"/>
<rect x="0.633663" y="-0.633663" width="150.812" height="150.812" transform="matrix(1 0 0 -1 552.469 144.186)" stroke="#00AEFF" stroke-width="1.26733"/>
<rect x="0.633663" y="-0.633663" width="150.812" height="150.812" transform="matrix(1 0 0 -1 703.281 144.186)" stroke="#00AEFF" stroke-width="1.26733"/>
<rect x="0.633663" y="-0.633663" width="150.812" height="150.812" transform="matrix(1 0 0 -1 854.094 144.186)" stroke="#00AEFF" stroke-width="1.26733"/>
<rect x="0.633663" y="-0.633663" width="150.812" height="150.812" transform="matrix(1 0 0 -1 1004.91 144.186)" stroke="#00AEFF" stroke-width="1.26733"/>
<rect x="0.633663" y="-0.633663" width="150.812" height="150.812" transform="matrix(1 0 0 -1 1155.71 144.186)" stroke="#00AEFF" stroke-width="1.26733"/>
</g>
</g>
<defs>
<radialGradient id="paint0_radial_4255_33121" cx="0" cy="0" r="1" gradientUnits="userSpaceOnUse" gradientTransform="translate(800 339.5) rotate(90) scale(492.702 701.98)">
<stop stop-opacity="0.2"/>
<stop offset="1" stop-opacity="0"/>
</radialGradient>
</defs>
</svg>
