<svg width="397" height="356" viewBox="0 0 397 356" fill="none" xmlns="http://www.w3.org/2000/svg">
<g opacity="0.1">
<path d="M0.500014 320.9L33.5 320.9L33.5 355.5L0.500015 355.5L0.500014 320.9ZM33.5 319.9L0.500014 319.9L0.500012 285.3L33.5 285.3L33.5 319.9ZM33.5 284.3L0.500012 284.3L0.500011 249.7L33.5 249.7L33.5 284.3ZM33.5 248.7L0.500011 248.7L0.500009 214.1L33.5 214.1L33.5 248.7ZM33.5 213.1L0.500009 213.1L0.500008 178.5L33.5 178.5L33.5 213.1ZM33.5 177.5L0.500008 177.5L0.500006 142.9L33.5 142.9L33.5 177.5ZM33.5 141.9L0.500006 141.9L0.500005 107.3L33.5 107.3L33.5 141.9ZM33.5 106.3L0.500005 106.3L0.500003 71.7L33.5 71.7L33.5 106.3ZM33.5 70.7L0.500003 70.7L0.500002 36.1L33.5 36.1L33.5 70.7ZM33.5 35.1L0.500002 35.1L0.5 0.5L33.5 0.499998L33.5 35.1Z" stroke="url(#paint0_linear_72_23)"/>
<path d="M33.5 320.9L66.5001 320.9L66.5001 355.5L33.5 355.5L33.5 320.9ZM66.5001 319.9L33.5 319.9L33.5 285.3L66.5001 285.3L66.5001 319.9ZM66.5001 284.3L33.5 284.3L33.5 249.7L66.5001 249.7L66.5001 284.3ZM66.5001 248.7L33.5 248.7L33.5 214.1L66.5001 214.1L66.5001 248.7ZM66.5001 213.1L33.5 213.1L33.5 178.5L66.5001 178.5L66.5001 213.1ZM66.5001 177.5L33.5 177.5L33.5 142.9L66.5001 142.9L66.5001 177.5ZM66.5001 141.9L33.5 141.9L33.5 107.3L66.5001 107.3L66.5001 141.9ZM66.5001 106.3L33.5 106.3L33.5 71.7L66.5 71.7L66.5001 106.3ZM66.5 70.7L33.5 70.7L33.5 36.1L66.5 36.1L66.5 70.7ZM66.5 35.1L33.5 35.1L33.5 0.5L66.5 0.499998L66.5 35.1Z" stroke="url(#paint1_linear_72_23)"/>
<path d="M66.5001 320.9L99.5001 320.9L99.5001 355.5L66.5001 355.5L66.5001 320.9ZM99.5001 319.9L66.5001 319.9L66.5001 285.3L99.5001 285.3L99.5001 319.9ZM99.5001 284.3L66.5001 284.3L66.5001 249.7L99.5001 249.7L99.5001 284.3ZM99.5001 248.7L66.5001 248.7L66.5001 214.1L99.5001 214.1L99.5001 248.7ZM99.5001 213.1L66.5001 213.1L66.5001 178.5L99.5001 178.5L99.5001 213.1ZM99.5001 177.5L66.5001 177.5L66.5001 142.9L99.5001 142.9L99.5001 177.5ZM99.5001 141.9L66.5001 141.9L66.5001 107.3L99.5001 107.3L99.5001 141.9ZM99.5001 106.3L66.5001 106.3L66.5001 71.7L99.5001 71.7L99.5001 106.3ZM99.5001 70.7L66.5001 70.7L66.5001 36.1L99.5001 36.1L99.5001 70.7ZM99.5001 35.1L66.5001 35.1L66.5001 0.5L99.5001 0.499998L99.5001 35.1Z" stroke="url(#paint2_linear_72_23)"/>
<path d="M99.5001 320.9L132.5 320.9L132.5 355.5L99.5001 355.5L99.5001 320.9ZM132.5 319.9L99.5001 319.9L99.5001 285.3L132.5 285.3L132.5 319.9ZM132.5 284.3L99.5001 284.3L99.5001 249.7L132.5 249.7L132.5 284.3ZM132.5 248.7L99.5001 248.7L99.5001 214.1L132.5 214.1L132.5 248.7ZM132.5 213.1L99.5001 213.1L99.5001 178.5L132.5 178.5L132.5 213.1ZM132.5 177.5L99.5001 177.5L99.5001 142.9L132.5 142.9L132.5 177.5ZM132.5 141.9L99.5001 141.9L99.5001 107.3L132.5 107.3L132.5 141.9ZM132.5 106.3L99.5001 106.3L99.5001 71.7L132.5 71.7L132.5 106.3ZM132.5 70.7L99.5001 70.7L99.5001 36.1L132.5 36.1L132.5 70.7ZM132.5 35.1L99.5001 35.1L99.5001 0.5L132.5 0.499998L132.5 35.1Z" stroke="url(#paint3_linear_72_23)"/>
<path d="M132.5 320.9L165.5 320.9L165.5 355.5L132.5 355.5L132.5 320.9ZM165.5 319.9L132.5 319.9L132.5 285.3L165.5 285.3L165.5 319.9ZM165.5 284.3L132.5 284.3L132.5 249.7L165.5 249.7L165.5 284.3ZM165.5 248.7L132.5 248.7L132.5 214.1L165.5 214.1L165.5 248.7ZM165.5 213.1L132.5 213.1L132.5 178.5L165.5 178.5L165.5 213.1ZM165.5 177.5L132.5 177.5L132.5 142.9L165.5 142.9L165.5 177.5ZM165.5 141.9L132.5 141.9L132.5 107.3L165.5 107.3L165.5 141.9ZM165.5 106.3L132.5 106.3L132.5 71.7L165.5 71.7L165.5 106.3ZM165.5 70.7L132.5 70.7L132.5 36.1L165.5 36.1L165.5 70.7ZM165.5 35.1L132.5 35.1L132.5 0.5L165.5 0.499998L165.5 35.1Z" stroke="url(#paint4_linear_72_23)"/>
<path d="M165.5 320.9L198.5 320.9L198.5 355.5L165.5 355.5L165.5 320.9ZM198.5 319.9L165.5 319.9L165.5 285.3L198.5 285.3L198.5 319.9ZM198.5 284.3L165.5 284.3L165.5 249.7L198.5 249.7L198.5 284.3ZM198.5 248.7L165.5 248.7L165.5 214.1L198.5 214.1L198.5 248.7ZM198.5 213.1L165.5 213.1L165.5 178.5L198.5 178.5L198.5 213.1ZM198.5 177.5L165.5 177.5L165.5 142.9L198.5 142.9L198.5 177.5ZM198.5 141.9L165.5 141.9L165.5 107.3L198.5 107.3L198.5 141.9ZM198.5 106.3L165.5 106.3L165.5 71.7L198.5 71.7L198.5 106.3ZM198.5 70.7L165.5 70.7L165.5 36.1L198.5 36.1L198.5 70.7ZM198.5 35.1L165.5 35.1L165.5 0.5L198.5 0.499998L198.5 35.1Z" stroke="url(#paint5_linear_72_23)"/>
<path d="M198.5 320.9L231.5 320.9L231.5 355.5L198.5 355.5L198.5 320.9ZM231.5 319.9L198.5 319.9L198.5 285.3L231.5 285.3L231.5 319.9ZM231.5 284.3L198.5 284.3L198.5 249.7L231.5 249.7L231.5 284.3ZM231.5 248.7L198.5 248.7L198.5 214.1L231.5 214.1L231.5 248.7ZM231.5 213.1L198.5 213.1L198.5 178.5L231.5 178.5L231.5 213.1ZM231.5 177.5L198.5 177.5L198.5 142.9L231.5 142.9L231.5 177.5ZM231.5 141.9L198.5 141.9L198.5 107.3L231.5 107.3L231.5 141.9ZM231.5 106.3L198.5 106.3L198.5 71.7L231.5 71.7L231.5 106.3ZM231.5 70.7L198.5 70.7L198.5 36.1L231.5 36.1L231.5 70.7ZM231.5 35.1L198.5 35.1L198.5 0.5L231.5 0.499998L231.5 35.1Z" stroke="url(#paint6_linear_72_23)"/>
<path d="M231.5 320.9L264.5 320.9L264.5 355.5L231.5 355.5L231.5 320.9ZM264.5 319.9L231.5 319.9L231.5 285.3L264.5 285.3L264.5 319.9ZM264.5 284.3L231.5 284.3L231.5 249.7L264.5 249.7L264.5 284.3ZM264.5 248.7L231.5 248.7L231.5 214.1L264.5 214.1L264.5 248.7ZM264.5 213.1L231.5 213.1L231.5 178.5L264.5 178.5L264.5 213.1ZM264.5 177.5L231.5 177.5L231.5 142.9L264.5 142.9L264.5 177.5ZM264.5 141.9L231.5 141.9L231.5 107.3L264.5 107.3L264.5 141.9ZM264.5 106.3L231.5 106.3L231.5 71.7L264.5 71.7L264.5 106.3ZM264.5 70.7L231.5 70.7L231.5 36.1L264.5 36.1L264.5 70.7ZM264.5 35.1L231.5 35.1L231.5 0.5L264.5 0.499998L264.5 35.1Z" stroke="url(#paint7_linear_72_23)"/>
<path d="M264.5 320.9L297.5 320.9L297.5 355.5L264.5 355.5L264.5 320.9ZM297.5 319.9L264.5 319.9L264.5 285.3L297.5 285.3L297.5 319.9ZM297.5 284.3L264.5 284.3L264.5 249.7L297.5 249.7L297.5 284.3ZM297.5 248.7L264.5 248.7L264.5 214.1L297.5 214.1L297.5 248.7ZM297.5 213.1L264.5 213.1L264.5 178.5L297.5 178.5L297.5 213.1ZM297.5 177.5L264.5 177.5L264.5 142.9L297.5 142.9L297.5 177.5ZM297.5 141.9L264.5 141.9L264.5 107.3L297.5 107.3L297.5 141.9ZM297.5 106.3L264.5 106.3L264.5 71.7L297.5 71.7L297.5 106.3ZM297.5 70.7L264.5 70.7L264.5 36.1L297.5 36.1L297.5 70.7ZM297.5 35.1L264.5 35.1L264.5 0.5L297.5 0.499998L297.5 35.1Z" stroke="url(#paint8_linear_72_23)"/>
<path d="M297.5 320.9L330.5 320.9L330.5 355.5L297.5 355.5L297.5 320.9ZM330.5 319.9L297.5 319.9L297.5 285.3L330.5 285.3L330.5 319.9ZM330.5 284.3L297.5 284.3L297.5 249.7L330.5 249.7L330.5 284.3ZM330.5 248.7L297.5 248.7L297.5 214.1L330.5 214.1L330.5 248.7ZM330.5 213.1L297.5 213.1L297.5 178.5L330.5 178.5L330.5 213.1ZM330.5 177.5L297.5 177.5L297.5 142.9L330.5 142.9L330.5 177.5ZM330.5 141.9L297.5 141.9L297.5 107.3L330.5 107.3L330.5 141.9ZM330.5 106.3L297.5 106.3L297.5 71.7L330.5 71.7L330.5 106.3ZM330.5 70.7L297.5 70.7L297.5 36.1L330.5 36.1L330.5 70.7ZM330.5 35.1L297.5 35.1L297.5 0.5L330.5 0.499998L330.5 35.1Z" stroke="url(#paint9_linear_72_23)"/>
<path d="M330.5 320.9L363.5 320.9L363.5 355.5L330.5 355.5L330.5 320.9ZM363.5 319.9L330.5 319.9L330.5 285.3L363.5 285.3L363.5 319.9ZM363.5 284.3L330.5 284.3L330.5 249.7L363.5 249.7L363.5 284.3ZM363.5 248.7L330.5 248.7L330.5 214.1L363.5 214.1L363.5 248.7ZM363.5 213.1L330.5 213.1L330.5 178.5L363.5 178.5L363.5 213.1ZM363.5 177.5L330.5 177.5L330.5 142.9L363.5 142.9L363.5 177.5ZM363.5 141.9L330.5 141.9L330.5 107.3L363.5 107.3L363.5 141.9ZM363.5 106.3L330.5 106.3L330.5 71.7L363.5 71.7L363.5 106.3ZM363.5 70.7L330.5 70.7L330.5 36.1L363.5 36.1L363.5 70.7ZM363.5 35.1L330.5 35.1L330.5 0.5L363.5 0.499998L363.5 35.1Z" stroke="url(#paint10_linear_72_23)"/>
<path d="M363.5 285.3L396.5 285.3L396.5 319.9L363.5 319.9L363.5 285.3ZM396.5 284.3L363.5 284.3L363.5 249.7L396.5 249.7L396.5 284.3ZM396.5 248.7L363.5 248.7L363.5 214.1L396.5 214.1L396.5 248.7ZM396.5 213.1L363.5 213.1L363.5 178.5L396.5 178.5L396.5 213.1ZM396.5 177.5L363.5 177.5L363.5 142.9L396.5 142.9L396.5 177.5ZM396.5 141.9L363.5 141.9L363.5 107.3L396.5 107.3L396.5 141.9ZM396.5 106.3L363.5 106.3L363.5 71.7L396.5 71.7L396.5 106.3ZM396.5 70.7L363.5 70.7L363.5 36.1L396.5 36.1L396.5 70.7ZM396.5 35.1L363.5 35.1L363.5 0.5L396.5 0.499998L396.5 35.1Z" stroke="url(#paint11_linear_72_23)"/>
</g>
<defs>
<linearGradient id="paint0_linear_72_23" x1="17" y1="356" x2="17" y2="-7.78063e-07" gradientUnits="userSpaceOnUse">
<stop offset="0.48" stop-color="white"/>
<stop offset="1" stop-color="white" stop-opacity="0"/>
</linearGradient>
<linearGradient id="paint1_linear_72_23" x1="50.0001" y1="356" x2="50" y2="-7.78063e-07" gradientUnits="userSpaceOnUse">
<stop offset="0.48" stop-color="white"/>
<stop offset="1" stop-color="white" stop-opacity="0"/>
</linearGradient>
<linearGradient id="paint2_linear_72_23" x1="83.0001" y1="356" x2="83.0001" y2="-7.78063e-07" gradientUnits="userSpaceOnUse">
<stop offset="0.48" stop-color="white"/>
<stop offset="1" stop-color="white" stop-opacity="0"/>
</linearGradient>
<linearGradient id="paint3_linear_72_23" x1="116" y1="356" x2="116" y2="-7.78063e-07" gradientUnits="userSpaceOnUse">
<stop offset="0.48" stop-color="white"/>
<stop offset="1" stop-color="white" stop-opacity="0"/>
</linearGradient>
<linearGradient id="paint4_linear_72_23" x1="149" y1="356" x2="149" y2="-7.78063e-07" gradientUnits="userSpaceOnUse">
<stop offset="0.48" stop-color="white"/>
<stop offset="1" stop-color="white" stop-opacity="0"/>
</linearGradient>
<linearGradient id="paint5_linear_72_23" x1="182" y1="356" x2="182" y2="-7.78063e-07" gradientUnits="userSpaceOnUse">
<stop offset="0.48" stop-color="white"/>
<stop offset="1" stop-color="white" stop-opacity="0"/>
</linearGradient>
<linearGradient id="paint6_linear_72_23" x1="215" y1="356" x2="215" y2="-7.78063e-07" gradientUnits="userSpaceOnUse">
<stop offset="0.48" stop-color="white"/>
<stop offset="1" stop-color="white" stop-opacity="0"/>
</linearGradient>
<linearGradient id="paint7_linear_72_23" x1="248" y1="356" x2="248" y2="-7.78063e-07" gradientUnits="userSpaceOnUse">
<stop offset="0.48" stop-color="white"/>
<stop offset="1" stop-color="white" stop-opacity="0"/>
</linearGradient>
<linearGradient id="paint8_linear_72_23" x1="281" y1="356" x2="281" y2="-7.78063e-07" gradientUnits="userSpaceOnUse">
<stop offset="0.48" stop-color="white"/>
<stop offset="1" stop-color="white" stop-opacity="0"/>
</linearGradient>
<linearGradient id="paint9_linear_72_23" x1="314" y1="356" x2="314" y2="-7.78063e-07" gradientUnits="userSpaceOnUse">
<stop offset="0.48" stop-color="white"/>
<stop offset="1" stop-color="white" stop-opacity="0"/>
</linearGradient>
<linearGradient id="paint10_linear_72_23" x1="347" y1="356" x2="347" y2="-7.78063e-07" gradientUnits="userSpaceOnUse">
<stop offset="0.48" stop-color="white"/>
<stop offset="1" stop-color="white" stop-opacity="0"/>
</linearGradient>
<linearGradient id="paint11_linear_72_23" x1="380" y1="356" x2="380" y2="-7.78063e-07" gradientUnits="userSpaceOnUse">
<stop offset="0.48" stop-color="white"/>
<stop offset="1" stop-color="white" stop-opacity="0"/>
</linearGradient>
</defs>
</svg>
