<svg width="24" height="25" viewBox="0 0 24 25" fill="none" xmlns="http://www.w3.org/2000/svg">
<path d="M8 11.2266C7.44772 11.2266 7 11.6743 7 12.2266C7 12.7788 7.44772 13.2266 8 13.2266V11.2266ZM16 13.2266C16.5523 13.2266 17 12.7788 17 12.2266C17 11.6743 16.5523 11.2266 16 11.2266V13.2266ZM21 12.2266C21 17.1971 16.9706 21.2266 12 21.2266V23.2266C18.0751 23.2266 23 18.3017 23 12.2266H21ZM12 21.2266C7.02944 21.2266 3 17.1971 3 12.2266H1C1 18.3017 5.92487 23.2266 12 23.2266V21.2266ZM3 12.2266C3 7.256 7.02944 3.22656 12 3.22656V1.22656C5.92487 1.22656 1 6.15143 1 12.2266H3ZM12 3.22656C16.9706 3.22656 21 7.256 21 12.2266H23C23 6.15143 18.0751 1.22656 12 1.22656V3.22656ZM8 13.2266H16V11.2266H8V13.2266Z" fill="#111827"/>
</svg>
