<svg width="390" height="430" viewBox="0 0 390 430" fill="none" xmlns="http://www.w3.org/2000/svg">
<path opacity="0.08" d="M264.608 123.226C275.34 123.214 285.238 128.855 290.594 138.036L344.747 230.857C350.131 240.086 350.108 251.488 344.688 260.755L290.437 353.513C285.017 362.781 275.025 368.501 264.237 368.513L155.729 368.628C144.996 368.64 135.099 362.999 129.743 353.818L75.5901 260.997C70.206 251.768 70.2284 240.366 75.6488 231.099L129.9 138.341C135.32 129.073 145.312 123.353 156.1 123.341L264.608 123.226Z" fill="url(#paint0_linear_1_39)"/>
<path opacity="0.08" d="M117.477 57.0974C106.763 57.0952 96.8847 62.7251 91.5297 71.8854L42.1329 156.383C36.736 165.615 36.7534 177.029 42.1784 186.304L91.453 270.554C96.8781 279.83 106.882 285.551 117.68 285.553L216.508 285.573C227.222 285.575 237.1 279.945 242.455 270.785L291.852 186.287C297.249 177.055 297.231 165.642 291.806 156.366L242.532 72.1166C237.107 62.8408 227.103 57.1193 216.305 57.1172L117.477 57.0974Z" fill="url(#paint1_linear_1_39)"/>
<defs>
<linearGradient id="paint0_linear_1_39" x1="345.837" y1="258.79" x2="95.3069" y2="237.841" gradientUnits="userSpaceOnUse">
<stop stop-color="#688AFF"/>
<stop offset="1" stop-color="white" stop-opacity="0"/>
</linearGradient>
<linearGradient id="paint1_linear_1_39" x1="40.4944" y1="183.425" x2="274.117" y2="164.075" gradientUnits="userSpaceOnUse">
<stop stop-color="#688AFF"/>
<stop offset="1" stop-color="white" stop-opacity="0"/>
</linearGradient>
</defs>
</svg>
