<svg width="354" height="402" viewBox="0 0 354 402" fill="none" xmlns="http://www.w3.org/2000/svg">
<path opacity="0.08" d="M8.59962 111.744C3.27534 121.063 3.27533 132.455 8.59961 141.655L62.4284 234.664C67.7802 243.911 77.6975 249.537 88.4333 249.417L195.884 248.214C206.62 248.094 216.537 242.245 221.889 232.878L275.718 138.663C281.042 129.344 281.042 117.952 275.718 108.753L221.889 15.7439C216.537 6.49663 206.62 0.870175 195.884 0.990407L88.4332 2.19377C77.6975 2.314 67.7802 8.16256 62.4284 17.5297L8.59962 111.744Z" fill="url(#paint0_linear_1_42)"/>
<path opacity="0.08" d="M77.5996 262.744C72.2753 272.063 72.2753 283.455 77.5996 292.655L131.428 385.664C136.78 394.911 146.698 400.537 157.433 400.417L264.884 399.214C275.62 399.093 285.537 393.245 290.889 383.878L344.718 289.663C350.042 280.344 350.042 268.952 344.718 259.753L290.889 166.744C285.537 157.497 275.62 151.87 264.884 151.99L157.433 153.194C146.697 153.314 136.78 159.163 131.428 168.53L77.5996 262.744Z" fill="url(#paint1_linear_1_42)"/>
<defs>
<linearGradient id="paint0_linear_1_42" x1="86.1569" y1="249.443" x2="192.008" y2="21.4079" gradientUnits="userSpaceOnUse">
<stop stop-color="#688AFF"/>
<stop offset="1" stop-color="white" stop-opacity="0"/>
</linearGradient>
<linearGradient id="paint1_linear_1_42" x1="155.157" y1="400.443" x2="261.008" y2="172.408" gradientUnits="userSpaceOnUse">
<stop stop-color="#688AFF"/>
<stop offset="1" stop-color="white" stop-opacity="0"/>
</linearGradient>
</defs>
</svg>
