<svg width="16" height="16" viewBox="0 0 16 16" fill="none" xmlns="http://www.w3.org/2000/svg">
<path d="M8 16C12.4183 16 16 12.4183 16 8C16 3.58172 12.4183 0 8 0C3.58172 0 0 3.58172 0 8C0 12.4183 3.58172 16 8 16Z" fill="#FDB035"/>
<path fill-rule="evenodd" clip-rule="evenodd" d="M11.3617 6.16949C11.5523 6.38824 11.545 6.73484 11.3452 6.94365L7.67855 10.7765C7.48534 10.9785 7.18128 10.9785 6.98807 10.7765L5.15476 8.86009C4.95501 8.65128 4.94765 8.30469 5.13832 8.08594C5.32899 7.86719 5.64549 7.85914 5.84524 8.06794L7.33332 9.62349L10.6548 6.15148C10.8545 5.94268 11.171 5.95074 11.3617 6.16949Z" fill="white"/>
</svg>
