<svg width="118" height="48" viewBox="0 0 118 48" fill="none" xmlns="http://www.w3.org/2000/svg">
<path d="M9.20455 38.9981C9.68532 38.8136 10.0745 38.5177 10.3722 38.1106C10.6742 37.7018 10.8957 37.236 11.0367 36.7132C11.182 36.1888 11.2504 35.6549 11.2419 35.1114C11.2361 34.5621 11.1649 34.0524 11.0285 33.5825C10.9841 33.4287 10.9357 33.2837 10.8835 33.1475C10.645 32.5264 10.3167 32.0715 9.89839 31.783C9.47421 31.4918 9.02174 31.4385 8.54096 31.6231C8.12827 31.7815 7.84212 32.0597 7.68251 32.4578C7.52127 32.8517 7.49435 33.233 7.60175 33.6018C7.82047 34.3623 7.75752 34.8088 7.41289 34.941C7.11082 35.057 6.74481 34.8729 6.31487 34.3887C6.156 35.1575 6.25643 36.1758 6.61616 37.4436C6.63967 37.5175 6.66449 37.5885 6.69062 37.6566C6.80657 37.9587 6.98078 38.2408 7.21324 38.5031C7.44996 38.7637 7.74317 38.9489 8.09286 39.0587C8.44682 39.167 8.81738 39.1467 9.20455 38.9981ZM9.60754 40.4104C9.05444 40.6227 8.53496 40.7001 8.04912 40.6425C7.56327 40.5849 7.12036 40.423 6.72038 40.1567C6.32465 39.8888 5.98296 39.5391 5.69531 39.1077C5.49887 38.8121 5.33286 38.4878 5.19731 38.1346C5.13852 37.9815 5.08529 37.8237 5.03763 37.6614C4.90934 37.2127 4.81379 36.7222 4.751 36.1898C4.69245 35.6558 4.67416 35.1185 4.69611 34.578C4.71806 34.0375 4.78826 33.5273 4.90669 33.0474C5.02513 32.5675 5.19423 32.156 5.414 31.8129C5.63378 31.4698 5.91385 31.2329 6.25422 31.1023C6.48822 31.0125 6.70448 31.0417 6.90299 31.1901C7.23338 30.8045 7.62195 30.526 8.06868 30.3545C8.43458 30.2141 8.83348 30.1342 9.26539 30.1148C9.82098 30.0871 10.3128 30.1985 10.741 30.4491C11.1675 30.6954 11.52 31.0287 11.7985 31.449C12.0008 31.7472 12.1657 32.0623 12.293 32.3941C12.3437 32.526 12.3879 32.6603 12.4258 32.7971C12.7382 33.8781 12.8035 35.0148 12.6218 36.2073C12.5278 36.8145 12.3589 37.3919 12.1152 37.9395C11.5794 39.1507 10.7435 39.9744 9.60754 40.4104ZM21.146 35.9813C20.7333 36.1397 20.269 35.6614 19.7531 34.5463C19.5558 34.1339 19.3697 33.7 19.195 33.2448C19.115 33.0363 19.0384 32.8241 18.9652 32.6081C19.0213 35.3104 18.4389 36.896 17.2178 37.3647C16.6647 37.577 16.1842 37.5588 15.7764 37.3102C15.3728 37.06 15.0442 36.6809 14.7906 36.1729C14.6514 35.8993 14.5271 35.6199 14.4177 35.3349C14.3246 35.0924 14.2422 34.8458 14.1703 34.5951C13.854 33.4912 13.6634 32.2952 13.5985 31.007C13.5613 30.2744 13.7385 29.833 14.1299 29.6827C14.4873 29.5455 14.7468 29.6875 14.9085 30.1088C14.9281 30.1598 14.9464 30.2138 14.9634 30.2708C14.9947 30.3905 15.0174 30.5258 15.0313 30.6767C15.1267 31.9679 15.3281 33.1475 15.6356 34.2157C15.7179 34.5063 15.8023 34.7643 15.8888 34.9898C16.2057 35.8152 16.5385 36.161 16.8874 36.027C17.3469 35.8507 17.6388 34.9771 17.7632 33.4063C17.8698 32.0816 17.8595 30.5478 17.7324 28.8051C17.6759 28.1239 17.837 27.7106 18.2157 27.5652C18.6028 27.4166 18.8871 27.5784 19.0684 28.0507C19.088 28.1017 19.1062 28.1557 19.1232 28.2127C19.6397 29.9524 20.1437 31.4625 20.6353 32.7432C20.8819 33.3856 21.1251 33.9684 21.3649 34.4914L21.4115 34.6126C21.4425 34.6935 21.469 34.7687 21.4908 34.8384C21.6652 35.4452 21.5502 35.8261 21.146 35.9813ZM25.1395 26.4891C25.0507 26.6647 24.9351 26.8531 24.7926 27.0542C23.7364 28.5629 23.3322 29.748 23.58 30.6097C23.881 31.6608 24.0486 32.2311 24.0829 32.3204C24.305 32.8991 24.4265 33.2283 24.4474 33.3082C24.67 34.0916 24.5367 34.5772 24.0474 34.765C23.6177 34.93 23.2493 34.6125 22.9423 33.8127L22.9325 33.7871C22.7538 33.309 22.4952 32.5906 22.1565 31.6321C21.6467 30.2022 21.3167 29.2281 21.1665 28.7097C20.8535 27.6144 20.9288 26.9777 21.3926 26.7997C21.7627 26.6576 22.1136 27.0184 22.4451 27.8821C22.5088 28.048 22.5727 28.2334 22.6366 28.4383C23.1116 26.6744 23.7958 25.6209 24.6893 25.278C24.8424 25.2192 24.9745 25.2198 25.0853 25.2797C25.1903 25.337 25.2632 25.4189 25.3041 25.5252L25.3163 25.5572C25.3888 25.8222 25.3298 26.1329 25.1395 26.4891ZM32.1853 31.6632C31.8918 31.7759 31.6227 31.679 31.3782 31.3726C31.2526 31.2109 31.0976 30.8897 30.913 30.4089C30.6387 29.6941 30.2989 28.631 29.8938 27.2196C29.5814 26.1386 29.3335 25.2257 29.1501 24.4809C28.9843 23.8075 29.1291 23.3833 29.5843 23.2086C29.98 23.0567 30.2709 23.2233 30.4571 23.7083C30.4783 23.7636 30.4991 23.824 30.5193 23.8895L31.456 27.2643C31.5265 26.4561 31.5863 25.8743 31.6353 25.5186C31.8678 23.7843 32.3627 22.7718 33.12 22.4811C33.337 22.3978 33.5835 22.3789 33.8596 22.4242C34.3841 22.506 34.8346 22.7895 35.2112 23.2746C35.3377 22.5232 35.5534 21.8961 35.8583 21.3934C36.1659 20.8848 36.5473 20.5431 37.0025 20.3684C37.1132 20.3259 37.2287 20.2962 37.3491 20.2793C37.909 20.1864 38.3994 20.3448 38.8202 20.7544C39.2394 21.1597 39.5731 21.654 39.8214 22.2372C39.9099 22.4424 39.9926 22.645 40.0693 22.845C40.2098 23.2109 40.3272 23.5612 40.4215 23.896C40.6677 24.7534 40.8395 25.5954 40.9372 26.422C41.06 27.6196 40.8768 28.3123 40.3876 28.5001C40.2387 28.5573 40.09 28.5387 39.9415 28.4443C39.8155 28.3706 39.7175 28.2423 39.6473 28.0594C39.6326 28.0211 39.6192 27.9798 39.6071 27.9357C39.5611 27.7776 39.5332 27.5906 39.5235 27.3746C39.4881 26.5193 39.3377 25.6252 39.0723 24.6922C38.9561 24.2877 38.8122 23.8621 38.6408 23.4153C38.4693 22.9686 38.2741 22.5554 38.0551 22.1757C37.8345 21.7917 37.6348 21.6341 37.4561 21.7027C37.1583 21.817 36.9386 22.1283 36.7969 22.6367C36.6578 23.1392 36.566 23.7138 36.5214 24.3607C36.4794 25.0016 36.5032 25.6295 36.5928 26.2444C36.6931 26.9381 36.7567 27.5361 36.7835 28.0383C36.8049 28.323 36.7893 28.5877 36.7368 28.8324C36.6827 29.0729 36.5301 29.2413 36.2791 29.3376C35.9132 29.4781 35.6585 29.444 35.515 29.2355C35.4271 29.1082 35.3561 28.9743 35.3022 28.8339C35.2827 28.7828 35.2652 28.731 35.2498 28.6783C35.1699 28.4063 35.1125 28.0281 35.0778 27.5435C35.0318 26.9021 34.9498 26.3771 34.832 25.9684C34.7811 25.7975 34.6996 25.5725 34.5875 25.2934C34.4798 25.0125 34.3188 24.6887 34.1048 24.3218C33.8891 23.9506 33.6961 23.7976 33.5259 23.863C33.1047 24.0247 32.8459 25.0417 32.7494 26.9142C32.7116 27.6805 32.6963 28.2892 32.7036 28.7404L32.7282 30.1588C32.7322 31.0213 32.5512 31.5228 32.1853 31.6632ZM42.9424 22.8331C44.9678 21.8018 45.8026 20.6638 45.4468 19.4189L45.4247 19.3614C45.3284 19.1104 45.1254 18.976 44.8159 18.9581C44.6324 18.9505 44.4449 18.9834 44.2534 19.0569C44.0577 19.132 43.8588 19.2498 43.6568 19.4103C43.2545 19.7356 42.9802 20.1973 42.8339 20.7953C42.6875 21.3933 42.7237 22.0726 42.9424 22.8331ZM45.8427 26.2304C44.4174 26.7775 43.261 26.4354 42.3735 25.2043C42.1261 24.8648 41.9117 24.4589 41.7304 23.9867C41.6504 23.7782 41.5769 23.555 41.51 23.3171C41.2606 22.4512 41.1983 21.6721 41.3231 20.9798C41.484 20.0638 41.814 19.3465 42.313 18.8279C42.8162 18.3076 43.3359 17.9446 43.8719 17.7388C43.9826 17.6964 44.0956 17.6603 44.2111 17.6306C44.8755 17.4537 45.4435 17.4773 45.9151 17.7014C46.3338 17.9019 46.6256 18.2171 46.7906 18.6468C46.8134 18.7063 46.8342 18.7667 46.8528 18.8279C47.412 20.7807 46.2704 22.4929 43.4281 23.9647C43.58 24.2335 43.7433 24.449 43.9179 24.6114C44.4068 25.0584 44.9342 25.1732 45.5 24.956C45.9808 24.7715 46.361 24.3375 46.6405 23.6542C46.9866 22.8136 47.266 22.3524 47.4787 22.2707C47.7 22.1858 47.8571 22.2646 47.9502 22.5071C47.96 22.5327 47.9685 22.5611 47.9757 22.5925C48.0645 22.9002 48.0212 23.3342 47.8457 23.8945C47.7172 24.31 47.5455 24.6956 47.3306 25.0515C47.0109 25.5794 46.515 25.9723 45.8427 26.2304ZM56.318 22.7512C55.9564 22.89 55.6898 22.736 55.5184 22.2893C55.4988 22.2383 55.4797 22.1821 55.4611 22.1209C55.4062 21.9272 55.3258 21.5651 55.2198 21.0346C55.1138 20.5042 54.9405 19.8238 54.6999 18.9936C54.633 18.7557 54.5595 18.5325 54.4795 18.324C54.246 17.7156 53.959 17.2351 53.6186 16.8825C53.2207 16.469 52.8941 16.3112 52.6388 16.4092C52.4559 16.4794 52.3017 16.6753 52.1761 16.9969C51.8864 17.7427 51.7039 18.6914 51.6285 19.8431C51.5793 20.5161 51.5601 21.0384 51.571 21.4101C51.596 22.7723 51.6001 23.5078 51.5833 23.6168C51.5173 24.0424 51.3417 24.3099 51.0566 24.4193C50.6354 24.581 50.2634 24.2796 49.9407 23.5151C49.8103 23.2136 49.6709 22.8693 49.5222 22.4822C49.292 21.8823 48.9959 21.0538 48.6341 19.9967C48.2765 18.938 48.0908 18.3844 48.0771 18.336C47.8552 17.5669 47.9654 17.0975 48.4079 16.9276C48.8461 16.7594 49.1885 16.9965 49.4351 17.639L49.4645 17.7155C49.6118 18.1374 49.8912 18.9796 50.3026 20.2422C50.3025 19.8859 50.3313 19.4013 50.389 18.7885C50.4466 18.1757 50.6053 17.5144 50.8649 16.8046C51.2176 15.854 51.7002 15.2611 52.3129 15.0259C53.1298 14.7124 53.9128 14.9463 54.6619 15.7278C55.0899 16.1689 55.413 16.6355 55.6312 17.1277C55.7273 17.3398 55.8121 17.5416 55.8855 17.733C55.9819 17.9841 56.0595 18.2179 56.1182 18.4345C56.4378 19.5469 56.6551 20.5325 56.77 21.3915C56.8729 22.1428 56.7222 22.596 56.318 22.7512ZM61.1297 20.56C60.6915 20.7282 60.2346 20.7206 59.759 20.537C59.3262 20.3761 58.9753 20.047 58.7064 19.5499C58.5538 19.2667 58.4162 18.9656 58.2937 18.6465C58.2023 18.4083 58.119 18.1595 58.0439 17.9004C57.9617 17.6098 57.8816 17.2866 57.8036 16.9309C57.5997 17.0482 57.4488 17.1257 57.3509 17.1632C57.0786 17.2677 56.8561 17.2921 56.6834 17.2364C56.5241 17.1902 56.4224 17.1096 56.3783 16.9947L56.366 16.9628C56.2701 16.6238 56.5501 16.2405 57.2061 15.813L57.5532 15.5918C57.4391 14.9132 57.3338 14.1555 57.2372 13.3188C57.19 12.878 57.1425 12.4935 57.0946 12.1653C57.0099 11.5632 57.1591 11.1887 57.542 11.0417C57.9674 10.8784 58.2643 11.0158 58.4325 11.4541C58.4505 11.5009 58.4663 11.5485 58.48 11.5969C58.5237 11.7363 58.5718 12.0523 58.6242 12.5447C58.7205 13.3425 58.8208 14.0679 58.925 14.7211C59.7404 14.2128 60.263 13.9146 60.4927 13.8264C60.7863 13.7137 61.0194 13.6853 61.1922 13.741C61.3312 13.7853 61.4203 13.8585 61.4595 13.9606L61.4693 13.9861C61.4935 14.0745 61.4873 14.1793 61.4509 14.3007C61.3673 14.5915 61.0779 14.893 60.5826 15.2051L59.1685 16.0994C59.2713 16.6213 59.378 17.071 59.4886 17.4483C59.5605 17.699 59.6364 17.9286 59.7164 18.137C59.7785 18.2987 59.8436 18.4494 59.9119 18.5892C60.1688 19.1057 60.461 19.301 60.7886 19.1753C61.0566 19.0724 61.3012 18.8321 61.5223 18.4543C61.7755 18.0203 62.0255 17.7559 62.2723 17.6612C62.6339 17.5224 62.876 17.6125 62.9985 17.9316C63.0083 17.9571 63.0159 17.9835 63.0215 18.0106C63.0884 18.2486 63.0301 18.5418 62.8467 18.8905C62.3913 19.739 61.819 20.2955 61.1297 20.56ZM66.8961 16.7357C67.3854 16.5479 67.7071 16.1778 67.8613 15.6256C68.018 15.0676 68.0619 14.565 67.9928 14.118C67.9264 13.6651 67.8597 13.3197 67.7928 13.0818C67.7533 12.9408 67.7082 12.8043 67.6576 12.6724C67.5776 12.4639 67.4835 12.2633 67.3753 12.0705C67.088 11.5511 66.7812 11.2222 66.4547 11.0839C66.1325 10.944 65.8374 10.9255 65.5694 11.0284C65.1992 11.1704 65.0767 11.4616 65.2017 11.9017C65.234 12.0114 65.2665 12.1087 65.2992 12.1938C65.3302 12.2746 65.3606 12.3411 65.3903 12.3931C65.4384 12.4674 65.4771 12.5429 65.5065 12.6195C65.5179 12.6492 65.5272 12.6798 65.5344 12.7113C65.6369 13.0673 65.5031 13.3164 65.1329 13.4585C64.7357 13.5426 64.4496 13.3571 64.2749 12.9018L64.2626 12.8699C64.0829 13.4954 64.1189 14.2504 64.3706 15.135C64.4029 15.2446 64.4395 15.3526 64.4803 15.459C64.6387 15.8717 64.8569 16.2175 65.1348 16.4965C65.573 16.9385 66.1601 17.0182 66.8961 16.7357ZM67.2171 18.2014C66.2386 18.577 65.391 18.5436 64.6744 18.1011C64.0821 17.728 63.6646 17.2952 63.4218 16.8026C63.2662 16.4864 63.1419 16.2071 63.0488 15.9645C62.9966 15.8284 62.9543 15.7055 62.922 15.5959C62.7986 15.16 62.7241 14.7053 62.6986 14.2318C62.6734 13.6703 62.7225 13.1243 62.8459 12.5937C62.9811 12.0683 63.2592 11.7247 63.6805 11.563C63.7125 10.6672 64.2326 10.0258 65.241 9.6387C65.5601 9.51622 65.8677 9.45916 66.1638 9.46754C66.6899 9.49013 67.1622 9.66517 67.5808 9.99264C68.002 10.3142 68.3448 10.705 68.6092 11.1648C68.7936 11.4797 68.9445 11.7903 69.0621 12.0967C69.1193 12.2456 69.1684 12.3927 69.2096 12.538C69.4168 13.2687 69.5117 14.0182 69.4942 14.7865C69.4525 16.4964 68.6935 17.6347 67.2171 18.2014ZM73.859 7.78774C73.7702 7.96338 73.6546 8.15177 73.5122 8.3529C72.456 9.86155 72.0517 11.0467 72.2995 11.9084C72.6005 12.9595 72.7681 13.5298 72.8024 13.6191C73.0245 14.1977 73.146 14.527 73.1669 14.6068C73.3895 15.3903 73.2562 15.8759 72.7669 16.0637C72.3372 16.2287 71.9688 15.9112 71.6618 15.1114L71.652 15.0858C71.4734 14.6077 71.2147 13.8893 70.876 12.9307C70.3662 11.5009 70.0362 10.5268 69.8861 10.0084C69.573 8.91307 69.6484 8.2764 70.1121 8.09838C70.4823 7.9563 70.8331 8.3171 71.1646 9.18079C71.2283 9.34672 71.2922 9.53211 71.3562 9.73698C71.8311 7.97306 72.5153 6.91962 73.4088 6.57666C73.562 6.51786 73.694 6.51844 73.8049 6.57839C73.9098 6.63572 73.9828 6.71756 74.0236 6.82393L74.0358 6.85584C74.1083 7.12091 74.0494 7.43155 73.859 7.78774Z" fill="white"/>
<path d="M87.4979 30.5594C90.4999 35.6324 91.9126 41.7351 87.5 42.5625C83.803 43.2557 83.7365 36.0472 87.4979 30.5594Z" fill="#0C1E5E"/>
<path d="M80.3037 22.5702C79.7557 22.5017 79.2559 22.8904 79.1874 23.4385C79.1189 23.9865 79.5076 24.4863 80.0557 24.5548L80.3037 22.5702ZM87.5 42.5625L87.6843 43.5454L87.6843 43.5454L87.5 42.5625ZM116.557 34.5609C117.108 34.5297 117.53 34.0574 117.498 33.506L116.99 24.5204C116.959 23.969 116.486 23.5473 115.935 23.5785C115.383 23.6097 114.962 24.082 114.993 24.6334L115.445 32.6206L107.458 33.0727C106.906 33.1039 106.485 33.5762 106.516 34.1276C106.547 34.679 107.019 35.1007 107.571 35.0695L116.557 34.5609ZM80.0557 24.5548C80.8258 24.651 81.9191 25.2935 83.1673 26.5201C84.3777 27.7095 85.6006 29.3167 86.6373 31.0686L88.3586 30.0501C87.252 28.1801 85.9266 26.4276 84.5691 25.0936C83.2494 23.7967 81.7552 22.7517 80.3037 22.5702L80.0557 24.5548ZM86.6373 31.0686C88.1006 33.5414 89.1224 36.1828 89.2825 38.231C89.3622 39.252 89.22 40.0247 88.9164 40.5531C88.6365 41.0401 88.1636 41.4206 87.3157 41.5796L87.6843 43.5454C89.0427 43.2907 90.0479 42.5981 90.6504 41.5496C91.2291 40.5425 91.3734 39.3173 91.2764 38.0752C91.0827 35.5969 89.8972 32.6504 88.3586 30.0501L86.6373 31.0686ZM87.3157 41.5796C87.012 41.6366 86.8049 41.603 86.6605 41.5444C86.5158 41.4856 86.3693 41.3752 86.2288 41.1757C85.9288 40.7494 85.706 39.9784 85.7021 38.8753C85.6943 36.6964 86.5453 33.7181 88.3228 31.1247L86.6731 29.994C84.6892 32.8885 83.6927 36.2583 83.7021 38.8824C83.7067 40.1807 83.9586 41.4248 84.5933 42.3267C84.9202 42.7912 85.356 43.1732 85.9078 43.3973C86.46 43.6216 87.0637 43.6617 87.6843 43.5454L87.3157 41.5796ZM88.3228 31.1247C90.3752 28.1303 93.5909 25.7437 98.0203 25.6227C102.485 25.5008 108.402 27.6727 115.834 34.3084L117.166 32.8166C109.538 26.0055 103.143 23.4821 97.9657 23.6235C92.7537 23.7658 88.9986 26.6011 86.6731 29.994L88.3228 31.1247Z" fill="#FFB500"/>
</svg>
