<svg width="107" height="37" viewBox="0 0 107 37" fill="none" xmlns="http://www.w3.org/2000/svg">
<path d="M72.94 2.11835C72.8509 2.29458 72.7349 2.48359 72.592 2.68539C71.5323 4.19907 71.1267 5.38818 71.3753 6.25271C71.6773 7.30736 71.8455 7.87951 71.8799 7.96915C72.1027 8.54971 72.2246 8.88004 72.2456 8.96016C72.469 9.74622 72.3352 10.2335 71.8443 10.4219C71.4132 10.5874 71.0435 10.2689 70.7355 9.46636L70.7257 9.44075C70.5464 8.961 70.2869 8.24025 69.9471 7.27848C69.4356 5.84387 69.1045 4.86651 68.9538 4.34641C68.6397 3.24743 68.7153 2.60864 69.1806 2.43003C69.552 2.28747 69.904 2.64948 70.2367 3.51604C70.3006 3.68252 70.3646 3.86854 70.4288 4.07408C70.9054 2.30429 71.5918 1.24734 72.4883 0.903234C72.642 0.844244 72.7744 0.844825 72.8857 0.904975C72.991 0.962494 73.0642 1.04462 73.1051 1.15133L73.1174 1.18335C73.1901 1.44931 73.131 1.76097 72.94 2.11835Z" fill="#FC9C03"/>
<path d="M65.954 11.096C66.4449 10.9076 66.7677 10.5364 66.9224 9.98231C67.0797 9.42236 67.1236 8.91815 67.0543 8.46966C66.9877 8.01527 66.9208 7.66873 66.8536 7.43002C66.814 7.2885 66.7688 7.15158 66.718 7.01924C66.6377 6.81007 66.5433 6.60877 66.4348 6.41534C66.1465 5.89416 65.8387 5.5642 65.5111 5.42545C65.1879 5.28506 64.8918 5.26648 64.6228 5.36971C64.2514 5.51227 64.1285 5.80436 64.2539 6.24598C64.2863 6.35598 64.3189 6.45367 64.3517 6.53904C64.3828 6.62015 64.4133 6.68681 64.4432 6.73903C64.4914 6.81358 64.5302 6.88928 64.5597 6.96611C64.5712 6.996 64.5805 7.0267 64.5877 7.05822C64.6906 7.41546 64.5563 7.66536 64.1849 7.80791C63.7863 7.89235 63.4994 7.70619 63.324 7.24943L63.3118 7.21741C63.1314 7.84497 63.1675 8.60251 63.4201 9.49003C63.4525 9.60003 63.4892 9.70839 63.5302 9.8151C63.6891 10.2292 63.908 10.5762 64.1868 10.856C64.6265 11.2995 65.2155 11.3795 65.954 11.096ZM66.2761 12.5666C65.2942 12.9435 64.4439 12.91 63.7249 12.466C63.1306 12.0917 62.7117 11.6574 62.4681 11.1632C62.312 10.8459 62.1873 10.5657 62.0939 10.3223C62.0415 10.1857 61.999 10.0624 61.9666 9.95244C61.8428 9.51509 61.7681 9.05889 61.7425 8.58384C61.7172 8.02049 61.7665 7.47261 61.8903 6.94022C62.0259 6.41308 62.305 6.06841 62.7276 5.90619C62.7597 5.00737 63.2816 4.36378 64.2933 3.97543C64.6135 3.85254 64.9221 3.79529 65.2192 3.80369C65.7471 3.82637 66.221 4.00198 66.641 4.33054C67.0636 4.6532 67.4075 5.04524 67.6728 5.50665C67.8578 5.82258 68.0092 6.13422 68.1272 6.44158C68.1846 6.59098 68.2339 6.73858 68.2751 6.88437C68.4831 7.61756 68.5783 8.36956 68.5607 9.14036C68.5189 10.8559 67.7573 11.998 66.2761 12.5666Z" fill="#FC9C03"/>
<path d="M60.1684 14.9334C59.7287 15.1022 59.2702 15.0945 58.793 14.9103C58.3588 14.7488 58.0068 14.4187 57.7369 13.9198C57.5838 13.6358 57.4458 13.3337 57.3229 13.0135C57.2311 12.7744 57.1476 12.5249 57.0723 12.2648C56.9897 11.9733 56.9093 11.649 56.8311 11.2921C56.6265 11.4099 56.4751 11.4876 56.377 11.5253C56.1038 11.6301 55.8805 11.6546 55.7072 11.5987C55.5474 11.5523 55.4453 11.4715 55.4011 11.3562L55.3888 11.3242C55.2925 10.984 55.5734 10.5995 56.2316 10.1705L56.5799 9.94864C56.4654 9.2677 56.3597 8.50749 56.2628 7.668C56.2155 7.22577 56.1678 6.84001 56.1198 6.5107C56.0348 5.90661 56.1844 5.53082 56.5686 5.38335C56.9955 5.21949 57.2933 5.3574 57.4621 5.79708C57.4801 5.84404 57.496 5.89181 57.5098 5.94041C57.5537 6.08029 57.6019 6.39728 57.6544 6.89138C57.7511 7.6918 57.8517 8.41967 57.9563 9.075C58.7744 8.56506 59.2987 8.26584 59.5292 8.17736C59.8238 8.0643 60.0577 8.03573 60.231 8.09165C60.3705 8.13606 60.4599 8.20949 60.4992 8.31194L60.509 8.33755C60.5333 8.42621 60.5271 8.53142 60.4906 8.65319C60.4067 8.94498 60.1163 9.24746 59.6194 9.56065L58.2006 10.4579C58.3037 10.9816 58.4107 11.4327 58.5218 11.8113C58.5938 12.0628 58.67 12.2931 58.7503 12.5023C58.8126 12.6645 58.878 12.8158 58.9465 12.956C59.2042 13.4742 59.4974 13.6702 59.8261 13.544C60.095 13.4408 60.3404 13.1997 60.5622 12.8206C60.8163 12.3852 61.0671 12.1199 61.3147 12.0249C61.6775 11.8856 61.9204 11.976 62.0433 12.2962C62.0531 12.3218 62.0608 12.3482 62.0664 12.3755C62.1335 12.6142 62.0751 12.9085 61.891 13.2583C61.4341 14.1096 60.8599 14.6679 60.1684 14.9334Z" fill="#FC9C03"/>
<path d="M55.3406 17.1318C54.9778 17.2711 54.7104 17.1166 54.5383 16.6684C54.5186 16.6172 54.4995 16.5609 54.4808 16.4995C54.4258 16.3051 54.3451 15.9418 54.2387 15.4096C54.1324 14.8773 53.9585 14.1947 53.7171 13.3617C53.65 13.123 53.5763 12.8991 53.496 12.6899C53.2617 12.0795 52.9738 11.5973 52.6323 11.2436C52.233 10.8287 51.9053 10.6704 51.6492 10.7687C51.4656 10.8392 51.3109 11.0357 51.1849 11.3583C50.8942 12.1066 50.7111 13.0585 50.6355 14.214C50.5861 14.8893 50.5669 15.4134 50.5778 15.7863C50.6028 17.153 50.6069 17.891 50.5901 18.0003C50.5239 18.4273 50.3477 18.6957 50.0617 18.8055C49.6391 18.9677 49.2659 18.6653 48.942 17.8982C48.8113 17.5958 48.6713 17.2503 48.5222 16.8619C48.2912 16.26 47.9941 15.4287 47.6311 14.3681C47.2723 13.3059 47.086 12.7505 47.0723 12.7019C46.8496 11.9303 46.9602 11.4593 47.4041 11.2888C47.8438 11.1201 48.1874 11.358 48.4348 12.0026L48.4643 12.0794C48.6121 12.5027 48.8924 13.3477 49.3052 14.6145C49.3051 14.257 49.334 13.7708 49.3918 13.156C49.4497 12.5411 49.6088 11.8776 49.8693 11.1654C50.2232 10.2116 50.7074 9.61678 51.3221 9.38082C52.1418 9.06621 52.9273 9.30096 53.6789 10.0851C54.1084 10.5276 54.4326 10.9957 54.6515 11.4896C54.7479 11.7024 54.833 11.9049 54.9067 12.097C55.0034 12.3488 55.0812 12.5834 55.1401 12.8008C55.4608 13.9168 55.6788 14.9058 55.7941 15.7676C55.8973 16.5214 55.7462 16.9761 55.3406 17.1318Z" fill="#FC9C03"/>
<path d="M41.9202 17.2138C43.9523 16.1791 44.7899 15.0372 44.4328 13.7882L44.4107 13.7306C44.314 13.4787 44.1104 13.3438 43.7999 13.3259C43.6157 13.3182 43.4276 13.3512 43.2355 13.425C43.0391 13.5004 42.8396 13.6186 42.637 13.7796C42.2333 14.106 41.958 14.5692 41.8112 15.1692C41.6644 15.7692 41.7007 16.4508 41.9202 17.2138ZM44.8301 20.6224C43.4001 21.1713 42.2398 20.8281 41.3494 19.5929C41.1011 19.2523 40.886 18.845 40.7041 18.3712C40.6238 18.162 40.5501 17.9381 40.483 17.6994C40.2327 16.8306 40.1702 16.0489 40.2954 15.3543C40.4569 14.4352 40.788 13.7155 41.2886 13.1952C41.7935 12.6732 42.3149 12.309 42.8528 12.1026C42.9638 12.06 43.0772 12.0238 43.1931 11.994C43.8597 11.8165 44.4295 11.8402 44.9028 12.065C45.3228 12.2662 45.6156 12.5824 45.7811 13.0135C45.8041 13.0733 45.8249 13.1339 45.8435 13.1953C46.4046 15.1545 45.2592 16.8725 42.4074 18.3492C42.5599 18.6188 42.7237 18.8351 42.8989 18.998C43.3894 19.4465 43.9185 19.5617 44.4863 19.3438C44.9687 19.1586 45.3501 18.7233 45.6306 18.0376C45.9778 17.1942 46.2581 16.7315 46.4716 16.6496C46.6935 16.5644 46.8512 16.6434 46.9446 16.8867C46.9545 16.9123 46.963 16.9409 46.9702 16.9724C47.0593 17.2811 47.0158 17.7165 46.8398 18.2788C46.7108 18.6956 46.5386 19.0825 46.323 19.4396C46.0022 19.9692 45.5046 20.3635 44.8301 20.6224Z" fill="#FC9C03"/>
<path d="M31.1274 26.0733C30.8328 26.1864 30.5629 26.0892 30.3175 25.7817C30.1916 25.6195 30.036 25.2972 29.8509 24.8148C29.5756 24.0976 29.2347 23.031 28.8282 21.6148C28.5148 20.5303 28.2661 19.6144 28.0821 18.8671C27.9157 18.1914 28.061 17.7658 28.5177 17.5905C28.9147 17.4381 29.2066 17.6053 29.3934 18.0919C29.4147 18.1474 29.4355 18.208 29.4558 18.2736L30.3956 21.6597C30.4664 20.8489 30.5264 20.2651 30.5755 19.9083C30.8088 18.1682 31.3053 17.1523 32.0651 16.8606C32.2829 16.7771 32.5302 16.758 32.8073 16.8035C33.3335 16.8856 33.7855 17.17 34.1633 17.6568C34.2902 16.9028 34.5067 16.2736 34.8126 15.7693C35.1212 15.259 35.5039 14.9162 35.9607 14.7408C36.0716 14.6982 36.1875 14.6684 36.3084 14.6514C36.8701 14.5583 37.3621 14.7171 37.7843 15.1281C38.2049 15.5348 38.5398 16.0307 38.7889 16.6159C38.8777 16.8218 38.9607 17.0251 39.0377 17.2257C39.1786 17.5928 39.2964 17.9443 39.391 18.2802C39.638 19.1405 39.8104 19.9853 39.9084 20.8146C40.0317 22.0162 39.8479 22.7112 39.3569 22.8996C39.2075 22.957 39.0583 22.9383 38.9094 22.8437C38.783 22.7697 38.6846 22.641 38.6142 22.4574C38.5994 22.419 38.586 22.3776 38.5739 22.3333C38.5277 22.1747 38.4997 21.9871 38.49 21.7704C38.4545 20.9123 38.3036 20.0151 38.0373 19.079C37.9207 18.6732 37.7764 18.2461 37.6043 17.7979C37.4323 17.3497 37.2364 16.9351 37.0167 16.5542C36.7954 16.1689 36.595 16.0107 36.4158 16.0796C36.1169 16.1943 35.8965 16.5066 35.7543 17.0167C35.6148 17.5209 35.5226 18.0974 35.4779 18.7464C35.4358 19.3895 35.4597 20.0195 35.5495 20.6364C35.6502 21.3324 35.714 21.9324 35.7409 22.4363C35.7624 22.722 35.7467 22.9875 35.6941 23.2331C35.6397 23.4743 35.4866 23.6433 35.2348 23.7399C34.8677 23.8809 34.6121 23.8467 34.4681 23.6375C34.3799 23.5097 34.3088 23.3754 34.2547 23.2346C34.235 23.1833 34.2175 23.1313 34.2021 23.0784C34.1219 22.8056 34.0643 22.426 34.0295 21.9398C33.9833 21.2964 33.9011 20.7696 33.7829 20.3595C33.7318 20.1881 33.65 19.9623 33.5376 19.6822C33.4295 19.4005 33.268 19.0755 33.0532 18.7074C32.8368 18.335 32.6432 18.1815 32.4725 18.2471C32.0498 18.4093 31.7902 19.4298 31.6934 21.3085C31.6554 22.0773 31.6401 22.688 31.6474 23.1408L31.672 24.5639C31.676 25.4292 31.4945 25.9324 31.1274 26.0733Z" fill="#FC9C03"/>
<path d="M27.503 23.6741L23.5345 25.1828C22.9838 25.3941 22.643 25.3291 22.5119 24.9876L22.4873 24.9235C22.3723 24.522 22.6222 24.1714 23.237 23.8717C23.9013 23.5481 24.5728 23.2561 25.2516 22.9956C25.8663 22.7596 26.4908 22.5492 27.1252 22.3645C27.7221 22.1844 28.0894 22.2736 28.2271 22.6321L28.2516 22.6962C28.3672 23.1122 28.1177 23.4382 27.503 23.6741Z" fill="#FC9C03"/>
<path d="M21.983 21.6784C21.8939 21.8546 21.7779 22.0437 21.635 22.2455C20.5752 23.7591 20.1697 24.9482 20.4183 25.8128C20.7203 26.8674 20.8885 27.4396 20.9229 27.5292C21.1457 28.1098 21.2676 28.4401 21.2886 28.5202C21.5119 29.3063 21.3782 29.7935 20.8873 29.982C20.4561 30.1475 20.0865 29.8289 19.7785 29.0264L19.7686 29.0008C19.5894 28.5211 19.3298 27.8003 18.9901 26.8385C18.4785 25.4039 18.1475 24.4266 17.9968 23.9065C17.6827 22.8075 17.7583 22.1687 18.2236 21.9901C18.595 21.8475 18.947 22.2095 19.2796 23.0761C19.3435 23.2426 19.4076 23.4286 19.4718 23.6341C19.9483 21.8644 20.6348 20.8074 21.5312 20.4633C21.6849 20.4043 21.8174 20.4049 21.9286 20.465C22.034 20.5226 22.1071 20.6047 22.1481 20.7114L22.1604 20.7434C22.2331 21.0094 22.174 21.321 21.983 21.6784Z" fill="#FC9C03"/>
<path d="M17.9769 31.2023C17.5628 31.3612 17.097 30.8813 16.5793 29.7625C16.3813 29.3487 16.1947 28.9134 16.0193 28.4567C15.939 28.2475 15.8622 28.0346 15.7888 27.8179C15.8451 30.5292 15.2607 32.12 14.0356 32.5903C13.4806 32.8033 12.9985 32.7851 12.5893 32.5356C12.1844 32.2846 11.8547 31.9042 11.6003 31.3945C11.4606 31.12 11.3359 30.8397 11.2261 30.5537C11.1327 30.3104 11.05 30.063 10.9779 29.8115C10.6606 28.7039 10.4693 27.5039 10.4042 26.2114C10.3669 25.4764 10.5447 25.0335 10.9374 24.8827C11.296 24.7451 11.5564 24.8876 11.7186 25.3102C11.7382 25.3614 11.7566 25.4156 11.7736 25.4727C11.8051 25.5929 11.8278 25.7287 11.8418 25.88C11.9375 27.1755 12.1396 28.3591 12.4481 29.4308C12.5306 29.7224 12.6153 29.9813 12.7022 30.2075C13.0201 31.0357 13.354 31.3826 13.7041 31.2482C14.1651 31.0712 14.458 30.1947 14.5828 28.6187C14.6897 27.2896 14.6794 25.7507 14.5519 24.0022C14.4952 23.3187 14.6568 22.904 15.0368 22.7582C15.4252 22.6091 15.7104 22.7714 15.8923 23.2452C15.9119 23.2965 15.9303 23.3507 15.9473 23.4078C16.4655 25.1533 16.9712 26.6685 17.4644 27.9534C17.7119 28.598 17.9559 29.1826 18.1965 29.7074L18.2432 29.8291C18.2743 29.9102 18.3009 29.9857 18.3228 30.0556C18.4977 30.6644 18.3824 31.0466 17.9769 31.2023Z" fill="#FC9C03"/>
<path d="M5.99559 34.229C6.47796 34.0439 6.86848 33.747 7.16716 33.3385C7.47011 32.9283 7.69234 32.461 7.83385 31.9365C7.97963 31.4104 8.04827 30.8746 8.03976 30.3294C8.03389 29.7782 7.9625 29.2668 7.82559 28.7953C7.78104 28.641 7.73255 28.4955 7.68012 28.3589C7.44088 27.7357 7.11142 27.2793 6.69174 26.9898C6.26615 26.6977 5.81216 26.6442 5.32979 26.8294C4.91572 26.9883 4.62861 27.2675 4.46848 27.6669C4.3067 28.0621 4.27969 28.4447 4.38745 28.8147C4.6069 29.5778 4.54374 30.0257 4.19796 30.1584C3.89488 30.2748 3.52765 30.09 3.09628 29.6042C2.93688 30.3756 3.03765 31.3972 3.39857 32.6693C3.42216 32.7435 3.44706 32.8147 3.47328 32.883C3.58962 33.1861 3.76441 33.4692 3.99765 33.7323C4.23515 33.9938 4.52934 34.1796 4.8802 34.2898C5.23533 34.3984 5.60713 34.3781 5.99559 34.229ZM6.39992 35.646C5.84497 35.859 5.32377 35.9366 4.83631 35.8789C4.34884 35.8211 3.90445 35.6586 3.50314 35.3915C3.10609 35.1227 2.76327 34.7718 2.47466 34.339C2.27756 34.0424 2.11101 33.7169 1.975 33.3626C1.91601 33.209 1.86261 33.0507 1.81479 32.8878C1.68607 32.4377 1.59021 31.9455 1.5272 31.4113C1.46846 30.8756 1.45011 30.3365 1.47213 29.7942C1.49416 29.2519 1.56458 28.74 1.68341 28.2584C1.80224 27.7769 1.97191 27.3641 2.19242 27.0198C2.41292 26.6756 2.69393 26.438 3.03543 26.3069C3.27021 26.2167 3.48719 26.2461 3.68636 26.395C4.01785 26.0081 4.40771 25.7287 4.85593 25.5566C5.22305 25.4157 5.62328 25.3355 6.05663 25.3161C6.61407 25.2883 7.10757 25.4 7.53713 25.6515C7.96505 25.8986 8.31872 26.233 8.59814 26.6548C8.80115 26.954 8.96656 27.27 9.09437 27.603C9.14517 27.7353 9.18956 27.8701 9.22755 28.0074C9.541 29.0919 9.60656 30.2324 9.42423 31.4289C9.32994 32.0381 9.16049 32.6174 8.91588 33.1668C8.37834 34.3821 7.53968 35.2085 6.39992 35.646Z" fill="#FC9C03"/>
<path d="M79.7842 23.0831C82.4196 27.5368 83.6599 32.8944 79.786 33.6208C76.5403 34.2294 76.482 27.9009 79.7842 23.0831Z" fill="#FC9C03"/>
<path d="M73.4683 16.0693C72.9872 16.0092 72.5484 16.3504 72.4882 16.8315C72.4281 17.3127 72.7694 17.7514 73.2505 17.8116L73.4683 16.0693ZM79.786 33.6208L79.6242 32.7579L79.6242 32.7579L79.786 33.6208ZM105.295 26.5961C105.779 26.5687 106.149 26.154 106.122 25.67L105.675 17.7814C105.648 17.2973 105.233 16.9271 104.749 16.9545C104.265 16.9819 103.895 17.3965 103.922 17.8806L104.319 24.8927L97.3073 25.2896C96.8232 25.317 96.453 25.7316 96.4804 26.2157C96.5078 26.6998 96.9224 27.07 97.4065 27.0426L105.295 26.5961ZM73.2505 17.8116C73.9266 17.8961 74.8864 18.4601 75.9822 19.5369C77.0448 20.5812 78.1185 21.9921 79.0286 23.5302L80.5397 22.636C79.5682 20.9943 78.4047 19.4558 77.2129 18.2846C76.0543 17.146 74.7426 16.2286 73.4683 16.0693L73.2505 17.8116ZM79.0286 23.5302C80.3132 25.7011 81.2103 28.02 81.3508 29.8181C81.4209 30.7145 81.296 31.3928 81.0294 31.8567C80.7837 32.2843 80.3686 32.6183 79.6242 32.7579L79.9478 34.4837C81.1404 34.2601 82.0228 33.652 82.5518 32.7315C83.0598 31.8474 83.1865 30.7718 83.1013 29.6813C82.9313 27.5056 81.8905 24.9188 80.5397 22.636L79.0286 23.5302ZM79.6242 32.7579C79.3576 32.8079 79.1758 32.7785 79.049 32.727C78.922 32.6754 78.7933 32.5785 78.67 32.4033C78.4066 32.0291 78.211 31.3522 78.2075 30.3837C78.2007 28.4709 78.9478 25.8562 80.5083 23.5794L79.06 22.5867C77.3183 25.1279 76.4435 28.0863 76.4517 30.39C76.4558 31.5298 76.6769 32.622 77.2341 33.4138C77.5211 33.8216 77.9037 34.1569 78.3882 34.3537C78.873 34.5506 79.403 34.5858 79.9478 34.4837L79.6242 32.7579ZM80.5083 23.5794C82.3102 20.9505 85.1333 18.8553 89.0219 18.7491C92.9413 18.6421 98.1361 20.5488 104.661 26.3744L105.83 25.0647C99.1331 19.0852 93.5189 16.8699 88.974 16.994C84.3983 17.1189 81.1016 19.6081 79.06 22.5867L80.5083 23.5794Z" fill="#4B5563"/>
</svg>
