<svg width="96" height="128" viewBox="0 0 96 128" fill="none" xmlns="http://www.w3.org/2000/svg">
<path d="M16.9825 100.592C16.4374 100.592 15.9146 100.808 15.5292 101.194C15.1438 101.579 14.9272 102.102 14.9272 102.647C14.9272 103.192 15.1438 103.715 15.5292 104.1C15.9146 104.486 16.4374 104.702 16.9825 104.702C20.649 104.702 23.4688 107.456 23.4688 110.868C23.4688 114.28 20.649 117.034 16.9825 117.034C16.4374 117.034 15.9146 117.25 15.5292 117.636C15.1438 118.021 14.9272 118.544 14.9272 119.089C14.9272 119.634 15.1438 120.157 15.5292 120.542C15.9146 120.927 16.4374 121.144 16.9825 121.144C22.7741 121.144 27.5793 116.569 27.5793 110.868C27.5793 105.167 22.77 100.592 16.9825 100.592Z" fill="#E9EDED"/>
<path fill-rule="evenodd" clip-rule="evenodd" d="M91.2493 28.6628V117.038C91.2493 120.449 88.4994 123.203 85.0836 123.203H11.0953C7.68358 123.203 4.92957 120.449 4.92957 117.038V10.1657C4.92957 6.7499 7.68358 4 11.0953 4H66.5865L91.2493 28.6628Z" fill="white" stroke="#111827" stroke-width="8" stroke-linecap="round" stroke-linejoin="round"/>
<path d="M6.88562 117.038V100.485H89.3158V117.038C89.3158 119.383 87.4401 121.259 85.0949 121.259H11.1065C8.76129 121.259 6.88562 119.383 6.88562 117.038Z" fill="#111827" stroke="#111827" stroke-width="8"/>
<path d="M91.2431 28.6628H72.746C69.3343 28.6628 66.5803 25.9088 66.5803 22.4971V4" fill="#111827"/>
<path d="M91.2431 28.6628H72.746C69.3343 28.6628 66.5803 25.9088 66.5803 22.4971V4" stroke="#111827" stroke-width="8" stroke-linecap="round" stroke-linejoin="round"/>
<path fill-rule="evenodd" clip-rule="evenodd" d="M24.7266 28.7056C24.4693 28.7191 24.217 28.7856 23.9841 28.9013C23.7513 29.0171 23.5425 29.1798 23.3696 29.3802C23.0205 29.7849 22.839 30.3185 22.8649 30.8635C22.8909 31.4086 23.1223 31.9206 23.5082 32.2867C23.8941 32.6529 24.4028 32.8433 24.9226 32.816H36.8441C37.3639 32.816 37.8623 32.5995 38.2298 32.2141C38.5973 31.8286 38.8038 31.3059 38.8038 30.7608C38.8038 30.2157 38.5973 29.693 38.2298 29.3075C37.8623 28.9221 37.3639 28.7056 36.8441 28.7056H24.9265C24.8599 28.702 24.7932 28.702 24.7266 28.7056ZM24.7266 36.9265C24.2069 36.9537 23.7187 37.1964 23.3696 37.6011C23.0205 38.0058 22.839 38.5394 22.8649 39.0845C22.8909 39.6296 23.1223 40.1415 23.5082 40.5076C23.8941 40.8738 24.4028 41.0642 24.9226 41.0369H52.5487C53.0684 41.0369 53.5669 40.8204 53.9344 40.435C54.3019 40.0496 54.5083 39.5268 54.5083 38.9817C54.5083 38.4366 54.3019 37.9139 53.9344 37.5284C53.5669 37.143 53.0684 36.9265 52.5487 36.9265H24.9226C24.8573 36.9231 24.7919 36.9231 24.7266 36.9265ZM24.7266 49.2579C24.2069 49.2851 23.7187 49.5278 23.3696 49.9325C23.0205 50.3372 22.839 50.8708 22.8649 51.4159C22.8909 51.9609 23.1223 52.4729 23.5082 52.839C23.8941 53.2052 24.4028 53.3956 24.9226 53.3683H32.9523C33.472 53.3683 33.9705 53.1518 34.338 52.7664C34.7055 52.3809 34.9119 51.8582 34.9119 51.3131C34.9119 50.768 34.7055 50.2453 34.338 49.8598C33.9705 49.4744 33.472 49.2579 32.9523 49.2579H24.9226C24.8573 49.2544 24.7919 49.2544 24.7266 49.2579ZM40.5949 49.2579C40.0752 49.2851 39.5871 49.5278 39.2379 49.9325C38.8888 50.3372 38.7073 50.8708 38.7332 51.4159C38.7592 51.9609 38.9906 52.4729 39.3765 52.839C39.7624 53.2052 40.2711 53.3956 40.7909 53.3683H44.7101C45.2299 53.3683 45.7283 53.1518 46.0958 52.7664C46.4633 52.3809 46.6698 51.8582 46.6698 51.3131C46.6698 50.768 46.4633 50.2453 46.0958 49.8598C45.7283 49.4744 45.2299 49.2579 44.7101 49.2579H40.7909C40.7256 49.2544 40.6602 49.2544 40.5949 49.2579ZM52.3527 49.2579C51.833 49.2851 51.3449 49.5278 50.9958 49.9325C50.6466 50.3372 50.4651 50.8708 50.4911 51.4159C50.5171 51.9609 50.7484 52.4729 51.1343 52.839C51.5202 53.2052 52.029 53.3956 52.5487 53.3683H70.875C71.3947 53.3683 71.8931 53.1518 72.2606 52.7664C72.6281 52.3809 72.8346 51.8582 72.8346 51.3131C72.8346 50.768 72.6281 50.2453 72.2606 49.8598C71.8931 49.4744 71.3947 49.2579 70.875 49.2579H52.5526C52.486 49.2543 52.4193 49.2543 52.3527 49.2579ZM24.7266 57.4788C24.2069 57.5061 23.7187 57.7487 23.3696 58.1534C23.0205 58.5581 22.839 59.0917 22.8649 59.6368C22.8909 60.1819 23.1223 60.6938 23.5082 61.06C23.8941 61.4261 24.4028 61.6165 24.9226 61.5893H40.7909C41.3106 61.5893 41.809 61.3727 42.1765 60.9873C42.544 60.6019 42.7505 60.0791 42.7505 59.534C42.7505 58.989 42.544 58.4662 42.1765 58.0808C41.809 57.6953 41.3106 57.4788 40.7909 57.4788H24.9226C24.8573 57.4754 24.7919 57.4754 24.7266 57.4788ZM48.4335 57.4788C47.9137 57.5061 47.4256 57.7487 47.0765 58.1534C46.7274 58.5581 46.5458 59.0917 46.5718 59.6368C46.5978 60.1819 46.8292 60.6938 47.215 61.06C47.6009 61.4261 48.1097 61.6165 48.6294 61.5893H52.5487C53.0684 61.5893 53.5669 61.3727 53.9344 60.9873C54.3019 60.6019 54.5083 60.0791 54.5083 59.534C54.5083 58.989 54.3019 58.4662 53.9344 58.0808C53.5669 57.6953 53.0684 57.4788 52.5487 57.4788H48.6294C48.5641 57.4754 48.4987 57.4754 48.4335 57.4788ZM60.1913 57.4788C59.6716 57.5061 59.1834 57.7487 58.8343 58.1534C58.4852 58.5581 58.3037 59.0917 58.3296 59.6368C58.3556 60.1819 58.587 60.6938 58.9729 61.06C59.3588 61.4261 59.8675 61.6165 60.3873 61.5893H70.875C71.3947 61.5893 71.8931 61.3727 72.2606 60.9873C72.6281 60.6019 72.8346 60.0791 72.8346 59.534C72.8346 58.989 72.6281 58.4662 72.2606 58.0808C71.8931 57.6953 71.3947 57.4788 70.875 57.4788H60.3912C60.3246 57.4752 60.2579 57.4752 60.1913 57.4788ZM24.7266 65.6997C24.2069 65.727 23.7187 65.9697 23.3696 66.3744C23.0205 66.7791 22.839 67.3126 22.8649 67.8577C22.8909 68.4028 23.1223 68.9147 23.5082 69.2809C23.8941 69.647 24.4028 69.8374 24.9226 69.8102H48.6294C49.1492 69.8102 49.6476 69.5937 50.0151 69.2082C50.3826 68.8228 50.5891 68.3 50.5891 67.755C50.5891 67.2099 50.3826 66.6871 50.0151 66.3017C49.6476 65.9163 49.1492 65.6997 48.6294 65.6997H24.9226C24.8573 65.6963 24.7919 65.6963 24.7266 65.6997ZM56.272 65.6997C55.7523 65.727 55.2642 65.9697 54.915 66.3744C54.5659 66.7791 54.3844 67.3126 54.4104 67.8577C54.4363 68.4028 54.6677 68.9147 55.0536 69.2809C55.4395 69.647 55.9483 69.8374 56.468 69.8102H60.3873C60.907 69.8102 61.4054 69.5937 61.7729 69.2082C62.1404 68.8228 62.3469 68.3 62.3469 67.755C62.3469 67.2099 62.1404 66.6871 61.7729 66.3017C61.4054 65.9163 60.907 65.6997 60.3873 65.6997H56.468C56.4027 65.6963 56.3373 65.6963 56.272 65.6997ZM68.0299 65.6997C67.5101 65.727 67.022 65.9697 66.6729 66.3744C66.3238 66.7791 66.1422 67.3126 66.1682 67.8577C66.1942 68.4028 66.4256 68.9147 66.8114 69.2809C67.1973 69.647 67.7061 69.8374 68.2258 69.8102H70.875C71.3947 69.8102 71.8931 69.5937 72.2606 69.2082C72.6281 68.8228 72.8346 68.3 72.8346 67.755C72.8346 67.2099 72.6281 66.6871 72.2606 66.3017C71.8931 65.9163 71.3947 65.6997 70.875 65.6997H68.2297C68.1632 65.6962 68.0964 65.6962 68.0299 65.6997ZM24.7266 73.9207C24.2069 73.9479 23.7187 74.1906 23.3696 74.5953C23.0205 75 22.839 75.5336 22.8649 76.0786C22.8909 76.6237 23.1223 77.1357 23.5082 77.5018C23.8941 77.868 24.4028 78.0584 24.9226 78.0311H32.9523C33.472 78.0311 33.9705 77.8146 34.338 77.4292C34.7055 77.0437 34.9119 76.521 34.9119 75.9759C34.9119 75.4308 34.7055 74.9081 34.338 74.5226C33.9705 74.1372 33.472 73.9207 32.9523 73.9207H24.9226C24.8573 73.9172 24.7919 73.9172 24.7266 73.9207ZM40.5949 73.9207C40.0752 73.9479 39.5871 74.1906 39.2379 74.5953C38.8888 75 38.7073 75.5336 38.7332 76.0786C38.7592 76.6237 38.9906 77.1357 39.3765 77.5018C39.7624 77.868 40.2711 78.0584 40.7909 78.0311H44.7101C45.2299 78.0311 45.7283 77.8146 46.0958 77.4292C46.4633 77.0437 46.6698 76.521 46.6698 75.9759C46.6698 75.4308 46.4633 74.9081 46.0958 74.5226C45.7283 74.1372 45.2299 73.9207 44.7101 73.9207H40.7909C40.7256 73.9172 40.6602 73.9172 40.5949 73.9207ZM52.3527 73.9207C51.833 73.9479 51.3449 74.1906 50.9958 74.5953C50.6466 75 50.4651 75.5336 50.4911 76.0786C50.5171 76.6237 50.7484 77.1357 51.1343 77.5018C51.5202 77.868 52.029 78.0584 52.5487 78.0311H70.875C71.3947 78.0311 71.8931 77.8146 72.2606 77.4292C72.6281 77.0437 72.8346 76.521 72.8346 75.9759C72.8346 75.4308 72.6281 74.9081 72.2606 74.5226C71.8931 74.1372 71.3947 73.9207 70.875 73.9207H52.5526C52.486 73.9171 52.4193 73.9171 52.3527 73.9207Z" fill="#E9EDED"/>
</svg>
