<svg width="543" height="585" viewBox="0 0 543 585" fill="none" xmlns="http://www.w3.org/2000/svg">
<g filter="url(#filter0_f_391_4262)">
<path d="M148.568 276.503C140.797 296.72 118.132 327.047 107.771 339.684C90.2863 373.982 107.771 384.813 107.771 403.767C107.771 422.722 107.771 428.137 116.513 439.871C125.256 451.604 148.568 458.825 161.196 458.825C171.298 458.825 165.405 476.275 161.196 485L375.868 480.487C393.676 477.779 427.933 469.656 422.493 458.825C415.694 445.286 422.493 438.968 422.493 421.819C422.493 404.67 433.178 406.475 439.978 384.813C446.778 363.151 439.978 360.443 439.978 305.385C439.978 288.236 435.121 276.503 422.493 257.548C409.866 238.594 402.095 213.321 371.011 177.218C339.927 141.115 349.641 151.946 323.414 115.842C297.187 79.7387 287.474 114.037 263.189 132.991C238.905 151.946 235.991 162.777 229.192 172.705C222.392 182.634 215.593 190.757 186.452 205.198C157.311 219.64 158.282 251.23 148.568 276.503Z" fill="#FFCF8C"/>
</g>
<defs>
<filter id="filter0_f_391_4262" x="0" y="0" width="543" height="585" filterUnits="userSpaceOnUse" color-interpolation-filters="sRGB">
<feFlood flood-opacity="0" result="BackgroundImageFix"/>
<feBlend mode="normal" in="SourceGraphic" in2="BackgroundImageFix" result="shape"/>
<feGaussianBlur stdDeviation="50" result="effect1_foregroundBlur_391_4262"/>
</filter>
</defs>
</svg>
