<svg width="115" height="115" viewBox="0 0 115 115" fill="none" xmlns="http://www.w3.org/2000/svg">
<circle cx="1.59722" cy="1.59722" r="1.59722" fill="#2D4FC9"/>
<circle cx="65.4878" cy="1.59722" r="1.59722" fill="#2D4FC9"/>
<circle cx="17.566" cy="1.59722" r="1.59722" fill="#2D4FC9"/>
<circle cx="81.4566" cy="1.59722" r="1.59722" fill="#2D4FC9"/>
<circle cx="33.5425" cy="1.59722" r="1.59722" fill="#2D4FC9"/>
<circle cx="97.4253" cy="1.59722" r="1.59722" fill="#2D4FC9"/>
<circle cx="49.5191" cy="1.59722" r="1.59722" fill="#2D4FC9"/>
<circle cx="113.402" cy="1.59722" r="1.59722" fill="#2D4FC9"/>
<circle cx="1.59722" cy="17.566" r="1.59722" fill="#2D4FC9"/>
<circle cx="65.4878" cy="17.566" r="1.59722" fill="#2D4FC9"/>
<circle cx="17.566" cy="17.566" r="1.59722" fill="#2D4FC9"/>
<circle cx="81.4566" cy="17.566" r="1.59722" fill="#2D4FC9"/>
<circle cx="33.5425" cy="17.566" r="1.59722" fill="#2D4FC9"/>
<circle cx="97.4253" cy="17.566" r="1.59722" fill="#2D4FC9"/>
<circle cx="49.5191" cy="17.566" r="1.59722" fill="#2D4FC9"/>
<circle cx="113.402" cy="17.566" r="1.59722" fill="#2D4FC9"/>
<circle cx="1.59722" cy="33.5425" r="1.59722" fill="#2D4FC9"/>
<circle cx="65.4878" cy="33.5425" r="1.59722" fill="#2D4FC9"/>
<circle cx="17.566" cy="33.5425" r="1.59722" fill="#2D4FC9"/>
<circle cx="81.4566" cy="33.5425" r="1.59722" fill="#2D4FC9"/>
<circle cx="33.5425" cy="33.5425" r="1.59722" fill="#2D4FC9"/>
<circle cx="97.4253" cy="33.5425" r="1.59722" fill="#2D4FC9"/>
<circle cx="49.5191" cy="33.5425" r="1.59722" fill="#2D4FC9"/>
<circle cx="113.402" cy="33.5425" r="1.59722" fill="#2D4FC9"/>
<circle cx="1.59722" cy="49.5113" r="1.59722" fill="#2D4FC9"/>
<circle cx="65.4878" cy="49.5113" r="1.59722" fill="#2D4FC9"/>
<circle cx="17.566" cy="49.5113" r="1.59722" fill="#2D4FC9"/>
<circle cx="81.4566" cy="49.5113" r="1.59722" fill="#2D4FC9"/>
<circle cx="33.5425" cy="49.5113" r="1.59722" fill="#2D4FC9"/>
<circle cx="97.4253" cy="49.5113" r="1.59722" fill="#2D4FC9"/>
<circle cx="49.5191" cy="49.5113" r="1.59722" fill="#2D4FC9"/>
<circle cx="113.402" cy="49.5113" r="1.59722" fill="#2D4FC9"/>
<circle cx="1.59722" cy="65.4878" r="1.59722" fill="#2D4FC9"/>
<circle cx="65.4878" cy="65.4878" r="1.59722" fill="#2D4FC9"/>
<circle cx="17.566" cy="65.4878" r="1.59722" fill="#2D4FC9"/>
<circle cx="81.4566" cy="65.4878" r="1.59722" fill="#2D4FC9"/>
<circle cx="33.5425" cy="65.4878" r="1.59722" fill="#2D4FC9"/>
<circle cx="97.4253" cy="65.4878" r="1.59722" fill="#2D4FC9"/>
<circle cx="49.5191" cy="65.4878" r="1.59722" fill="#2D4FC9"/>
<circle cx="113.402" cy="65.4878" r="1.59722" fill="#2D4FC9"/>
<circle cx="1.59722" cy="81.4566" r="1.59722" fill="#2D4FC9"/>
<circle cx="65.4878" cy="81.4566" r="1.59722" fill="#2D4FC9"/>
<circle cx="17.566" cy="81.4566" r="1.59722" fill="#2D4FC9"/>
<circle cx="81.4566" cy="81.4566" r="1.59722" fill="#2D4FC9"/>
<circle cx="33.5425" cy="81.4566" r="1.59722" fill="#2D4FC9"/>
<circle cx="97.4253" cy="81.4566" r="1.59722" fill="#2D4FC9"/>
<circle cx="49.5191" cy="81.4566" r="1.59722" fill="#2D4FC9"/>
<circle cx="113.402" cy="81.4566" r="1.59722" fill="#2D4FC9"/>
<circle cx="1.59722" cy="97.4332" r="1.59722" fill="#2D4FC9"/>
<circle cx="65.4878" cy="97.4332" r="1.59722" fill="#2D4FC9"/>
<circle cx="17.566" cy="97.4332" r="1.59722" fill="#2D4FC9"/>
<circle cx="81.4566" cy="97.4332" r="1.59722" fill="#2D4FC9"/>
<circle cx="33.5425" cy="97.4332" r="1.59722" fill="#2D4FC9"/>
<circle cx="97.4253" cy="97.4332" r="1.59722" fill="#2D4FC9"/>
<circle cx="49.5191" cy="97.4332" r="1.59722" fill="#2D4FC9"/>
<circle cx="113.402" cy="97.4332" r="1.59722" fill="#2D4FC9"/>
<circle cx="1.59722" cy="113.402" r="1.59722" fill="#2D4FC9"/>
<circle cx="65.4878" cy="113.402" r="1.59722" fill="#2D4FC9"/>
<circle cx="17.566" cy="113.402" r="1.59722" fill="#2D4FC9"/>
<circle cx="81.4566" cy="113.402" r="1.59722" fill="#2D4FC9"/>
<circle cx="33.5425" cy="113.402" r="1.59722" fill="#2D4FC9"/>
<circle cx="97.4253" cy="113.402" r="1.59722" fill="#2D4FC9"/>
<circle cx="49.5191" cy="113.402" r="1.59722" fill="#2D4FC9"/>
<circle cx="113.402" cy="113.402" r="1.59722" fill="#2D4FC9"/>
</svg>
