<svg width="127" height="142" viewBox="0 0 127 142" fill="none" xmlns="http://www.w3.org/2000/svg">
<path d="M66.5085 69.3954L64.666 69.9474C63.447 70.3126 62.8341 72.1747 63.2971 74.1066L76.1162 127.599C76.5792 129.531 77.9427 130.801 79.1617 130.436L81.0041 129.884C82.2232 129.518 82.8361 127.656 82.3731 125.724L69.5539 72.2321C69.091 70.3002 67.7275 69.0302 66.5085 69.3954Z" fill="white"/>
<path d="M49.0008 69.9479L47.1584 69.3959C45.9394 69.0307 44.5759 70.3007 44.1129 72.2326L31.2938 125.725C30.8308 127.657 31.4437 129.519 32.6627 129.884L34.5052 130.436C35.7242 130.801 37.0877 129.531 37.5507 127.599L50.3698 74.1071C50.8328 72.1753 50.2198 70.3131 49.0008 69.9479Z" fill="white"/>
<path d="M16.317 40.6831C15.0075 40.6797 13.7104 40.9654 12.5 41.524C11.2896 42.0826 10.1898 42.9031 9.26376 43.9383C8.33774 44.9735 7.60372 46.2029 7.10385 47.5562C6.60398 48.9094 6.34811 50.3597 6.35092 51.8238V91.5607C6.34782 93.0248 6.60342 94.4752 7.10303 95.8286C7.60264 97.1819 8.33643 98.4116 9.26225 99.447C10.1881 100.482 11.2877 101.303 12.498 101.862C13.7083 102.421 15.0054 102.707 16.3148 102.704H96.9585C98.2678 102.707 99.5647 102.421 100.775 101.862C101.985 101.304 103.085 100.483 104.01 99.4479C104.936 98.4128 105.67 97.1834 106.17 95.8303C106.669 94.4773 106.925 93.0271 106.922 91.5632V51.8263C106.925 50.3624 106.669 48.9123 106.17 47.5592C105.67 46.2061 104.936 44.9766 104.01 43.9415C103.085 42.9064 101.985 42.0858 100.775 41.5271C99.5647 40.9683 98.2678 40.6823 96.9585 40.6855H16.3148L16.317 40.6831ZM98.2387 44.889C100.511 44.889 102.361 46.9573 102.361 49.4979C102.36 50.7199 101.925 51.8915 101.152 52.7556C100.379 53.6197 99.3316 54.1057 98.2387 54.1069C97.1458 54.1057 96.0979 53.6197 95.3251 52.7556C94.5523 51.8915 94.1177 50.7199 94.1166 49.4979C94.1166 46.9573 95.9642 44.889 98.2387 44.889ZM108.757 82.9607V59.4626L120.65 48.4959L120.522 93.1425L108.757 82.9607Z" fill="#111827"/>
<path d="M50.717 24.6686C50.717 31.9423 44.8304 37.8371 37.5697 37.8371C30.3091 37.8371 24.4225 31.9423 24.4225 24.6686C24.4225 17.3949 30.3091 11.5 37.5697 11.5C44.8304 11.5 50.717 17.3949 50.717 24.6686ZM76.9154 26.806C76.9154 32.8989 71.9847 37.8394 65.9018 37.8394C59.8168 37.8394 54.886 32.8989 54.886 26.806C54.886 20.7108 59.8168 15.7726 65.9018 15.7726C71.9847 15.7726 76.9154 20.7108 76.9154 26.806ZM100.784 49.486C100.784 50.2712 100.505 51.0242 100.008 51.5794C99.5119 52.1346 98.8385 52.4464 98.1362 52.4464C97.434 52.4464 96.7605 52.1346 96.264 51.5794C95.7674 51.0242 95.4884 50.2712 95.4884 49.486C95.4884 48.7008 95.7674 47.9478 96.264 47.3926C96.7605 46.8374 97.434 46.5254 98.1362 46.5254C98.8385 46.5254 99.5119 46.8374 100.008 47.3926C100.505 47.9478 100.784 48.7008 100.784 49.486Z" fill="white"/>
</svg>
