<svg width="26" height="14" viewBox="0 0 26 14" fill="none" xmlns="http://www.w3.org/2000/svg">
<path d="M0.148438 1.61734V9.7981C0.148438 12.1217 2.03306 14.0037 4.35999 14.0037H16.5908C17.4562 14.0037 18.1677 13.2932 18.1677 12.429V4.22904C18.1677 1.9054 16.2831 0.0234375 13.9562 0.0234375H1.72537C0.859979 0.0234375 0.148438 0.714769 0.148438 1.55973V1.61734Z" fill="#111827"/>
<path d="M19.5751 10.7156L22.9598 13.673C23.4982 14.1531 24.3444 14.0955 24.8251 13.5578C25.0367 13.3081 25.1521 13.0009 25.1521 12.6936V1.32505C25.1521 0.595314 24.5559 0.0192037 23.8444 0C23.5174 0 23.2098 0.115222 22.979 0.326462L19.5751 3.30303C19.2867 3.55268 19.1328 3.91755 19.1328 4.30162V9.73625C19.1328 10.1011 19.3059 10.466 19.5751 10.7156Z" fill="#111827"/>
</svg>
