<svg width="43" height="25" viewBox="0 0 43 25" fill="none" xmlns="http://www.w3.org/2000/svg">
<g opacity="0.2" clip-path="url(#clip0_4422_36977)">
<path d="M21.5 25C33.3741 25 43 15.3741 43 3.5C43 -8.37412 33.3741 -18 21.5 -18C9.62588 -18 0 -8.37412 0 3.5C0 15.3741 9.62588 25 21.5 25Z" fill="#27D045"/>
<path d="M21.6885 13.713C27.4277 13.713 32.0802 9.06051 32.0802 3.32135C32.0802 -2.41781 27.4277 -7.07031 21.6885 -7.07031C15.9494 -7.07031 11.2969 -2.41781 11.2969 3.32135C11.2969 9.06051 15.9494 13.713 21.6885 13.713Z" stroke="white" stroke-width="2.15"/>
<path d="M12.1874 9.23063L10.5391 15.0715L16.5949 13.3873L16.9174 11.524L12.9757 12.7781L14.0149 9.01562L12.1874 9.23063Z" fill="white"/>
<path d="M12.9062 12.8175C12.9062 12.7817 14.1604 8.625 14.1604 8.625L17.1704 11.4558L12.9062 12.8175Z" fill="#27D045"/>
<path d="M17.1955 -1.82583C16.8296 -1.57196 16.5177 -1.24806 16.2778 -0.872864C16.038 -0.497671 15.8749 -0.0786347 15.798 0.36C15.6188 1.7575 16.4788 3.19084 16.4788 3.19084C17.3512 4.48872 18.3869 5.66896 19.5605 6.7025C20.5871 7.51485 21.7527 8.13406 23.0005 8.53C23.7284 8.8206 24.5246 8.89525 25.2938 8.745C25.9756 8.55784 26.5788 8.1557 27.0138 7.59833C27.1157 7.34476 27.1879 7.08021 27.2288 6.81C27.2698 6.57287 27.2698 6.33046 27.2288 6.09333C27.193 5.8425 24.613 4.66 24.3622 4.73167C24.1113 4.80333 23.8963 5.26917 23.6096 5.66333C23.323 6.0575 23.2155 6.23667 22.9288 6.23667C22.6422 6.23667 21.388 5.735 20.2055 4.66C19.5301 4.07436 19.0022 3.33778 18.6647 2.51C18.6647 2.51 18.8797 2.25917 19.1663 1.865C19.3894 1.62059 19.5493 1.32535 19.6321 1.005C19.6321 0.825834 18.6288 -1.71833 18.378 -1.82583C17.9857 -1.88097 17.5877 -1.88097 17.1955 -1.82583Z" fill="white"/>
</g>
<defs>
<clipPath id="clip0_4422_36977">
<rect width="43" height="43" fill="white" transform="translate(0 -18)"/>
</clipPath>
</defs>
</svg>
