<svg width="78" height="37" viewBox="0 0 78 37" fill="none" xmlns="http://www.w3.org/2000/svg">
<g clip-path="url(#clip0_4422_36955)">
<path d="M39 37C60.5391 37 78 19.5391 78 -2C78 -23.5391 60.5391 -41 39 -41C17.4609 -41 0 -23.5391 0 -2C0 19.5391 17.4609 37 39 37Z" fill="#27D045"/>
<path d="M39.3344 16.5281C49.7449 16.5281 58.1844 8.08869 58.1844 -2.32187C58.1844 -12.7324 49.7449 -21.1719 39.3344 -21.1719C28.9238 -21.1719 20.4844 -12.7324 20.4844 -2.32187C20.4844 8.08869 28.9238 16.5281 39.3344 16.5281Z" stroke="white" stroke-width="2.15"/>
<path d="M22.0994 8.40563L19.1094 19.0006L30.0944 15.9456L30.6793 12.5656L23.5293 14.8406L25.4143 8.01562L22.0994 8.40563Z" fill="white"/>
<path d="M23.4062 14.9019C23.4062 14.8369 25.6812 7.29688 25.6812 7.29688L31.1413 12.4319L23.4062 14.9019Z" fill="#27D045"/>
<path d="M31.1889 -11.6594C30.5253 -11.1988 29.9595 -10.6113 29.5243 -9.93072C29.0892 -9.25014 28.7934 -8.49002 28.6539 -7.69436C28.3289 -5.15936 29.8889 -2.55935 29.8889 -2.55935C31.4713 -0.205056 33.3501 1.93585 35.4789 3.81064C37.3411 5.2842 39.4554 6.40742 41.7189 7.12564C43.0393 7.65278 44.4836 7.78819 45.8789 7.51564C47.1157 7.17615 48.2098 6.44667 48.9989 5.43564C49.1838 4.97567 49.3147 4.4958 49.3889 4.00564C49.4633 3.5755 49.4633 3.13578 49.3889 2.70564C49.3239 2.25064 44.6439 0.105637 44.1889 0.235637C43.7339 0.365637 43.3439 1.21064 42.8239 1.92564C42.3039 2.64064 42.1089 2.96564 41.5889 2.96564C41.0689 2.96564 38.7939 2.05564 36.6489 0.105639C35.4237 -0.956685 34.4662 -2.2928 33.8539 -3.79436C33.8539 -3.79436 34.2439 -4.24936 34.7639 -4.96436C35.1686 -5.40771 35.4586 -5.94325 35.6089 -6.52436C35.6089 -6.84936 33.7889 -11.4644 33.3339 -11.6594C32.6224 -11.7594 31.9004 -11.7594 31.1889 -11.6594Z" fill="white"/>
</g>
<defs>
<clipPath id="clip0_4422_36955">
<rect width="78" height="78" fill="white" transform="translate(0 -41)"/>
</clipPath>
</defs>
</svg>
