<svg width="37" height="55" viewBox="0 0 37 55" fill="none" xmlns="http://www.w3.org/2000/svg">
<g opacity="0.2" clip-path="url(#clip0_4422_36988)">
<path d="M37 74C57.4345 74 74 57.4345 74 37C74 16.5655 57.4345 0 37 0C16.5655 0 0 16.5655 0 37C0 57.4345 16.5655 74 37 74Z" fill="#27D045"/>
<path d="M37.313 54.5714C47.1897 54.5714 55.1964 46.5647 55.1964 36.688C55.1964 26.8113 47.1897 18.8047 37.313 18.8047C27.4363 18.8047 19.4297 26.8113 19.4297 36.688C19.4297 46.5647 27.4363 54.5714 37.313 54.5714Z" stroke="white" stroke-width="2.15"/>
<path d="M20.9695 46.8622L18.1328 56.9139L28.5545 54.0155L29.1094 50.8089L22.3261 52.9672L24.1144 46.4922L20.9695 46.8622Z" fill="white"/>
<path d="M22.2031 53.0353C22.2031 52.9736 24.3615 45.8203 24.3615 45.8203L29.5415 50.692L22.2031 53.0353Z" fill="#27D045"/>
<path d="M29.5879 27.829C28.9583 28.2659 28.4215 28.8233 28.0087 29.469C27.5959 30.1147 27.3152 30.8358 27.1829 31.5906C26.8746 33.9956 28.3546 36.4623 28.3546 36.4623C29.8558 38.6959 31.6382 40.727 33.6579 42.5056C35.4246 43.9036 37.4304 44.9693 39.5779 45.6506C40.8305 46.1508 42.2008 46.2792 43.5245 46.0207C44.6979 45.6986 45.7359 45.0065 46.4845 44.0473C46.6599 43.6109 46.7842 43.1557 46.8546 42.6906C46.9251 42.2826 46.9251 41.8654 46.8546 41.4573C46.7929 41.0256 42.3529 38.9906 41.9212 39.114C41.4896 39.2373 41.1195 40.039 40.6262 40.7173C40.1328 41.3956 39.9479 41.704 39.4546 41.704C38.9612 41.704 36.8028 40.8406 34.7678 38.9906C33.6055 37.9828 32.6971 36.7152 32.1162 35.2906C32.1162 35.2906 32.4862 34.859 32.9796 34.1806C33.3634 33.76 33.6386 33.252 33.7812 32.7006C33.7812 32.3923 32.0545 28.014 31.6229 27.829C30.9478 27.7341 30.2629 27.7341 29.5879 27.829Z" fill="white"/>
</g>
<defs>
<clipPath id="clip0_4422_36988">
<rect width="74" height="74" fill="white"/>
</clipPath>
</defs>
</svg>
