<svg width="43" height="22" viewBox="0 0 43 22" fill="none" xmlns="http://www.w3.org/2000/svg">
<g clip-path="url(#clip0_4422_36966)">
<path d="M21.5 43C33.3741 43 43 33.3741 43 21.5C43 9.62588 33.3741 0 21.5 0C9.62588 0 0 9.62588 0 21.5C0 33.3741 9.62588 43 21.5 43Z" fill="#27D045"/>
<path d="M21.6885 31.713C27.4277 31.713 32.0802 27.0605 32.0802 21.3214C32.0802 15.5822 27.4277 10.9297 21.6885 10.9297C15.9494 10.9297 11.2969 15.5822 11.2969 21.3214C11.2969 27.0605 15.9494 31.713 21.6885 31.713Z" stroke="white" stroke-width="2.15"/>
<path d="M17.1955 16.1742C16.8296 16.428 16.5177 16.7519 16.2778 17.1271C16.038 17.5023 15.8749 17.9214 15.798 18.36C15.6188 19.7575 16.4788 21.1908 16.4788 21.1908C17.3512 22.4887 18.3869 23.669 19.5605 24.7025C20.5871 25.5148 21.7527 26.1341 23.0005 26.53C23.7284 26.8206 24.5246 26.8953 25.2938 26.745C25.9756 26.5578 26.5788 26.1557 27.0138 25.5983C27.1157 25.3448 27.1879 25.0802 27.2288 24.81C27.2698 24.5729 27.2698 24.3305 27.2288 24.0933C27.193 23.8425 24.613 22.66 24.3622 22.7317C24.1113 22.8033 23.8963 23.2692 23.6096 23.6633C23.323 24.0575 23.2155 24.2367 22.9288 24.2367C22.6422 24.2367 21.388 23.735 20.2055 22.66C19.5301 22.0744 19.0022 21.3378 18.6647 20.51C18.6647 20.51 18.8797 20.2592 19.1663 19.865C19.3894 19.6206 19.5493 19.3254 19.6321 19.005C19.6321 18.8258 18.6288 16.2817 18.378 16.1742C17.9857 16.119 17.5877 16.119 17.1955 16.1742Z" fill="white"/>
</g>
<defs>
<clipPath id="clip0_4422_36966">
<rect width="43" height="43" fill="white"/>
</clipPath>
</defs>
</svg>
