<svg width="20" height="20" viewBox="0 0 20 20" fill="none" xmlns="http://www.w3.org/2000/svg">
<path d="M10 20C15.5228 20 20 15.5228 20 10C20 4.47715 15.5228 0 10 0C4.47715 0 0 4.47715 0 10C0 15.5228 4.47715 20 10 20Z" fill="#FDB035"/>
<path d="M14.1406 7.04762L14.1406 7.04758C13.8064 6.66423 13.2399 6.64845 12.8879 7.01653C12.8879 7.01653 12.8879 7.01654 12.8878 7.01655L8.91666 11.1677L7.23721 9.4121L7.2372 9.4121C6.88511 9.04406 6.31863 9.05975 5.98445 9.44315C5.66172 9.81341 5.67314 10.3929 6.0128 10.7479L6.0128 10.7479L8.30443 13.1435C8.30443 13.1435 8.30444 13.1435 8.30444 13.1435C8.6444 13.4989 9.18888 13.4989 9.52884 13.1435C9.52885 13.1435 9.52885 13.1435 9.52886 13.1435L14.1121 8.35239C14.4519 7.99729 14.4632 7.41784 14.1406 7.04762Z" fill="white" stroke="white" stroke-width="0.5"/>
</svg>
