<svg width="590" height="220" viewBox="0 0 590 220" fill="none" xmlns="http://www.w3.org/2000/svg">
<g opacity="0.6">
<path d="M85.0234 104.94L85.0234 143.938" stroke="#AFAFAF" stroke-width="2" stroke-linecap="round"/>
<path d="M118.648 85.3936L85.0222 104.937" stroke="#AFAFAF" stroke-width="2" stroke-linecap="round"/>
<path d="M85.117 104.942L51.2919 85.3985" stroke="#AFAFAF" stroke-width="2" stroke-linecap="round"/>
<path d="M85.4691 65.134C85.1597 64.9553 84.7785 64.9553 84.4691 65.134L50.7209 84.6185C50.4115 84.7971 50.2209 85.1273 50.2209 85.4845V124.454C50.2209 124.811 50.4115 125.141 50.7209 125.32L84.4691 144.804C84.7785 144.983 85.1597 144.983 85.4691 144.804L119.217 125.32C119.527 125.141 119.717 124.811 119.717 124.454V85.4845C119.717 85.1273 119.527 84.7971 119.217 84.6185L85.4691 65.134Z" stroke="#E0E0E0" stroke-width="2" stroke-linejoin="round"/>
<path d="M225.023 104.94L225.023 143.938" stroke="#AFAFAF" stroke-width="2" stroke-linecap="round"/>
<path d="M258.648 85.3936L225.022 104.937" stroke="#AFAFAF" stroke-width="2" stroke-linecap="round"/>
<path d="M225.117 104.942L191.292 85.3985" stroke="#AFAFAF" stroke-width="2" stroke-linecap="round"/>
<path d="M225.469 65.134C225.16 64.9553 224.778 64.9553 224.469 65.134L190.721 84.6185C190.411 84.7971 190.221 85.1273 190.221 85.4845V124.454C190.221 124.811 190.411 125.141 190.721 125.32L224.469 144.804C224.778 144.983 225.16 144.983 225.469 144.804L259.217 125.32C259.527 125.141 259.717 124.811 259.717 124.454V85.4845C259.717 85.1273 259.527 84.7971 259.217 84.6185L225.469 65.134Z" stroke="#E0E0E0" stroke-width="2" stroke-linejoin="round"/>
<path d="M365.023 104.94L365.023 143.938" stroke="#AFAFAF" stroke-width="2" stroke-linecap="round"/>
<path d="M398.648 85.3936L365.022 104.937" stroke="#AFAFAF" stroke-width="2" stroke-linecap="round"/>
<path d="M365.117 104.942L331.292 85.3985" stroke="#AFAFAF" stroke-width="2" stroke-linecap="round"/>
<path d="M365.469 65.134C365.16 64.9553 364.778 64.9553 364.469 65.134L330.721 84.6185C330.411 84.7971 330.221 85.1273 330.221 85.4845V124.454C330.221 124.811 330.411 125.141 330.721 125.32L364.469 144.804C364.778 144.983 365.16 144.983 365.469 144.804L399.217 125.32C399.527 125.141 399.717 124.811 399.717 124.454V85.4845C399.717 85.1273 399.527 84.7971 399.217 84.6185L365.469 65.134Z" stroke="#E0E0E0" stroke-width="2" stroke-linejoin="round"/>
<path d="M505.023 104.94L505.023 143.938" stroke="#AFAFAF" stroke-width="2" stroke-linecap="round"/>
<path d="M538.648 85.3936L505.022 104.937" stroke="#AFAFAF" stroke-width="2" stroke-linecap="round"/>
<path d="M505.117 104.942L471.292 85.3985" stroke="#AFAFAF" stroke-width="2" stroke-linecap="round"/>
<path d="M505.469 65.134C505.16 64.9553 504.778 64.9553 504.469 65.134L470.721 84.6185C470.411 84.7971 470.221 85.1273 470.221 85.4845V124.454C470.221 124.811 470.411 125.141 470.721 125.32L504.469 144.804C504.778 144.983 505.16 144.983 505.469 144.804L539.217 125.32C539.527 125.141 539.717 124.811 539.717 124.454V85.4845C539.717 85.1273 539.527 84.7971 539.217 84.6185L505.469 65.134Z" stroke="#E0E0E0" stroke-width="2" stroke-linejoin="round"/>
<path d="M155.469 24.134C155.16 23.9553 154.778 23.9553 154.469 24.134L120.721 43.6185C120.411 43.7971 120.221 44.1273 120.221 44.4845V83.4536C120.221 83.8108 120.411 84.141 120.721 84.3196L154.469 103.804C154.778 103.983 155.16 103.983 155.469 103.804L189.217 84.3196C189.527 84.141 189.717 83.8108 189.717 83.4536V44.4845C189.717 44.1273 189.527 43.7971 189.217 43.6185L155.469 24.134Z" stroke="#E0E0E0" stroke-width="2" stroke-linejoin="round"/>
<path d="M155.023 63.9397L155.023 102.938" stroke="#AFAFAF" stroke-width="2" stroke-linecap="round"/>
<path d="M188.648 44.3936L155.022 63.9375" stroke="#AFAFAF" stroke-width="2" stroke-linecap="round"/>
<path d="M155.117 63.9424L121.292 44.3985" stroke="#AFAFAF" stroke-width="2" stroke-linecap="round"/>
<path d="M295.023 63.9397L295.023 102.938" stroke="#AFAFAF" stroke-width="2" stroke-linecap="round"/>
<path d="M328.648 44.3936L295.022 63.9375" stroke="#AFAFAF" stroke-width="2" stroke-linecap="round"/>
<path d="M295.117 63.9424L261.292 44.3985" stroke="#AFAFAF" stroke-width="2" stroke-linecap="round"/>
<path d="M295.469 24.134C295.16 23.9553 294.778 23.9553 294.469 24.134L260.721 43.6185C260.411 43.7971 260.221 44.1273 260.221 44.4845V83.4536C260.221 83.8108 260.411 84.141 260.721 84.3196L294.469 103.804C294.778 103.983 295.16 103.983 295.469 103.804L329.217 84.3196C329.527 84.141 329.717 83.8108 329.717 83.4536V44.4845C329.717 44.1273 329.527 43.7971 329.217 43.6185L295.469 24.134Z" stroke="#E0E0E0" stroke-width="2" stroke-linejoin="round"/>
<path d="M435.023 63.9397L435.023 102.938" stroke="#AFAFAF" stroke-width="2" stroke-linecap="round"/>
<path d="M468.648 44.3936L435.022 63.9375" stroke="#AFAFAF" stroke-width="2" stroke-linecap="round"/>
<path d="M435.117 63.9424L401.292 44.3985" stroke="#AFAFAF" stroke-width="2" stroke-linecap="round"/>
<path d="M435.469 24.134C435.16 23.9553 434.778 23.9553 434.469 24.134L400.721 43.6185C400.411 43.7971 400.221 44.1273 400.221 44.4845V83.4536C400.221 83.8108 400.411 84.141 400.721 84.3196L434.469 103.804C434.778 103.983 435.16 103.983 435.469 103.804L469.217 84.3196C469.527 84.141 469.717 83.8108 469.717 83.4536V44.4845C469.717 44.1273 469.527 43.7971 469.217 43.6185L435.469 24.134Z" stroke="#E0E0E0" stroke-width="2" stroke-linejoin="round"/>
<path d="M155.023 145.94L155.023 184.938" stroke="#AFAFAF" stroke-width="2" stroke-linecap="round"/>
<path d="M188.648 126.394L155.022 145.937" stroke="#AFAFAF" stroke-width="2" stroke-linecap="round"/>
<path d="M155.117 145.942L121.292 126.399" stroke="#AFAFAF" stroke-width="2" stroke-linecap="round"/>
<path d="M155.469 106.134C155.16 105.955 154.778 105.955 154.469 106.134L120.721 125.619C120.411 125.797 120.221 126.127 120.221 126.485V165.454C120.221 165.811 120.411 166.141 120.721 166.32L154.469 185.804C154.778 185.983 155.16 185.983 155.469 185.804L189.217 166.32C189.527 166.141 189.717 165.811 189.717 165.454V126.485C189.717 126.127 189.527 125.797 189.217 125.619L155.469 106.134Z" stroke="#E0E0E0" stroke-width="2" stroke-linejoin="round"/>
<path d="M295.023 145.94L295.023 184.938" stroke="#AFAFAF" stroke-width="2" stroke-linecap="round"/>
<path d="M328.648 126.394L295.022 145.937" stroke="#AFAFAF" stroke-width="2" stroke-linecap="round"/>
<path d="M295.117 145.942L261.292 126.399" stroke="#AFAFAF" stroke-width="2" stroke-linecap="round"/>
<path d="M295.469 106.134C295.16 105.955 294.778 105.955 294.469 106.134L260.721 125.619C260.411 125.797 260.221 126.127 260.221 126.485V165.454C260.221 165.811 260.411 166.141 260.721 166.32L294.469 185.804C294.778 185.983 295.16 185.983 295.469 185.804L329.217 166.32C329.527 166.141 329.717 165.811 329.717 165.454V126.485C329.717 126.127 329.527 125.797 329.217 125.619L295.469 106.134Z" stroke="#E0E0E0" stroke-width="2" stroke-linejoin="round"/>
<path d="M435.023 145.94L435.023 184.938" stroke="#AFAFAF" stroke-width="2" stroke-linecap="round"/>
<path d="M468.648 126.394L435.022 145.937" stroke="#AFAFAF" stroke-width="2" stroke-linecap="round"/>
<path d="M435.117 145.942L401.292 126.399" stroke="#AFAFAF" stroke-width="2" stroke-linecap="round"/>
<path d="M435.469 106.134C435.16 105.955 434.778 105.955 434.469 106.134L400.721 125.619C400.411 125.797 400.221 126.127 400.221 126.485V165.454C400.221 165.811 400.411 166.141 400.721 166.32L434.469 185.804C434.778 185.983 435.16 185.983 435.469 185.804L469.217 166.32C469.527 166.141 469.717 165.811 469.717 165.454V126.485C469.717 126.127 469.527 125.797 469.217 125.619L435.469 106.134Z" stroke="#E0E0E0" stroke-width="2" stroke-linejoin="round"/>
</g>
<path d="M0 0H590V196C590 209.255 579.255 220 566 220H24C10.7452 220 0 209.255 0 196V0Z" fill="url(#paint0_linear_6_78)"/>
<defs>
<linearGradient id="paint0_linear_6_78" x1="295" y1="0" x2="295" y2="220" gradientUnits="userSpaceOnUse">
<stop stop-color="white" stop-opacity="0"/>
<stop offset="0.791667" stop-color="white"/>
</linearGradient>
</defs>
</svg>
